G04 EAGLE Gerber RS-274X export*
G75*
%MOMM*%
%FSLAX34Y34*%
%LPD*%
%INBottom Copper*%
%IPPOS*%
%AMOC8*
5,1,8,0,0,1.08239X$1,22.5*%
G01*
%ADD10C,1.879600*%
%ADD11R,2.368000X2.403600*%
%ADD12R,1.000000X1.400000*%
%ADD13R,0.540000X0.600000*%
%ADD14R,1.100000X1.000000*%
%ADD15R,3.600000X2.600000*%
%ADD16R,0.800000X0.600000*%
%ADD17C,1.400000*%
%ADD18C,1.158000*%
%ADD19C,0.706400*%
%ADD20C,0.200000*%
%ADD21C,0.406400*%
%ADD22C,0.508000*%

G36*
X236077Y6716D02*
X236077Y6716D01*
X236150Y6717D01*
X238875Y6999D01*
X238898Y7005D01*
X238922Y7005D01*
X239065Y7044D01*
X244205Y9008D01*
X244254Y9037D01*
X244308Y9056D01*
X244376Y9104D01*
X244396Y9115D01*
X244405Y9124D01*
X244416Y9131D01*
X244420Y9136D01*
X244429Y9142D01*
X248587Y12745D01*
X248624Y12789D01*
X248667Y12826D01*
X248732Y12920D01*
X248743Y12933D01*
X248745Y12939D01*
X248751Y12947D01*
X251427Y17756D01*
X251435Y17778D01*
X251449Y17798D01*
X251499Y17938D01*
X252170Y20611D01*
X252172Y20634D01*
X252185Y20689D01*
X252246Y21124D01*
X252245Y21149D01*
X252253Y21228D01*
X252253Y26757D01*
X252241Y26830D01*
X252239Y26903D01*
X252222Y26949D01*
X252214Y26998D01*
X252179Y27063D01*
X252153Y27132D01*
X252122Y27170D01*
X252099Y27213D01*
X252045Y27264D01*
X251998Y27320D01*
X251956Y27346D01*
X251921Y27380D01*
X251854Y27411D01*
X251791Y27449D01*
X251743Y27461D01*
X251698Y27481D01*
X251625Y27488D01*
X251554Y27505D01*
X251505Y27500D01*
X251455Y27505D01*
X251384Y27488D01*
X251311Y27481D01*
X251266Y27461D01*
X251218Y27450D01*
X251155Y27411D01*
X251088Y27381D01*
X251032Y27334D01*
X251010Y27321D01*
X251000Y27308D01*
X250974Y27287D01*
X248757Y25070D01*
X244743Y23407D01*
X240397Y23407D01*
X236383Y25070D01*
X233310Y28143D01*
X231647Y32157D01*
X231647Y36503D01*
X233310Y40517D01*
X236383Y43590D01*
X240397Y45253D01*
X244743Y45253D01*
X248757Y43590D01*
X250974Y41373D01*
X251034Y41330D01*
X251088Y41280D01*
X251132Y41259D01*
X251173Y41231D01*
X251243Y41209D01*
X251310Y41179D01*
X251359Y41174D01*
X251406Y41160D01*
X251479Y41162D01*
X251553Y41155D01*
X251601Y41166D01*
X251650Y41168D01*
X251719Y41194D01*
X251790Y41210D01*
X251832Y41236D01*
X251878Y41254D01*
X251935Y41300D01*
X251998Y41339D01*
X252029Y41377D01*
X252067Y41408D01*
X252106Y41471D01*
X252153Y41527D01*
X252170Y41573D01*
X252196Y41615D01*
X252213Y41687D01*
X252239Y41756D01*
X252246Y41829D01*
X252252Y41853D01*
X252250Y41870D01*
X252253Y41903D01*
X252253Y52157D01*
X252241Y52230D01*
X252239Y52303D01*
X252222Y52349D01*
X252214Y52398D01*
X252179Y52463D01*
X252153Y52532D01*
X252122Y52570D01*
X252099Y52613D01*
X252045Y52664D01*
X251998Y52720D01*
X251956Y52746D01*
X251921Y52780D01*
X251854Y52811D01*
X251791Y52849D01*
X251743Y52861D01*
X251698Y52881D01*
X251625Y52888D01*
X251554Y52905D01*
X251505Y52900D01*
X251455Y52905D01*
X251384Y52888D01*
X251311Y52881D01*
X251266Y52861D01*
X251218Y52850D01*
X251155Y52811D01*
X251088Y52781D01*
X251032Y52734D01*
X251010Y52721D01*
X251000Y52708D01*
X250974Y52687D01*
X248757Y50470D01*
X244743Y48807D01*
X240397Y48807D01*
X236383Y50470D01*
X233310Y53543D01*
X231647Y57557D01*
X231647Y61903D01*
X233310Y65917D01*
X235369Y67976D01*
X235383Y67996D01*
X235402Y68011D01*
X235454Y68095D01*
X235511Y68174D01*
X235518Y68198D01*
X235531Y68219D01*
X235553Y68314D01*
X235582Y68408D01*
X235581Y68432D01*
X235587Y68456D01*
X235577Y68554D01*
X235574Y68652D01*
X235565Y68675D01*
X235563Y68699D01*
X235523Y68788D01*
X235488Y68880D01*
X235473Y68899D01*
X235463Y68921D01*
X235369Y69036D01*
X226298Y78107D01*
X224599Y79805D01*
X224599Y112515D01*
X224583Y112611D01*
X224574Y112708D01*
X224564Y112731D01*
X224560Y112756D01*
X224514Y112842D01*
X224473Y112930D01*
X224452Y112956D01*
X224445Y112971D01*
X224426Y112988D01*
X224380Y113045D01*
X222774Y114651D01*
X221075Y116349D01*
X221075Y186716D01*
X221059Y186813D01*
X221050Y186910D01*
X221040Y186932D01*
X221036Y186957D01*
X220990Y187043D01*
X220949Y187132D01*
X220928Y187158D01*
X220921Y187172D01*
X220902Y187189D01*
X220856Y187246D01*
X219250Y188852D01*
X217551Y190551D01*
X217551Y207956D01*
X217539Y208029D01*
X217537Y208102D01*
X217520Y208148D01*
X217512Y208197D01*
X217477Y208262D01*
X217451Y208330D01*
X217420Y208369D01*
X217397Y208412D01*
X217343Y208462D01*
X217296Y208519D01*
X217254Y208545D01*
X217219Y208579D01*
X217152Y208609D01*
X217089Y208648D01*
X217041Y208659D01*
X216996Y208680D01*
X216923Y208687D01*
X216852Y208704D01*
X216803Y208699D01*
X216753Y208704D01*
X216682Y208687D01*
X216609Y208680D01*
X216564Y208660D01*
X216516Y208649D01*
X216453Y208610D01*
X216386Y208580D01*
X216330Y208533D01*
X216308Y208520D01*
X216298Y208507D01*
X216272Y208486D01*
X214820Y207033D01*
X214089Y207033D01*
X213993Y207017D01*
X213896Y207008D01*
X213873Y206998D01*
X213848Y206994D01*
X213762Y206948D01*
X213674Y206907D01*
X213648Y206886D01*
X213633Y206879D01*
X213616Y206860D01*
X213559Y206814D01*
X210596Y203850D01*
X171459Y203850D01*
X171454Y203852D01*
X171429Y203851D01*
X171356Y203858D01*
X168085Y203858D01*
X165123Y206820D01*
X165123Y211010D01*
X168085Y213972D01*
X172275Y213972D01*
X175237Y211010D01*
X175237Y209649D01*
X175241Y209625D01*
X175238Y209600D01*
X175260Y209505D01*
X175276Y209408D01*
X175288Y209387D01*
X175294Y209363D01*
X175345Y209279D01*
X175391Y209193D01*
X175409Y209176D01*
X175422Y209155D01*
X175498Y209093D01*
X175569Y209026D01*
X175592Y209016D01*
X175611Y209000D01*
X175702Y208966D01*
X175792Y208925D01*
X175816Y208923D01*
X175839Y208914D01*
X175986Y208900D01*
X206955Y208900D01*
X207028Y208912D01*
X207101Y208914D01*
X207147Y208931D01*
X207196Y208939D01*
X207261Y208974D01*
X207330Y209000D01*
X207368Y209031D01*
X207411Y209054D01*
X207461Y209108D01*
X207518Y209155D01*
X207544Y209197D01*
X207578Y209232D01*
X207608Y209300D01*
X207647Y209362D01*
X207658Y209410D01*
X207679Y209455D01*
X207686Y209528D01*
X207703Y209600D01*
X207698Y209649D01*
X207703Y209698D01*
X207686Y209769D01*
X207679Y209843D01*
X207668Y209866D01*
X207668Y214185D01*
X210630Y217147D01*
X213278Y217147D01*
X213302Y217151D01*
X213327Y217148D01*
X213422Y217170D01*
X213519Y217186D01*
X213540Y217198D01*
X213564Y217204D01*
X213648Y217255D01*
X213734Y217301D01*
X213751Y217319D01*
X213772Y217332D01*
X213834Y217408D01*
X213901Y217479D01*
X213911Y217502D01*
X213927Y217521D01*
X213961Y217612D01*
X214002Y217702D01*
X214004Y217726D01*
X214013Y217749D01*
X214027Y217896D01*
X214027Y245813D01*
X214011Y245909D01*
X214002Y246006D01*
X213992Y246029D01*
X213988Y246054D01*
X213942Y246140D01*
X213901Y246228D01*
X213880Y246254D01*
X213873Y246269D01*
X213854Y246286D01*
X213808Y246343D01*
X210503Y249647D01*
X210503Y269789D01*
X210487Y269885D01*
X210478Y269982D01*
X210468Y270005D01*
X210464Y270030D01*
X210418Y270116D01*
X210377Y270204D01*
X210356Y270230D01*
X210349Y270245D01*
X210330Y270262D01*
X210284Y270319D01*
X208741Y271862D01*
X208661Y271919D01*
X208586Y271981D01*
X208563Y271989D01*
X208542Y272004D01*
X208449Y272032D01*
X208358Y272067D01*
X208325Y272070D01*
X208309Y272075D01*
X208284Y272074D01*
X208211Y272081D01*
X161863Y272081D01*
X160165Y273780D01*
X157924Y276021D01*
X156225Y277719D01*
X156225Y279543D01*
X156209Y279639D01*
X156200Y279736D01*
X156190Y279759D01*
X156186Y279784D01*
X156140Y279870D01*
X156099Y279959D01*
X156078Y279984D01*
X156071Y279999D01*
X156052Y280016D01*
X156006Y280073D01*
X153693Y282385D01*
X153693Y286575D01*
X156655Y289537D01*
X160845Y289537D01*
X163807Y286575D01*
X163807Y282385D01*
X161783Y280362D01*
X161769Y280342D01*
X161750Y280326D01*
X161698Y280243D01*
X161641Y280164D01*
X161634Y280140D01*
X161621Y280119D01*
X161599Y280024D01*
X161570Y279930D01*
X161571Y279906D01*
X161565Y279882D01*
X161575Y279784D01*
X161578Y279686D01*
X161587Y279663D01*
X161589Y279639D01*
X161629Y279550D01*
X161664Y279458D01*
X161679Y279439D01*
X161690Y279417D01*
X161783Y279302D01*
X163735Y277350D01*
X163815Y277293D01*
X163890Y277231D01*
X163913Y277223D01*
X163934Y277208D01*
X164027Y277180D01*
X164118Y277145D01*
X164151Y277142D01*
X164167Y277137D01*
X164192Y277138D01*
X164265Y277131D01*
X169610Y277131D01*
X169682Y277143D01*
X169756Y277145D01*
X169802Y277162D01*
X169851Y277170D01*
X169915Y277205D01*
X169984Y277231D01*
X170022Y277262D01*
X170066Y277285D01*
X170116Y277339D01*
X170173Y277386D01*
X170199Y277428D01*
X170233Y277463D01*
X170263Y277530D01*
X170302Y277593D01*
X170313Y277641D01*
X170334Y277686D01*
X170341Y277759D01*
X170358Y277830D01*
X170353Y277879D01*
X170358Y277929D01*
X170341Y278000D01*
X170334Y278073D01*
X170314Y278118D01*
X170302Y278166D01*
X170264Y278229D01*
X170233Y278296D01*
X170187Y278352D01*
X170174Y278374D01*
X170161Y278384D01*
X170140Y278410D01*
X168909Y279640D01*
X168900Y279736D01*
X168890Y279759D01*
X168886Y279784D01*
X168840Y279870D01*
X168799Y279959D01*
X168778Y279984D01*
X168771Y279999D01*
X168752Y280016D01*
X168706Y280073D01*
X166393Y282385D01*
X166393Y286575D01*
X169355Y289537D01*
X173545Y289537D01*
X176507Y286575D01*
X176507Y282385D01*
X176055Y281934D01*
X176012Y281874D01*
X175962Y281820D01*
X175942Y281776D01*
X175913Y281735D01*
X175892Y281665D01*
X175861Y281598D01*
X175856Y281549D01*
X175842Y281502D01*
X175844Y281429D01*
X175837Y281355D01*
X175848Y281307D01*
X175850Y281258D01*
X175876Y281189D01*
X175892Y281118D01*
X175918Y281076D01*
X175936Y281030D01*
X175982Y280973D01*
X176021Y280910D01*
X176059Y280879D01*
X176090Y280841D01*
X176153Y280802D01*
X176210Y280755D01*
X176256Y280738D01*
X176298Y280712D01*
X176369Y280695D01*
X176438Y280669D01*
X176511Y280662D01*
X176535Y280656D01*
X176552Y280658D01*
X176585Y280655D01*
X179015Y280655D01*
X179088Y280667D01*
X179161Y280669D01*
X179207Y280686D01*
X179256Y280694D01*
X179321Y280729D01*
X179389Y280755D01*
X179428Y280786D01*
X179471Y280809D01*
X179521Y280863D01*
X179578Y280910D01*
X179604Y280952D01*
X179638Y280987D01*
X179668Y281054D01*
X179707Y281117D01*
X179718Y281165D01*
X179739Y281210D01*
X179746Y281283D01*
X179763Y281354D01*
X179758Y281403D01*
X179763Y281453D01*
X179746Y281524D01*
X179739Y281597D01*
X179719Y281642D01*
X179708Y281690D01*
X179669Y281753D01*
X179639Y281820D01*
X179592Y281876D01*
X179579Y281898D01*
X179566Y281908D01*
X179545Y281934D01*
X179093Y282385D01*
X179093Y286575D01*
X182055Y289537D01*
X186245Y289537D01*
X189207Y286575D01*
X189207Y285214D01*
X189211Y285190D01*
X189208Y285165D01*
X189230Y285070D01*
X189246Y284973D01*
X189258Y284952D01*
X189264Y284928D01*
X189315Y284844D01*
X189361Y284758D01*
X189379Y284741D01*
X189392Y284720D01*
X189468Y284658D01*
X189539Y284591D01*
X189562Y284581D01*
X189581Y284565D01*
X189672Y284531D01*
X189762Y284490D01*
X189786Y284488D01*
X189809Y284479D01*
X189956Y284465D01*
X214772Y284465D01*
X219796Y279440D01*
X219856Y279397D01*
X219910Y279347D01*
X219954Y279327D01*
X219995Y279298D01*
X220065Y279277D01*
X220132Y279246D01*
X220181Y279242D01*
X220228Y279227D01*
X220301Y279230D01*
X220375Y279222D01*
X220423Y279234D01*
X220472Y279235D01*
X220541Y279261D01*
X220612Y279278D01*
X220654Y279304D01*
X220700Y279321D01*
X220757Y279368D01*
X220820Y279406D01*
X220851Y279444D01*
X220889Y279476D01*
X220928Y279538D01*
X220975Y279595D01*
X220992Y279641D01*
X221018Y279683D01*
X221035Y279754D01*
X221061Y279823D01*
X221068Y279896D01*
X221074Y279920D01*
X221072Y279937D01*
X221075Y279970D01*
X221075Y301539D01*
X221059Y301635D01*
X221050Y301732D01*
X221040Y301755D01*
X221036Y301780D01*
X220990Y301866D01*
X220949Y301954D01*
X220928Y301980D01*
X220921Y301995D01*
X220902Y302012D01*
X220856Y302069D01*
X219599Y303326D01*
X219519Y303383D01*
X219444Y303445D01*
X219421Y303453D01*
X219400Y303468D01*
X219307Y303496D01*
X219216Y303531D01*
X219183Y303534D01*
X219167Y303539D01*
X219142Y303538D01*
X219069Y303545D01*
X204327Y303545D01*
X204231Y303529D01*
X204134Y303520D01*
X204111Y303510D01*
X204086Y303506D01*
X204000Y303460D01*
X203911Y303419D01*
X203886Y303398D01*
X203871Y303391D01*
X203854Y303372D01*
X203797Y303326D01*
X201485Y301013D01*
X197295Y301013D01*
X194333Y303975D01*
X194333Y308165D01*
X197295Y311127D01*
X201485Y311127D01*
X203797Y308814D01*
X203877Y308757D01*
X203952Y308695D01*
X203975Y308687D01*
X203995Y308672D01*
X204089Y308644D01*
X204180Y308609D01*
X204213Y308606D01*
X204229Y308601D01*
X204254Y308602D01*
X204327Y308595D01*
X221471Y308595D01*
X223320Y306745D01*
X223380Y306703D01*
X223434Y306652D01*
X223478Y306632D01*
X223519Y306603D01*
X223589Y306582D01*
X223656Y306551D01*
X223705Y306547D01*
X223752Y306532D01*
X223825Y306535D01*
X223899Y306527D01*
X223947Y306539D01*
X223996Y306540D01*
X224065Y306566D01*
X224136Y306583D01*
X224178Y306609D01*
X224224Y306626D01*
X224281Y306673D01*
X224344Y306711D01*
X224375Y306749D01*
X224413Y306781D01*
X224452Y306843D01*
X224499Y306900D01*
X224516Y306946D01*
X224542Y306988D01*
X224559Y307059D01*
X224585Y307128D01*
X224592Y307201D01*
X224598Y307225D01*
X224596Y307242D01*
X224599Y307275D01*
X224599Y312969D01*
X224583Y313065D01*
X224574Y313162D01*
X224564Y313185D01*
X224560Y313210D01*
X224514Y313296D01*
X224473Y313384D01*
X224452Y313410D01*
X224445Y313425D01*
X224426Y313442D01*
X224380Y313499D01*
X221853Y316026D01*
X221773Y316083D01*
X221698Y316145D01*
X221675Y316153D01*
X221654Y316168D01*
X221561Y316196D01*
X221470Y316231D01*
X221437Y316234D01*
X221421Y316239D01*
X221396Y316238D01*
X221323Y316245D01*
X204327Y316245D01*
X204231Y316229D01*
X204134Y316220D01*
X204111Y316210D01*
X204086Y316206D01*
X204000Y316160D01*
X203911Y316119D01*
X203886Y316098D01*
X203871Y316091D01*
X203854Y316072D01*
X203797Y316026D01*
X201485Y313713D01*
X197295Y313713D01*
X194333Y316675D01*
X194333Y320865D01*
X197295Y323827D01*
X201485Y323827D01*
X203797Y321514D01*
X203877Y321457D01*
X203952Y321395D01*
X203975Y321387D01*
X203995Y321372D01*
X204089Y321344D01*
X204180Y321309D01*
X204213Y321306D01*
X204229Y321301D01*
X204254Y321302D01*
X204327Y321295D01*
X223725Y321295D01*
X226844Y318175D01*
X226904Y318132D01*
X226958Y318082D01*
X227002Y318062D01*
X227043Y318033D01*
X227113Y318012D01*
X227180Y317981D01*
X227229Y317977D01*
X227276Y317962D01*
X227349Y317965D01*
X227423Y317957D01*
X227471Y317969D01*
X227520Y317970D01*
X227589Y317996D01*
X227660Y318013D01*
X227702Y318039D01*
X227748Y318056D01*
X227805Y318103D01*
X227868Y318141D01*
X227899Y318179D01*
X227937Y318211D01*
X227976Y318273D01*
X228023Y318330D01*
X228040Y318376D01*
X228066Y318418D01*
X228083Y318489D01*
X228109Y318558D01*
X228116Y318631D01*
X228122Y318655D01*
X228120Y318672D01*
X228123Y318705D01*
X228123Y322986D01*
X228107Y323082D01*
X228098Y323179D01*
X228088Y323202D01*
X228084Y323227D01*
X228038Y323313D01*
X227997Y323401D01*
X227976Y323427D01*
X227969Y323442D01*
X227950Y323459D01*
X227904Y323516D01*
X222694Y328726D01*
X222614Y328783D01*
X222539Y328845D01*
X222516Y328853D01*
X222495Y328868D01*
X222402Y328896D01*
X222311Y328931D01*
X222278Y328934D01*
X222262Y328939D01*
X222237Y328938D01*
X222164Y328945D01*
X204327Y328945D01*
X204231Y328929D01*
X204134Y328920D01*
X204111Y328910D01*
X204086Y328906D01*
X204000Y328860D01*
X203911Y328819D01*
X203886Y328798D01*
X203871Y328791D01*
X203854Y328772D01*
X203797Y328726D01*
X201485Y326413D01*
X197295Y326413D01*
X194333Y329375D01*
X194333Y333565D01*
X197295Y336527D01*
X201485Y336527D01*
X203797Y334214D01*
X203877Y334157D01*
X203952Y334095D01*
X203975Y334087D01*
X203995Y334072D01*
X204089Y334044D01*
X204180Y334009D01*
X204213Y334006D01*
X204229Y334001D01*
X204254Y334002D01*
X204327Y333995D01*
X224566Y333995D01*
X233173Y325388D01*
X233173Y321589D01*
X233185Y321516D01*
X233187Y321443D01*
X233204Y321397D01*
X233212Y321348D01*
X233247Y321283D01*
X233273Y321214D01*
X233304Y321176D01*
X233327Y321133D01*
X233381Y321082D01*
X233428Y321026D01*
X233470Y321000D01*
X233505Y320966D01*
X233572Y320935D01*
X233635Y320897D01*
X233683Y320885D01*
X233728Y320865D01*
X233801Y320858D01*
X233872Y320841D01*
X233921Y320846D01*
X233971Y320841D01*
X234042Y320858D01*
X234115Y320865D01*
X234160Y320885D01*
X234208Y320896D01*
X234271Y320935D01*
X234338Y320965D01*
X234394Y321012D01*
X234416Y321025D01*
X234426Y321038D01*
X234452Y321059D01*
X236383Y322990D01*
X240397Y324653D01*
X244743Y324653D01*
X248757Y322990D01*
X250974Y320773D01*
X251034Y320730D01*
X251088Y320680D01*
X251132Y320659D01*
X251173Y320631D01*
X251243Y320609D01*
X251310Y320579D01*
X251359Y320574D01*
X251406Y320560D01*
X251479Y320562D01*
X251553Y320555D01*
X251601Y320566D01*
X251650Y320568D01*
X251719Y320594D01*
X251790Y320610D01*
X251832Y320636D01*
X251878Y320654D01*
X251935Y320700D01*
X251998Y320739D01*
X252029Y320777D01*
X252067Y320808D01*
X252106Y320871D01*
X252153Y320927D01*
X252170Y320973D01*
X252196Y321015D01*
X252213Y321087D01*
X252239Y321156D01*
X252246Y321229D01*
X252252Y321253D01*
X252250Y321270D01*
X252253Y321303D01*
X252253Y331557D01*
X252241Y331630D01*
X252239Y331703D01*
X252222Y331749D01*
X252214Y331798D01*
X252179Y331863D01*
X252153Y331932D01*
X252122Y331970D01*
X252099Y332013D01*
X252045Y332064D01*
X251998Y332120D01*
X251956Y332146D01*
X251921Y332180D01*
X251854Y332211D01*
X251791Y332249D01*
X251743Y332261D01*
X251698Y332281D01*
X251625Y332288D01*
X251554Y332305D01*
X251505Y332300D01*
X251455Y332305D01*
X251384Y332288D01*
X251311Y332281D01*
X251266Y332261D01*
X251218Y332250D01*
X251155Y332211D01*
X251088Y332181D01*
X251032Y332134D01*
X251010Y332121D01*
X251000Y332108D01*
X250974Y332087D01*
X248757Y329870D01*
X244743Y328207D01*
X240397Y328207D01*
X236383Y329870D01*
X233310Y332943D01*
X231647Y336957D01*
X231647Y341303D01*
X233310Y345317D01*
X236383Y348390D01*
X240397Y350053D01*
X244743Y350053D01*
X248757Y348390D01*
X250974Y346173D01*
X251034Y346130D01*
X251088Y346080D01*
X251132Y346059D01*
X251173Y346031D01*
X251243Y346009D01*
X251310Y345979D01*
X251359Y345974D01*
X251406Y345960D01*
X251479Y345962D01*
X251553Y345955D01*
X251601Y345966D01*
X251650Y345968D01*
X251719Y345994D01*
X251790Y346010D01*
X251832Y346036D01*
X251878Y346054D01*
X251935Y346100D01*
X251998Y346139D01*
X252029Y346177D01*
X252067Y346208D01*
X252106Y346271D01*
X252153Y346327D01*
X252170Y346373D01*
X252196Y346415D01*
X252213Y346487D01*
X252239Y346556D01*
X252246Y346629D01*
X252252Y346653D01*
X252250Y346670D01*
X252253Y346703D01*
X252253Y356957D01*
X252241Y357030D01*
X252239Y357103D01*
X252222Y357149D01*
X252214Y357198D01*
X252179Y357263D01*
X252153Y357332D01*
X252122Y357370D01*
X252099Y357413D01*
X252045Y357464D01*
X251998Y357520D01*
X251956Y357546D01*
X251921Y357580D01*
X251854Y357611D01*
X251791Y357649D01*
X251743Y357661D01*
X251698Y357681D01*
X251625Y357688D01*
X251554Y357705D01*
X251505Y357700D01*
X251455Y357705D01*
X251384Y357688D01*
X251311Y357681D01*
X251266Y357661D01*
X251218Y357650D01*
X251155Y357611D01*
X251088Y357581D01*
X251032Y357534D01*
X251010Y357521D01*
X251000Y357508D01*
X250974Y357487D01*
X248757Y355270D01*
X244743Y353607D01*
X240397Y353607D01*
X236383Y355270D01*
X233310Y358343D01*
X231647Y362357D01*
X231647Y366703D01*
X233310Y370717D01*
X236383Y373790D01*
X240397Y375453D01*
X244743Y375453D01*
X248757Y373790D01*
X250974Y371573D01*
X251034Y371530D01*
X251088Y371480D01*
X251132Y371459D01*
X251173Y371431D01*
X251243Y371409D01*
X251310Y371379D01*
X251359Y371374D01*
X251406Y371360D01*
X251479Y371362D01*
X251553Y371355D01*
X251601Y371366D01*
X251650Y371368D01*
X251719Y371394D01*
X251790Y371410D01*
X251832Y371436D01*
X251878Y371454D01*
X251935Y371500D01*
X251998Y371539D01*
X252029Y371577D01*
X252067Y371608D01*
X252106Y371671D01*
X252153Y371727D01*
X252170Y371773D01*
X252196Y371815D01*
X252213Y371887D01*
X252239Y371956D01*
X252246Y372029D01*
X252252Y372053D01*
X252250Y372070D01*
X252253Y372103D01*
X252253Y382357D01*
X252241Y382430D01*
X252239Y382503D01*
X252222Y382549D01*
X252214Y382598D01*
X252179Y382663D01*
X252153Y382732D01*
X252122Y382770D01*
X252099Y382813D01*
X252045Y382864D01*
X251998Y382920D01*
X251956Y382946D01*
X251921Y382980D01*
X251854Y383011D01*
X251791Y383049D01*
X251743Y383061D01*
X251698Y383081D01*
X251625Y383088D01*
X251554Y383105D01*
X251505Y383100D01*
X251455Y383105D01*
X251384Y383088D01*
X251311Y383081D01*
X251266Y383061D01*
X251218Y383050D01*
X251155Y383011D01*
X251088Y382981D01*
X251032Y382934D01*
X251010Y382921D01*
X251000Y382908D01*
X250974Y382887D01*
X248757Y380670D01*
X244743Y379007D01*
X240397Y379007D01*
X236383Y380670D01*
X233310Y383743D01*
X231647Y387757D01*
X231647Y392103D01*
X233310Y396117D01*
X236383Y399190D01*
X240397Y400853D01*
X244743Y400853D01*
X248757Y399190D01*
X250974Y396973D01*
X251034Y396930D01*
X251088Y396880D01*
X251132Y396859D01*
X251173Y396831D01*
X251243Y396809D01*
X251310Y396779D01*
X251359Y396774D01*
X251406Y396760D01*
X251479Y396762D01*
X251553Y396755D01*
X251601Y396766D01*
X251650Y396768D01*
X251719Y396794D01*
X251790Y396810D01*
X251832Y396836D01*
X251878Y396854D01*
X251935Y396900D01*
X251998Y396939D01*
X252029Y396977D01*
X252067Y397008D01*
X252106Y397071D01*
X252153Y397127D01*
X252170Y397173D01*
X252196Y397215D01*
X252213Y397287D01*
X252239Y397356D01*
X252246Y397429D01*
X252252Y397453D01*
X252250Y397470D01*
X252253Y397503D01*
X252253Y406321D01*
X252241Y406393D01*
X252239Y406466D01*
X252222Y406513D01*
X252214Y406561D01*
X252179Y406626D01*
X252153Y406695D01*
X252122Y406733D01*
X252099Y406776D01*
X252045Y406827D01*
X251998Y406884D01*
X251956Y406910D01*
X251921Y406943D01*
X251854Y406974D01*
X251791Y407013D01*
X251743Y407024D01*
X251698Y407044D01*
X251625Y407051D01*
X251554Y407068D01*
X251505Y407063D01*
X251455Y407068D01*
X251384Y407052D01*
X251311Y407044D01*
X251266Y407024D01*
X251218Y407013D01*
X251155Y406974D01*
X251088Y406944D01*
X251032Y406897D01*
X251010Y406884D01*
X251000Y406871D01*
X250974Y406850D01*
X250348Y406224D01*
X248827Y405119D01*
X247153Y404266D01*
X245366Y403685D01*
X244069Y403480D01*
X244069Y414580D01*
X244065Y414604D01*
X244068Y414628D01*
X244045Y414724D01*
X244029Y414821D01*
X244018Y414842D01*
X244012Y414866D01*
X243961Y414949D01*
X243914Y415036D01*
X243897Y415053D01*
X243884Y415073D01*
X243808Y415136D01*
X243736Y415203D01*
X243714Y415213D01*
X243695Y415228D01*
X243604Y415263D01*
X243514Y415303D01*
X243490Y415306D01*
X243467Y415315D01*
X243320Y415329D01*
X242569Y415329D01*
X242569Y415331D01*
X243320Y415331D01*
X243344Y415335D01*
X243368Y415332D01*
X243464Y415355D01*
X243561Y415371D01*
X243582Y415382D01*
X243606Y415388D01*
X243690Y415439D01*
X243776Y415486D01*
X243793Y415503D01*
X243813Y415516D01*
X243876Y415592D01*
X243943Y415664D01*
X243953Y415686D01*
X243968Y415705D01*
X244003Y415797D01*
X244044Y415886D01*
X244046Y415910D01*
X244055Y415933D01*
X244069Y416080D01*
X244069Y427180D01*
X245366Y426975D01*
X247153Y426394D01*
X248827Y425541D01*
X250348Y424436D01*
X250679Y424105D01*
X250733Y424066D01*
X250782Y424019D01*
X250832Y423995D01*
X250877Y423963D01*
X250941Y423943D01*
X251002Y423915D01*
X251057Y423908D01*
X251111Y423892D01*
X251178Y423894D01*
X251244Y423886D01*
X251299Y423898D01*
X251355Y423900D01*
X251417Y423923D01*
X251483Y423938D01*
X251531Y423966D01*
X251583Y423986D01*
X251635Y424028D01*
X251692Y424063D01*
X251729Y424105D01*
X251772Y424140D01*
X251807Y424197D01*
X251851Y424248D01*
X251871Y424300D01*
X251901Y424348D01*
X251916Y424413D01*
X251941Y424475D01*
X251944Y424531D01*
X251956Y424585D01*
X251950Y424652D01*
X251953Y424719D01*
X251935Y424804D01*
X251933Y424828D01*
X251927Y424840D01*
X251922Y424863D01*
X250191Y430270D01*
X250178Y430296D01*
X250171Y430325D01*
X250160Y430342D01*
X250154Y430363D01*
X250082Y430483D01*
X250080Y430487D01*
X250079Y430488D01*
X250078Y430490D01*
X246234Y435637D01*
X246197Y435672D01*
X246168Y435713D01*
X246061Y435803D01*
X246058Y435806D01*
X246057Y435807D01*
X246055Y435808D01*
X240744Y439424D01*
X240698Y439445D01*
X240657Y439474D01*
X240527Y439524D01*
X240523Y439526D01*
X240521Y439526D01*
X240520Y439527D01*
X234321Y441217D01*
X234302Y441219D01*
X234284Y441226D01*
X234137Y441243D01*
X231253Y441293D01*
X231248Y441292D01*
X231239Y441293D01*
X230800Y441292D01*
X230784Y441290D01*
X230752Y441291D01*
X229813Y441229D01*
X229807Y441233D01*
X229735Y441250D01*
X229666Y441276D01*
X229593Y441283D01*
X229569Y441289D01*
X229552Y441287D01*
X229519Y441290D01*
X229393Y441290D01*
X229381Y441288D01*
X228101Y441288D01*
X228100Y441288D01*
X226821Y441286D01*
X226801Y441288D01*
X220767Y441288D01*
X220694Y441276D01*
X220621Y441274D01*
X220575Y441257D01*
X220526Y441249D01*
X220461Y441214D01*
X220393Y441188D01*
X220354Y441157D01*
X220311Y441134D01*
X220261Y441080D01*
X220204Y441033D01*
X220178Y440991D01*
X220144Y440956D01*
X220114Y440889D01*
X220075Y440826D01*
X220064Y440778D01*
X220043Y440733D01*
X220036Y440660D01*
X220019Y440589D01*
X220024Y440540D01*
X220019Y440490D01*
X220036Y440419D01*
X220043Y440346D01*
X220063Y440301D01*
X220074Y440253D01*
X220113Y440190D01*
X220143Y440123D01*
X220190Y440067D01*
X220203Y440045D01*
X220211Y440039D01*
X220214Y440035D01*
X220221Y440029D01*
X220237Y440009D01*
X221015Y439232D01*
X221015Y436985D01*
X221027Y436912D01*
X221029Y436839D01*
X221046Y436793D01*
X221054Y436744D01*
X221089Y436679D01*
X221115Y436611D01*
X221146Y436572D01*
X221169Y436529D01*
X221223Y436479D01*
X221270Y436422D01*
X221312Y436396D01*
X221347Y436362D01*
X221414Y436332D01*
X221477Y436293D01*
X221525Y436282D01*
X221570Y436261D01*
X221643Y436254D01*
X221714Y436237D01*
X221763Y436242D01*
X221813Y436237D01*
X221884Y436254D01*
X221957Y436261D01*
X222002Y436281D01*
X222050Y436292D01*
X222113Y436331D01*
X222180Y436361D01*
X222236Y436408D01*
X222258Y436421D01*
X222268Y436434D01*
X222294Y436455D01*
X223965Y438127D01*
X228155Y438127D01*
X231117Y435165D01*
X231117Y430975D01*
X228155Y428013D01*
X223965Y428013D01*
X222294Y429685D01*
X222234Y429728D01*
X222180Y429778D01*
X222136Y429798D01*
X222095Y429827D01*
X222025Y429848D01*
X221958Y429879D01*
X221909Y429884D01*
X221862Y429898D01*
X221789Y429896D01*
X221715Y429903D01*
X221667Y429892D01*
X221618Y429890D01*
X221549Y429864D01*
X221478Y429848D01*
X221436Y429822D01*
X221390Y429804D01*
X221333Y429758D01*
X221270Y429719D01*
X221239Y429681D01*
X221201Y429650D01*
X221162Y429587D01*
X221115Y429530D01*
X221098Y429484D01*
X221072Y429442D01*
X221055Y429371D01*
X221029Y429302D01*
X221022Y429229D01*
X221016Y429205D01*
X221018Y429188D01*
X221015Y429155D01*
X221015Y427968D01*
X220122Y427075D01*
X217264Y427075D01*
X217240Y427071D01*
X217215Y427074D01*
X217120Y427052D01*
X217023Y427036D01*
X217002Y427024D01*
X216978Y427018D01*
X216894Y426967D01*
X216808Y426921D01*
X216791Y426903D01*
X216770Y426890D01*
X216708Y426814D01*
X216641Y426743D01*
X216631Y426720D01*
X216615Y426701D01*
X216581Y426610D01*
X216540Y426520D01*
X216538Y426496D01*
X216529Y426473D01*
X216515Y426326D01*
X216515Y426304D01*
X215929Y425719D01*
X215887Y425659D01*
X215836Y425605D01*
X215816Y425561D01*
X215787Y425520D01*
X215766Y425450D01*
X215735Y425383D01*
X215731Y425334D01*
X215716Y425287D01*
X215719Y425214D01*
X215711Y425140D01*
X215723Y425092D01*
X215724Y425043D01*
X215750Y424974D01*
X215767Y424903D01*
X215793Y424861D01*
X215810Y424815D01*
X215857Y424758D01*
X215895Y424695D01*
X215933Y424664D01*
X215965Y424626D01*
X216027Y424587D01*
X216084Y424540D01*
X216130Y424523D01*
X216172Y424497D01*
X216243Y424480D01*
X216312Y424454D01*
X216385Y424447D01*
X216409Y424441D01*
X216426Y424443D01*
X216459Y424440D01*
X219377Y424440D01*
X220270Y423547D01*
X220270Y423189D01*
X220274Y423165D01*
X220271Y423140D01*
X220293Y423045D01*
X220309Y422948D01*
X220321Y422927D01*
X220327Y422903D01*
X220378Y422819D01*
X220424Y422733D01*
X220442Y422716D01*
X220455Y422695D01*
X220531Y422633D01*
X220602Y422566D01*
X220625Y422556D01*
X220644Y422540D01*
X220735Y422506D01*
X220825Y422465D01*
X220849Y422463D01*
X220872Y422454D01*
X221019Y422440D01*
X223751Y422440D01*
X227315Y418876D01*
X227315Y412607D01*
X227331Y412511D01*
X227340Y412414D01*
X227350Y412391D01*
X227354Y412366D01*
X227400Y412280D01*
X227441Y412191D01*
X227462Y412166D01*
X227469Y412151D01*
X227488Y412134D01*
X227534Y412077D01*
X229847Y409765D01*
X229847Y405575D01*
X226885Y402613D01*
X222695Y402613D01*
X221415Y403894D01*
X221336Y403951D01*
X221260Y404013D01*
X221237Y404021D01*
X221217Y404036D01*
X221123Y404064D01*
X221032Y404099D01*
X220999Y404102D01*
X220983Y404107D01*
X220958Y404106D01*
X220885Y404113D01*
X203714Y404113D01*
X203617Y404097D01*
X203520Y404088D01*
X203498Y404078D01*
X203473Y404074D01*
X203387Y404028D01*
X203298Y403987D01*
X203272Y403966D01*
X203258Y403959D01*
X203241Y403940D01*
X203184Y403894D01*
X202966Y403676D01*
X202909Y403597D01*
X202847Y403522D01*
X202839Y403498D01*
X202824Y403478D01*
X202796Y403385D01*
X202761Y403293D01*
X202758Y403260D01*
X202753Y403244D01*
X202754Y403219D01*
X202747Y403146D01*
X202747Y390084D01*
X202751Y390060D01*
X202748Y390035D01*
X202770Y389940D01*
X202786Y389843D01*
X202798Y389822D01*
X202804Y389798D01*
X202855Y389714D01*
X202901Y389628D01*
X202919Y389611D01*
X202932Y389590D01*
X203008Y389528D01*
X203079Y389461D01*
X203102Y389451D01*
X203121Y389435D01*
X203212Y389401D01*
X203302Y389360D01*
X203326Y389358D01*
X203349Y389349D01*
X203496Y389335D01*
X203822Y389335D01*
X204715Y388442D01*
X204715Y381178D01*
X203822Y380285D01*
X203496Y380285D01*
X203472Y380281D01*
X203447Y380284D01*
X203352Y380262D01*
X203255Y380246D01*
X203234Y380234D01*
X203210Y380228D01*
X203126Y380177D01*
X203040Y380131D01*
X203023Y380113D01*
X203002Y380100D01*
X202940Y380024D01*
X202873Y379953D01*
X202863Y379930D01*
X202847Y379911D01*
X202813Y379820D01*
X202772Y379730D01*
X202770Y379706D01*
X202761Y379683D01*
X202747Y379536D01*
X202747Y377422D01*
X202685Y377360D01*
X202671Y377340D01*
X202652Y377325D01*
X202625Y377281D01*
X202604Y377259D01*
X202589Y377226D01*
X202543Y377162D01*
X202536Y377139D01*
X202523Y377118D01*
X202505Y377041D01*
X202503Y377036D01*
X202502Y377029D01*
X202501Y377023D01*
X202472Y376929D01*
X202473Y376904D01*
X202468Y376880D01*
X202477Y376783D01*
X202480Y376685D01*
X202489Y376662D01*
X202491Y376637D01*
X202532Y376548D01*
X202566Y376456D01*
X202582Y376437D01*
X202592Y376415D01*
X202685Y376301D01*
X203230Y375757D01*
X203230Y360493D01*
X202337Y359600D01*
X191073Y359600D01*
X190180Y360493D01*
X190180Y375757D01*
X191073Y376650D01*
X192399Y376650D01*
X192423Y376654D01*
X192448Y376651D01*
X192543Y376673D01*
X192640Y376689D01*
X192661Y376701D01*
X192685Y376707D01*
X192769Y376758D01*
X192855Y376804D01*
X192872Y376822D01*
X192893Y376835D01*
X192955Y376911D01*
X193022Y376982D01*
X193032Y377005D01*
X193048Y377024D01*
X193082Y377115D01*
X193123Y377205D01*
X193125Y377229D01*
X193134Y377252D01*
X193148Y377399D01*
X193148Y377883D01*
X194525Y379260D01*
X194539Y379279D01*
X194558Y379295D01*
X194610Y379378D01*
X194667Y379458D01*
X194674Y379481D01*
X194687Y379502D01*
X194709Y379597D01*
X194738Y379691D01*
X194737Y379716D01*
X194742Y379740D01*
X194733Y379837D01*
X194730Y379935D01*
X194721Y379958D01*
X194719Y379983D01*
X194678Y380072D01*
X194644Y380164D01*
X194628Y380183D01*
X194618Y380205D01*
X194525Y380319D01*
X193665Y381178D01*
X193665Y388442D01*
X194558Y389335D01*
X194884Y389335D01*
X194908Y389339D01*
X194933Y389336D01*
X195028Y389358D01*
X195125Y389374D01*
X195146Y389386D01*
X195170Y389392D01*
X195254Y389443D01*
X195340Y389489D01*
X195357Y389507D01*
X195378Y389520D01*
X195440Y389596D01*
X195507Y389667D01*
X195517Y389690D01*
X195533Y389709D01*
X195567Y389800D01*
X195608Y389890D01*
X195610Y389914D01*
X195619Y389937D01*
X195633Y390084D01*
X195633Y393026D01*
X195617Y393122D01*
X195608Y393219D01*
X195598Y393242D01*
X195594Y393266D01*
X195547Y393352D01*
X195507Y393441D01*
X195490Y393460D01*
X195479Y393481D01*
X195407Y393548D01*
X195341Y393620D01*
X195319Y393631D01*
X195301Y393648D01*
X195212Y393689D01*
X195125Y393735D01*
X195101Y393739D01*
X195078Y393749D01*
X194981Y393759D01*
X194885Y393775D01*
X194860Y393771D01*
X194835Y393773D01*
X194740Y393751D01*
X194644Y393735D01*
X194614Y393722D01*
X194598Y393718D01*
X194577Y393705D01*
X194509Y393674D01*
X194056Y393412D01*
X193409Y393239D01*
X191724Y393239D01*
X191724Y398180D01*
X191720Y398204D01*
X191723Y398228D01*
X191701Y398324D01*
X191685Y398421D01*
X191673Y398442D01*
X191667Y398466D01*
X191616Y398549D01*
X191570Y398636D01*
X191552Y398652D01*
X191539Y398673D01*
X191463Y398736D01*
X191417Y398778D01*
X191431Y398786D01*
X191448Y398804D01*
X191469Y398816D01*
X191531Y398892D01*
X191598Y398964D01*
X191608Y398986D01*
X191624Y399005D01*
X191658Y399097D01*
X191699Y399186D01*
X191701Y399210D01*
X191710Y399233D01*
X191724Y399380D01*
X191724Y404321D01*
X193409Y404321D01*
X194056Y404148D01*
X194509Y403886D01*
X194601Y403851D01*
X194690Y403811D01*
X194714Y403808D01*
X194738Y403800D01*
X194835Y403796D01*
X194933Y403787D01*
X194957Y403792D01*
X194982Y403792D01*
X195075Y403820D01*
X195170Y403842D01*
X195191Y403855D01*
X195215Y403862D01*
X195295Y403919D01*
X195378Y403971D01*
X195393Y403990D01*
X195414Y404004D01*
X195471Y404084D01*
X195533Y404159D01*
X195541Y404182D01*
X195556Y404203D01*
X195584Y404296D01*
X195619Y404388D01*
X195622Y404420D01*
X195627Y404436D01*
X195626Y404461D01*
X195633Y404534D01*
X195633Y406403D01*
X200457Y411227D01*
X220885Y411227D01*
X220981Y411243D01*
X221078Y411252D01*
X221101Y411262D01*
X221126Y411266D01*
X221212Y411312D01*
X221301Y411353D01*
X221326Y411374D01*
X221341Y411381D01*
X221358Y411400D01*
X221415Y411446D01*
X222046Y412077D01*
X222103Y412156D01*
X222165Y412232D01*
X222173Y412255D01*
X222188Y412275D01*
X222216Y412369D01*
X222251Y412460D01*
X222254Y412493D01*
X222259Y412509D01*
X222258Y412534D01*
X222265Y412607D01*
X222265Y416474D01*
X222249Y416570D01*
X222240Y416667D01*
X222230Y416690D01*
X222226Y416715D01*
X222180Y416801D01*
X222139Y416889D01*
X222118Y416915D01*
X222111Y416930D01*
X222092Y416947D01*
X222046Y417004D01*
X221879Y417171D01*
X221799Y417228D01*
X221724Y417290D01*
X221701Y417298D01*
X221680Y417313D01*
X221587Y417341D01*
X221496Y417376D01*
X221463Y417379D01*
X221447Y417384D01*
X221422Y417383D01*
X221349Y417390D01*
X221019Y417390D01*
X220995Y417386D01*
X220970Y417389D01*
X220875Y417367D01*
X220778Y417351D01*
X220757Y417339D01*
X220733Y417333D01*
X220649Y417282D01*
X220563Y417236D01*
X220546Y417218D01*
X220525Y417205D01*
X220463Y417129D01*
X220396Y417058D01*
X220386Y417035D01*
X220370Y417016D01*
X220336Y416925D01*
X220295Y416835D01*
X220293Y416811D01*
X220284Y416788D01*
X220270Y416641D01*
X220270Y416283D01*
X219377Y415390D01*
X212713Y415390D01*
X212255Y415849D01*
X212235Y415863D01*
X212219Y415882D01*
X212136Y415934D01*
X212056Y415991D01*
X212033Y415998D01*
X212012Y416011D01*
X211917Y416033D01*
X211823Y416062D01*
X211799Y416061D01*
X211775Y416067D01*
X211677Y416057D01*
X211579Y416054D01*
X211556Y416045D01*
X211532Y416043D01*
X211442Y416003D01*
X211351Y415968D01*
X211332Y415953D01*
X211309Y415943D01*
X211195Y415849D01*
X210737Y415390D01*
X204073Y415390D01*
X203180Y416283D01*
X203180Y423547D01*
X204073Y424440D01*
X204131Y424440D01*
X204155Y424444D01*
X204180Y424441D01*
X204275Y424463D01*
X204372Y424479D01*
X204393Y424491D01*
X204417Y424497D01*
X204501Y424548D01*
X204587Y424594D01*
X204604Y424612D01*
X204625Y424625D01*
X204687Y424701D01*
X204754Y424772D01*
X204764Y424795D01*
X204780Y424814D01*
X204814Y424905D01*
X204826Y424931D01*
X206806Y426911D01*
X206884Y426990D01*
X206899Y427010D01*
X206918Y427025D01*
X206969Y427108D01*
X207026Y427188D01*
X207034Y427212D01*
X207047Y427232D01*
X207069Y427328D01*
X207097Y427421D01*
X207097Y427446D01*
X207102Y427470D01*
X207093Y427567D01*
X207089Y427665D01*
X207081Y427688D01*
X207078Y427713D01*
X207038Y427802D01*
X207004Y427894D01*
X206988Y427913D01*
X206978Y427935D01*
X206965Y427951D01*
X206965Y439232D01*
X207743Y440009D01*
X207786Y440069D01*
X207836Y440123D01*
X207856Y440167D01*
X207885Y440208D01*
X207906Y440278D01*
X207937Y440345D01*
X207942Y440394D01*
X207956Y440441D01*
X207954Y440514D01*
X207961Y440588D01*
X207950Y440636D01*
X207948Y440685D01*
X207922Y440754D01*
X207906Y440825D01*
X207880Y440867D01*
X207862Y440913D01*
X207816Y440970D01*
X207777Y441033D01*
X207739Y441064D01*
X207708Y441102D01*
X207645Y441141D01*
X207588Y441188D01*
X207542Y441205D01*
X207500Y441231D01*
X207429Y441248D01*
X207360Y441274D01*
X207287Y441281D01*
X207263Y441287D01*
X207246Y441285D01*
X207213Y441288D01*
X205169Y441288D01*
X205073Y441272D01*
X204976Y441263D01*
X204953Y441253D01*
X204929Y441249D01*
X204842Y441202D01*
X204754Y441162D01*
X204735Y441145D01*
X204713Y441134D01*
X204647Y441062D01*
X204575Y440996D01*
X204564Y440974D01*
X204547Y440956D01*
X204506Y440867D01*
X204460Y440780D01*
X204456Y440756D01*
X204446Y440733D01*
X204436Y440636D01*
X204420Y440540D01*
X204424Y440515D01*
X204422Y440490D01*
X204444Y440395D01*
X204460Y440299D01*
X204473Y440269D01*
X204477Y440253D01*
X204483Y440243D01*
X204483Y440242D01*
X204491Y440229D01*
X204521Y440164D01*
X204858Y439581D01*
X205031Y438934D01*
X205031Y435099D01*
X197740Y435099D01*
X197716Y435095D01*
X197692Y435098D01*
X197596Y435075D01*
X197499Y435059D01*
X197478Y435048D01*
X197454Y435042D01*
X197371Y434991D01*
X197284Y434944D01*
X197267Y434927D01*
X197247Y434914D01*
X197184Y434838D01*
X197117Y434766D01*
X197107Y434744D01*
X197092Y434725D01*
X197057Y434634D01*
X197016Y434544D01*
X197014Y434520D01*
X197005Y434497D01*
X196991Y434350D01*
X196991Y433599D01*
X196989Y433599D01*
X196989Y434350D01*
X196985Y434374D01*
X196988Y434398D01*
X196965Y434494D01*
X196949Y434591D01*
X196938Y434612D01*
X196932Y434636D01*
X196881Y434719D01*
X196834Y434806D01*
X196817Y434823D01*
X196804Y434843D01*
X196728Y434906D01*
X196656Y434973D01*
X196634Y434983D01*
X196615Y434998D01*
X196524Y435033D01*
X196434Y435074D01*
X196410Y435076D01*
X196387Y435085D01*
X196240Y435099D01*
X188949Y435099D01*
X188949Y438934D01*
X189122Y439581D01*
X189459Y440164D01*
X189494Y440256D01*
X189534Y440345D01*
X189537Y440369D01*
X189545Y440393D01*
X189549Y440490D01*
X189558Y440588D01*
X189553Y440612D01*
X189553Y440637D01*
X189525Y440730D01*
X189503Y440825D01*
X189490Y440846D01*
X189483Y440870D01*
X189426Y440949D01*
X189374Y441033D01*
X189355Y441048D01*
X189341Y441069D01*
X189261Y441125D01*
X189186Y441188D01*
X189163Y441196D01*
X189142Y441211D01*
X189049Y441239D01*
X188958Y441274D01*
X188925Y441277D01*
X188909Y441282D01*
X188884Y441281D01*
X188811Y441288D01*
X25536Y441288D01*
X25465Y441277D01*
X25393Y441275D01*
X25345Y441257D01*
X25295Y441249D01*
X25243Y441221D01*
X24308Y441286D01*
X24291Y441285D01*
X24256Y441288D01*
X23257Y441288D01*
X23234Y441284D01*
X23177Y441284D01*
X20270Y440975D01*
X20246Y440968D01*
X20222Y440968D01*
X20080Y440929D01*
X13772Y438499D01*
X13723Y438470D01*
X13670Y438450D01*
X13576Y438384D01*
X13562Y438376D01*
X13558Y438371D01*
X13549Y438365D01*
X8453Y433924D01*
X8417Y433881D01*
X8374Y433843D01*
X8339Y433793D01*
X8323Y433776D01*
X8314Y433758D01*
X8308Y433749D01*
X8298Y433736D01*
X8296Y433731D01*
X8290Y433722D01*
X5020Y427806D01*
X5012Y427783D01*
X4998Y427763D01*
X4949Y427624D01*
X4133Y424338D01*
X4131Y424314D01*
X4118Y424258D01*
X4024Y423559D01*
X4024Y423535D01*
X4017Y423459D01*
X4017Y421522D01*
X4029Y421449D01*
X4031Y421376D01*
X4048Y421330D01*
X4056Y421281D01*
X4091Y421216D01*
X4117Y421147D01*
X4148Y421109D01*
X4171Y421066D01*
X4225Y421015D01*
X4272Y420959D01*
X4313Y420933D01*
X4349Y420899D01*
X4416Y420868D01*
X4479Y420830D01*
X4527Y420818D01*
X4572Y420798D01*
X4645Y420791D01*
X4716Y420774D01*
X4765Y420779D01*
X4815Y420774D01*
X4886Y420791D01*
X4959Y420798D01*
X5004Y420818D01*
X5052Y420829D01*
X5115Y420868D01*
X5182Y420898D01*
X5238Y420945D01*
X5260Y420958D01*
X5270Y420971D01*
X5296Y420992D01*
X8103Y423799D01*
X12117Y425462D01*
X16463Y425462D01*
X20477Y423799D01*
X23550Y420726D01*
X25213Y416712D01*
X25213Y412366D01*
X23550Y408352D01*
X20477Y405279D01*
X16463Y403616D01*
X12117Y403616D01*
X8103Y405279D01*
X5296Y408086D01*
X5236Y408129D01*
X5182Y408179D01*
X5138Y408200D01*
X5097Y408228D01*
X5027Y408250D01*
X4960Y408280D01*
X4911Y408285D01*
X4864Y408299D01*
X4791Y408297D01*
X4717Y408304D01*
X4669Y408293D01*
X4620Y408291D01*
X4551Y408265D01*
X4480Y408249D01*
X4438Y408223D01*
X4392Y408205D01*
X4335Y408159D01*
X4272Y408120D01*
X4241Y408082D01*
X4203Y408051D01*
X4164Y407988D01*
X4117Y407932D01*
X4100Y407886D01*
X4074Y407844D01*
X4057Y407772D01*
X4031Y407703D01*
X4024Y407630D01*
X4018Y407606D01*
X4020Y407589D01*
X4017Y407556D01*
X4017Y396122D01*
X4029Y396049D01*
X4031Y395976D01*
X4048Y395930D01*
X4056Y395881D01*
X4091Y395816D01*
X4117Y395747D01*
X4148Y395709D01*
X4171Y395666D01*
X4225Y395615D01*
X4272Y395559D01*
X4313Y395533D01*
X4349Y395499D01*
X4416Y395468D01*
X4479Y395430D01*
X4527Y395418D01*
X4572Y395398D01*
X4645Y395391D01*
X4716Y395374D01*
X4765Y395379D01*
X4815Y395374D01*
X4886Y395391D01*
X4959Y395398D01*
X5004Y395418D01*
X5052Y395429D01*
X5115Y395468D01*
X5182Y395498D01*
X5238Y395545D01*
X5260Y395558D01*
X5270Y395571D01*
X5296Y395592D01*
X8103Y398399D01*
X12117Y400062D01*
X16463Y400062D01*
X20477Y398399D01*
X23550Y395326D01*
X25213Y391312D01*
X25213Y386966D01*
X23550Y382952D01*
X20477Y379879D01*
X16463Y378216D01*
X12117Y378216D01*
X8103Y379879D01*
X5296Y382686D01*
X5236Y382729D01*
X5182Y382779D01*
X5138Y382800D01*
X5097Y382828D01*
X5027Y382850D01*
X4960Y382880D01*
X4911Y382885D01*
X4864Y382899D01*
X4791Y382897D01*
X4717Y382904D01*
X4669Y382893D01*
X4620Y382891D01*
X4551Y382865D01*
X4480Y382849D01*
X4438Y382823D01*
X4392Y382805D01*
X4335Y382759D01*
X4272Y382720D01*
X4241Y382682D01*
X4203Y382651D01*
X4164Y382588D01*
X4117Y382532D01*
X4100Y382486D01*
X4074Y382444D01*
X4057Y382372D01*
X4031Y382303D01*
X4024Y382230D01*
X4018Y382206D01*
X4020Y382189D01*
X4017Y382156D01*
X4017Y370722D01*
X4029Y370649D01*
X4031Y370576D01*
X4048Y370530D01*
X4056Y370481D01*
X4091Y370416D01*
X4117Y370347D01*
X4148Y370309D01*
X4171Y370266D01*
X4225Y370215D01*
X4272Y370159D01*
X4313Y370133D01*
X4349Y370099D01*
X4416Y370068D01*
X4479Y370030D01*
X4527Y370018D01*
X4572Y369998D01*
X4645Y369991D01*
X4716Y369974D01*
X4765Y369979D01*
X4815Y369974D01*
X4886Y369991D01*
X4959Y369998D01*
X5004Y370018D01*
X5052Y370029D01*
X5115Y370068D01*
X5182Y370098D01*
X5238Y370145D01*
X5260Y370158D01*
X5270Y370171D01*
X5296Y370192D01*
X8103Y372999D01*
X12117Y374662D01*
X16463Y374662D01*
X20477Y372999D01*
X23550Y369926D01*
X25213Y365912D01*
X25213Y361566D01*
X23550Y357552D01*
X20477Y354479D01*
X16463Y352816D01*
X12117Y352816D01*
X8103Y354479D01*
X5296Y357286D01*
X5236Y357329D01*
X5182Y357379D01*
X5138Y357400D01*
X5097Y357428D01*
X5027Y357450D01*
X4960Y357480D01*
X4911Y357485D01*
X4864Y357499D01*
X4791Y357497D01*
X4717Y357504D01*
X4669Y357493D01*
X4620Y357491D01*
X4551Y357465D01*
X4480Y357449D01*
X4438Y357423D01*
X4392Y357405D01*
X4335Y357359D01*
X4272Y357320D01*
X4241Y357282D01*
X4203Y357251D01*
X4164Y357188D01*
X4117Y357132D01*
X4100Y357086D01*
X4074Y357044D01*
X4057Y356972D01*
X4031Y356903D01*
X4024Y356830D01*
X4018Y356806D01*
X4020Y356789D01*
X4017Y356756D01*
X4017Y345322D01*
X4029Y345249D01*
X4031Y345176D01*
X4048Y345130D01*
X4056Y345081D01*
X4091Y345016D01*
X4117Y344947D01*
X4148Y344909D01*
X4171Y344866D01*
X4225Y344815D01*
X4272Y344759D01*
X4313Y344733D01*
X4349Y344699D01*
X4416Y344668D01*
X4479Y344630D01*
X4527Y344618D01*
X4572Y344598D01*
X4645Y344591D01*
X4716Y344574D01*
X4765Y344579D01*
X4815Y344574D01*
X4886Y344591D01*
X4959Y344598D01*
X5004Y344618D01*
X5052Y344629D01*
X5115Y344668D01*
X5182Y344698D01*
X5238Y344745D01*
X5260Y344758D01*
X5270Y344771D01*
X5296Y344792D01*
X8103Y347599D01*
X12117Y349262D01*
X16463Y349262D01*
X19127Y348158D01*
X19175Y348147D01*
X19220Y348127D01*
X19293Y348119D01*
X19365Y348103D01*
X19414Y348107D01*
X19462Y348103D01*
X19534Y348119D01*
X19608Y348126D01*
X19652Y348147D01*
X19700Y348158D01*
X19763Y348197D01*
X19830Y348227D01*
X19866Y348261D01*
X19907Y348287D01*
X19954Y348344D01*
X20008Y348394D01*
X20031Y348437D01*
X20062Y348475D01*
X20088Y348544D01*
X20123Y348609D01*
X20131Y348657D01*
X20149Y348703D01*
X20163Y348849D01*
X20163Y348850D01*
X20163Y351121D01*
X45582Y376540D01*
X48809Y376540D01*
X48905Y376556D01*
X49002Y376565D01*
X49025Y376575D01*
X49050Y376579D01*
X49136Y376625D01*
X49224Y376666D01*
X49250Y376687D01*
X49265Y376694D01*
X49282Y376713D01*
X49339Y376759D01*
X52501Y379921D01*
X52558Y380001D01*
X52620Y380076D01*
X52628Y380099D01*
X52643Y380120D01*
X52671Y380213D01*
X52706Y380304D01*
X52709Y380337D01*
X52714Y380353D01*
X52713Y380378D01*
X52720Y380451D01*
X52720Y390033D01*
X52704Y390129D01*
X52695Y390226D01*
X52685Y390249D01*
X52681Y390274D01*
X52635Y390360D01*
X52594Y390449D01*
X52573Y390474D01*
X52566Y390489D01*
X52547Y390506D01*
X52501Y390563D01*
X50823Y392240D01*
X50823Y396430D01*
X53785Y399392D01*
X57975Y399392D01*
X60937Y396430D01*
X60937Y392240D01*
X57989Y389293D01*
X57932Y389213D01*
X57870Y389138D01*
X57862Y389115D01*
X57847Y389095D01*
X57819Y389001D01*
X57784Y388910D01*
X57781Y388877D01*
X57776Y388861D01*
X57777Y388836D01*
X57770Y388763D01*
X57770Y378049D01*
X56071Y376351D01*
X54991Y375271D01*
X54949Y375211D01*
X54898Y375157D01*
X54878Y375113D01*
X54849Y375072D01*
X54828Y375002D01*
X54797Y374935D01*
X54793Y374886D01*
X54778Y374839D01*
X54781Y374766D01*
X54773Y374692D01*
X54785Y374644D01*
X54786Y374595D01*
X54812Y374526D01*
X54829Y374455D01*
X54855Y374413D01*
X54872Y374367D01*
X54919Y374310D01*
X54957Y374247D01*
X54995Y374216D01*
X55027Y374178D01*
X55089Y374139D01*
X55146Y374092D01*
X55192Y374075D01*
X55234Y374049D01*
X55305Y374032D01*
X55374Y374006D01*
X55447Y373999D01*
X55471Y373993D01*
X55488Y373995D01*
X55521Y373992D01*
X57975Y373992D01*
X60937Y371030D01*
X60937Y366840D01*
X57975Y363878D01*
X53785Y363878D01*
X51473Y366191D01*
X51394Y366248D01*
X51318Y366310D01*
X51295Y366318D01*
X51275Y366333D01*
X51181Y366361D01*
X51090Y366396D01*
X51057Y366399D01*
X51041Y366404D01*
X51016Y366403D01*
X50943Y366410D01*
X47888Y366410D01*
X47792Y366394D01*
X47695Y366385D01*
X47672Y366375D01*
X47647Y366371D01*
X47561Y366325D01*
X47472Y366284D01*
X47447Y366263D01*
X47432Y366256D01*
X47415Y366237D01*
X47358Y366191D01*
X41206Y360039D01*
X41163Y359979D01*
X41113Y359925D01*
X41093Y359881D01*
X41064Y359840D01*
X41043Y359770D01*
X41012Y359703D01*
X41007Y359654D01*
X40993Y359607D01*
X40996Y359534D01*
X40988Y359460D01*
X40999Y359412D01*
X41001Y359363D01*
X41027Y359294D01*
X41044Y359223D01*
X41070Y359181D01*
X41087Y359135D01*
X41133Y359078D01*
X41172Y359015D01*
X41210Y358984D01*
X41242Y358946D01*
X41304Y358907D01*
X41361Y358860D01*
X41407Y358843D01*
X41449Y358817D01*
X41520Y358800D01*
X41589Y358774D01*
X41662Y358767D01*
X41686Y358761D01*
X41703Y358763D01*
X41736Y358760D01*
X50943Y358760D01*
X51039Y358776D01*
X51136Y358785D01*
X51159Y358795D01*
X51184Y358799D01*
X51270Y358845D01*
X51359Y358886D01*
X51384Y358907D01*
X51399Y358914D01*
X51416Y358933D01*
X51473Y358979D01*
X53785Y361292D01*
X57975Y361292D01*
X60937Y358330D01*
X60937Y354140D01*
X57975Y351178D01*
X53785Y351178D01*
X51473Y353491D01*
X51393Y353548D01*
X51318Y353610D01*
X51295Y353618D01*
X51275Y353633D01*
X51181Y353661D01*
X51090Y353696D01*
X51057Y353699D01*
X51041Y353704D01*
X51016Y353703D01*
X50943Y353710D01*
X41252Y353710D01*
X41156Y353694D01*
X41059Y353685D01*
X41036Y353675D01*
X41011Y353671D01*
X40925Y353625D01*
X40836Y353584D01*
X40811Y353563D01*
X40796Y353556D01*
X40779Y353537D01*
X40722Y353491D01*
X32480Y345249D01*
X32423Y345169D01*
X32361Y345094D01*
X32353Y345071D01*
X32338Y345050D01*
X32310Y344957D01*
X32275Y344866D01*
X32272Y344833D01*
X32267Y344817D01*
X32268Y344792D01*
X32261Y344719D01*
X32261Y319340D01*
X32273Y319268D01*
X32275Y319194D01*
X32292Y319148D01*
X32300Y319099D01*
X32335Y319035D01*
X32361Y318966D01*
X32392Y318928D01*
X32415Y318884D01*
X32469Y318834D01*
X32516Y318777D01*
X32557Y318751D01*
X32593Y318717D01*
X32660Y318687D01*
X32723Y318648D01*
X32771Y318637D01*
X32816Y318616D01*
X32889Y318609D01*
X32960Y318592D01*
X33009Y318597D01*
X33058Y318592D01*
X33130Y318609D01*
X33203Y318616D01*
X33248Y318636D01*
X33296Y318648D01*
X33359Y318686D01*
X33425Y318717D01*
X33482Y318763D01*
X33503Y318776D01*
X33514Y318789D01*
X33540Y318810D01*
X35389Y320660D01*
X50943Y320660D01*
X51039Y320676D01*
X51136Y320685D01*
X51159Y320695D01*
X51184Y320699D01*
X51270Y320745D01*
X51359Y320786D01*
X51384Y320807D01*
X51399Y320814D01*
X51416Y320833D01*
X51473Y320879D01*
X53785Y323192D01*
X57975Y323192D01*
X60937Y320230D01*
X60937Y316040D01*
X57975Y313078D01*
X53785Y313078D01*
X51473Y315391D01*
X51393Y315448D01*
X51318Y315510D01*
X51295Y315518D01*
X51275Y315533D01*
X51181Y315561D01*
X51090Y315596D01*
X51057Y315599D01*
X51041Y315604D01*
X51016Y315603D01*
X50943Y315610D01*
X37791Y315610D01*
X37695Y315594D01*
X37598Y315585D01*
X37575Y315575D01*
X37550Y315571D01*
X37464Y315525D01*
X37375Y315484D01*
X37350Y315463D01*
X37335Y315456D01*
X37318Y315437D01*
X37261Y315391D01*
X36004Y314134D01*
X35947Y314054D01*
X35885Y313979D01*
X35877Y313956D01*
X35862Y313935D01*
X35834Y313842D01*
X35799Y313751D01*
X35796Y313718D01*
X35791Y313702D01*
X35792Y313677D01*
X35785Y313604D01*
X35785Y306169D01*
X35789Y306145D01*
X35786Y306120D01*
X35808Y306025D01*
X35824Y305928D01*
X35836Y305907D01*
X35841Y305883D01*
X35893Y305799D01*
X35939Y305713D01*
X35957Y305696D01*
X35970Y305675D01*
X36046Y305613D01*
X36117Y305546D01*
X36140Y305536D01*
X36159Y305520D01*
X36250Y305486D01*
X36340Y305445D01*
X36364Y305443D01*
X36387Y305434D01*
X36534Y305420D01*
X50074Y305420D01*
X50098Y305424D01*
X50123Y305421D01*
X50218Y305443D01*
X50315Y305459D01*
X50336Y305471D01*
X50360Y305477D01*
X50444Y305528D01*
X50530Y305574D01*
X50547Y305592D01*
X50568Y305605D01*
X50630Y305681D01*
X50697Y305752D01*
X50707Y305775D01*
X50723Y305794D01*
X50757Y305885D01*
X50798Y305975D01*
X50800Y305999D01*
X50809Y306022D01*
X50823Y306169D01*
X50823Y308165D01*
X53785Y311127D01*
X57975Y311127D01*
X60937Y308165D01*
X60937Y303975D01*
X57975Y301013D01*
X54704Y301013D01*
X54608Y300997D01*
X54511Y300988D01*
X54488Y300978D01*
X54463Y300974D01*
X54377Y300928D01*
X54289Y300887D01*
X54263Y300866D01*
X54248Y300859D01*
X54231Y300840D01*
X54174Y300794D01*
X53751Y300370D01*
X37413Y300370D01*
X37317Y300354D01*
X37220Y300345D01*
X37197Y300335D01*
X37173Y300331D01*
X37086Y300285D01*
X36998Y300244D01*
X36972Y300223D01*
X36957Y300216D01*
X36940Y300197D01*
X36884Y300151D01*
X36004Y299271D01*
X35947Y299192D01*
X35885Y299117D01*
X35877Y299093D01*
X35862Y299073D01*
X35834Y298980D01*
X35799Y298889D01*
X35796Y298856D01*
X35791Y298840D01*
X35792Y298815D01*
X35785Y298742D01*
X35785Y293305D01*
X35797Y293233D01*
X35799Y293159D01*
X35816Y293113D01*
X35824Y293064D01*
X35859Y293000D01*
X35885Y292931D01*
X35916Y292893D01*
X35939Y292849D01*
X35993Y292799D01*
X36040Y292742D01*
X36081Y292716D01*
X36117Y292682D01*
X36184Y292652D01*
X36247Y292613D01*
X36295Y292602D01*
X36340Y292581D01*
X36413Y292574D01*
X36484Y292557D01*
X36533Y292562D01*
X36582Y292557D01*
X36654Y292574D01*
X36727Y292581D01*
X36772Y292601D01*
X36820Y292613D01*
X36883Y292651D01*
X36949Y292682D01*
X37006Y292728D01*
X37027Y292741D01*
X37038Y292754D01*
X37064Y292775D01*
X40183Y295895D01*
X50943Y295895D01*
X51039Y295911D01*
X51136Y295920D01*
X51159Y295930D01*
X51184Y295934D01*
X51270Y295980D01*
X51359Y296021D01*
X51384Y296042D01*
X51399Y296049D01*
X51416Y296068D01*
X51473Y296114D01*
X53785Y298427D01*
X57975Y298427D01*
X60937Y295465D01*
X60937Y291275D01*
X57975Y288313D01*
X53785Y288313D01*
X51473Y290626D01*
X51393Y290683D01*
X51318Y290745D01*
X51295Y290753D01*
X51275Y290768D01*
X51181Y290796D01*
X51090Y290831D01*
X51057Y290834D01*
X51041Y290839D01*
X51016Y290838D01*
X50943Y290845D01*
X42585Y290845D01*
X42489Y290829D01*
X42392Y290820D01*
X42369Y290810D01*
X42344Y290806D01*
X42258Y290760D01*
X42169Y290719D01*
X42144Y290698D01*
X42129Y290691D01*
X42112Y290672D01*
X42055Y290626D01*
X39528Y288099D01*
X39471Y288019D01*
X39409Y287944D01*
X39401Y287921D01*
X39386Y287900D01*
X39358Y287807D01*
X39323Y287716D01*
X39320Y287683D01*
X39315Y287667D01*
X39316Y287642D01*
X39309Y287569D01*
X39309Y271037D01*
X39321Y270964D01*
X39323Y270891D01*
X39340Y270845D01*
X39348Y270796D01*
X39383Y270731D01*
X39409Y270662D01*
X39440Y270624D01*
X39463Y270581D01*
X39517Y270531D01*
X39563Y270474D01*
X39605Y270448D01*
X39641Y270414D01*
X39708Y270384D01*
X39771Y270345D01*
X39819Y270333D01*
X39864Y270313D01*
X39937Y270306D01*
X40008Y270289D01*
X40057Y270294D01*
X40106Y270289D01*
X40178Y270306D01*
X40251Y270313D01*
X40296Y270333D01*
X40344Y270344D01*
X40407Y270383D01*
X40473Y270413D01*
X40530Y270460D01*
X40551Y270473D01*
X40562Y270486D01*
X40588Y270507D01*
X53910Y283830D01*
X64044Y283830D01*
X64068Y283834D01*
X64093Y283831D01*
X64188Y283853D01*
X64285Y283869D01*
X64306Y283881D01*
X64330Y283887D01*
X64414Y283938D01*
X64500Y283984D01*
X64517Y284002D01*
X64538Y284015D01*
X64600Y284091D01*
X64667Y284162D01*
X64677Y284185D01*
X64693Y284204D01*
X64727Y284295D01*
X64768Y284385D01*
X64770Y284409D01*
X64779Y284432D01*
X64793Y284579D01*
X64793Y286575D01*
X67755Y289537D01*
X71945Y289537D01*
X74907Y286575D01*
X74907Y282385D01*
X73820Y281299D01*
X73777Y281239D01*
X73727Y281185D01*
X73707Y281141D01*
X73678Y281100D01*
X73657Y281030D01*
X73626Y280963D01*
X73621Y280914D01*
X73607Y280867D01*
X73609Y280794D01*
X73602Y280720D01*
X73613Y280672D01*
X73615Y280623D01*
X73641Y280554D01*
X73657Y280483D01*
X73683Y280441D01*
X73701Y280395D01*
X73747Y280338D01*
X73786Y280275D01*
X73824Y280244D01*
X73855Y280206D01*
X73918Y280167D01*
X73975Y280120D01*
X74021Y280103D01*
X74063Y280077D01*
X74134Y280060D01*
X74203Y280034D01*
X74276Y280027D01*
X74300Y280021D01*
X74317Y280023D01*
X74350Y280020D01*
X78050Y280020D01*
X78123Y280032D01*
X78196Y280034D01*
X78242Y280051D01*
X78291Y280059D01*
X78356Y280094D01*
X78424Y280120D01*
X78463Y280151D01*
X78506Y280174D01*
X78556Y280228D01*
X78613Y280275D01*
X78639Y280317D01*
X78673Y280352D01*
X78703Y280419D01*
X78742Y280482D01*
X78753Y280530D01*
X78774Y280575D01*
X78781Y280648D01*
X78798Y280719D01*
X78793Y280768D01*
X78798Y280818D01*
X78781Y280889D01*
X78774Y280962D01*
X78754Y281007D01*
X78743Y281055D01*
X78704Y281118D01*
X78674Y281185D01*
X78627Y281241D01*
X78614Y281263D01*
X78601Y281273D01*
X78580Y281299D01*
X77493Y282385D01*
X77493Y286575D01*
X80455Y289537D01*
X84645Y289537D01*
X87607Y286575D01*
X87607Y282385D01*
X85294Y280073D01*
X85237Y279993D01*
X85175Y279918D01*
X85167Y279895D01*
X85152Y279875D01*
X85124Y279781D01*
X85089Y279690D01*
X85086Y279657D01*
X85081Y279641D01*
X85082Y279616D01*
X85075Y279543D01*
X85075Y278354D01*
X84209Y277489D01*
X84167Y277429D01*
X84116Y277375D01*
X84096Y277331D01*
X84067Y277290D01*
X84046Y277220D01*
X84015Y277153D01*
X84011Y277104D01*
X83996Y277057D01*
X83999Y276984D01*
X83991Y276910D01*
X84003Y276862D01*
X84004Y276813D01*
X84030Y276744D01*
X84047Y276673D01*
X84073Y276631D01*
X84090Y276585D01*
X84137Y276528D01*
X84175Y276465D01*
X84213Y276434D01*
X84245Y276396D01*
X84307Y276357D01*
X84364Y276310D01*
X84410Y276293D01*
X84452Y276267D01*
X84523Y276250D01*
X84592Y276224D01*
X84665Y276217D01*
X84689Y276211D01*
X84706Y276213D01*
X84739Y276210D01*
X86274Y276210D01*
X86370Y276226D01*
X86467Y276235D01*
X86490Y276245D01*
X86515Y276249D01*
X86601Y276295D01*
X86689Y276336D01*
X86715Y276357D01*
X86730Y276364D01*
X86747Y276383D01*
X86804Y276429D01*
X90947Y280572D01*
X90961Y280592D01*
X90980Y280608D01*
X91032Y280691D01*
X91089Y280771D01*
X91096Y280794D01*
X91109Y280815D01*
X91131Y280910D01*
X91160Y281004D01*
X91159Y281029D01*
X91165Y281052D01*
X91155Y281150D01*
X91152Y281248D01*
X91143Y281271D01*
X91141Y281295D01*
X91101Y281385D01*
X91066Y281476D01*
X91051Y281495D01*
X91040Y281518D01*
X90947Y281632D01*
X90193Y282385D01*
X90193Y286575D01*
X93155Y289537D01*
X97345Y289537D01*
X100307Y286575D01*
X100307Y282385D01*
X97345Y279423D01*
X97249Y279423D01*
X97153Y279407D01*
X97056Y279398D01*
X97033Y279388D01*
X97008Y279384D01*
X96922Y279338D01*
X96834Y279297D01*
X96808Y279276D01*
X96793Y279269D01*
X96776Y279250D01*
X96719Y279204D01*
X90374Y272859D01*
X90374Y272858D01*
X89066Y271551D01*
X89024Y271491D01*
X88973Y271437D01*
X88953Y271393D01*
X88924Y271352D01*
X88903Y271282D01*
X88872Y271215D01*
X88868Y271166D01*
X88853Y271119D01*
X88856Y271046D01*
X88848Y270972D01*
X88860Y270924D01*
X88861Y270875D01*
X88887Y270806D01*
X88904Y270735D01*
X88930Y270693D01*
X88947Y270647D01*
X88994Y270590D01*
X89032Y270527D01*
X89070Y270496D01*
X89102Y270458D01*
X89164Y270419D01*
X89221Y270372D01*
X89267Y270355D01*
X89309Y270329D01*
X89380Y270312D01*
X89449Y270286D01*
X89522Y270279D01*
X89546Y270273D01*
X89563Y270275D01*
X89596Y270272D01*
X102561Y270272D01*
X102657Y270288D01*
X102754Y270297D01*
X102777Y270307D01*
X102802Y270311D01*
X102888Y270357D01*
X102976Y270398D01*
X103002Y270419D01*
X103017Y270426D01*
X103034Y270445D01*
X103091Y270491D01*
X105841Y273241D01*
X105898Y273321D01*
X105960Y273396D01*
X105968Y273419D01*
X105983Y273440D01*
X106011Y273533D01*
X106046Y273624D01*
X106049Y273657D01*
X106054Y273673D01*
X106053Y273698D01*
X106060Y273771D01*
X106060Y278908D01*
X106044Y279004D01*
X106035Y279101D01*
X106025Y279124D01*
X106021Y279149D01*
X105975Y279235D01*
X105934Y279324D01*
X105913Y279349D01*
X105906Y279364D01*
X105887Y279381D01*
X105841Y279438D01*
X102893Y282385D01*
X102893Y286575D01*
X105855Y289537D01*
X110045Y289537D01*
X113007Y286575D01*
X113007Y282385D01*
X111329Y280708D01*
X111284Y280645D01*
X111247Y280605D01*
X111239Y280588D01*
X111210Y280553D01*
X111202Y280530D01*
X111187Y280510D01*
X111159Y280416D01*
X111147Y280384D01*
X111146Y280383D01*
X111124Y280325D01*
X111121Y280292D01*
X111116Y280276D01*
X111117Y280251D01*
X111110Y280178D01*
X111110Y271369D01*
X109411Y269671D01*
X107767Y268027D01*
X107725Y267967D01*
X107674Y267913D01*
X107654Y267869D01*
X107625Y267828D01*
X107604Y267758D01*
X107573Y267691D01*
X107569Y267642D01*
X107554Y267595D01*
X107557Y267522D01*
X107549Y267448D01*
X107561Y267400D01*
X107562Y267351D01*
X107588Y267282D01*
X107605Y267211D01*
X107631Y267169D01*
X107648Y267123D01*
X107695Y267066D01*
X107733Y267003D01*
X107771Y266972D01*
X107803Y266934D01*
X107865Y266895D01*
X107922Y266848D01*
X107968Y266831D01*
X108010Y266805D01*
X108081Y266788D01*
X108150Y266762D01*
X108223Y266755D01*
X108247Y266749D01*
X108264Y266751D01*
X108297Y266748D01*
X115484Y266748D01*
X115580Y266764D01*
X115677Y266773D01*
X115700Y266783D01*
X115725Y266787D01*
X115811Y266833D01*
X115899Y266874D01*
X115925Y266895D01*
X115940Y266902D01*
X115957Y266921D01*
X116014Y266967D01*
X118541Y269494D01*
X118598Y269574D01*
X118660Y269649D01*
X118668Y269672D01*
X118683Y269693D01*
X118711Y269786D01*
X118746Y269877D01*
X118749Y269910D01*
X118754Y269926D01*
X118753Y269951D01*
X118760Y270024D01*
X118760Y278908D01*
X118744Y279004D01*
X118735Y279101D01*
X118725Y279124D01*
X118721Y279149D01*
X118675Y279235D01*
X118634Y279324D01*
X118613Y279349D01*
X118606Y279364D01*
X118587Y279381D01*
X118541Y279438D01*
X115593Y282385D01*
X115593Y286575D01*
X118555Y289537D01*
X122745Y289537D01*
X125707Y286575D01*
X125707Y282385D01*
X124029Y280708D01*
X123984Y280645D01*
X123947Y280605D01*
X123939Y280588D01*
X123910Y280553D01*
X123902Y280530D01*
X123887Y280510D01*
X123859Y280416D01*
X123847Y280384D01*
X123846Y280383D01*
X123824Y280325D01*
X123821Y280292D01*
X123816Y280276D01*
X123817Y280251D01*
X123810Y280178D01*
X123810Y267622D01*
X122111Y265924D01*
X120690Y264503D01*
X120648Y264443D01*
X120597Y264389D01*
X120577Y264345D01*
X120548Y264304D01*
X120527Y264234D01*
X120496Y264167D01*
X120492Y264118D01*
X120477Y264071D01*
X120480Y263998D01*
X120472Y263924D01*
X120484Y263876D01*
X120485Y263827D01*
X120511Y263758D01*
X120528Y263687D01*
X120554Y263645D01*
X120571Y263599D01*
X120618Y263542D01*
X120656Y263479D01*
X120694Y263448D01*
X120726Y263410D01*
X120788Y263371D01*
X120845Y263324D01*
X120891Y263307D01*
X120933Y263281D01*
X121004Y263264D01*
X121073Y263238D01*
X121146Y263231D01*
X121170Y263225D01*
X121187Y263227D01*
X121220Y263224D01*
X127263Y263224D01*
X127359Y263240D01*
X127456Y263249D01*
X127479Y263259D01*
X127504Y263263D01*
X127590Y263309D01*
X127678Y263350D01*
X127704Y263371D01*
X127719Y263378D01*
X127736Y263397D01*
X127793Y263443D01*
X130606Y266256D01*
X130663Y266336D01*
X130725Y266411D01*
X130733Y266434D01*
X130748Y266455D01*
X130776Y266548D01*
X130811Y266639D01*
X130814Y266672D01*
X130819Y266688D01*
X130818Y266713D01*
X130825Y266786D01*
X130825Y279543D01*
X130809Y279639D01*
X130800Y279736D01*
X130790Y279759D01*
X130786Y279784D01*
X130740Y279870D01*
X130699Y279959D01*
X130678Y279984D01*
X130671Y279999D01*
X130652Y280016D01*
X130606Y280073D01*
X128293Y282385D01*
X128293Y286575D01*
X131255Y289537D01*
X135445Y289537D01*
X138407Y286575D01*
X138407Y282385D01*
X136094Y280073D01*
X136037Y279993D01*
X135975Y279918D01*
X135967Y279895D01*
X135952Y279875D01*
X135924Y279781D01*
X135889Y279690D01*
X135886Y279657D01*
X135881Y279641D01*
X135882Y279616D01*
X135875Y279543D01*
X135875Y264384D01*
X134176Y262686D01*
X132469Y260979D01*
X132427Y260919D01*
X132376Y260865D01*
X132356Y260821D01*
X132327Y260780D01*
X132306Y260710D01*
X132275Y260643D01*
X132271Y260594D01*
X132256Y260547D01*
X132259Y260474D01*
X132251Y260400D01*
X132263Y260352D01*
X132264Y260303D01*
X132290Y260234D01*
X132307Y260163D01*
X132333Y260121D01*
X132350Y260075D01*
X132397Y260018D01*
X132435Y259955D01*
X132473Y259924D01*
X132505Y259886D01*
X132567Y259847D01*
X132624Y259800D01*
X132670Y259783D01*
X132712Y259757D01*
X132783Y259740D01*
X132852Y259714D01*
X132925Y259707D01*
X132949Y259701D01*
X132966Y259703D01*
X132999Y259700D01*
X138344Y259700D01*
X138440Y259716D01*
X138537Y259725D01*
X138560Y259735D01*
X138585Y259739D01*
X138671Y259785D01*
X138759Y259826D01*
X138785Y259847D01*
X138800Y259854D01*
X138817Y259873D01*
X138874Y259919D01*
X143306Y264351D01*
X143363Y264431D01*
X143425Y264506D01*
X143433Y264529D01*
X143448Y264550D01*
X143476Y264643D01*
X143511Y264734D01*
X143514Y264767D01*
X143519Y264783D01*
X143518Y264808D01*
X143525Y264881D01*
X143525Y279543D01*
X143509Y279639D01*
X143500Y279736D01*
X143490Y279759D01*
X143486Y279784D01*
X143440Y279870D01*
X143399Y279959D01*
X143378Y279984D01*
X143371Y279999D01*
X143352Y280016D01*
X143306Y280073D01*
X140993Y282385D01*
X140993Y286575D01*
X143955Y289537D01*
X148145Y289537D01*
X151107Y286575D01*
X151107Y282385D01*
X148794Y280073D01*
X148737Y279993D01*
X148675Y279918D01*
X148667Y279895D01*
X148652Y279875D01*
X148624Y279781D01*
X148589Y279690D01*
X148586Y279657D01*
X148581Y279641D01*
X148582Y279616D01*
X148575Y279543D01*
X148575Y262479D01*
X140746Y254650D01*
X86459Y254650D01*
X86435Y254646D01*
X86410Y254649D01*
X86315Y254627D01*
X86218Y254611D01*
X86197Y254599D01*
X86173Y254593D01*
X86089Y254542D01*
X86003Y254496D01*
X85986Y254478D01*
X85965Y254465D01*
X85903Y254389D01*
X85836Y254318D01*
X85826Y254295D01*
X85810Y254276D01*
X85776Y254185D01*
X85735Y254095D01*
X85733Y254071D01*
X85724Y254048D01*
X85710Y253901D01*
X85710Y244967D01*
X85713Y244945D01*
X85711Y244926D01*
X85727Y244859D01*
X85735Y244774D01*
X85745Y244751D01*
X85749Y244726D01*
X85764Y244699D01*
X85767Y244688D01*
X85790Y244650D01*
X85795Y244640D01*
X85836Y244551D01*
X85857Y244526D01*
X85864Y244511D01*
X85883Y244494D01*
X85929Y244437D01*
X88242Y242125D01*
X88242Y237935D01*
X85280Y234973D01*
X81090Y234973D01*
X78128Y237935D01*
X78128Y239119D01*
X78116Y239191D01*
X78114Y239265D01*
X78097Y239311D01*
X78089Y239360D01*
X78054Y239425D01*
X78028Y239493D01*
X77997Y239531D01*
X77974Y239575D01*
X77920Y239625D01*
X77873Y239682D01*
X77831Y239708D01*
X77796Y239742D01*
X77729Y239772D01*
X77666Y239811D01*
X77618Y239822D01*
X77573Y239843D01*
X77500Y239850D01*
X77429Y239867D01*
X77380Y239862D01*
X77330Y239867D01*
X77259Y239850D01*
X77186Y239843D01*
X77141Y239823D01*
X77093Y239811D01*
X77030Y239773D01*
X76963Y239742D01*
X76907Y239696D01*
X76885Y239683D01*
X76875Y239670D01*
X76849Y239649D01*
X76404Y239204D01*
X75761Y238561D01*
X75704Y238481D01*
X75642Y238406D01*
X75634Y238383D01*
X75619Y238362D01*
X75591Y238269D01*
X75556Y238178D01*
X75553Y238145D01*
X75548Y238129D01*
X75549Y238104D01*
X75542Y238031D01*
X75542Y237935D01*
X72580Y234973D01*
X68390Y234973D01*
X65428Y237935D01*
X65428Y242125D01*
X68390Y245087D01*
X72580Y245087D01*
X73333Y244333D01*
X73353Y244319D01*
X73369Y244300D01*
X73452Y244248D01*
X73531Y244191D01*
X73555Y244184D01*
X73576Y244171D01*
X73671Y244149D01*
X73765Y244120D01*
X73789Y244121D01*
X73813Y244115D01*
X73911Y244125D01*
X74009Y244128D01*
X74032Y244137D01*
X74056Y244139D01*
X74145Y244179D01*
X74237Y244214D01*
X74256Y244229D01*
X74278Y244240D01*
X74393Y244333D01*
X76917Y246857D01*
X76974Y246937D01*
X77036Y247012D01*
X77044Y247035D01*
X77059Y247056D01*
X77087Y247149D01*
X77122Y247240D01*
X77125Y247273D01*
X77130Y247289D01*
X77129Y247314D01*
X77136Y247387D01*
X77136Y248922D01*
X77124Y248994D01*
X77122Y249068D01*
X77105Y249114D01*
X77097Y249163D01*
X77062Y249227D01*
X77036Y249296D01*
X77005Y249334D01*
X76982Y249378D01*
X76928Y249428D01*
X76881Y249485D01*
X76839Y249511D01*
X76804Y249545D01*
X76737Y249575D01*
X76674Y249614D01*
X76626Y249625D01*
X76581Y249646D01*
X76508Y249653D01*
X76437Y249670D01*
X76388Y249665D01*
X76338Y249670D01*
X76267Y249653D01*
X76194Y249646D01*
X76149Y249626D01*
X76101Y249614D01*
X76038Y249576D01*
X75971Y249545D01*
X75915Y249499D01*
X75893Y249486D01*
X75883Y249473D01*
X75857Y249452D01*
X74071Y247665D01*
X62951Y247665D01*
X62855Y247649D01*
X62758Y247640D01*
X62735Y247630D01*
X62710Y247626D01*
X62624Y247580D01*
X62536Y247539D01*
X62510Y247518D01*
X62495Y247511D01*
X62478Y247492D01*
X62421Y247446D01*
X60529Y245554D01*
X60472Y245474D01*
X60410Y245399D01*
X60402Y245376D01*
X60387Y245355D01*
X60359Y245262D01*
X60324Y245171D01*
X60321Y245138D01*
X60316Y245122D01*
X60317Y245097D01*
X60310Y245024D01*
X60310Y244967D01*
X60313Y244946D01*
X60311Y244926D01*
X60327Y244859D01*
X60335Y244774D01*
X60345Y244751D01*
X60349Y244726D01*
X60364Y244699D01*
X60367Y244688D01*
X60390Y244649D01*
X60395Y244640D01*
X60436Y244551D01*
X60457Y244526D01*
X60464Y244511D01*
X60483Y244494D01*
X60529Y244437D01*
X62842Y242125D01*
X62842Y237935D01*
X59880Y234973D01*
X55927Y234973D01*
X55854Y234961D01*
X55781Y234959D01*
X55735Y234942D01*
X55686Y234934D01*
X55621Y234899D01*
X55553Y234873D01*
X55514Y234842D01*
X55471Y234819D01*
X55421Y234765D01*
X55364Y234718D01*
X55338Y234677D01*
X55304Y234641D01*
X55274Y234574D01*
X55235Y234511D01*
X55224Y234463D01*
X55203Y234418D01*
X55196Y234345D01*
X55179Y234274D01*
X55184Y234225D01*
X55179Y234175D01*
X55196Y234104D01*
X55203Y234031D01*
X55223Y233986D01*
X55234Y233938D01*
X55273Y233875D01*
X55303Y233808D01*
X55350Y233752D01*
X55363Y233730D01*
X55376Y233720D01*
X55397Y233694D01*
X58397Y230695D01*
X58397Y226786D01*
X58401Y226762D01*
X58398Y226737D01*
X58420Y226642D01*
X58436Y226545D01*
X58448Y226524D01*
X58454Y226500D01*
X58505Y226416D01*
X58551Y226330D01*
X58569Y226313D01*
X58582Y226292D01*
X58658Y226230D01*
X58729Y226163D01*
X58752Y226153D01*
X58771Y226137D01*
X58862Y226103D01*
X58952Y226062D01*
X58976Y226060D01*
X58999Y226051D01*
X59146Y226037D01*
X63055Y226037D01*
X66017Y223075D01*
X66017Y218885D01*
X63055Y215923D01*
X58865Y215923D01*
X56553Y218236D01*
X56473Y218293D01*
X56398Y218355D01*
X56375Y218363D01*
X56355Y218378D01*
X56261Y218406D01*
X56170Y218441D01*
X56137Y218444D01*
X56121Y218449D01*
X56096Y218448D01*
X56023Y218455D01*
X54427Y218455D01*
X54331Y218439D01*
X54234Y218430D01*
X54211Y218420D01*
X54186Y218416D01*
X54100Y218370D01*
X54011Y218329D01*
X53986Y218308D01*
X53971Y218301D01*
X53954Y218282D01*
X53897Y218236D01*
X50100Y214439D01*
X50043Y214359D01*
X49981Y214284D01*
X49973Y214261D01*
X49958Y214240D01*
X49930Y214147D01*
X49895Y214056D01*
X49892Y214023D01*
X49887Y214007D01*
X49888Y213982D01*
X49881Y213909D01*
X49881Y194015D01*
X46576Y190711D01*
X46519Y190631D01*
X46457Y190556D01*
X46449Y190533D01*
X46434Y190512D01*
X46406Y190419D01*
X46371Y190328D01*
X46368Y190295D01*
X46363Y190279D01*
X46364Y190254D01*
X46357Y190181D01*
X46357Y172076D01*
X43052Y168772D01*
X42995Y168692D01*
X42933Y168617D01*
X42925Y168594D01*
X42910Y168573D01*
X42882Y168480D01*
X42847Y168389D01*
X42844Y168356D01*
X42839Y168340D01*
X42840Y168315D01*
X42833Y168242D01*
X42833Y148716D01*
X39528Y145412D01*
X39471Y145332D01*
X39409Y145257D01*
X39401Y145234D01*
X39386Y145213D01*
X39358Y145120D01*
X39323Y145029D01*
X39320Y144996D01*
X39315Y144980D01*
X39316Y144955D01*
X39309Y144882D01*
X39309Y98257D01*
X36004Y94952D01*
X35947Y94873D01*
X35885Y94798D01*
X35877Y94774D01*
X35862Y94754D01*
X35834Y94661D01*
X35799Y94569D01*
X35796Y94536D01*
X35791Y94520D01*
X35792Y94496D01*
X35785Y94422D01*
X35785Y58266D01*
X35801Y58170D01*
X35810Y58073D01*
X35820Y58050D01*
X35824Y58026D01*
X35870Y57939D01*
X35910Y57851D01*
X35931Y57825D01*
X35939Y57810D01*
X35957Y57793D01*
X36004Y57736D01*
X39561Y54179D01*
X39641Y54122D01*
X39716Y54060D01*
X39739Y54052D01*
X39760Y54037D01*
X39853Y54009D01*
X39944Y53974D01*
X39977Y53971D01*
X39993Y53966D01*
X40018Y53967D01*
X40091Y53960D01*
X118521Y53960D01*
X122540Y49941D01*
X122540Y49322D01*
X122564Y49174D01*
X122579Y49082D01*
X122579Y49081D01*
X122641Y48966D01*
X122694Y48866D01*
X122782Y48784D01*
X122872Y48699D01*
X122873Y48699D01*
X123002Y48630D01*
X124844Y47867D01*
X127242Y45469D01*
X128540Y42336D01*
X128540Y42171D01*
X128556Y42074D01*
X128565Y41977D01*
X128575Y41954D01*
X128579Y41930D01*
X128626Y41844D01*
X128666Y41755D01*
X128683Y41737D01*
X128694Y41715D01*
X128766Y41648D01*
X128833Y41576D01*
X128854Y41565D01*
X128872Y41548D01*
X128961Y41507D01*
X129048Y41461D01*
X129072Y41457D01*
X129095Y41447D01*
X129192Y41437D01*
X129288Y41421D01*
X129313Y41425D01*
X129338Y41423D01*
X129433Y41445D01*
X129529Y41461D01*
X129551Y41473D01*
X129575Y41478D01*
X129658Y41530D01*
X129745Y41576D01*
X129761Y41594D01*
X129783Y41607D01*
X129845Y41682D01*
X129912Y41754D01*
X129927Y41783D01*
X129937Y41795D01*
X129946Y41819D01*
X129981Y41884D01*
X131203Y44834D01*
X133601Y47232D01*
X136734Y48530D01*
X140126Y48530D01*
X143259Y47232D01*
X145657Y44834D01*
X146628Y42490D01*
X146667Y42428D01*
X146697Y42361D01*
X146731Y42325D01*
X146757Y42283D01*
X146813Y42236D01*
X146864Y42183D01*
X146907Y42159D01*
X146945Y42128D01*
X147014Y42102D01*
X147079Y42067D01*
X147127Y42059D01*
X147174Y42042D01*
X147247Y42039D01*
X147319Y42027D01*
X147368Y42035D01*
X147417Y42034D01*
X147488Y42055D01*
X147560Y42067D01*
X147604Y42090D01*
X147651Y42105D01*
X147711Y42147D01*
X147776Y42182D01*
X147809Y42218D01*
X147849Y42247D01*
X147892Y42306D01*
X147943Y42360D01*
X147977Y42425D01*
X147992Y42445D01*
X147997Y42461D01*
X148012Y42490D01*
X148983Y44834D01*
X151381Y47232D01*
X153222Y47995D01*
X153223Y47995D01*
X153305Y48046D01*
X153430Y48123D01*
X153430Y48124D01*
X153501Y48210D01*
X153585Y48312D01*
X153629Y48430D01*
X153671Y48540D01*
X153671Y48541D01*
X153671Y48542D01*
X153685Y48687D01*
X153685Y51846D01*
X157704Y55865D01*
X159528Y55865D01*
X159624Y55881D01*
X159721Y55890D01*
X159744Y55900D01*
X159769Y55904D01*
X159855Y55950D01*
X159944Y55991D01*
X159969Y56012D01*
X159984Y56019D01*
X160001Y56038D01*
X160058Y56084D01*
X162370Y58397D01*
X165030Y58397D01*
X165188Y58423D01*
X165270Y58436D01*
X165395Y58503D01*
X165485Y58551D01*
X165486Y58551D01*
X165557Y58628D01*
X165652Y58729D01*
X165677Y58785D01*
X165753Y58951D01*
X165753Y58952D01*
X165764Y59065D01*
X165777Y59194D01*
X165777Y59195D01*
X165748Y59319D01*
X165722Y59432D01*
X165722Y59433D01*
X165653Y59562D01*
X165357Y60004D01*
X164729Y61520D01*
X164710Y61617D01*
X164701Y61640D01*
X164699Y61665D01*
X164659Y61754D01*
X164624Y61846D01*
X164609Y61865D01*
X164598Y61887D01*
X164531Y61959D01*
X164469Y62034D01*
X164449Y62047D01*
X164432Y62065D01*
X164345Y62112D01*
X164262Y62163D01*
X164238Y62169D01*
X164216Y62181D01*
X164120Y62197D01*
X164025Y62219D01*
X164000Y62216D01*
X163976Y62220D01*
X163879Y62205D01*
X163782Y62195D01*
X163759Y62185D01*
X163735Y62181D01*
X163649Y62135D01*
X163559Y62095D01*
X163541Y62078D01*
X163520Y62066D01*
X163453Y61995D01*
X163381Y61928D01*
X163370Y61906D01*
X163353Y61888D01*
X163283Y61758D01*
X163103Y61324D01*
X161556Y59777D01*
X159534Y58939D01*
X157346Y58939D01*
X155324Y59777D01*
X153777Y61324D01*
X152939Y63346D01*
X152939Y65534D01*
X153777Y67556D01*
X155324Y69103D01*
X157346Y69941D01*
X159534Y69941D01*
X161556Y69103D01*
X163130Y67529D01*
X163190Y67486D01*
X163244Y67436D01*
X163288Y67416D01*
X163329Y67387D01*
X163399Y67365D01*
X163466Y67335D01*
X163515Y67330D01*
X163562Y67316D01*
X163635Y67318D01*
X163709Y67311D01*
X163757Y67322D01*
X163806Y67324D01*
X163875Y67350D01*
X163946Y67366D01*
X163988Y67392D01*
X164034Y67410D01*
X164091Y67456D01*
X164154Y67495D01*
X164185Y67533D01*
X164223Y67564D01*
X164262Y67627D01*
X164309Y67684D01*
X164326Y67730D01*
X164352Y67772D01*
X164369Y67843D01*
X164395Y67912D01*
X164402Y67985D01*
X164408Y68009D01*
X164406Y68026D01*
X164409Y68059D01*
X164409Y68241D01*
X171241Y68241D01*
X171241Y55754D01*
X170417Y55918D01*
X170320Y55921D01*
X170222Y55931D01*
X170198Y55925D01*
X170173Y55926D01*
X170080Y55898D01*
X169985Y55876D01*
X169964Y55863D01*
X169940Y55855D01*
X169861Y55799D01*
X169777Y55747D01*
X169762Y55728D01*
X169741Y55713D01*
X169685Y55634D01*
X169622Y55559D01*
X169614Y55535D01*
X169599Y55515D01*
X169571Y55422D01*
X169536Y55330D01*
X169533Y55297D01*
X169528Y55282D01*
X169529Y55257D01*
X169522Y55183D01*
X169522Y51245D01*
X166560Y48283D01*
X162370Y48283D01*
X160347Y50307D01*
X160327Y50321D01*
X160311Y50340D01*
X160228Y50392D01*
X160149Y50449D01*
X160125Y50456D01*
X160104Y50469D01*
X160009Y50491D01*
X159915Y50520D01*
X159891Y50519D01*
X159867Y50525D01*
X159769Y50515D01*
X159671Y50512D01*
X159648Y50503D01*
X159624Y50501D01*
X159535Y50461D01*
X159443Y50426D01*
X159424Y50410D01*
X159402Y50400D01*
X159287Y50307D01*
X158954Y49974D01*
X158897Y49894D01*
X158835Y49819D01*
X158827Y49796D01*
X158812Y49775D01*
X158784Y49682D01*
X158749Y49591D01*
X158746Y49558D01*
X158741Y49542D01*
X158742Y49517D01*
X158735Y49444D01*
X158735Y48687D01*
X158759Y48539D01*
X158774Y48447D01*
X158774Y48446D01*
X158836Y48331D01*
X158889Y48231D01*
X158973Y48153D01*
X159067Y48064D01*
X159068Y48064D01*
X159197Y47995D01*
X161039Y47232D01*
X163437Y44834D01*
X164735Y41701D01*
X164735Y39214D01*
X164739Y39190D01*
X164736Y39165D01*
X164758Y39070D01*
X164774Y38973D01*
X164786Y38952D01*
X164792Y38928D01*
X164843Y38845D01*
X164889Y38758D01*
X164907Y38741D01*
X164920Y38720D01*
X164996Y38658D01*
X165067Y38591D01*
X165090Y38581D01*
X165109Y38565D01*
X165201Y38531D01*
X165290Y38490D01*
X165314Y38488D01*
X165337Y38479D01*
X165435Y38476D01*
X165533Y38466D01*
X165557Y38472D01*
X165581Y38471D01*
X165675Y38499D01*
X165770Y38522D01*
X165791Y38535D01*
X165815Y38542D01*
X165894Y38599D01*
X165978Y38650D01*
X165993Y38669D01*
X166013Y38684D01*
X166107Y38798D01*
X166269Y39041D01*
X167430Y40201D01*
X168794Y41113D01*
X170310Y41741D01*
X171241Y41926D01*
X171241Y29439D01*
X164409Y29439D01*
X164409Y34340D01*
X164397Y34412D01*
X164395Y34486D01*
X164378Y34532D01*
X164370Y34580D01*
X164335Y34645D01*
X164309Y34714D01*
X164278Y34752D01*
X164255Y34796D01*
X164201Y34846D01*
X164154Y34903D01*
X164112Y34929D01*
X164077Y34962D01*
X164010Y34993D01*
X163947Y35032D01*
X163899Y35043D01*
X163854Y35063D01*
X163781Y35071D01*
X163710Y35087D01*
X163661Y35082D01*
X163611Y35087D01*
X163540Y35071D01*
X163467Y35064D01*
X163422Y35043D01*
X163374Y35032D01*
X163311Y34993D01*
X163244Y34963D01*
X163188Y34917D01*
X163166Y34903D01*
X163156Y34890D01*
X163130Y34869D01*
X161039Y32778D01*
X157906Y31480D01*
X154514Y31480D01*
X151381Y32778D01*
X148983Y35176D01*
X148012Y37520D01*
X147973Y37582D01*
X147943Y37649D01*
X147909Y37685D01*
X147883Y37727D01*
X147827Y37774D01*
X147776Y37827D01*
X147733Y37851D01*
X147695Y37882D01*
X147626Y37908D01*
X147561Y37943D01*
X147513Y37951D01*
X147466Y37968D01*
X147393Y37971D01*
X147321Y37983D01*
X147272Y37975D01*
X147223Y37976D01*
X147152Y37955D01*
X147080Y37943D01*
X147036Y37920D01*
X146989Y37905D01*
X146929Y37863D01*
X146864Y37828D01*
X146831Y37792D01*
X146791Y37763D01*
X146748Y37704D01*
X146697Y37650D01*
X146663Y37585D01*
X146648Y37565D01*
X146643Y37549D01*
X146628Y37520D01*
X145657Y35176D01*
X143259Y32778D01*
X141418Y32015D01*
X141417Y32015D01*
X141321Y31955D01*
X141210Y31887D01*
X141210Y31886D01*
X141122Y31779D01*
X141055Y31698D01*
X141003Y31560D01*
X140969Y31470D01*
X140969Y31469D01*
X140969Y31468D01*
X140955Y31323D01*
X140955Y26756D01*
X140971Y26660D01*
X140980Y26563D01*
X140990Y26540D01*
X140994Y26515D01*
X141040Y26429D01*
X141081Y26341D01*
X141102Y26315D01*
X141109Y26300D01*
X141128Y26283D01*
X141174Y26226D01*
X141507Y25893D01*
X141527Y25879D01*
X141543Y25860D01*
X141626Y25808D01*
X141706Y25751D01*
X141729Y25744D01*
X141750Y25731D01*
X141845Y25709D01*
X141939Y25680D01*
X141964Y25681D01*
X141987Y25675D01*
X142085Y25685D01*
X142183Y25688D01*
X142206Y25697D01*
X142230Y25699D01*
X142320Y25739D01*
X142411Y25774D01*
X142430Y25789D01*
X142453Y25800D01*
X142567Y25893D01*
X144590Y27917D01*
X148780Y27917D01*
X151742Y24955D01*
X151742Y20765D01*
X148780Y17803D01*
X144590Y17803D01*
X142278Y20116D01*
X142198Y20173D01*
X142123Y20235D01*
X142100Y20243D01*
X142080Y20258D01*
X141986Y20286D01*
X141895Y20321D01*
X141862Y20324D01*
X141846Y20329D01*
X141821Y20328D01*
X141748Y20335D01*
X139924Y20335D01*
X135905Y24354D01*
X135905Y31323D01*
X135884Y31451D01*
X135866Y31563D01*
X135866Y31564D01*
X135804Y31679D01*
X135751Y31779D01*
X135667Y31857D01*
X135573Y31946D01*
X135572Y31946D01*
X135443Y32015D01*
X133601Y32778D01*
X131203Y35176D01*
X129905Y38309D01*
X129905Y38474D01*
X129889Y38571D01*
X129880Y38668D01*
X129870Y38691D01*
X129866Y38715D01*
X129819Y38801D01*
X129779Y38890D01*
X129762Y38908D01*
X129751Y38930D01*
X129679Y38997D01*
X129612Y39069D01*
X129591Y39080D01*
X129573Y39097D01*
X129484Y39138D01*
X129397Y39184D01*
X129373Y39188D01*
X129350Y39198D01*
X129253Y39208D01*
X129157Y39224D01*
X129132Y39220D01*
X129107Y39222D01*
X129012Y39200D01*
X128916Y39184D01*
X128894Y39172D01*
X128870Y39167D01*
X128787Y39115D01*
X128700Y39069D01*
X128684Y39051D01*
X128662Y39038D01*
X128600Y38963D01*
X128533Y38891D01*
X128518Y38862D01*
X128508Y38850D01*
X128499Y38826D01*
X128464Y38761D01*
X127242Y35811D01*
X124844Y33413D01*
X121711Y32115D01*
X118319Y32115D01*
X115186Y33413D01*
X112788Y35811D01*
X112367Y36828D01*
X112328Y36890D01*
X112298Y36957D01*
X112264Y36993D01*
X112238Y37035D01*
X112181Y37081D01*
X112131Y37135D01*
X112088Y37158D01*
X112050Y37190D01*
X111981Y37216D01*
X111916Y37250D01*
X111868Y37258D01*
X111821Y37276D01*
X111748Y37278D01*
X111675Y37290D01*
X111627Y37282D01*
X111577Y37284D01*
X111507Y37262D01*
X111435Y37251D01*
X111391Y37227D01*
X111344Y37213D01*
X111284Y37170D01*
X111219Y37136D01*
X111186Y37100D01*
X111145Y37071D01*
X111103Y37011D01*
X111052Y36958D01*
X111018Y36893D01*
X111003Y36873D01*
X110998Y36857D01*
X110983Y36828D01*
X110690Y36121D01*
X110342Y35601D01*
X109842Y34852D01*
X109842Y34851D01*
X109646Y34558D01*
X108317Y33229D01*
X106754Y32185D01*
X105018Y31466D01*
X103734Y31211D01*
X103734Y39890D01*
X103730Y39914D01*
X103733Y39938D01*
X103710Y40034D01*
X103694Y40131D01*
X103683Y40152D01*
X103677Y40176D01*
X103626Y40259D01*
X103579Y40346D01*
X103562Y40363D01*
X103549Y40383D01*
X103473Y40446D01*
X103401Y40513D01*
X103379Y40523D01*
X103360Y40538D01*
X103269Y40573D01*
X103179Y40614D01*
X103155Y40616D01*
X103132Y40625D01*
X102985Y40639D01*
X102234Y40639D01*
X102234Y41390D01*
X102230Y41414D01*
X102233Y41438D01*
X102210Y41534D01*
X102194Y41631D01*
X102183Y41652D01*
X102177Y41676D01*
X102126Y41759D01*
X102079Y41846D01*
X102062Y41863D01*
X102049Y41883D01*
X101973Y41946D01*
X101901Y42013D01*
X101879Y42023D01*
X101860Y42038D01*
X101769Y42073D01*
X101679Y42114D01*
X101655Y42116D01*
X101632Y42125D01*
X101485Y42139D01*
X92806Y42139D01*
X93061Y43423D01*
X93780Y45159D01*
X93845Y45257D01*
X93846Y45257D01*
X94346Y46006D01*
X94346Y46007D01*
X94824Y46722D01*
X95734Y47631D01*
X95776Y47691D01*
X95827Y47745D01*
X95847Y47789D01*
X95876Y47830D01*
X95897Y47900D01*
X95927Y47967D01*
X95932Y48016D01*
X95947Y48063D01*
X95944Y48136D01*
X95951Y48210D01*
X95940Y48258D01*
X95939Y48307D01*
X95913Y48376D01*
X95896Y48447D01*
X95870Y48489D01*
X95853Y48535D01*
X95806Y48592D01*
X95768Y48655D01*
X95729Y48686D01*
X95698Y48724D01*
X95636Y48763D01*
X95579Y48810D01*
X95533Y48827D01*
X95491Y48853D01*
X95419Y48870D01*
X95351Y48896D01*
X95278Y48903D01*
X95253Y48909D01*
X95237Y48907D01*
X95204Y48910D01*
X37689Y48910D01*
X30735Y55864D01*
X30735Y64726D01*
X30723Y64798D01*
X30721Y64872D01*
X30703Y64918D01*
X30695Y64967D01*
X30661Y65031D01*
X30635Y65100D01*
X30604Y65138D01*
X30580Y65182D01*
X30527Y65232D01*
X30480Y65289D01*
X30438Y65315D01*
X30402Y65349D01*
X30335Y65379D01*
X30273Y65418D01*
X30225Y65429D01*
X30180Y65449D01*
X30107Y65457D01*
X30036Y65473D01*
X29987Y65469D01*
X29937Y65473D01*
X29866Y65457D01*
X29793Y65450D01*
X29748Y65429D01*
X29700Y65418D01*
X29637Y65379D01*
X29570Y65349D01*
X29514Y65303D01*
X29492Y65290D01*
X29482Y65277D01*
X29456Y65256D01*
X28956Y64756D01*
X28899Y64676D01*
X28837Y64601D01*
X28828Y64578D01*
X28814Y64557D01*
X28786Y64464D01*
X28751Y64373D01*
X28748Y64340D01*
X28743Y64324D01*
X28744Y64299D01*
X28737Y64226D01*
X28737Y52955D01*
X19929Y44147D01*
X19900Y44107D01*
X19864Y44074D01*
X19830Y44009D01*
X19787Y43949D01*
X19772Y43902D01*
X19749Y43859D01*
X19737Y43786D01*
X19716Y43716D01*
X19717Y43666D01*
X19709Y43618D01*
X19721Y43545D01*
X19724Y43472D01*
X19741Y43426D01*
X19749Y43377D01*
X19784Y43312D01*
X19810Y43243D01*
X19841Y43205D01*
X19864Y43162D01*
X19917Y43112D01*
X19964Y43055D01*
X20006Y43029D01*
X20042Y42995D01*
X20170Y42926D01*
X20171Y42926D01*
X20172Y42925D01*
X20477Y42799D01*
X23550Y39726D01*
X25213Y35712D01*
X25213Y31366D01*
X23550Y27352D01*
X20477Y24279D01*
X16463Y22616D01*
X12117Y22616D01*
X8103Y24279D01*
X5211Y27171D01*
X5158Y27209D01*
X5111Y27255D01*
X5059Y27280D01*
X5013Y27313D01*
X4950Y27332D01*
X4891Y27360D01*
X4834Y27367D01*
X4779Y27384D01*
X4714Y27382D01*
X4649Y27390D01*
X4593Y27378D01*
X4535Y27376D01*
X4474Y27353D01*
X4410Y27339D01*
X4361Y27310D01*
X4307Y27290D01*
X4256Y27249D01*
X4200Y27215D01*
X4163Y27172D01*
X4118Y27135D01*
X4084Y27080D01*
X4041Y27030D01*
X4019Y26977D01*
X3989Y26928D01*
X3974Y26865D01*
X3950Y26804D01*
X3939Y26713D01*
X3934Y26691D01*
X3935Y26679D01*
X3932Y26657D01*
X3924Y26259D01*
X3927Y26235D01*
X3924Y26211D01*
X3945Y26065D01*
X5610Y19277D01*
X5632Y19224D01*
X5645Y19169D01*
X5699Y19067D01*
X5706Y19052D01*
X5710Y19048D01*
X5715Y19039D01*
X9601Y13229D01*
X9640Y13187D01*
X9671Y13140D01*
X9756Y13063D01*
X9768Y13051D01*
X9773Y13048D01*
X9781Y13041D01*
X15419Y8911D01*
X15470Y8885D01*
X15516Y8851D01*
X15622Y8808D01*
X15637Y8801D01*
X15643Y8800D01*
X15653Y8796D01*
X22364Y6844D01*
X22388Y6841D01*
X22411Y6832D01*
X22557Y6814D01*
X25229Y6757D01*
X25235Y6758D01*
X25245Y6757D01*
X26350Y6757D01*
X26367Y6759D01*
X26400Y6758D01*
X27181Y6810D01*
X27237Y6797D01*
X27305Y6771D01*
X27379Y6764D01*
X27403Y6758D01*
X27420Y6760D01*
X27452Y6757D01*
X233199Y6757D01*
X233285Y6771D01*
X233372Y6777D01*
X233395Y6787D01*
X234467Y6757D01*
X234475Y6758D01*
X234488Y6757D01*
X235569Y6757D01*
X235610Y6740D01*
X235659Y6734D01*
X235680Y6727D01*
X235703Y6728D01*
X235757Y6721D01*
X236052Y6713D01*
X236077Y6716D01*
G37*
%LPC*%
G36*
X181573Y337600D02*
X181573Y337600D01*
X180680Y338493D01*
X180680Y339356D01*
X180676Y339380D01*
X180679Y339405D01*
X180657Y339500D01*
X180641Y339597D01*
X180629Y339618D01*
X180623Y339642D01*
X180572Y339726D01*
X180526Y339812D01*
X180508Y339829D01*
X180495Y339850D01*
X180419Y339912D01*
X180348Y339979D01*
X180325Y339989D01*
X180306Y340005D01*
X180215Y340039D01*
X180125Y340080D01*
X180101Y340082D01*
X180078Y340091D01*
X179931Y340105D01*
X129761Y340105D01*
X122935Y346931D01*
X122935Y351571D01*
X122931Y351595D01*
X122934Y351620D01*
X122912Y351715D01*
X122896Y351812D01*
X122884Y351833D01*
X122878Y351857D01*
X122827Y351941D01*
X122781Y352027D01*
X122763Y352044D01*
X122750Y352065D01*
X122674Y352127D01*
X122603Y352194D01*
X122580Y352204D01*
X122561Y352220D01*
X122470Y352254D01*
X122380Y352295D01*
X122356Y352297D01*
X122333Y352306D01*
X122186Y352320D01*
X109003Y352320D01*
X108110Y353213D01*
X108110Y380477D01*
X109003Y381370D01*
X122821Y381370D01*
X122845Y381374D01*
X122870Y381371D01*
X122965Y381393D01*
X123062Y381409D01*
X123083Y381421D01*
X123107Y381427D01*
X123191Y381478D01*
X123277Y381524D01*
X123294Y381542D01*
X123315Y381555D01*
X123377Y381631D01*
X123444Y381702D01*
X123454Y381725D01*
X123470Y381744D01*
X123504Y381835D01*
X123545Y381925D01*
X123547Y381949D01*
X123556Y381972D01*
X123570Y382119D01*
X123570Y404274D01*
X132301Y413005D01*
X143831Y413005D01*
X143855Y413009D01*
X143880Y413006D01*
X143975Y413028D01*
X144072Y413044D01*
X144093Y413056D01*
X144117Y413062D01*
X144201Y413113D01*
X144287Y413159D01*
X144304Y413177D01*
X144325Y413190D01*
X144387Y413266D01*
X144454Y413337D01*
X144464Y413360D01*
X144480Y413379D01*
X144514Y413470D01*
X144555Y413560D01*
X144557Y413584D01*
X144566Y413607D01*
X144580Y413754D01*
X144580Y421450D01*
X145473Y422343D01*
X170417Y422343D01*
X171310Y421450D01*
X171310Y399574D01*
X171322Y399502D01*
X171324Y399428D01*
X171341Y399382D01*
X171349Y399333D01*
X171384Y399268D01*
X171410Y399200D01*
X171441Y399162D01*
X171464Y399118D01*
X171518Y399068D01*
X171565Y399011D01*
X171607Y398985D01*
X171642Y398951D01*
X171709Y398921D01*
X171772Y398882D01*
X171820Y398871D01*
X171865Y398850D01*
X171938Y398843D01*
X172009Y398826D01*
X172058Y398831D01*
X172108Y398826D01*
X172179Y398843D01*
X172252Y398850D01*
X172297Y398870D01*
X172345Y398882D01*
X172408Y398920D01*
X172475Y398951D01*
X172531Y398997D01*
X172553Y399010D01*
X172563Y399023D01*
X172589Y399044D01*
X173151Y399606D01*
X174849Y401305D01*
X176761Y401305D01*
X176785Y401309D01*
X176810Y401306D01*
X176905Y401328D01*
X177002Y401344D01*
X177023Y401356D01*
X177047Y401362D01*
X177131Y401413D01*
X177217Y401459D01*
X177234Y401477D01*
X177255Y401490D01*
X177317Y401566D01*
X177384Y401637D01*
X177394Y401660D01*
X177410Y401679D01*
X177444Y401770D01*
X177485Y401860D01*
X177487Y401884D01*
X177496Y401907D01*
X177510Y402054D01*
X177510Y402412D01*
X178403Y403305D01*
X185296Y403305D01*
X185393Y403321D01*
X185489Y403330D01*
X185512Y403340D01*
X185537Y403344D01*
X185623Y403390D01*
X185712Y403431D01*
X185737Y403452D01*
X185752Y403459D01*
X185769Y403478D01*
X185826Y403524D01*
X186115Y403813D01*
X186694Y404148D01*
X187341Y404321D01*
X189026Y404321D01*
X189026Y399380D01*
X189030Y399356D01*
X189027Y399332D01*
X189049Y399236D01*
X189065Y399139D01*
X189077Y399118D01*
X189083Y399094D01*
X189134Y399011D01*
X189180Y398924D01*
X189198Y398908D01*
X189211Y398887D01*
X189287Y398824D01*
X189333Y398782D01*
X189319Y398774D01*
X189302Y398756D01*
X189281Y398744D01*
X189219Y398668D01*
X189152Y398596D01*
X189142Y398574D01*
X189126Y398555D01*
X189092Y398463D01*
X189051Y398374D01*
X189049Y398350D01*
X189040Y398327D01*
X189026Y398180D01*
X189026Y393239D01*
X187341Y393239D01*
X186694Y393412D01*
X186115Y393747D01*
X185826Y394036D01*
X185747Y394093D01*
X185671Y394155D01*
X185648Y394163D01*
X185628Y394178D01*
X185534Y394206D01*
X185443Y394241D01*
X185410Y394244D01*
X185394Y394249D01*
X185369Y394248D01*
X185296Y394255D01*
X178403Y394255D01*
X177994Y394665D01*
X177934Y394708D01*
X177880Y394758D01*
X177836Y394778D01*
X177795Y394807D01*
X177725Y394828D01*
X177658Y394859D01*
X177609Y394864D01*
X177562Y394878D01*
X177489Y394876D01*
X177415Y394883D01*
X177367Y394872D01*
X177318Y394870D01*
X177249Y394844D01*
X177178Y394828D01*
X177136Y394802D01*
X177090Y394784D01*
X177033Y394738D01*
X176970Y394699D01*
X176939Y394661D01*
X176901Y394630D01*
X176862Y394567D01*
X176815Y394510D01*
X176798Y394464D01*
X176772Y394422D01*
X176755Y394351D01*
X176729Y394282D01*
X176722Y394209D01*
X176716Y394185D01*
X176718Y394168D01*
X176715Y394135D01*
X176715Y390084D01*
X176719Y390060D01*
X176716Y390035D01*
X176738Y389940D01*
X176754Y389843D01*
X176766Y389822D01*
X176772Y389798D01*
X176823Y389714D01*
X176869Y389628D01*
X176887Y389611D01*
X176900Y389590D01*
X176976Y389528D01*
X177047Y389461D01*
X177070Y389451D01*
X177089Y389435D01*
X177180Y389401D01*
X177270Y389360D01*
X177294Y389358D01*
X177317Y389349D01*
X177464Y389335D01*
X178822Y389335D01*
X179715Y388442D01*
X179715Y381178D01*
X179173Y380637D01*
X179159Y380617D01*
X179140Y380601D01*
X179088Y380518D01*
X179031Y380438D01*
X179024Y380415D01*
X179011Y380394D01*
X178988Y380299D01*
X178960Y380205D01*
X178961Y380180D01*
X178955Y380157D01*
X178965Y380059D01*
X178968Y379961D01*
X178976Y379938D01*
X178979Y379914D01*
X179019Y379824D01*
X179054Y379733D01*
X179069Y379714D01*
X179079Y379691D01*
X179173Y379577D01*
X181262Y377488D01*
X181262Y377399D01*
X181266Y377375D01*
X181263Y377350D01*
X181285Y377255D01*
X181301Y377158D01*
X181313Y377137D01*
X181319Y377113D01*
X181370Y377029D01*
X181416Y376943D01*
X181434Y376926D01*
X181447Y376905D01*
X181523Y376843D01*
X181594Y376776D01*
X181617Y376766D01*
X181636Y376750D01*
X181727Y376716D01*
X181817Y376675D01*
X181841Y376673D01*
X181864Y376664D01*
X182011Y376650D01*
X183337Y376650D01*
X184230Y375757D01*
X184230Y360493D01*
X183337Y359600D01*
X172073Y359600D01*
X171180Y360493D01*
X171180Y362880D01*
X171168Y362953D01*
X171166Y363026D01*
X171149Y363072D01*
X171141Y363121D01*
X171106Y363186D01*
X171080Y363254D01*
X171049Y363293D01*
X171026Y363336D01*
X170972Y363386D01*
X170925Y363443D01*
X170883Y363469D01*
X170848Y363503D01*
X170781Y363533D01*
X170718Y363572D01*
X170670Y363583D01*
X170625Y363604D01*
X170552Y363611D01*
X170481Y363628D01*
X170432Y363623D01*
X170382Y363628D01*
X170311Y363611D01*
X170238Y363604D01*
X170193Y363584D01*
X170145Y363573D01*
X170082Y363534D01*
X170015Y363504D01*
X169959Y363457D01*
X169937Y363444D01*
X169927Y363431D01*
X169901Y363410D01*
X169100Y362608D01*
X164910Y362608D01*
X161948Y365570D01*
X161948Y369760D01*
X164910Y372722D01*
X169100Y372722D01*
X169901Y371920D01*
X169961Y371877D01*
X170015Y371827D01*
X170059Y371807D01*
X170100Y371778D01*
X170170Y371757D01*
X170237Y371726D01*
X170286Y371721D01*
X170333Y371707D01*
X170406Y371709D01*
X170480Y371702D01*
X170528Y371713D01*
X170577Y371715D01*
X170646Y371741D01*
X170717Y371757D01*
X170759Y371783D01*
X170805Y371801D01*
X170862Y371847D01*
X170925Y371886D01*
X170956Y371924D01*
X170994Y371955D01*
X171033Y372018D01*
X171080Y372075D01*
X171097Y372121D01*
X171123Y372163D01*
X171140Y372234D01*
X171166Y372303D01*
X171173Y372376D01*
X171179Y372400D01*
X171177Y372417D01*
X171180Y372450D01*
X171180Y375757D01*
X171527Y376103D01*
X171541Y376123D01*
X171560Y376139D01*
X171612Y376222D01*
X171669Y376302D01*
X171676Y376325D01*
X171689Y376346D01*
X171712Y376441D01*
X171740Y376535D01*
X171739Y376560D01*
X171745Y376583D01*
X171735Y376681D01*
X171732Y376779D01*
X171724Y376802D01*
X171721Y376826D01*
X171681Y376916D01*
X171646Y377007D01*
X171631Y377026D01*
X171621Y377049D01*
X171527Y377163D01*
X170633Y378057D01*
X170633Y379536D01*
X170629Y379560D01*
X170632Y379585D01*
X170610Y379680D01*
X170594Y379777D01*
X170582Y379798D01*
X170576Y379822D01*
X170525Y379906D01*
X170479Y379992D01*
X170461Y380009D01*
X170448Y380030D01*
X170372Y380092D01*
X170301Y380159D01*
X170278Y380169D01*
X170259Y380185D01*
X170168Y380219D01*
X170078Y380260D01*
X170054Y380262D01*
X170031Y380271D01*
X169884Y380285D01*
X169558Y380285D01*
X168665Y381178D01*
X168665Y388442D01*
X169558Y389335D01*
X170916Y389335D01*
X170940Y389339D01*
X170965Y389336D01*
X171060Y389358D01*
X171157Y389374D01*
X171178Y389386D01*
X171202Y389392D01*
X171286Y389443D01*
X171372Y389489D01*
X171389Y389507D01*
X171410Y389520D01*
X171472Y389596D01*
X171539Y389667D01*
X171549Y389690D01*
X171565Y389709D01*
X171599Y389800D01*
X171640Y389890D01*
X171642Y389914D01*
X171651Y389937D01*
X171665Y390084D01*
X171665Y394697D01*
X171653Y394770D01*
X171651Y394843D01*
X171634Y394889D01*
X171626Y394938D01*
X171591Y395003D01*
X171565Y395072D01*
X171534Y395110D01*
X171511Y395153D01*
X171457Y395203D01*
X171410Y395260D01*
X171368Y395286D01*
X171333Y395320D01*
X171266Y395350D01*
X171203Y395389D01*
X171155Y395400D01*
X171110Y395421D01*
X171037Y395428D01*
X170966Y395445D01*
X170917Y395440D01*
X170867Y395445D01*
X170796Y395428D01*
X170723Y395421D01*
X170678Y395401D01*
X170630Y395390D01*
X170567Y395351D01*
X170500Y395321D01*
X170444Y395274D01*
X170422Y395261D01*
X170420Y395257D01*
X145473Y395257D01*
X144580Y396150D01*
X144580Y404126D01*
X144576Y404150D01*
X144579Y404175D01*
X144557Y404270D01*
X144541Y404367D01*
X144529Y404388D01*
X144523Y404412D01*
X144472Y404496D01*
X144426Y404582D01*
X144408Y404599D01*
X144395Y404620D01*
X144319Y404682D01*
X144248Y404749D01*
X144225Y404759D01*
X144206Y404775D01*
X144115Y404809D01*
X144025Y404850D01*
X144001Y404852D01*
X143978Y404861D01*
X143831Y404875D01*
X135979Y404875D01*
X135883Y404859D01*
X135786Y404850D01*
X135763Y404840D01*
X135738Y404836D01*
X135652Y404790D01*
X135563Y404749D01*
X135538Y404728D01*
X135523Y404721D01*
X135506Y404702D01*
X135449Y404656D01*
X131919Y401126D01*
X131862Y401046D01*
X131800Y400971D01*
X131792Y400948D01*
X131777Y400927D01*
X131749Y400834D01*
X131714Y400743D01*
X131711Y400710D01*
X131706Y400694D01*
X131707Y400669D01*
X131700Y400596D01*
X131700Y382119D01*
X131704Y382095D01*
X131701Y382070D01*
X131723Y381975D01*
X131739Y381878D01*
X131751Y381857D01*
X131757Y381833D01*
X131808Y381749D01*
X131854Y381663D01*
X131872Y381646D01*
X131885Y381625D01*
X131961Y381563D01*
X132032Y381496D01*
X132055Y381486D01*
X132074Y381470D01*
X132165Y381436D01*
X132255Y381395D01*
X132279Y381393D01*
X132302Y381384D01*
X132449Y381370D01*
X146267Y381370D01*
X147160Y380477D01*
X147160Y353213D01*
X146267Y352320D01*
X131814Y352320D01*
X131790Y352316D01*
X131765Y352319D01*
X131670Y352297D01*
X131573Y352281D01*
X131552Y352269D01*
X131528Y352263D01*
X131444Y352212D01*
X131358Y352166D01*
X131341Y352148D01*
X131320Y352135D01*
X131258Y352059D01*
X131191Y351988D01*
X131181Y351965D01*
X131165Y351946D01*
X131131Y351855D01*
X131090Y351765D01*
X131088Y351741D01*
X131079Y351718D01*
X131065Y351571D01*
X131065Y350609D01*
X131068Y350588D01*
X131066Y350570D01*
X131081Y350505D01*
X131090Y350416D01*
X131100Y350393D01*
X131104Y350368D01*
X131120Y350339D01*
X131122Y350332D01*
X131137Y350307D01*
X131150Y350282D01*
X131191Y350193D01*
X131212Y350168D01*
X131219Y350153D01*
X131238Y350136D01*
X131284Y350079D01*
X132909Y348454D01*
X132989Y348397D01*
X133064Y348335D01*
X133087Y348327D01*
X133108Y348312D01*
X133201Y348284D01*
X133292Y348249D01*
X133325Y348246D01*
X133341Y348241D01*
X133366Y348242D01*
X133439Y348235D01*
X179931Y348235D01*
X179955Y348239D01*
X179980Y348236D01*
X180075Y348258D01*
X180172Y348274D01*
X180193Y348286D01*
X180217Y348292D01*
X180301Y348343D01*
X180387Y348389D01*
X180404Y348407D01*
X180425Y348420D01*
X180487Y348496D01*
X180554Y348567D01*
X180564Y348590D01*
X180580Y348609D01*
X180614Y348700D01*
X180655Y348790D01*
X180657Y348814D01*
X180666Y348837D01*
X180680Y348984D01*
X180680Y353757D01*
X181573Y354650D01*
X192837Y354650D01*
X193730Y353757D01*
X193730Y338493D01*
X192837Y337600D01*
X181573Y337600D01*
G37*
%LPD*%
%LPC*%
G36*
X166180Y95908D02*
X166180Y95908D01*
X163218Y98870D01*
X163218Y103060D01*
X164499Y104340D01*
X164543Y104401D01*
X164586Y104448D01*
X164595Y104468D01*
X164618Y104495D01*
X164626Y104518D01*
X164641Y104538D01*
X164668Y104629D01*
X164687Y104670D01*
X164688Y104682D01*
X164704Y104723D01*
X164707Y104756D01*
X164712Y104772D01*
X164711Y104797D01*
X164716Y104842D01*
X164717Y104847D01*
X164716Y104850D01*
X164718Y104870D01*
X164718Y104896D01*
X164705Y104975D01*
X164704Y105016D01*
X164699Y105029D01*
X164693Y105090D01*
X164683Y105112D01*
X164679Y105137D01*
X164633Y105223D01*
X164592Y105312D01*
X164571Y105338D01*
X164564Y105352D01*
X164545Y105369D01*
X164499Y105426D01*
X163211Y106714D01*
X163132Y106771D01*
X163057Y106833D01*
X163033Y106841D01*
X163013Y106856D01*
X162920Y106884D01*
X162828Y106919D01*
X162795Y106922D01*
X162779Y106927D01*
X162754Y106926D01*
X162681Y106933D01*
X145510Y106933D01*
X145414Y106917D01*
X145317Y106908D01*
X145294Y106898D01*
X145269Y106894D01*
X145183Y106848D01*
X145094Y106807D01*
X145069Y106786D01*
X145054Y106779D01*
X145037Y106760D01*
X144980Y106714D01*
X143700Y105433D01*
X139510Y105433D01*
X136548Y108395D01*
X136548Y112585D01*
X137829Y113865D01*
X137886Y113945D01*
X137948Y114020D01*
X137956Y114043D01*
X137971Y114063D01*
X137999Y114157D01*
X138034Y114248D01*
X138037Y114281D01*
X138042Y114297D01*
X138041Y114322D01*
X138048Y114395D01*
X138048Y137363D01*
X140139Y139454D01*
X140196Y139533D01*
X140258Y139608D01*
X140266Y139632D01*
X140281Y139652D01*
X140309Y139745D01*
X140344Y139837D01*
X140347Y139870D01*
X140352Y139886D01*
X140351Y139911D01*
X140358Y139984D01*
X140358Y141795D01*
X141639Y143075D01*
X141696Y143154D01*
X141758Y143230D01*
X141766Y143253D01*
X141781Y143273D01*
X141809Y143367D01*
X141844Y143458D01*
X141847Y143491D01*
X141852Y143507D01*
X141851Y143532D01*
X141858Y143605D01*
X141858Y175463D01*
X153069Y186674D01*
X155372Y188977D01*
X163100Y188977D01*
X163196Y188993D01*
X163293Y189002D01*
X163316Y189012D01*
X163341Y189016D01*
X163427Y189062D01*
X163516Y189103D01*
X163541Y189124D01*
X163556Y189131D01*
X163573Y189150D01*
X163630Y189196D01*
X164910Y190477D01*
X169100Y190477D01*
X172062Y187515D01*
X172062Y183325D01*
X169100Y180363D01*
X164910Y180363D01*
X163630Y181644D01*
X163550Y181701D01*
X163475Y181763D01*
X163452Y181771D01*
X163432Y181786D01*
X163338Y181814D01*
X163247Y181849D01*
X163214Y181852D01*
X163198Y181857D01*
X163173Y181856D01*
X163100Y181863D01*
X158629Y181863D01*
X158532Y181847D01*
X158435Y181838D01*
X158413Y181828D01*
X158388Y181824D01*
X158302Y181778D01*
X158213Y181737D01*
X158187Y181716D01*
X158173Y181709D01*
X158156Y181690D01*
X158099Y181644D01*
X149191Y172736D01*
X149134Y172657D01*
X149072Y172582D01*
X149064Y172558D01*
X149049Y172538D01*
X149021Y172445D01*
X148986Y172353D01*
X148983Y172320D01*
X148978Y172304D01*
X148979Y172279D01*
X148972Y172206D01*
X148972Y143605D01*
X148988Y143509D01*
X148997Y143412D01*
X149007Y143389D01*
X149011Y143364D01*
X149057Y143278D01*
X149098Y143189D01*
X149119Y143164D01*
X149126Y143149D01*
X149145Y143132D01*
X149191Y143075D01*
X150472Y141795D01*
X150472Y137605D01*
X147510Y134643D01*
X145911Y134643D01*
X145887Y134639D01*
X145862Y134642D01*
X145767Y134620D01*
X145670Y134604D01*
X145649Y134592D01*
X145625Y134586D01*
X145541Y134535D01*
X145455Y134489D01*
X145438Y134471D01*
X145417Y134458D01*
X145355Y134382D01*
X145288Y134311D01*
X145278Y134288D01*
X145262Y134269D01*
X145228Y134178D01*
X145187Y134088D01*
X145185Y134064D01*
X145176Y134041D01*
X145162Y133894D01*
X145162Y114796D01*
X145166Y114772D01*
X145163Y114747D01*
X145185Y114652D01*
X145201Y114555D01*
X145213Y114534D01*
X145219Y114510D01*
X145270Y114426D01*
X145316Y114340D01*
X145334Y114323D01*
X145347Y114302D01*
X145423Y114240D01*
X145494Y114173D01*
X145517Y114163D01*
X145536Y114147D01*
X145627Y114113D01*
X145717Y114072D01*
X145741Y114070D01*
X145764Y114061D01*
X145911Y114047D01*
X165938Y114047D01*
X171832Y108153D01*
X171832Y104870D01*
X171839Y104823D01*
X171839Y104816D01*
X171845Y104789D01*
X171848Y104774D01*
X171857Y104677D01*
X171867Y104654D01*
X171871Y104629D01*
X171890Y104594D01*
X171894Y104578D01*
X171922Y104534D01*
X171958Y104454D01*
X171979Y104429D01*
X171986Y104414D01*
X172005Y104397D01*
X172013Y104387D01*
X172023Y104371D01*
X172033Y104363D01*
X172051Y104340D01*
X173332Y103060D01*
X173332Y98870D01*
X170370Y95908D01*
X166180Y95908D01*
G37*
%LPD*%
%LPC*%
G36*
X124905Y50188D02*
X124905Y50188D01*
X121943Y53150D01*
X121943Y57555D01*
X121939Y57579D01*
X121942Y57604D01*
X121920Y57699D01*
X121904Y57796D01*
X121892Y57817D01*
X121886Y57841D01*
X121835Y57925D01*
X121789Y58011D01*
X121771Y58028D01*
X121758Y58049D01*
X121682Y58111D01*
X121611Y58178D01*
X121588Y58188D01*
X121569Y58204D01*
X121478Y58238D01*
X121388Y58279D01*
X121364Y58281D01*
X121341Y58290D01*
X121194Y58304D01*
X109301Y58304D01*
X108654Y58477D01*
X108075Y58812D01*
X107602Y59285D01*
X107267Y59864D01*
X107094Y60511D01*
X107094Y61881D01*
X107078Y61978D01*
X107069Y62075D01*
X107059Y62097D01*
X107055Y62122D01*
X107008Y62208D01*
X106968Y62297D01*
X106951Y62315D01*
X106940Y62337D01*
X106868Y62404D01*
X106801Y62475D01*
X106780Y62487D01*
X106762Y62504D01*
X106673Y62544D01*
X106586Y62591D01*
X106562Y62595D01*
X106539Y62605D01*
X106442Y62614D01*
X106346Y62630D01*
X106321Y62626D01*
X106296Y62629D01*
X106201Y62607D01*
X106105Y62591D01*
X106083Y62579D01*
X106059Y62574D01*
X105976Y62522D01*
X105889Y62476D01*
X105873Y62458D01*
X105851Y62445D01*
X105789Y62369D01*
X105722Y62298D01*
X105707Y62269D01*
X105697Y62256D01*
X105688Y62233D01*
X105653Y62168D01*
X105303Y61324D01*
X103756Y59777D01*
X101734Y58939D01*
X99546Y58939D01*
X97524Y59777D01*
X95977Y61324D01*
X95797Y61758D01*
X95784Y61779D01*
X95777Y61802D01*
X95720Y61882D01*
X95668Y61965D01*
X95649Y61981D01*
X95635Y62001D01*
X95555Y62058D01*
X95480Y62120D01*
X95456Y62129D01*
X95436Y62143D01*
X95343Y62171D01*
X95251Y62206D01*
X95227Y62207D01*
X95203Y62214D01*
X95105Y62211D01*
X95007Y62214D01*
X94984Y62207D01*
X94959Y62206D01*
X94868Y62172D01*
X94774Y62143D01*
X94754Y62129D01*
X94731Y62120D01*
X94655Y62058D01*
X94575Y62001D01*
X94561Y61981D01*
X94542Y61966D01*
X94490Y61883D01*
X94433Y61803D01*
X94426Y61780D01*
X94413Y61759D01*
X94370Y61617D01*
X94351Y61520D01*
X93723Y60004D01*
X93437Y59577D01*
X93437Y59576D01*
X92937Y58828D01*
X92936Y58827D01*
X92811Y58640D01*
X91650Y57479D01*
X90286Y56567D01*
X88770Y55939D01*
X87839Y55754D01*
X87839Y68241D01*
X94671Y68241D01*
X94671Y68059D01*
X94683Y67986D01*
X94685Y67913D01*
X94702Y67867D01*
X94710Y67818D01*
X94745Y67753D01*
X94771Y67684D01*
X94802Y67646D01*
X94825Y67603D01*
X94879Y67553D01*
X94926Y67496D01*
X94968Y67470D01*
X95003Y67436D01*
X95070Y67406D01*
X95133Y67367D01*
X95181Y67356D01*
X95226Y67335D01*
X95299Y67328D01*
X95370Y67311D01*
X95419Y67316D01*
X95469Y67311D01*
X95540Y67328D01*
X95613Y67335D01*
X95658Y67355D01*
X95706Y67366D01*
X95769Y67405D01*
X95836Y67435D01*
X95892Y67482D01*
X95914Y67495D01*
X95924Y67508D01*
X95950Y67529D01*
X97524Y69103D01*
X99546Y69941D01*
X101734Y69941D01*
X103756Y69103D01*
X105303Y67556D01*
X105653Y66712D01*
X105704Y66629D01*
X105750Y66543D01*
X105769Y66526D01*
X105782Y66505D01*
X105857Y66443D01*
X105929Y66376D01*
X105951Y66366D01*
X105970Y66350D01*
X106062Y66316D01*
X106151Y66275D01*
X106175Y66273D01*
X106199Y66264D01*
X106296Y66261D01*
X106394Y66251D01*
X106418Y66257D01*
X106442Y66256D01*
X106536Y66284D01*
X106631Y66306D01*
X106652Y66319D01*
X106676Y66327D01*
X106755Y66383D01*
X106839Y66435D01*
X106854Y66454D01*
X106874Y66469D01*
X106931Y66548D01*
X106994Y66624D01*
X107002Y66647D01*
X107017Y66667D01*
X107045Y66760D01*
X107080Y66852D01*
X107083Y66884D01*
X107088Y66900D01*
X107087Y66925D01*
X107094Y66999D01*
X107094Y72346D01*
X126885Y72346D01*
X126909Y72350D01*
X126933Y72347D01*
X127029Y72370D01*
X127126Y72386D01*
X127147Y72397D01*
X127171Y72403D01*
X127254Y72454D01*
X127341Y72501D01*
X127358Y72518D01*
X127378Y72531D01*
X127441Y72607D01*
X127508Y72679D01*
X127518Y72701D01*
X127533Y72720D01*
X127568Y72811D01*
X127609Y72901D01*
X127611Y72925D01*
X127620Y72948D01*
X127634Y73095D01*
X127634Y73846D01*
X127636Y73846D01*
X127636Y73095D01*
X127640Y73071D01*
X127637Y73047D01*
X127660Y72951D01*
X127676Y72854D01*
X127687Y72833D01*
X127693Y72809D01*
X127744Y72725D01*
X127791Y72639D01*
X127808Y72622D01*
X127821Y72602D01*
X127897Y72539D01*
X127969Y72472D01*
X127991Y72462D01*
X128010Y72447D01*
X128101Y72412D01*
X128191Y72371D01*
X128215Y72369D01*
X128238Y72360D01*
X128385Y72346D01*
X148176Y72346D01*
X148176Y60511D01*
X148067Y60104D01*
X148003Y59864D01*
X147668Y59285D01*
X147195Y58812D01*
X147172Y58799D01*
X147048Y58697D01*
X146983Y58644D01*
X146910Y58527D01*
X146854Y58437D01*
X146817Y58279D01*
X146799Y58199D01*
X146813Y58049D01*
X146822Y57956D01*
X146905Y57774D01*
X146923Y57734D01*
X146923Y57733D01*
X147017Y57620D01*
X147297Y57340D01*
X147297Y53150D01*
X144335Y50188D01*
X140145Y50188D01*
X137833Y52501D01*
X137753Y52558D01*
X137678Y52620D01*
X137655Y52628D01*
X137635Y52643D01*
X137541Y52671D01*
X137450Y52706D01*
X137417Y52709D01*
X137401Y52714D01*
X137376Y52713D01*
X137303Y52720D01*
X131937Y52720D01*
X131841Y52704D01*
X131744Y52695D01*
X131721Y52685D01*
X131696Y52681D01*
X131610Y52635D01*
X131521Y52594D01*
X131496Y52573D01*
X131481Y52566D01*
X131464Y52547D01*
X131407Y52501D01*
X129095Y50188D01*
X124905Y50188D01*
G37*
%LPD*%
G36*
X47226Y218914D02*
X47226Y218914D01*
X47299Y218921D01*
X47344Y218941D01*
X47392Y218953D01*
X47455Y218991D01*
X47521Y219022D01*
X47578Y219068D01*
X47599Y219081D01*
X47610Y219094D01*
X47636Y219115D01*
X51125Y222604D01*
X51139Y222624D01*
X51158Y222640D01*
X51210Y222723D01*
X51267Y222803D01*
X51274Y222826D01*
X51287Y222847D01*
X51309Y222942D01*
X51338Y223036D01*
X51337Y223061D01*
X51343Y223085D01*
X51333Y223182D01*
X51330Y223280D01*
X51321Y223303D01*
X51319Y223327D01*
X51279Y223417D01*
X51244Y223508D01*
X51228Y223527D01*
X51218Y223550D01*
X51125Y223664D01*
X48283Y226505D01*
X48283Y230695D01*
X48691Y231102D01*
X48748Y231181D01*
X48810Y231257D01*
X48818Y231280D01*
X48833Y231300D01*
X48861Y231394D01*
X48896Y231485D01*
X48899Y231518D01*
X48904Y231534D01*
X48903Y231559D01*
X48910Y231632D01*
X48910Y247426D01*
X56025Y254540D01*
X57723Y256239D01*
X69339Y256239D01*
X69363Y256243D01*
X69388Y256240D01*
X69483Y256262D01*
X69580Y256278D01*
X69601Y256290D01*
X69625Y256296D01*
X69709Y256347D01*
X69795Y256393D01*
X69812Y256411D01*
X69833Y256424D01*
X69895Y256500D01*
X69962Y256571D01*
X69972Y256594D01*
X69988Y256613D01*
X70022Y256704D01*
X70063Y256794D01*
X70065Y256818D01*
X70074Y256841D01*
X70088Y256988D01*
X70088Y260695D01*
X77967Y268573D01*
X79274Y269881D01*
X79317Y269941D01*
X79367Y269995D01*
X79388Y270039D01*
X79417Y270080D01*
X79438Y270150D01*
X79468Y270217D01*
X79473Y270266D01*
X79487Y270313D01*
X79485Y270386D01*
X79492Y270460D01*
X79481Y270508D01*
X79480Y270557D01*
X79454Y270626D01*
X79437Y270697D01*
X79411Y270739D01*
X79394Y270785D01*
X79347Y270842D01*
X79308Y270905D01*
X79270Y270936D01*
X79239Y270974D01*
X79177Y271013D01*
X79120Y271060D01*
X79074Y271077D01*
X79032Y271103D01*
X78960Y271120D01*
X78892Y271146D01*
X78819Y271153D01*
X78794Y271159D01*
X78778Y271157D01*
X78745Y271160D01*
X58660Y271160D01*
X58564Y271144D01*
X58467Y271135D01*
X58444Y271125D01*
X58419Y271121D01*
X58333Y271075D01*
X58244Y271034D01*
X58219Y271013D01*
X58204Y271006D01*
X58187Y270987D01*
X58130Y270941D01*
X46576Y259387D01*
X46519Y259307D01*
X46457Y259232D01*
X46449Y259209D01*
X46434Y259188D01*
X46406Y259095D01*
X46371Y259004D01*
X46368Y258971D01*
X46363Y258955D01*
X46364Y258930D01*
X46357Y258857D01*
X46357Y219645D01*
X46369Y219573D01*
X46371Y219499D01*
X46388Y219453D01*
X46396Y219404D01*
X46431Y219340D01*
X46457Y219271D01*
X46488Y219233D01*
X46511Y219189D01*
X46565Y219139D01*
X46611Y219082D01*
X46653Y219056D01*
X46689Y219022D01*
X46756Y218992D01*
X46819Y218953D01*
X46867Y218942D01*
X46912Y218921D01*
X46985Y218914D01*
X47056Y218897D01*
X47105Y218902D01*
X47154Y218897D01*
X47226Y218914D01*
G37*
%LPC*%
G36*
X129134Y75344D02*
X129134Y75344D01*
X129134Y89386D01*
X145969Y89386D01*
X146616Y89213D01*
X147195Y88878D01*
X147668Y88405D01*
X148003Y87826D01*
X148176Y87179D01*
X148176Y75344D01*
X129134Y75344D01*
G37*
%LPD*%
%LPC*%
G36*
X107094Y75344D02*
X107094Y75344D01*
X107094Y87179D01*
X107267Y87826D01*
X107602Y88405D01*
X108075Y88878D01*
X108654Y89213D01*
X109301Y89386D01*
X126136Y89386D01*
X126136Y75344D01*
X107094Y75344D01*
G37*
%LPD*%
%LPC*%
G36*
X86170Y152423D02*
X86170Y152423D01*
X83208Y155385D01*
X83208Y159575D01*
X85346Y161713D01*
X85361Y161733D01*
X85380Y161748D01*
X85431Y161831D01*
X85489Y161911D01*
X85496Y161934D01*
X85509Y161955D01*
X85531Y162051D01*
X85559Y162145D01*
X85559Y162169D01*
X85564Y162193D01*
X85555Y162290D01*
X85552Y162388D01*
X85543Y162411D01*
X85541Y162436D01*
X85500Y162525D01*
X85466Y162617D01*
X85450Y162636D01*
X85440Y162658D01*
X85346Y162772D01*
X83208Y164910D01*
X83208Y169100D01*
X86170Y172062D01*
X90360Y172062D01*
X93322Y169100D01*
X93322Y164910D01*
X91184Y162772D01*
X91169Y162752D01*
X91150Y162737D01*
X91099Y162654D01*
X91041Y162574D01*
X91034Y162550D01*
X91021Y162530D01*
X90999Y162434D01*
X90971Y162340D01*
X90971Y162316D01*
X90966Y162292D01*
X90975Y162195D01*
X90978Y162097D01*
X90987Y162074D01*
X90989Y162049D01*
X91030Y161960D01*
X91064Y161868D01*
X91080Y161849D01*
X91090Y161827D01*
X91184Y161713D01*
X93322Y159575D01*
X93322Y155385D01*
X90360Y152423D01*
X86170Y152423D01*
G37*
%LPD*%
%LPC*%
G36*
X97020Y410299D02*
X97020Y410299D01*
X97020Y423359D01*
X107695Y423359D01*
X108342Y423186D01*
X108921Y422851D01*
X109394Y422378D01*
X109729Y421799D01*
X109902Y421152D01*
X109902Y410299D01*
X97020Y410299D01*
G37*
%LPD*%
%LPC*%
G36*
X81140Y410299D02*
X81140Y410299D01*
X81140Y421152D01*
X81261Y421603D01*
X81313Y421799D01*
X81648Y422378D01*
X82121Y422851D01*
X82700Y423186D01*
X83347Y423359D01*
X94022Y423359D01*
X94022Y410299D01*
X81140Y410299D01*
G37*
%LPD*%
%LPC*%
G36*
X97020Y394241D02*
X97020Y394241D01*
X97020Y407301D01*
X109902Y407301D01*
X109902Y396448D01*
X109729Y395801D01*
X109394Y395222D01*
X108921Y394749D01*
X108342Y394414D01*
X107695Y394241D01*
X97020Y394241D01*
G37*
%LPD*%
%LPC*%
G36*
X83347Y394241D02*
X83347Y394241D01*
X82700Y394414D01*
X82121Y394749D01*
X81648Y395222D01*
X81313Y395801D01*
X81140Y396448D01*
X81140Y407301D01*
X94022Y407301D01*
X94022Y394241D01*
X83347Y394241D01*
G37*
%LPD*%
%LPC*%
G36*
X87839Y29439D02*
X87839Y29439D01*
X87839Y41926D01*
X88770Y41741D01*
X90286Y41113D01*
X91650Y40201D01*
X92491Y39360D01*
X92571Y39303D01*
X92646Y39242D01*
X92669Y39233D01*
X92690Y39218D01*
X92783Y39190D01*
X92874Y39155D01*
X92907Y39152D01*
X92923Y39147D01*
X92948Y39148D01*
X93021Y39141D01*
X100736Y39141D01*
X100736Y31211D01*
X99452Y31466D01*
X97716Y32185D01*
X96153Y33229D01*
X95950Y33433D01*
X95890Y33475D01*
X95836Y33526D01*
X95792Y33546D01*
X95751Y33575D01*
X95681Y33596D01*
X95614Y33626D01*
X95565Y33631D01*
X95518Y33646D01*
X95445Y33643D01*
X95371Y33650D01*
X95323Y33639D01*
X95274Y33638D01*
X95205Y33612D01*
X95134Y33595D01*
X95092Y33569D01*
X95046Y33552D01*
X94989Y33505D01*
X94926Y33467D01*
X94895Y33428D01*
X94857Y33397D01*
X94818Y33335D01*
X94771Y33278D01*
X94754Y33232D01*
X94728Y33190D01*
X94711Y33118D01*
X94685Y33050D01*
X94678Y32977D01*
X94672Y32952D01*
X94674Y32936D01*
X94671Y32903D01*
X94671Y29439D01*
X87839Y29439D01*
G37*
%LPD*%
%LPC*%
G36*
X102045Y101623D02*
X102045Y101623D01*
X99083Y104585D01*
X99083Y108775D01*
X102045Y111737D01*
X106235Y111737D01*
X109197Y108775D01*
X109197Y104585D01*
X106235Y101623D01*
X102045Y101623D01*
G37*
%LPD*%
%LPC*%
G36*
X221425Y10183D02*
X221425Y10183D01*
X218463Y13145D01*
X218463Y17335D01*
X221425Y20297D01*
X225615Y20297D01*
X228577Y17335D01*
X228577Y13145D01*
X225615Y10183D01*
X221425Y10183D01*
G37*
%LPD*%
%LPC*%
G36*
X30925Y13993D02*
X30925Y13993D01*
X27963Y16955D01*
X27963Y21145D01*
X30925Y24107D01*
X35115Y24107D01*
X38077Y21145D01*
X38077Y16955D01*
X35115Y13993D01*
X30925Y13993D01*
G37*
%LPD*%
%LPC*%
G36*
X53785Y401978D02*
X53785Y401978D01*
X50823Y404940D01*
X50823Y409130D01*
X53785Y412092D01*
X57975Y412092D01*
X60937Y409130D01*
X60937Y404940D01*
X57975Y401978D01*
X53785Y401978D01*
G37*
%LPD*%
%LPC*%
G36*
X76010Y172743D02*
X76010Y172743D01*
X73048Y175705D01*
X73048Y179895D01*
X76010Y182857D01*
X80200Y182857D01*
X83162Y179895D01*
X83162Y175705D01*
X80200Y172743D01*
X76010Y172743D01*
G37*
%LPD*%
%LPC*%
G36*
X190945Y102893D02*
X190945Y102893D01*
X187983Y105855D01*
X187983Y110045D01*
X190945Y113007D01*
X195135Y113007D01*
X198097Y110045D01*
X198097Y105855D01*
X195135Y102893D01*
X190945Y102893D01*
G37*
%LPD*%
%LPC*%
G36*
X230720Y416829D02*
X230720Y416829D01*
X230925Y418126D01*
X231506Y419913D01*
X232359Y421587D01*
X233464Y423107D01*
X234793Y424436D01*
X236313Y425541D01*
X237987Y426394D01*
X239774Y426975D01*
X241071Y427180D01*
X241071Y416829D01*
X230720Y416829D01*
G37*
%LPD*%
%LPC*%
G36*
X239774Y403685D02*
X239774Y403685D01*
X237987Y404266D01*
X236313Y405119D01*
X234793Y406224D01*
X233464Y407553D01*
X232359Y409073D01*
X231506Y410747D01*
X230925Y412534D01*
X230720Y413831D01*
X241071Y413831D01*
X241071Y403480D01*
X239774Y403685D01*
G37*
%LPD*%
%LPC*%
G36*
X87839Y71239D02*
X87839Y71239D01*
X87839Y83726D01*
X88770Y83541D01*
X90286Y82913D01*
X91650Y82001D01*
X92811Y80840D01*
X93723Y79476D01*
X94351Y77960D01*
X94671Y76351D01*
X94671Y71239D01*
X87839Y71239D01*
G37*
%LPD*%
%LPC*%
G36*
X174239Y29439D02*
X174239Y29439D01*
X174239Y41926D01*
X175170Y41741D01*
X176686Y41113D01*
X178050Y40201D01*
X179211Y39040D01*
X180123Y37676D01*
X180751Y36160D01*
X181071Y34551D01*
X181071Y29439D01*
X174239Y29439D01*
G37*
%LPD*%
%LPC*%
G36*
X174239Y71239D02*
X174239Y71239D01*
X174239Y83726D01*
X175170Y83541D01*
X176686Y82913D01*
X178050Y82001D01*
X179211Y80840D01*
X180123Y79476D01*
X180751Y77960D01*
X181071Y76351D01*
X181071Y71239D01*
X174239Y71239D01*
G37*
%LPD*%
%LPC*%
G36*
X174239Y26441D02*
X174239Y26441D01*
X181071Y26441D01*
X181071Y21329D01*
X180751Y19720D01*
X180123Y18204D01*
X179732Y17619D01*
X179731Y17619D01*
X179231Y16870D01*
X179231Y16869D01*
X179211Y16840D01*
X178050Y15679D01*
X176686Y14767D01*
X175170Y14139D01*
X174239Y13954D01*
X174239Y26441D01*
G37*
%LPD*%
%LPC*%
G36*
X87839Y26441D02*
X87839Y26441D01*
X94671Y26441D01*
X94671Y21329D01*
X94351Y19720D01*
X93723Y18204D01*
X93332Y17619D01*
X93331Y17619D01*
X92831Y16870D01*
X92831Y16869D01*
X92811Y16840D01*
X91650Y15679D01*
X90286Y14767D01*
X88770Y14139D01*
X87839Y13954D01*
X87839Y26441D01*
G37*
%LPD*%
%LPC*%
G36*
X174239Y68241D02*
X174239Y68241D01*
X181071Y68241D01*
X181071Y63129D01*
X180751Y61520D01*
X180123Y60004D01*
X179837Y59577D01*
X179837Y59576D01*
X179337Y58828D01*
X179336Y58827D01*
X179211Y58640D01*
X178050Y57479D01*
X176686Y56567D01*
X175170Y55939D01*
X174239Y55754D01*
X174239Y68241D01*
G37*
%LPD*%
%LPC*%
G36*
X78009Y29439D02*
X78009Y29439D01*
X78009Y34551D01*
X78329Y36160D01*
X78957Y37676D01*
X79016Y37765D01*
X79017Y37765D01*
X79517Y38514D01*
X79869Y39040D01*
X81030Y40201D01*
X82394Y41113D01*
X83910Y41741D01*
X84841Y41926D01*
X84841Y29439D01*
X78009Y29439D01*
G37*
%LPD*%
%LPC*%
G36*
X78009Y71239D02*
X78009Y71239D01*
X78009Y76351D01*
X78329Y77960D01*
X78957Y79476D01*
X79122Y79723D01*
X79623Y80472D01*
X79869Y80840D01*
X81030Y82001D01*
X82394Y82913D01*
X83910Y83541D01*
X84841Y83726D01*
X84841Y71239D01*
X78009Y71239D01*
G37*
%LPD*%
%LPC*%
G36*
X164409Y71239D02*
X164409Y71239D01*
X164409Y76351D01*
X164729Y77960D01*
X165357Y79476D01*
X165522Y79723D01*
X166023Y80472D01*
X166269Y80840D01*
X167430Y82001D01*
X168794Y82913D01*
X170310Y83541D01*
X171241Y83726D01*
X171241Y71239D01*
X164409Y71239D01*
G37*
%LPD*%
%LPC*%
G36*
X83910Y55939D02*
X83910Y55939D01*
X82394Y56567D01*
X81030Y57479D01*
X79869Y58640D01*
X78957Y60004D01*
X78329Y61520D01*
X78009Y63129D01*
X78009Y68241D01*
X84841Y68241D01*
X84841Y55754D01*
X83910Y55939D01*
G37*
%LPD*%
%LPC*%
G36*
X170310Y14139D02*
X170310Y14139D01*
X168794Y14767D01*
X167430Y15679D01*
X166269Y16840D01*
X165357Y18204D01*
X164729Y19720D01*
X164409Y21329D01*
X164409Y26441D01*
X171241Y26441D01*
X171241Y13954D01*
X170310Y14139D01*
G37*
%LPD*%
%LPC*%
G36*
X83910Y14139D02*
X83910Y14139D01*
X82394Y14767D01*
X81030Y15679D01*
X79869Y16840D01*
X78957Y18204D01*
X78329Y19720D01*
X78009Y21329D01*
X78009Y26441D01*
X84841Y26441D01*
X84841Y13954D01*
X83910Y14139D01*
G37*
%LPD*%
%LPC*%
G36*
X198489Y426059D02*
X198489Y426059D01*
X198489Y432101D01*
X205031Y432101D01*
X205031Y428266D01*
X204858Y427619D01*
X204523Y427040D01*
X204050Y426567D01*
X203471Y426232D01*
X202824Y426059D01*
X198489Y426059D01*
G37*
%LPD*%
%LPC*%
G36*
X191156Y426059D02*
X191156Y426059D01*
X190509Y426232D01*
X189930Y426567D01*
X189457Y427040D01*
X189122Y427619D01*
X188949Y428266D01*
X188949Y432101D01*
X195491Y432101D01*
X195491Y426059D01*
X191156Y426059D01*
G37*
%LPD*%
%LPC*%
G36*
X172739Y69739D02*
X172739Y69739D01*
X172739Y69741D01*
X172741Y69741D01*
X172741Y69739D01*
X172739Y69739D01*
G37*
%LPD*%
%LPC*%
G36*
X86339Y69739D02*
X86339Y69739D01*
X86339Y69741D01*
X86341Y69741D01*
X86341Y69739D01*
X86339Y69739D01*
G37*
%LPD*%
%LPC*%
G36*
X172739Y27939D02*
X172739Y27939D01*
X172739Y27941D01*
X172741Y27941D01*
X172741Y27939D01*
X172739Y27939D01*
G37*
%LPD*%
%LPC*%
G36*
X86339Y27939D02*
X86339Y27939D01*
X86339Y27941D01*
X86341Y27941D01*
X86341Y27939D01*
X86339Y27939D01*
G37*
%LPD*%
%LPC*%
G36*
X95520Y408799D02*
X95520Y408799D01*
X95520Y408801D01*
X95522Y408801D01*
X95522Y408799D01*
X95520Y408799D01*
G37*
%LPD*%
D10*
X14290Y33539D03*
X14290Y58939D03*
X14290Y84339D03*
X14290Y109739D03*
X14290Y135139D03*
X14290Y160539D03*
X14290Y185939D03*
X14290Y211339D03*
X14290Y236739D03*
X14290Y262139D03*
X14290Y287539D03*
X14290Y312939D03*
X14290Y338339D03*
X14290Y363739D03*
X14290Y389139D03*
X14290Y414539D03*
X242570Y34330D03*
X242570Y59730D03*
X242570Y85130D03*
X242570Y110530D03*
X242570Y135930D03*
X242570Y161330D03*
X242570Y186730D03*
X242570Y212130D03*
X242570Y237530D03*
X242570Y262930D03*
X242570Y288330D03*
X242570Y313730D03*
X242570Y339130D03*
X242570Y364530D03*
X242570Y389930D03*
X242570Y415330D03*
D11*
X157945Y408800D03*
X95521Y408800D03*
D12*
X187205Y346125D03*
X196705Y368125D03*
X177705Y368125D03*
D13*
X216045Y419915D03*
X207405Y419915D03*
D14*
X213990Y433600D03*
X196990Y433600D03*
D15*
X127635Y366845D03*
X127635Y73845D03*
D16*
X199190Y384810D03*
X174190Y384810D03*
D13*
X190375Y398780D03*
X181735Y398780D03*
D17*
X102235Y40640D03*
X120015Y40640D03*
X138430Y40005D03*
X156210Y40005D03*
D18*
X86340Y63950D02*
X86340Y75530D01*
X172740Y75530D02*
X172740Y63950D01*
X86340Y33730D02*
X86340Y22150D01*
X172740Y22150D02*
X172740Y33730D01*
D19*
X57150Y437515D03*
X67310Y437515D03*
X77470Y437515D03*
X88265Y437515D03*
X99060Y437515D03*
X109855Y437515D03*
X120650Y437515D03*
X131445Y437515D03*
X142875Y437515D03*
X153670Y437515D03*
X166370Y437515D03*
X43815Y140970D03*
X43815Y114935D03*
X116205Y200660D03*
X133985Y200660D03*
X153670Y200660D03*
X165100Y253365D03*
X181610Y253365D03*
X94615Y300355D03*
X94615Y322580D03*
X120015Y322580D03*
X143510Y322580D03*
X170180Y322580D03*
X120015Y300355D03*
X143510Y300355D03*
X170180Y300355D03*
X72390Y140970D03*
X73025Y114935D03*
X86995Y223520D03*
X109220Y248285D03*
X109220Y223520D03*
X214630Y160655D03*
X214630Y145415D03*
X214630Y130175D03*
X88265Y427355D03*
X77470Y427355D03*
X67310Y427990D03*
X57150Y427990D03*
X99060Y427355D03*
X109855Y427355D03*
X120650Y426720D03*
X131445Y426720D03*
X142875Y426720D03*
X153670Y426720D03*
X166370Y426720D03*
X179705Y426720D03*
X59055Y264795D03*
X202565Y263525D03*
X67310Y416560D03*
X139700Y398780D03*
X116205Y398780D03*
X200025Y65405D03*
X215265Y100330D03*
X57785Y65405D03*
X142240Y226695D03*
X212725Y212090D03*
X170180Y208915D03*
D20*
X212725Y209550D02*
X212725Y212090D01*
X212725Y209550D02*
X209550Y206375D01*
X172720Y206375D01*
X170180Y208915D01*
D19*
X141605Y110490D03*
X168275Y100965D03*
X145415Y139700D03*
D21*
X145415Y173990D01*
X156845Y185420D01*
X145415Y139700D02*
X141605Y135890D01*
X141605Y110490D01*
X164465Y110490D01*
X168275Y106680D02*
X168275Y100965D01*
X168275Y106680D02*
X164465Y110490D01*
D19*
X167005Y185420D03*
D21*
X156845Y185420D01*
D19*
X127000Y55245D03*
X142240Y55245D03*
D20*
X127000Y55245D01*
D19*
X104140Y106680D03*
D21*
X199190Y378895D02*
X199190Y384810D01*
X199190Y378895D02*
X196705Y376410D01*
X199190Y384810D02*
X199190Y404930D01*
X201930Y407670D02*
X224790Y407670D01*
X201930Y407670D02*
X199190Y404930D01*
D20*
X224790Y407670D02*
X224790Y417830D01*
X222705Y419915D02*
X216045Y419915D01*
X222705Y419915D02*
X224790Y417830D01*
X120015Y48895D02*
X120015Y40640D01*
X120015Y48895D02*
X117475Y51435D01*
X38735Y51435D01*
X33260Y95779D02*
X36784Y99303D01*
X33260Y56910D02*
X38735Y51435D01*
X33260Y56910D02*
X33260Y95779D01*
X36784Y146238D02*
X40308Y149762D01*
X40308Y169598D01*
X43832Y173122D01*
X43832Y191537D01*
X47356Y195061D01*
X47356Y215265D01*
X53071Y220980D01*
X60960Y220980D01*
X36784Y146238D02*
X36784Y99303D01*
D19*
X60960Y220980D03*
X224790Y407670D03*
D21*
X196705Y376410D02*
X196705Y368125D01*
D19*
X78105Y177800D03*
X226060Y433070D03*
D20*
X207405Y423940D02*
X207405Y419915D01*
X207405Y423940D02*
X209550Y426085D01*
X212725Y426085D01*
X213990Y427350D01*
X213990Y433600D01*
X214520Y433070D01*
X226060Y433070D01*
D19*
X193040Y107950D03*
D22*
X127635Y366845D02*
X127635Y402590D01*
X133985Y408940D01*
X157805Y408940D01*
X157945Y408800D01*
X187205Y346125D02*
X185250Y344170D01*
X131445Y344170D02*
X127000Y348615D01*
X127000Y366210D01*
X131445Y344170D02*
X185250Y344170D01*
X127635Y366845D02*
X127000Y366210D01*
D19*
X167005Y367665D03*
D21*
X177245Y367665D02*
X177705Y368125D01*
X177245Y367665D02*
X167005Y367665D01*
D20*
X174190Y384810D02*
X174190Y397075D01*
X175895Y398780D01*
X181735Y398780D01*
D21*
X177705Y376015D02*
X177705Y368125D01*
X174190Y379530D02*
X174190Y384810D01*
X174190Y379530D02*
X177705Y376015D01*
D19*
X199390Y331470D03*
D20*
X223520Y331470D01*
X230648Y324342D01*
X230648Y257992D01*
X242570Y246070D02*
X242570Y237530D01*
X242570Y246070D02*
X230648Y257992D01*
D19*
X199390Y318770D03*
D20*
X222679Y318770D01*
X227124Y314325D01*
X227124Y256532D01*
X230648Y253008D01*
X242570Y220345D02*
X242570Y212130D01*
X230648Y232267D02*
X230648Y253008D01*
X230648Y232267D02*
X242570Y220345D01*
D19*
X199390Y306070D03*
D20*
X220425Y306070D01*
X223600Y302895D01*
X223600Y255072D01*
X227124Y251548D01*
X227124Y224361D02*
X230648Y220837D01*
X230648Y207192D01*
X242570Y195270D02*
X242570Y186730D01*
X242570Y195270D02*
X230648Y207192D01*
X227124Y224361D02*
X227124Y251548D01*
D19*
X88265Y157480D03*
X55880Y407035D03*
X88265Y167005D03*
X55880Y394335D03*
D20*
X22688Y346737D02*
X14290Y338339D01*
X22688Y346737D02*
X22688Y350075D01*
X46628Y374015D02*
X50165Y374015D01*
X55245Y379095D01*
X55245Y393700D02*
X55880Y394335D01*
X46628Y374015D02*
X22688Y350075D01*
X55245Y379095D02*
X55245Y393700D01*
X156210Y50800D02*
X156210Y40005D01*
X158750Y53340D02*
X164465Y53340D01*
X158750Y53340D02*
X156210Y50800D01*
D19*
X164465Y53340D03*
X55880Y368935D03*
D20*
X46532Y368935D01*
X26212Y348615D01*
X14290Y296079D02*
X14290Y287539D01*
X14290Y296079D02*
X26212Y308001D01*
X26212Y348615D01*
X138430Y40005D02*
X138430Y25400D01*
X140970Y22860D02*
X146685Y22860D01*
X140970Y22860D02*
X138430Y25400D01*
D19*
X146685Y22860D03*
X55880Y356235D03*
D20*
X39896Y356235D01*
X29736Y346075D01*
X29736Y306541D01*
X26212Y303017D01*
X14290Y268925D02*
X14290Y262139D01*
X26212Y280847D02*
X26212Y303017D01*
X26212Y280847D02*
X14290Y268925D01*
D19*
X33020Y19050D03*
X223520Y15240D03*
X55880Y318135D03*
D20*
X36435Y318135D01*
X33260Y314960D01*
X33260Y305081D01*
X29736Y301557D01*
X29736Y271036D02*
X26212Y267512D01*
X14290Y193360D02*
X14290Y185939D01*
X29736Y271036D02*
X29736Y301557D01*
X26212Y267512D02*
X26212Y205282D01*
X14290Y193360D01*
D19*
X55880Y306070D03*
D20*
X52705Y302895D01*
X36057Y302895D01*
X33260Y300098D01*
X33260Y269576D01*
X29736Y266052D01*
X29736Y203822D01*
X26212Y200298D01*
X26212Y181001D01*
X15875Y170664D01*
X15875Y162124D02*
X14290Y160539D01*
X15875Y162124D02*
X15875Y170664D01*
D19*
X55880Y293370D03*
D20*
X41229Y293370D01*
X36784Y288925D01*
X36784Y268116D01*
X33260Y264592D01*
X33260Y200900D02*
X29736Y197376D01*
X29736Y178961D02*
X26212Y175437D01*
X26212Y155601D01*
X14290Y143679D02*
X14290Y135139D01*
X14290Y143679D02*
X26212Y155601D01*
X33260Y200900D02*
X33260Y264592D01*
X29736Y197376D02*
X29736Y178961D01*
D19*
X69850Y284480D03*
D20*
X66675Y281305D01*
X54956Y281305D01*
X36784Y263133D01*
X36784Y199440D01*
X33260Y195916D01*
X33260Y177501D02*
X29736Y173977D01*
X29736Y154141D01*
X26212Y150617D01*
X14290Y91760D02*
X14290Y84339D01*
X33260Y177501D02*
X33260Y195916D01*
X26212Y150617D02*
X26212Y103682D01*
X14290Y91760D01*
D19*
X82550Y284480D03*
D20*
X82550Y279400D01*
X56130Y277495D02*
X40308Y261673D01*
X80645Y277495D02*
X82550Y279400D01*
X80645Y277495D02*
X56130Y277495D01*
X40308Y197980D02*
X36784Y194456D01*
X36784Y176041D02*
X33260Y172517D01*
X33260Y152681D02*
X29736Y149157D01*
X29736Y102222D01*
X26212Y98698D01*
X14290Y65725D02*
X14290Y58939D01*
X40308Y197980D02*
X40308Y261673D01*
X36784Y194456D02*
X36784Y176041D01*
X33260Y172517D02*
X33260Y152681D01*
X26212Y98698D02*
X26212Y77647D01*
X14290Y65725D01*
D19*
X95250Y284480D03*
D20*
X95250Y281305D01*
X87630Y273685D01*
X57304Y273685D02*
X43832Y260213D01*
X43832Y196521D01*
X40308Y192997D01*
X40308Y174582D01*
X36784Y171058D01*
X36784Y151222D02*
X33260Y147698D01*
X33260Y100762D01*
X29736Y97238D01*
X29736Y69106D02*
X26212Y65582D01*
X26212Y54001D01*
X14290Y42079D02*
X14290Y33539D01*
X14290Y42079D02*
X26212Y54001D01*
X57304Y273685D02*
X87630Y273685D01*
X36784Y171058D02*
X36784Y151222D01*
X29736Y97238D02*
X29736Y69106D01*
D19*
X158750Y284480D03*
D20*
X158750Y278765D01*
X209567Y274606D02*
X213028Y271145D01*
X213028Y250693D01*
X216552Y247169D01*
X216552Y218616D02*
X220076Y215092D01*
X220076Y191597D01*
X223600Y188073D01*
X223600Y117395D02*
X227124Y113871D01*
X227124Y80851D02*
X242570Y65405D01*
X242570Y59730D01*
X162909Y274606D02*
X158750Y278765D01*
X162909Y274606D02*
X209567Y274606D01*
X216552Y247169D02*
X216552Y218616D01*
X223600Y188073D02*
X223600Y117395D01*
X227124Y113871D02*
X227124Y80851D01*
D19*
X171450Y284480D03*
D20*
X171450Y280670D01*
X173990Y278130D02*
X212090Y278130D01*
X216552Y273668D01*
X173990Y278130D02*
X171450Y280670D01*
X216552Y273668D02*
X216552Y252153D01*
X220076Y248629D01*
X220076Y220075D01*
X223600Y216551D01*
X223600Y193056D01*
X227124Y189532D01*
X227124Y118951D02*
X230648Y115427D01*
X230648Y97052D02*
X242570Y85130D01*
X227124Y118951D02*
X227124Y189532D01*
X230648Y115427D02*
X230648Y97052D01*
D19*
X184150Y284480D03*
D20*
X186690Y281940D02*
X213726Y281940D01*
X186690Y281940D02*
X184150Y284480D01*
X213726Y281940D02*
X220076Y275590D01*
X220076Y253612D01*
X223600Y250088D01*
X223600Y221535D02*
X227124Y218011D01*
X227124Y194516D02*
X230648Y190992D01*
X230648Y130667D02*
X242570Y118745D01*
X242570Y110530D01*
X223600Y221535D02*
X223600Y250088D01*
X227124Y218011D02*
X227124Y194516D01*
X230648Y190992D02*
X230648Y130667D01*
D19*
X53340Y228600D03*
X107950Y284480D03*
D20*
X53340Y228600D02*
X51435Y230505D01*
X51435Y246380D01*
X58769Y253714D01*
X71565Y253714D02*
X72613Y254762D01*
X72613Y259649D01*
X103917Y267747D02*
X108585Y272415D01*
X108585Y283845D01*
X107950Y284480D01*
X71565Y253714D02*
X58769Y253714D01*
X72613Y259649D02*
X80711Y267747D01*
X103917Y267747D01*
D19*
X57785Y240030D03*
X120650Y284480D03*
D20*
X57785Y246380D02*
X57785Y240030D01*
X57785Y246380D02*
X61595Y250190D01*
X73025Y250190D01*
X76137Y253302D01*
X76137Y258190D02*
X82171Y264223D01*
X116840Y264223D02*
X121285Y268668D01*
X121285Y283845D02*
X120650Y284480D01*
X76137Y258190D02*
X76137Y253302D01*
X82171Y264223D02*
X116840Y264223D01*
X121285Y268668D02*
X121285Y283845D01*
D19*
X133350Y284480D03*
X70485Y240030D03*
D20*
X79661Y246031D02*
X79661Y256730D01*
X83630Y260699D01*
X128619Y260699D02*
X133350Y265430D01*
X133350Y284480D01*
X79661Y246031D02*
X73660Y240030D01*
X70485Y240030D01*
X83630Y260699D02*
X128619Y260699D01*
D19*
X146050Y284480D03*
X83185Y240030D03*
D20*
X83185Y255270D01*
X146050Y263525D02*
X146050Y284480D01*
X85090Y257175D02*
X83185Y255270D01*
X85090Y257175D02*
X139700Y257175D01*
X146050Y263525D01*
M02*
