G04 EAGLE Gerber RS-274X export*
G75*
%MOMM*%
%FSLAX34Y34*%
%LPD*%
%INSilkscreen Top*%
%IPPOS*%
%AMOC8*
5,1,8,0,0,1.08239X$1,22.5*%
G01*
%ADD10C,0.101600*%
%ADD11C,0.177800*%
%ADD12C,0.127000*%
%ADD13C,0.203200*%
%ADD14C,0.254000*%
%ADD15C,0.152400*%
%ADD16C,0.076200*%
%ADD17C,0.200000*%
%ADD18C,0.609600*%


D10*
X63458Y290703D02*
X72546Y290703D01*
X72546Y290702D02*
X72645Y290700D01*
X72745Y290694D01*
X72844Y290685D01*
X72942Y290672D01*
X73040Y290655D01*
X73138Y290634D01*
X73234Y290609D01*
X73329Y290581D01*
X73423Y290549D01*
X73516Y290514D01*
X73608Y290475D01*
X73698Y290432D01*
X73786Y290387D01*
X73873Y290337D01*
X73957Y290285D01*
X74040Y290229D01*
X74120Y290171D01*
X74198Y290109D01*
X74273Y290044D01*
X74346Y289976D01*
X74416Y289906D01*
X74484Y289833D01*
X74549Y289758D01*
X74611Y289680D01*
X74669Y289600D01*
X74725Y289517D01*
X74777Y289433D01*
X74827Y289346D01*
X74872Y289258D01*
X74915Y289168D01*
X74954Y289076D01*
X74989Y288983D01*
X75021Y288889D01*
X75049Y288794D01*
X75074Y288698D01*
X75095Y288600D01*
X75112Y288502D01*
X75125Y288404D01*
X75134Y288305D01*
X75140Y288205D01*
X75142Y288106D01*
X75142Y286808D01*
X75142Y296380D02*
X63458Y296380D01*
X75142Y296380D02*
X75142Y301573D01*
X75142Y308445D02*
X75142Y311042D01*
X75142Y308445D02*
X75140Y308346D01*
X75134Y308246D01*
X75125Y308147D01*
X75112Y308049D01*
X75095Y307951D01*
X75074Y307853D01*
X75049Y307757D01*
X75021Y307662D01*
X74989Y307568D01*
X74954Y307475D01*
X74915Y307383D01*
X74872Y307293D01*
X74827Y307205D01*
X74777Y307118D01*
X74725Y307034D01*
X74669Y306951D01*
X74611Y306871D01*
X74549Y306793D01*
X74484Y306718D01*
X74416Y306645D01*
X74346Y306575D01*
X74273Y306507D01*
X74198Y306442D01*
X74120Y306380D01*
X74040Y306322D01*
X73957Y306266D01*
X73873Y306214D01*
X73786Y306164D01*
X73698Y306119D01*
X73608Y306076D01*
X73516Y306037D01*
X73423Y306002D01*
X73329Y305970D01*
X73234Y305942D01*
X73138Y305917D01*
X73040Y305896D01*
X72942Y305879D01*
X72844Y305866D01*
X72745Y305857D01*
X72645Y305851D01*
X72546Y305849D01*
X66054Y305849D01*
X66054Y305848D02*
X65955Y305850D01*
X65855Y305856D01*
X65756Y305865D01*
X65658Y305878D01*
X65560Y305896D01*
X65462Y305916D01*
X65366Y305941D01*
X65270Y305969D01*
X65176Y306001D01*
X65083Y306036D01*
X64992Y306075D01*
X64902Y306118D01*
X64813Y306163D01*
X64727Y306213D01*
X64642Y306265D01*
X64560Y306321D01*
X64480Y306380D01*
X64402Y306441D01*
X64326Y306506D01*
X64253Y306574D01*
X64183Y306644D01*
X64115Y306717D01*
X64050Y306793D01*
X63989Y306871D01*
X63930Y306951D01*
X63874Y307033D01*
X63822Y307118D01*
X63773Y307204D01*
X63727Y307293D01*
X63684Y307383D01*
X63645Y307474D01*
X63610Y307567D01*
X63578Y307661D01*
X63550Y307757D01*
X63525Y307853D01*
X63505Y307951D01*
X63487Y308049D01*
X63474Y308147D01*
X63465Y308246D01*
X63459Y308345D01*
X63457Y308445D01*
X63458Y308445D02*
X63458Y311042D01*
X63458Y318135D02*
X72546Y318135D01*
X72546Y318134D02*
X72645Y318132D01*
X72745Y318126D01*
X72844Y318117D01*
X72942Y318104D01*
X73040Y318087D01*
X73138Y318066D01*
X73234Y318041D01*
X73329Y318013D01*
X73423Y317981D01*
X73516Y317946D01*
X73608Y317907D01*
X73698Y317864D01*
X73786Y317819D01*
X73873Y317769D01*
X73957Y317717D01*
X74040Y317661D01*
X74120Y317603D01*
X74198Y317541D01*
X74273Y317476D01*
X74346Y317408D01*
X74416Y317338D01*
X74484Y317265D01*
X74549Y317190D01*
X74611Y317112D01*
X74669Y317032D01*
X74725Y316949D01*
X74777Y316865D01*
X74827Y316778D01*
X74872Y316690D01*
X74915Y316600D01*
X74954Y316508D01*
X74989Y316415D01*
X75021Y316321D01*
X75049Y316226D01*
X75074Y316130D01*
X75095Y316032D01*
X75112Y315934D01*
X75125Y315836D01*
X75134Y315737D01*
X75140Y315637D01*
X75142Y315538D01*
X75142Y314240D01*
X75142Y323812D02*
X63458Y323812D01*
X75142Y323812D02*
X75142Y329005D01*
X75142Y335877D02*
X75142Y338474D01*
X75142Y335877D02*
X75140Y335778D01*
X75134Y335678D01*
X75125Y335579D01*
X75112Y335481D01*
X75095Y335383D01*
X75074Y335285D01*
X75049Y335189D01*
X75021Y335094D01*
X74989Y335000D01*
X74954Y334907D01*
X74915Y334815D01*
X74872Y334725D01*
X74827Y334637D01*
X74777Y334550D01*
X74725Y334466D01*
X74669Y334383D01*
X74611Y334303D01*
X74549Y334225D01*
X74484Y334150D01*
X74416Y334077D01*
X74346Y334007D01*
X74273Y333939D01*
X74198Y333874D01*
X74120Y333812D01*
X74040Y333754D01*
X73957Y333698D01*
X73873Y333646D01*
X73786Y333596D01*
X73698Y333551D01*
X73608Y333508D01*
X73516Y333469D01*
X73423Y333434D01*
X73329Y333402D01*
X73234Y333374D01*
X73138Y333349D01*
X73040Y333328D01*
X72942Y333311D01*
X72844Y333298D01*
X72745Y333289D01*
X72645Y333283D01*
X72546Y333281D01*
X66054Y333281D01*
X66054Y333280D02*
X65955Y333282D01*
X65855Y333288D01*
X65756Y333297D01*
X65658Y333310D01*
X65560Y333328D01*
X65462Y333348D01*
X65366Y333373D01*
X65270Y333401D01*
X65176Y333433D01*
X65083Y333468D01*
X64992Y333507D01*
X64902Y333550D01*
X64813Y333595D01*
X64727Y333645D01*
X64642Y333697D01*
X64560Y333753D01*
X64480Y333812D01*
X64402Y333873D01*
X64326Y333938D01*
X64253Y334006D01*
X64183Y334076D01*
X64115Y334149D01*
X64050Y334225D01*
X63989Y334303D01*
X63930Y334383D01*
X63874Y334465D01*
X63822Y334550D01*
X63773Y334636D01*
X63727Y334725D01*
X63684Y334815D01*
X63645Y334906D01*
X63610Y334999D01*
X63578Y335093D01*
X63550Y335189D01*
X63525Y335285D01*
X63505Y335383D01*
X63487Y335481D01*
X63474Y335579D01*
X63465Y335678D01*
X63459Y335777D01*
X63457Y335877D01*
X63458Y335877D02*
X63458Y338474D01*
X63458Y345567D02*
X72546Y345567D01*
X72546Y345566D02*
X72645Y345564D01*
X72745Y345558D01*
X72844Y345549D01*
X72942Y345536D01*
X73040Y345519D01*
X73138Y345498D01*
X73234Y345473D01*
X73329Y345445D01*
X73423Y345413D01*
X73516Y345378D01*
X73608Y345339D01*
X73698Y345296D01*
X73786Y345251D01*
X73873Y345201D01*
X73957Y345149D01*
X74040Y345093D01*
X74120Y345035D01*
X74198Y344973D01*
X74273Y344908D01*
X74346Y344840D01*
X74416Y344770D01*
X74484Y344697D01*
X74549Y344622D01*
X74611Y344544D01*
X74669Y344464D01*
X74725Y344381D01*
X74777Y344297D01*
X74827Y344210D01*
X74872Y344122D01*
X74915Y344032D01*
X74954Y343940D01*
X74989Y343847D01*
X75021Y343753D01*
X75049Y343658D01*
X75074Y343562D01*
X75095Y343464D01*
X75112Y343366D01*
X75125Y343268D01*
X75134Y343169D01*
X75140Y343069D01*
X75142Y342970D01*
X75142Y341672D01*
X75142Y351244D02*
X63458Y351244D01*
X75142Y351244D02*
X75142Y356437D01*
X75142Y363309D02*
X75142Y365906D01*
X75142Y363309D02*
X75140Y363210D01*
X75134Y363110D01*
X75125Y363011D01*
X75112Y362913D01*
X75095Y362815D01*
X75074Y362717D01*
X75049Y362621D01*
X75021Y362526D01*
X74989Y362432D01*
X74954Y362339D01*
X74915Y362247D01*
X74872Y362157D01*
X74827Y362069D01*
X74777Y361982D01*
X74725Y361898D01*
X74669Y361815D01*
X74611Y361735D01*
X74549Y361657D01*
X74484Y361582D01*
X74416Y361509D01*
X74346Y361439D01*
X74273Y361371D01*
X74198Y361306D01*
X74120Y361244D01*
X74040Y361186D01*
X73957Y361130D01*
X73873Y361078D01*
X73786Y361028D01*
X73698Y360983D01*
X73608Y360940D01*
X73516Y360901D01*
X73423Y360866D01*
X73329Y360834D01*
X73234Y360806D01*
X73138Y360781D01*
X73040Y360760D01*
X72942Y360743D01*
X72844Y360730D01*
X72745Y360721D01*
X72645Y360715D01*
X72546Y360713D01*
X66054Y360713D01*
X66054Y360712D02*
X65955Y360714D01*
X65855Y360720D01*
X65756Y360729D01*
X65658Y360742D01*
X65560Y360760D01*
X65462Y360780D01*
X65366Y360805D01*
X65270Y360833D01*
X65176Y360865D01*
X65083Y360900D01*
X64992Y360939D01*
X64902Y360982D01*
X64813Y361027D01*
X64727Y361077D01*
X64642Y361129D01*
X64560Y361185D01*
X64480Y361244D01*
X64402Y361305D01*
X64326Y361370D01*
X64253Y361438D01*
X64183Y361508D01*
X64115Y361581D01*
X64050Y361657D01*
X63989Y361735D01*
X63930Y361815D01*
X63874Y361897D01*
X63822Y361982D01*
X63773Y362068D01*
X63727Y362157D01*
X63684Y362247D01*
X63645Y362338D01*
X63610Y362431D01*
X63578Y362525D01*
X63550Y362621D01*
X63525Y362717D01*
X63505Y362815D01*
X63487Y362913D01*
X63474Y363011D01*
X63465Y363110D01*
X63459Y363209D01*
X63457Y363309D01*
X63458Y363309D02*
X63458Y365906D01*
X63458Y372999D02*
X72546Y372999D01*
X72546Y372998D02*
X72645Y372996D01*
X72745Y372990D01*
X72844Y372981D01*
X72942Y372968D01*
X73040Y372951D01*
X73138Y372930D01*
X73234Y372905D01*
X73329Y372877D01*
X73423Y372845D01*
X73516Y372810D01*
X73608Y372771D01*
X73698Y372728D01*
X73786Y372683D01*
X73873Y372633D01*
X73957Y372581D01*
X74040Y372525D01*
X74120Y372467D01*
X74198Y372405D01*
X74273Y372340D01*
X74346Y372272D01*
X74416Y372202D01*
X74484Y372129D01*
X74549Y372054D01*
X74611Y371976D01*
X74669Y371896D01*
X74725Y371813D01*
X74777Y371729D01*
X74827Y371642D01*
X74872Y371554D01*
X74915Y371464D01*
X74954Y371372D01*
X74989Y371279D01*
X75021Y371185D01*
X75049Y371090D01*
X75074Y370994D01*
X75095Y370896D01*
X75112Y370798D01*
X75125Y370700D01*
X75134Y370601D01*
X75140Y370501D01*
X75142Y370402D01*
X75142Y369104D01*
X75142Y378676D02*
X63458Y378676D01*
X75142Y378676D02*
X75142Y383869D01*
X75142Y390741D02*
X75142Y393338D01*
X75142Y390741D02*
X75140Y390642D01*
X75134Y390542D01*
X75125Y390443D01*
X75112Y390345D01*
X75095Y390247D01*
X75074Y390149D01*
X75049Y390053D01*
X75021Y389958D01*
X74989Y389864D01*
X74954Y389771D01*
X74915Y389679D01*
X74872Y389589D01*
X74827Y389501D01*
X74777Y389414D01*
X74725Y389330D01*
X74669Y389247D01*
X74611Y389167D01*
X74549Y389089D01*
X74484Y389014D01*
X74416Y388941D01*
X74346Y388871D01*
X74273Y388803D01*
X74198Y388738D01*
X74120Y388676D01*
X74040Y388618D01*
X73957Y388562D01*
X73873Y388510D01*
X73786Y388460D01*
X73698Y388415D01*
X73608Y388372D01*
X73516Y388333D01*
X73423Y388298D01*
X73329Y388266D01*
X73234Y388238D01*
X73138Y388213D01*
X73040Y388192D01*
X72942Y388175D01*
X72844Y388162D01*
X72745Y388153D01*
X72645Y388147D01*
X72546Y388145D01*
X66054Y388145D01*
X66054Y388144D02*
X65955Y388146D01*
X65855Y388152D01*
X65756Y388161D01*
X65658Y388174D01*
X65560Y388192D01*
X65462Y388212D01*
X65366Y388237D01*
X65270Y388265D01*
X65176Y388297D01*
X65083Y388332D01*
X64992Y388371D01*
X64902Y388414D01*
X64813Y388459D01*
X64727Y388509D01*
X64642Y388561D01*
X64560Y388617D01*
X64480Y388676D01*
X64402Y388737D01*
X64326Y388802D01*
X64253Y388870D01*
X64183Y388940D01*
X64115Y389013D01*
X64050Y389089D01*
X63989Y389167D01*
X63930Y389247D01*
X63874Y389329D01*
X63822Y389414D01*
X63773Y389500D01*
X63727Y389589D01*
X63684Y389679D01*
X63645Y389770D01*
X63610Y389863D01*
X63578Y389957D01*
X63550Y390053D01*
X63525Y390149D01*
X63505Y390247D01*
X63487Y390345D01*
X63474Y390443D01*
X63465Y390542D01*
X63459Y390641D01*
X63457Y390741D01*
X63458Y390741D02*
X63458Y393338D01*
X43898Y31795D02*
X43898Y24683D01*
X43898Y31795D02*
X45874Y31795D01*
X45961Y31793D01*
X46049Y31787D01*
X46136Y31778D01*
X46222Y31764D01*
X46308Y31747D01*
X46392Y31726D01*
X46476Y31701D01*
X46559Y31672D01*
X46640Y31640D01*
X46720Y31605D01*
X46798Y31566D01*
X46875Y31523D01*
X46949Y31477D01*
X47021Y31428D01*
X47091Y31376D01*
X47159Y31320D01*
X47224Y31262D01*
X47287Y31201D01*
X47346Y31137D01*
X47403Y31070D01*
X47457Y31002D01*
X47508Y30930D01*
X47555Y30857D01*
X47600Y30782D01*
X47641Y30704D01*
X47678Y30625D01*
X47712Y30545D01*
X47742Y30463D01*
X47769Y30380D01*
X47792Y30295D01*
X47811Y30210D01*
X47826Y30124D01*
X47838Y30037D01*
X47846Y29950D01*
X47850Y29863D01*
X47850Y29775D01*
X47846Y29688D01*
X47838Y29601D01*
X47826Y29514D01*
X47811Y29428D01*
X47792Y29343D01*
X47769Y29258D01*
X47742Y29175D01*
X47712Y29093D01*
X47678Y29013D01*
X47641Y28934D01*
X47600Y28856D01*
X47555Y28781D01*
X47508Y28708D01*
X47457Y28636D01*
X47403Y28568D01*
X47346Y28501D01*
X47287Y28437D01*
X47224Y28376D01*
X47159Y28318D01*
X47091Y28262D01*
X47021Y28210D01*
X46949Y28161D01*
X46875Y28115D01*
X46798Y28072D01*
X46720Y28033D01*
X46640Y27998D01*
X46559Y27966D01*
X46476Y27937D01*
X46392Y27912D01*
X46308Y27891D01*
X46222Y27874D01*
X46136Y27860D01*
X46049Y27851D01*
X45961Y27845D01*
X45874Y27843D01*
X45874Y27844D02*
X43898Y27844D01*
X46269Y27844D02*
X47849Y24683D01*
X213519Y29634D02*
X214704Y29634D01*
X214704Y25683D01*
X212333Y25683D01*
X212255Y25685D01*
X212178Y25691D01*
X212101Y25700D01*
X212025Y25713D01*
X211949Y25730D01*
X211874Y25751D01*
X211801Y25775D01*
X211728Y25803D01*
X211657Y25835D01*
X211588Y25870D01*
X211521Y25908D01*
X211455Y25949D01*
X211392Y25994D01*
X211331Y26042D01*
X211272Y26092D01*
X211216Y26146D01*
X211162Y26202D01*
X211112Y26261D01*
X211064Y26322D01*
X211019Y26385D01*
X210978Y26451D01*
X210940Y26518D01*
X210905Y26587D01*
X210873Y26658D01*
X210845Y26731D01*
X210821Y26804D01*
X210800Y26879D01*
X210783Y26955D01*
X210770Y27031D01*
X210761Y27108D01*
X210755Y27185D01*
X210753Y27263D01*
X210753Y31215D01*
X210755Y31293D01*
X210761Y31370D01*
X210770Y31447D01*
X210783Y31523D01*
X210800Y31599D01*
X210821Y31674D01*
X210845Y31747D01*
X210873Y31820D01*
X210905Y31891D01*
X210940Y31960D01*
X210978Y32027D01*
X211019Y32093D01*
X211064Y32156D01*
X211112Y32217D01*
X211162Y32276D01*
X211216Y32332D01*
X211272Y32386D01*
X211331Y32436D01*
X211392Y32484D01*
X211455Y32529D01*
X211521Y32570D01*
X211588Y32608D01*
X211657Y32643D01*
X211728Y32675D01*
X211801Y32703D01*
X211874Y32727D01*
X211949Y32748D01*
X212025Y32765D01*
X212101Y32778D01*
X212178Y32787D01*
X212255Y32793D01*
X212333Y32795D01*
X214704Y32795D01*
D11*
X45446Y191799D02*
X44755Y191799D01*
X44755Y192490D01*
X45446Y192490D01*
X45446Y191799D01*
D12*
X29206Y412995D02*
X29064Y412997D01*
X28921Y413002D01*
X28779Y413011D01*
X28637Y413024D01*
X28496Y413040D01*
X28355Y413059D01*
X28214Y413083D01*
X28074Y413109D01*
X27935Y413140D01*
X27797Y413174D01*
X27659Y413211D01*
X27523Y413251D01*
X27387Y413296D01*
X27253Y413343D01*
X27120Y413394D01*
X26988Y413448D01*
X26858Y413506D01*
X26729Y413567D01*
X26730Y413566D02*
X26661Y413592D01*
X26595Y413621D01*
X26529Y413653D01*
X26466Y413688D01*
X26404Y413727D01*
X26344Y413769D01*
X26287Y413814D01*
X26232Y413862D01*
X26180Y413913D01*
X26130Y413966D01*
X26084Y414022D01*
X26040Y414080D01*
X25999Y414141D01*
X25961Y414203D01*
X25927Y414267D01*
X25896Y414333D01*
X25868Y414401D01*
X25844Y414470D01*
X25824Y414540D01*
X25807Y414611D01*
X25794Y414682D01*
X25785Y414754D01*
X25779Y414827D01*
X25777Y414900D01*
X25779Y414973D01*
X25785Y415046D01*
X25794Y415118D01*
X25807Y415189D01*
X25824Y415260D01*
X25844Y415330D01*
X25868Y415399D01*
X25896Y415467D01*
X25927Y415533D01*
X25961Y415597D01*
X25999Y415659D01*
X26040Y415720D01*
X26084Y415778D01*
X26130Y415834D01*
X26180Y415887D01*
X26232Y415938D01*
X26287Y415986D01*
X26344Y416031D01*
X26404Y416073D01*
X26466Y416112D01*
X26529Y416147D01*
X26595Y416179D01*
X26661Y416208D01*
X26730Y416234D01*
X26729Y416234D02*
X26858Y416295D01*
X26988Y416353D01*
X27120Y416407D01*
X27253Y416458D01*
X27387Y416505D01*
X27523Y416550D01*
X27659Y416590D01*
X27797Y416627D01*
X27935Y416661D01*
X28074Y416692D01*
X28214Y416718D01*
X28355Y416742D01*
X28496Y416761D01*
X28637Y416777D01*
X28779Y416790D01*
X28921Y416799D01*
X29064Y416804D01*
X29206Y416806D01*
X29206Y412995D02*
X29348Y412997D01*
X29491Y413002D01*
X29633Y413011D01*
X29775Y413024D01*
X29916Y413040D01*
X30057Y413059D01*
X30198Y413083D01*
X30338Y413109D01*
X30477Y413140D01*
X30615Y413174D01*
X30753Y413211D01*
X30889Y413251D01*
X31025Y413296D01*
X31159Y413343D01*
X31292Y413394D01*
X31424Y413448D01*
X31554Y413506D01*
X31683Y413567D01*
X31682Y413566D02*
X31751Y413592D01*
X31817Y413621D01*
X31883Y413653D01*
X31946Y413688D01*
X32008Y413727D01*
X32068Y413769D01*
X32125Y413814D01*
X32180Y413862D01*
X32232Y413913D01*
X32282Y413966D01*
X32328Y414022D01*
X32372Y414080D01*
X32413Y414141D01*
X32451Y414203D01*
X32485Y414267D01*
X32516Y414333D01*
X32544Y414401D01*
X32568Y414470D01*
X32588Y414540D01*
X32605Y414611D01*
X32618Y414682D01*
X32627Y414754D01*
X32633Y414827D01*
X32635Y414900D01*
X31683Y416234D02*
X31554Y416295D01*
X31424Y416353D01*
X31292Y416407D01*
X31159Y416458D01*
X31025Y416505D01*
X30889Y416550D01*
X30753Y416590D01*
X30615Y416627D01*
X30477Y416661D01*
X30338Y416692D01*
X30198Y416718D01*
X30057Y416742D01*
X29916Y416761D01*
X29775Y416777D01*
X29633Y416790D01*
X29491Y416799D01*
X29348Y416804D01*
X29206Y416806D01*
X31682Y416234D02*
X31751Y416208D01*
X31817Y416179D01*
X31883Y416147D01*
X31946Y416112D01*
X32008Y416073D01*
X32068Y416031D01*
X32125Y415986D01*
X32180Y415938D01*
X32232Y415887D01*
X32282Y415834D01*
X32328Y415778D01*
X32372Y415720D01*
X32413Y415659D01*
X32451Y415597D01*
X32485Y415533D01*
X32516Y415467D01*
X32544Y415399D01*
X32568Y415330D01*
X32588Y415260D01*
X32605Y415189D01*
X32618Y415118D01*
X32627Y415046D01*
X32633Y414973D01*
X32635Y414900D01*
X31111Y413376D02*
X27301Y416424D01*
X25777Y389500D02*
X27301Y387595D01*
X25777Y389500D02*
X32635Y389500D01*
X32635Y387595D02*
X32635Y391405D01*
X27492Y366641D02*
X27410Y366639D01*
X27329Y366633D01*
X27248Y366624D01*
X27167Y366610D01*
X27088Y366593D01*
X27009Y366572D01*
X26931Y366547D01*
X26855Y366518D01*
X26780Y366486D01*
X26706Y366450D01*
X26635Y366411D01*
X26565Y366369D01*
X26497Y366323D01*
X26432Y366274D01*
X26369Y366222D01*
X26309Y366167D01*
X26251Y366109D01*
X26196Y366049D01*
X26144Y365986D01*
X26095Y365921D01*
X26049Y365853D01*
X26007Y365784D01*
X25968Y365712D01*
X25932Y365638D01*
X25900Y365563D01*
X25871Y365487D01*
X25846Y365409D01*
X25825Y365330D01*
X25808Y365251D01*
X25794Y365170D01*
X25785Y365089D01*
X25779Y365008D01*
X25777Y364926D01*
X25779Y364834D01*
X25785Y364742D01*
X25794Y364650D01*
X25808Y364558D01*
X25825Y364468D01*
X25846Y364378D01*
X25871Y364289D01*
X25900Y364201D01*
X25932Y364114D01*
X25968Y364029D01*
X26007Y363946D01*
X26050Y363864D01*
X26096Y363784D01*
X26146Y363706D01*
X26198Y363630D01*
X26254Y363557D01*
X26313Y363486D01*
X26375Y363417D01*
X26440Y363351D01*
X26507Y363288D01*
X26577Y363228D01*
X26649Y363170D01*
X26724Y363116D01*
X26801Y363065D01*
X26880Y363017D01*
X26961Y362973D01*
X27044Y362932D01*
X27128Y362894D01*
X27214Y362860D01*
X27301Y362830D01*
X28826Y366069D02*
X28767Y366128D01*
X28706Y366184D01*
X28643Y366237D01*
X28577Y366288D01*
X28509Y366335D01*
X28439Y366379D01*
X28367Y366420D01*
X28293Y366458D01*
X28218Y366492D01*
X28141Y366523D01*
X28063Y366550D01*
X27983Y366574D01*
X27903Y366595D01*
X27822Y366611D01*
X27740Y366624D01*
X27658Y366634D01*
X27575Y366639D01*
X27492Y366641D01*
X28825Y366069D02*
X32635Y362830D01*
X32635Y366640D01*
X32635Y338700D02*
X32635Y336795D01*
X32635Y338700D02*
X32633Y338785D01*
X32627Y338871D01*
X32618Y338956D01*
X32604Y339040D01*
X32587Y339124D01*
X32566Y339207D01*
X32542Y339289D01*
X32514Y339369D01*
X32482Y339449D01*
X32446Y339527D01*
X32408Y339603D01*
X32365Y339677D01*
X32320Y339749D01*
X32271Y339820D01*
X32219Y339888D01*
X32165Y339953D01*
X32107Y340016D01*
X32046Y340077D01*
X31983Y340135D01*
X31918Y340189D01*
X31850Y340241D01*
X31779Y340290D01*
X31707Y340335D01*
X31633Y340378D01*
X31557Y340416D01*
X31479Y340452D01*
X31399Y340484D01*
X31319Y340512D01*
X31237Y340536D01*
X31154Y340557D01*
X31070Y340574D01*
X30986Y340588D01*
X30901Y340597D01*
X30815Y340603D01*
X30730Y340605D01*
X30645Y340603D01*
X30559Y340597D01*
X30474Y340588D01*
X30390Y340574D01*
X30306Y340557D01*
X30223Y340536D01*
X30141Y340512D01*
X30061Y340484D01*
X29981Y340452D01*
X29903Y340416D01*
X29827Y340378D01*
X29753Y340335D01*
X29681Y340290D01*
X29610Y340241D01*
X29542Y340189D01*
X29477Y340135D01*
X29414Y340077D01*
X29353Y340016D01*
X29295Y339953D01*
X29241Y339888D01*
X29189Y339820D01*
X29140Y339749D01*
X29095Y339677D01*
X29052Y339603D01*
X29014Y339527D01*
X28978Y339449D01*
X28946Y339369D01*
X28918Y339289D01*
X28894Y339207D01*
X28873Y339124D01*
X28856Y339040D01*
X28842Y338956D01*
X28833Y338871D01*
X28827Y338785D01*
X28825Y338700D01*
X25777Y339081D02*
X25777Y336795D01*
X25777Y339081D02*
X25779Y339158D01*
X25785Y339235D01*
X25795Y339312D01*
X25808Y339388D01*
X25826Y339463D01*
X25847Y339537D01*
X25872Y339610D01*
X25901Y339682D01*
X25933Y339752D01*
X25968Y339821D01*
X26008Y339887D01*
X26050Y339952D01*
X26096Y340014D01*
X26145Y340074D01*
X26196Y340131D01*
X26251Y340186D01*
X26308Y340237D01*
X26368Y340286D01*
X26430Y340332D01*
X26495Y340374D01*
X26561Y340414D01*
X26630Y340449D01*
X26700Y340481D01*
X26772Y340510D01*
X26845Y340535D01*
X26919Y340556D01*
X26994Y340574D01*
X27070Y340587D01*
X27147Y340597D01*
X27224Y340603D01*
X27301Y340605D01*
X27378Y340603D01*
X27455Y340597D01*
X27532Y340587D01*
X27608Y340574D01*
X27683Y340556D01*
X27757Y340535D01*
X27830Y340510D01*
X27902Y340481D01*
X27972Y340449D01*
X28041Y340414D01*
X28107Y340374D01*
X28172Y340332D01*
X28234Y340286D01*
X28294Y340237D01*
X28351Y340186D01*
X28406Y340131D01*
X28457Y340074D01*
X28506Y340014D01*
X28552Y339952D01*
X28594Y339887D01*
X28634Y339821D01*
X28669Y339752D01*
X28701Y339682D01*
X28730Y339610D01*
X28755Y339537D01*
X28776Y339463D01*
X28794Y339388D01*
X28807Y339312D01*
X28817Y339235D01*
X28823Y339158D01*
X28825Y339081D01*
X28825Y337557D01*
X26412Y312284D02*
X31746Y310760D01*
X31746Y314570D01*
X30222Y313427D02*
X33270Y313427D01*
X32635Y288281D02*
X32635Y285995D01*
X32635Y288281D02*
X32633Y288358D01*
X32627Y288435D01*
X32617Y288512D01*
X32604Y288588D01*
X32586Y288663D01*
X32565Y288737D01*
X32540Y288810D01*
X32511Y288882D01*
X32479Y288952D01*
X32444Y289021D01*
X32404Y289087D01*
X32362Y289152D01*
X32316Y289214D01*
X32267Y289274D01*
X32216Y289331D01*
X32161Y289386D01*
X32104Y289437D01*
X32044Y289486D01*
X31982Y289532D01*
X31917Y289574D01*
X31851Y289614D01*
X31782Y289649D01*
X31712Y289681D01*
X31640Y289710D01*
X31567Y289735D01*
X31493Y289756D01*
X31418Y289774D01*
X31342Y289787D01*
X31265Y289797D01*
X31188Y289803D01*
X31111Y289805D01*
X30349Y289805D01*
X30272Y289803D01*
X30195Y289797D01*
X30118Y289787D01*
X30042Y289774D01*
X29967Y289756D01*
X29893Y289735D01*
X29820Y289710D01*
X29748Y289681D01*
X29678Y289649D01*
X29609Y289614D01*
X29543Y289574D01*
X29478Y289532D01*
X29416Y289486D01*
X29356Y289437D01*
X29299Y289386D01*
X29244Y289331D01*
X29193Y289274D01*
X29144Y289214D01*
X29098Y289152D01*
X29056Y289087D01*
X29016Y289021D01*
X28981Y288952D01*
X28949Y288882D01*
X28920Y288810D01*
X28895Y288737D01*
X28874Y288663D01*
X28856Y288588D01*
X28843Y288512D01*
X28833Y288435D01*
X28827Y288358D01*
X28825Y288281D01*
X28825Y285995D01*
X25777Y285995D01*
X25777Y289805D01*
X28825Y262881D02*
X28825Y260595D01*
X28825Y262881D02*
X28827Y262958D01*
X28833Y263035D01*
X28843Y263112D01*
X28856Y263188D01*
X28874Y263263D01*
X28895Y263337D01*
X28920Y263410D01*
X28949Y263482D01*
X28981Y263552D01*
X29016Y263621D01*
X29056Y263687D01*
X29098Y263752D01*
X29144Y263814D01*
X29193Y263874D01*
X29244Y263931D01*
X29299Y263986D01*
X29356Y264037D01*
X29416Y264086D01*
X29478Y264132D01*
X29543Y264174D01*
X29609Y264214D01*
X29678Y264249D01*
X29748Y264281D01*
X29820Y264310D01*
X29893Y264335D01*
X29967Y264356D01*
X30042Y264374D01*
X30118Y264387D01*
X30195Y264397D01*
X30272Y264403D01*
X30349Y264405D01*
X30730Y264405D01*
X30815Y264403D01*
X30901Y264397D01*
X30986Y264388D01*
X31070Y264374D01*
X31154Y264357D01*
X31237Y264336D01*
X31319Y264312D01*
X31399Y264284D01*
X31479Y264252D01*
X31557Y264216D01*
X31633Y264178D01*
X31707Y264135D01*
X31779Y264090D01*
X31850Y264041D01*
X31918Y263989D01*
X31983Y263935D01*
X32046Y263877D01*
X32107Y263816D01*
X32165Y263753D01*
X32219Y263688D01*
X32271Y263620D01*
X32320Y263549D01*
X32365Y263477D01*
X32408Y263403D01*
X32446Y263327D01*
X32482Y263249D01*
X32514Y263169D01*
X32542Y263089D01*
X32566Y263007D01*
X32587Y262924D01*
X32604Y262840D01*
X32618Y262756D01*
X32627Y262671D01*
X32633Y262585D01*
X32635Y262500D01*
X32633Y262415D01*
X32627Y262329D01*
X32618Y262244D01*
X32604Y262160D01*
X32587Y262076D01*
X32566Y261993D01*
X32542Y261911D01*
X32514Y261831D01*
X32482Y261751D01*
X32446Y261673D01*
X32408Y261597D01*
X32365Y261523D01*
X32320Y261451D01*
X32271Y261380D01*
X32219Y261312D01*
X32165Y261247D01*
X32107Y261184D01*
X32046Y261123D01*
X31983Y261065D01*
X31918Y261011D01*
X31850Y260959D01*
X31779Y260910D01*
X31707Y260865D01*
X31633Y260822D01*
X31557Y260784D01*
X31479Y260748D01*
X31399Y260716D01*
X31319Y260688D01*
X31237Y260664D01*
X31154Y260643D01*
X31070Y260626D01*
X30986Y260612D01*
X30901Y260603D01*
X30815Y260597D01*
X30730Y260595D01*
X28825Y260595D01*
X28716Y260597D01*
X28608Y260603D01*
X28499Y260612D01*
X28391Y260626D01*
X28284Y260643D01*
X28177Y260665D01*
X28071Y260690D01*
X27966Y260718D01*
X27862Y260751D01*
X27760Y260787D01*
X27659Y260827D01*
X27559Y260870D01*
X27461Y260917D01*
X27364Y260968D01*
X27270Y261022D01*
X27177Y261079D01*
X27087Y261139D01*
X26998Y261203D01*
X26912Y261270D01*
X26829Y261339D01*
X26748Y261412D01*
X26670Y261488D01*
X26594Y261566D01*
X26521Y261647D01*
X26452Y261730D01*
X26385Y261816D01*
X26321Y261905D01*
X26261Y261995D01*
X26204Y262088D01*
X26150Y262182D01*
X26099Y262279D01*
X26052Y262377D01*
X26009Y262477D01*
X25969Y262578D01*
X25933Y262680D01*
X25900Y262784D01*
X25872Y262889D01*
X25847Y262995D01*
X25825Y263102D01*
X25808Y263209D01*
X25794Y263317D01*
X25785Y263426D01*
X25779Y263534D01*
X25777Y263643D01*
X25777Y234560D02*
X26539Y234560D01*
X25777Y234560D02*
X25777Y238370D01*
X32635Y236465D01*
X30730Y213605D02*
X30645Y213603D01*
X30559Y213597D01*
X30474Y213588D01*
X30390Y213574D01*
X30306Y213557D01*
X30223Y213536D01*
X30141Y213512D01*
X30061Y213484D01*
X29981Y213452D01*
X29903Y213416D01*
X29827Y213378D01*
X29753Y213335D01*
X29681Y213290D01*
X29610Y213241D01*
X29542Y213189D01*
X29477Y213135D01*
X29414Y213077D01*
X29353Y213016D01*
X29295Y212953D01*
X29241Y212888D01*
X29189Y212820D01*
X29140Y212749D01*
X29095Y212677D01*
X29052Y212603D01*
X29014Y212527D01*
X28978Y212449D01*
X28946Y212369D01*
X28918Y212289D01*
X28894Y212207D01*
X28873Y212124D01*
X28856Y212040D01*
X28842Y211956D01*
X28833Y211871D01*
X28827Y211785D01*
X28825Y211700D01*
X28827Y211615D01*
X28833Y211529D01*
X28842Y211444D01*
X28856Y211360D01*
X28873Y211276D01*
X28894Y211193D01*
X28918Y211111D01*
X28946Y211031D01*
X28978Y210951D01*
X29014Y210873D01*
X29052Y210797D01*
X29095Y210723D01*
X29140Y210651D01*
X29189Y210580D01*
X29241Y210512D01*
X29295Y210447D01*
X29353Y210384D01*
X29414Y210323D01*
X29477Y210265D01*
X29542Y210211D01*
X29610Y210159D01*
X29681Y210110D01*
X29753Y210065D01*
X29827Y210022D01*
X29903Y209984D01*
X29981Y209948D01*
X30061Y209916D01*
X30141Y209888D01*
X30223Y209864D01*
X30306Y209843D01*
X30390Y209826D01*
X30474Y209812D01*
X30559Y209803D01*
X30645Y209797D01*
X30730Y209795D01*
X30815Y209797D01*
X30901Y209803D01*
X30986Y209812D01*
X31070Y209826D01*
X31154Y209843D01*
X31237Y209864D01*
X31319Y209888D01*
X31399Y209916D01*
X31479Y209948D01*
X31557Y209984D01*
X31633Y210022D01*
X31707Y210065D01*
X31779Y210110D01*
X31850Y210159D01*
X31918Y210211D01*
X31983Y210265D01*
X32046Y210323D01*
X32107Y210384D01*
X32165Y210447D01*
X32219Y210512D01*
X32271Y210580D01*
X32320Y210651D01*
X32365Y210723D01*
X32408Y210797D01*
X32446Y210873D01*
X32482Y210951D01*
X32514Y211031D01*
X32542Y211111D01*
X32566Y211193D01*
X32587Y211276D01*
X32604Y211360D01*
X32618Y211444D01*
X32627Y211529D01*
X32633Y211615D01*
X32635Y211700D01*
X32633Y211785D01*
X32627Y211871D01*
X32618Y211956D01*
X32604Y212040D01*
X32587Y212124D01*
X32566Y212207D01*
X32542Y212289D01*
X32514Y212369D01*
X32482Y212449D01*
X32446Y212527D01*
X32408Y212603D01*
X32365Y212677D01*
X32320Y212749D01*
X32271Y212820D01*
X32219Y212888D01*
X32165Y212953D01*
X32107Y213016D01*
X32046Y213077D01*
X31983Y213135D01*
X31918Y213189D01*
X31850Y213241D01*
X31779Y213290D01*
X31707Y213335D01*
X31633Y213378D01*
X31557Y213416D01*
X31479Y213452D01*
X31399Y213484D01*
X31319Y213512D01*
X31237Y213536D01*
X31154Y213557D01*
X31070Y213574D01*
X30986Y213588D01*
X30901Y213597D01*
X30815Y213603D01*
X30730Y213605D01*
X27301Y213224D02*
X27224Y213222D01*
X27147Y213216D01*
X27070Y213206D01*
X26994Y213193D01*
X26919Y213175D01*
X26845Y213154D01*
X26772Y213129D01*
X26700Y213100D01*
X26630Y213068D01*
X26561Y213033D01*
X26495Y212993D01*
X26430Y212951D01*
X26368Y212905D01*
X26308Y212856D01*
X26251Y212805D01*
X26196Y212750D01*
X26145Y212693D01*
X26096Y212633D01*
X26050Y212571D01*
X26008Y212506D01*
X25968Y212440D01*
X25933Y212371D01*
X25901Y212301D01*
X25872Y212229D01*
X25847Y212156D01*
X25826Y212082D01*
X25808Y212007D01*
X25795Y211931D01*
X25785Y211854D01*
X25779Y211777D01*
X25777Y211700D01*
X25779Y211623D01*
X25785Y211546D01*
X25795Y211469D01*
X25808Y211393D01*
X25826Y211318D01*
X25847Y211244D01*
X25872Y211171D01*
X25901Y211099D01*
X25933Y211029D01*
X25968Y210960D01*
X26008Y210894D01*
X26050Y210829D01*
X26096Y210767D01*
X26145Y210707D01*
X26196Y210650D01*
X26251Y210595D01*
X26308Y210544D01*
X26368Y210495D01*
X26430Y210449D01*
X26495Y210407D01*
X26561Y210367D01*
X26630Y210332D01*
X26700Y210300D01*
X26772Y210271D01*
X26845Y210246D01*
X26919Y210225D01*
X26994Y210207D01*
X27070Y210194D01*
X27147Y210184D01*
X27224Y210178D01*
X27301Y210176D01*
X27378Y210178D01*
X27455Y210184D01*
X27532Y210194D01*
X27608Y210207D01*
X27683Y210225D01*
X27757Y210246D01*
X27830Y210271D01*
X27902Y210300D01*
X27972Y210332D01*
X28041Y210367D01*
X28107Y210407D01*
X28172Y210449D01*
X28234Y210495D01*
X28294Y210544D01*
X28351Y210595D01*
X28406Y210650D01*
X28457Y210707D01*
X28506Y210767D01*
X28552Y210829D01*
X28594Y210894D01*
X28634Y210960D01*
X28669Y211029D01*
X28701Y211099D01*
X28730Y211171D01*
X28755Y211244D01*
X28776Y211318D01*
X28794Y211393D01*
X28807Y211469D01*
X28817Y211546D01*
X28823Y211623D01*
X28825Y211700D01*
X28823Y211777D01*
X28817Y211854D01*
X28807Y211931D01*
X28794Y212007D01*
X28776Y212082D01*
X28755Y212156D01*
X28730Y212229D01*
X28701Y212301D01*
X28669Y212371D01*
X28634Y212440D01*
X28594Y212506D01*
X28552Y212571D01*
X28506Y212633D01*
X28457Y212693D01*
X28406Y212750D01*
X28351Y212805D01*
X28294Y212856D01*
X28234Y212905D01*
X28172Y212951D01*
X28107Y212993D01*
X28041Y213033D01*
X27972Y213068D01*
X27902Y213100D01*
X27830Y213129D01*
X27757Y213154D01*
X27683Y213175D01*
X27608Y213193D01*
X27532Y213206D01*
X27455Y213216D01*
X27378Y213222D01*
X27301Y213224D01*
X29587Y188205D02*
X29587Y185919D01*
X29585Y185842D01*
X29579Y185765D01*
X29569Y185688D01*
X29556Y185612D01*
X29538Y185537D01*
X29517Y185463D01*
X29492Y185390D01*
X29463Y185318D01*
X29431Y185248D01*
X29396Y185179D01*
X29356Y185113D01*
X29314Y185048D01*
X29268Y184986D01*
X29219Y184926D01*
X29168Y184869D01*
X29113Y184814D01*
X29056Y184763D01*
X28996Y184714D01*
X28934Y184668D01*
X28869Y184626D01*
X28803Y184586D01*
X28734Y184551D01*
X28664Y184519D01*
X28592Y184490D01*
X28519Y184465D01*
X28445Y184444D01*
X28370Y184426D01*
X28294Y184413D01*
X28217Y184403D01*
X28140Y184397D01*
X28063Y184395D01*
X27682Y184395D01*
X27597Y184397D01*
X27511Y184403D01*
X27426Y184412D01*
X27342Y184426D01*
X27258Y184443D01*
X27175Y184464D01*
X27093Y184488D01*
X27013Y184516D01*
X26933Y184548D01*
X26855Y184584D01*
X26779Y184622D01*
X26705Y184665D01*
X26633Y184710D01*
X26562Y184759D01*
X26494Y184811D01*
X26429Y184865D01*
X26366Y184923D01*
X26305Y184984D01*
X26247Y185047D01*
X26193Y185112D01*
X26141Y185180D01*
X26092Y185251D01*
X26047Y185323D01*
X26004Y185397D01*
X25966Y185473D01*
X25930Y185551D01*
X25898Y185631D01*
X25870Y185711D01*
X25846Y185793D01*
X25825Y185876D01*
X25808Y185960D01*
X25794Y186044D01*
X25785Y186129D01*
X25779Y186215D01*
X25777Y186300D01*
X25779Y186385D01*
X25785Y186471D01*
X25794Y186556D01*
X25808Y186640D01*
X25825Y186724D01*
X25846Y186807D01*
X25870Y186889D01*
X25898Y186969D01*
X25930Y187049D01*
X25966Y187127D01*
X26004Y187203D01*
X26047Y187277D01*
X26092Y187349D01*
X26141Y187420D01*
X26193Y187488D01*
X26247Y187553D01*
X26305Y187616D01*
X26366Y187677D01*
X26429Y187735D01*
X26494Y187789D01*
X26562Y187841D01*
X26633Y187890D01*
X26705Y187935D01*
X26779Y187978D01*
X26855Y188016D01*
X26933Y188052D01*
X27013Y188084D01*
X27093Y188112D01*
X27175Y188136D01*
X27258Y188157D01*
X27342Y188174D01*
X27426Y188188D01*
X27511Y188197D01*
X27597Y188203D01*
X27682Y188205D01*
X29587Y188205D01*
X29696Y188203D01*
X29804Y188197D01*
X29913Y188188D01*
X30021Y188174D01*
X30128Y188157D01*
X30235Y188135D01*
X30341Y188110D01*
X30446Y188082D01*
X30550Y188049D01*
X30652Y188013D01*
X30753Y187973D01*
X30853Y187930D01*
X30951Y187883D01*
X31048Y187832D01*
X31142Y187778D01*
X31235Y187721D01*
X31325Y187661D01*
X31414Y187597D01*
X31500Y187530D01*
X31583Y187461D01*
X31664Y187388D01*
X31742Y187312D01*
X31818Y187234D01*
X31891Y187153D01*
X31960Y187070D01*
X32027Y186984D01*
X32091Y186895D01*
X32151Y186805D01*
X32208Y186712D01*
X32262Y186618D01*
X32313Y186521D01*
X32360Y186423D01*
X32403Y186323D01*
X32443Y186222D01*
X32479Y186120D01*
X32512Y186016D01*
X32540Y185911D01*
X32565Y185805D01*
X32587Y185698D01*
X32604Y185591D01*
X32618Y185483D01*
X32627Y185374D01*
X32633Y185266D01*
X32635Y185157D01*
X25777Y157090D02*
X27301Y155185D01*
X25777Y157090D02*
X32635Y157090D01*
X32635Y155185D02*
X32635Y158995D01*
X29206Y162500D02*
X29064Y162502D01*
X28921Y162507D01*
X28779Y162516D01*
X28637Y162529D01*
X28496Y162545D01*
X28355Y162564D01*
X28214Y162588D01*
X28074Y162614D01*
X27935Y162645D01*
X27797Y162679D01*
X27659Y162716D01*
X27523Y162756D01*
X27387Y162801D01*
X27253Y162848D01*
X27120Y162899D01*
X26988Y162953D01*
X26858Y163011D01*
X26729Y163072D01*
X26730Y163071D02*
X26661Y163097D01*
X26595Y163126D01*
X26529Y163158D01*
X26466Y163193D01*
X26404Y163232D01*
X26344Y163274D01*
X26287Y163319D01*
X26232Y163367D01*
X26180Y163418D01*
X26130Y163471D01*
X26084Y163527D01*
X26040Y163585D01*
X25999Y163646D01*
X25961Y163708D01*
X25927Y163772D01*
X25896Y163838D01*
X25868Y163906D01*
X25844Y163975D01*
X25824Y164045D01*
X25807Y164116D01*
X25794Y164187D01*
X25785Y164259D01*
X25779Y164332D01*
X25777Y164405D01*
X25779Y164478D01*
X25785Y164551D01*
X25794Y164623D01*
X25807Y164694D01*
X25824Y164765D01*
X25844Y164835D01*
X25868Y164904D01*
X25896Y164972D01*
X25927Y165038D01*
X25961Y165102D01*
X25999Y165164D01*
X26040Y165225D01*
X26084Y165283D01*
X26130Y165339D01*
X26180Y165392D01*
X26232Y165443D01*
X26287Y165491D01*
X26344Y165536D01*
X26404Y165578D01*
X26466Y165617D01*
X26529Y165652D01*
X26595Y165684D01*
X26661Y165713D01*
X26730Y165739D01*
X26729Y165739D02*
X26858Y165800D01*
X26988Y165858D01*
X27120Y165912D01*
X27253Y165963D01*
X27387Y166010D01*
X27523Y166055D01*
X27659Y166095D01*
X27797Y166132D01*
X27935Y166166D01*
X28074Y166197D01*
X28214Y166223D01*
X28355Y166247D01*
X28496Y166266D01*
X28637Y166282D01*
X28779Y166295D01*
X28921Y166304D01*
X29064Y166309D01*
X29206Y166311D01*
X29206Y162500D02*
X29348Y162502D01*
X29491Y162507D01*
X29633Y162516D01*
X29775Y162529D01*
X29916Y162545D01*
X30057Y162564D01*
X30198Y162588D01*
X30338Y162614D01*
X30477Y162645D01*
X30615Y162679D01*
X30753Y162716D01*
X30889Y162756D01*
X31025Y162801D01*
X31159Y162848D01*
X31292Y162899D01*
X31424Y162953D01*
X31554Y163011D01*
X31683Y163072D01*
X31682Y163071D02*
X31751Y163097D01*
X31817Y163126D01*
X31883Y163158D01*
X31946Y163193D01*
X32008Y163232D01*
X32068Y163274D01*
X32125Y163319D01*
X32180Y163367D01*
X32232Y163418D01*
X32282Y163471D01*
X32328Y163527D01*
X32372Y163585D01*
X32413Y163646D01*
X32451Y163708D01*
X32485Y163772D01*
X32516Y163838D01*
X32544Y163906D01*
X32568Y163975D01*
X32588Y164045D01*
X32605Y164116D01*
X32618Y164187D01*
X32627Y164259D01*
X32633Y164332D01*
X32635Y164405D01*
X31683Y165739D02*
X31554Y165800D01*
X31424Y165858D01*
X31292Y165912D01*
X31159Y165963D01*
X31025Y166010D01*
X30889Y166055D01*
X30753Y166095D01*
X30615Y166132D01*
X30477Y166166D01*
X30338Y166197D01*
X30198Y166223D01*
X30057Y166247D01*
X29916Y166266D01*
X29775Y166282D01*
X29633Y166295D01*
X29491Y166304D01*
X29348Y166309D01*
X29206Y166311D01*
X31682Y165739D02*
X31751Y165713D01*
X31817Y165684D01*
X31883Y165652D01*
X31946Y165617D01*
X32008Y165578D01*
X32068Y165536D01*
X32125Y165491D01*
X32180Y165443D01*
X32232Y165392D01*
X32282Y165339D01*
X32328Y165283D01*
X32372Y165225D01*
X32413Y165164D01*
X32451Y165102D01*
X32485Y165038D01*
X32516Y164972D01*
X32544Y164904D01*
X32568Y164835D01*
X32588Y164765D01*
X32605Y164694D01*
X32618Y164623D01*
X32627Y164551D01*
X32633Y164478D01*
X32635Y164405D01*
X31111Y162881D02*
X27301Y165929D01*
X25777Y132325D02*
X27301Y130420D01*
X25777Y132325D02*
X32635Y132325D01*
X32635Y130420D02*
X32635Y134230D01*
X27301Y137735D02*
X25777Y139640D01*
X32635Y139640D01*
X32635Y137735D02*
X32635Y141545D01*
X25777Y106925D02*
X27301Y105020D01*
X25777Y106925D02*
X32635Y106925D01*
X32635Y105020D02*
X32635Y108830D01*
X25777Y114431D02*
X25779Y114513D01*
X25785Y114594D01*
X25794Y114675D01*
X25808Y114756D01*
X25825Y114835D01*
X25846Y114914D01*
X25871Y114992D01*
X25900Y115068D01*
X25932Y115143D01*
X25968Y115217D01*
X26007Y115289D01*
X26049Y115358D01*
X26095Y115426D01*
X26144Y115491D01*
X26196Y115554D01*
X26251Y115614D01*
X26309Y115672D01*
X26369Y115727D01*
X26432Y115779D01*
X26497Y115828D01*
X26565Y115874D01*
X26635Y115916D01*
X26706Y115955D01*
X26780Y115991D01*
X26855Y116023D01*
X26931Y116052D01*
X27009Y116077D01*
X27088Y116098D01*
X27167Y116115D01*
X27248Y116129D01*
X27329Y116138D01*
X27410Y116144D01*
X27492Y116146D01*
X25777Y114431D02*
X25779Y114339D01*
X25785Y114247D01*
X25794Y114155D01*
X25808Y114063D01*
X25825Y113973D01*
X25846Y113883D01*
X25871Y113794D01*
X25900Y113706D01*
X25932Y113619D01*
X25968Y113534D01*
X26007Y113451D01*
X26050Y113369D01*
X26096Y113289D01*
X26146Y113211D01*
X26198Y113135D01*
X26254Y113062D01*
X26313Y112991D01*
X26375Y112922D01*
X26440Y112856D01*
X26507Y112793D01*
X26577Y112733D01*
X26649Y112675D01*
X26724Y112621D01*
X26801Y112570D01*
X26880Y112522D01*
X26961Y112478D01*
X27044Y112437D01*
X27128Y112399D01*
X27214Y112365D01*
X27301Y112335D01*
X28826Y115574D02*
X28767Y115633D01*
X28706Y115689D01*
X28643Y115742D01*
X28577Y115793D01*
X28509Y115840D01*
X28439Y115884D01*
X28367Y115925D01*
X28293Y115963D01*
X28218Y115997D01*
X28141Y116028D01*
X28063Y116055D01*
X27983Y116079D01*
X27903Y116100D01*
X27822Y116116D01*
X27740Y116129D01*
X27658Y116139D01*
X27575Y116144D01*
X27492Y116146D01*
X28825Y115574D02*
X32635Y112335D01*
X32635Y116145D01*
X25777Y82160D02*
X27301Y80255D01*
X25777Y82160D02*
X32635Y82160D01*
X32635Y80255D02*
X32635Y84065D01*
X32635Y87570D02*
X32635Y89475D01*
X32633Y89560D01*
X32627Y89646D01*
X32618Y89731D01*
X32604Y89815D01*
X32587Y89899D01*
X32566Y89982D01*
X32542Y90064D01*
X32514Y90144D01*
X32482Y90224D01*
X32446Y90302D01*
X32408Y90378D01*
X32365Y90452D01*
X32320Y90524D01*
X32271Y90595D01*
X32219Y90663D01*
X32165Y90728D01*
X32107Y90791D01*
X32046Y90852D01*
X31983Y90910D01*
X31918Y90964D01*
X31850Y91016D01*
X31779Y91065D01*
X31707Y91110D01*
X31633Y91153D01*
X31557Y91191D01*
X31479Y91227D01*
X31399Y91259D01*
X31319Y91287D01*
X31237Y91311D01*
X31154Y91332D01*
X31070Y91349D01*
X30986Y91363D01*
X30901Y91372D01*
X30815Y91378D01*
X30730Y91380D01*
X30645Y91378D01*
X30559Y91372D01*
X30474Y91363D01*
X30390Y91349D01*
X30306Y91332D01*
X30223Y91311D01*
X30141Y91287D01*
X30061Y91259D01*
X29981Y91227D01*
X29903Y91191D01*
X29827Y91153D01*
X29753Y91110D01*
X29681Y91065D01*
X29610Y91016D01*
X29542Y90964D01*
X29477Y90910D01*
X29414Y90852D01*
X29353Y90791D01*
X29295Y90728D01*
X29241Y90663D01*
X29189Y90595D01*
X29140Y90524D01*
X29095Y90452D01*
X29052Y90378D01*
X29014Y90302D01*
X28978Y90224D01*
X28946Y90144D01*
X28918Y90064D01*
X28894Y89982D01*
X28873Y89899D01*
X28856Y89815D01*
X28842Y89731D01*
X28833Y89646D01*
X28827Y89560D01*
X28825Y89475D01*
X25777Y89856D02*
X25777Y87570D01*
X25777Y89856D02*
X25779Y89933D01*
X25785Y90010D01*
X25795Y90087D01*
X25808Y90163D01*
X25826Y90238D01*
X25847Y90312D01*
X25872Y90385D01*
X25901Y90457D01*
X25933Y90527D01*
X25968Y90596D01*
X26008Y90662D01*
X26050Y90727D01*
X26096Y90789D01*
X26145Y90849D01*
X26196Y90906D01*
X26251Y90961D01*
X26308Y91012D01*
X26368Y91061D01*
X26430Y91107D01*
X26495Y91149D01*
X26561Y91189D01*
X26630Y91224D01*
X26700Y91256D01*
X26772Y91285D01*
X26845Y91310D01*
X26919Y91331D01*
X26994Y91349D01*
X27070Y91362D01*
X27147Y91372D01*
X27224Y91378D01*
X27301Y91380D01*
X27378Y91378D01*
X27455Y91372D01*
X27532Y91362D01*
X27608Y91349D01*
X27683Y91331D01*
X27757Y91310D01*
X27830Y91285D01*
X27902Y91256D01*
X27972Y91224D01*
X28041Y91189D01*
X28107Y91149D01*
X28172Y91107D01*
X28234Y91061D01*
X28294Y91012D01*
X28351Y90961D01*
X28406Y90906D01*
X28457Y90849D01*
X28506Y90789D01*
X28552Y90727D01*
X28594Y90662D01*
X28634Y90596D01*
X28669Y90527D01*
X28701Y90457D01*
X28730Y90385D01*
X28755Y90312D01*
X28776Y90238D01*
X28794Y90163D01*
X28807Y90087D01*
X28817Y90010D01*
X28823Y89933D01*
X28825Y89856D01*
X28825Y88332D01*
X25777Y56125D02*
X27301Y54220D01*
X25777Y56125D02*
X32635Y56125D01*
X32635Y54220D02*
X32635Y58030D01*
X31111Y61535D02*
X25777Y63059D01*
X31111Y61535D02*
X31111Y65345D01*
X29587Y64202D02*
X32635Y64202D01*
X26412Y30090D02*
X27936Y28185D01*
X26412Y30090D02*
X33270Y30090D01*
X33270Y28185D02*
X33270Y31995D01*
X33270Y35500D02*
X33270Y37786D01*
X33268Y37863D01*
X33262Y37940D01*
X33252Y38017D01*
X33239Y38093D01*
X33221Y38168D01*
X33200Y38242D01*
X33175Y38315D01*
X33146Y38387D01*
X33114Y38457D01*
X33079Y38526D01*
X33039Y38592D01*
X32997Y38657D01*
X32951Y38719D01*
X32902Y38779D01*
X32851Y38836D01*
X32796Y38891D01*
X32739Y38942D01*
X32679Y38991D01*
X32617Y39037D01*
X32552Y39079D01*
X32486Y39119D01*
X32417Y39154D01*
X32347Y39186D01*
X32275Y39215D01*
X32202Y39240D01*
X32128Y39261D01*
X32053Y39279D01*
X31977Y39292D01*
X31900Y39302D01*
X31823Y39308D01*
X31746Y39310D01*
X30984Y39310D01*
X30907Y39308D01*
X30830Y39302D01*
X30753Y39292D01*
X30677Y39279D01*
X30602Y39261D01*
X30528Y39240D01*
X30455Y39215D01*
X30383Y39186D01*
X30313Y39154D01*
X30244Y39119D01*
X30178Y39079D01*
X30113Y39037D01*
X30051Y38991D01*
X29991Y38942D01*
X29934Y38891D01*
X29879Y38836D01*
X29828Y38779D01*
X29779Y38719D01*
X29733Y38657D01*
X29691Y38592D01*
X29651Y38526D01*
X29616Y38457D01*
X29584Y38387D01*
X29555Y38315D01*
X29530Y38242D01*
X29509Y38168D01*
X29491Y38093D01*
X29478Y38017D01*
X29468Y37940D01*
X29462Y37863D01*
X29460Y37786D01*
X29460Y35500D01*
X26412Y35500D01*
X26412Y39310D01*
X226310Y407407D02*
X226310Y408550D01*
X230120Y408550D01*
X230120Y406264D01*
X230118Y406187D01*
X230112Y406110D01*
X230102Y406033D01*
X230089Y405957D01*
X230071Y405882D01*
X230050Y405808D01*
X230025Y405735D01*
X229996Y405663D01*
X229964Y405593D01*
X229929Y405524D01*
X229889Y405458D01*
X229847Y405393D01*
X229801Y405331D01*
X229752Y405271D01*
X229701Y405214D01*
X229646Y405159D01*
X229589Y405108D01*
X229529Y405059D01*
X229467Y405013D01*
X229402Y404971D01*
X229336Y404931D01*
X229267Y404896D01*
X229197Y404864D01*
X229125Y404835D01*
X229052Y404810D01*
X228978Y404789D01*
X228903Y404771D01*
X228827Y404758D01*
X228750Y404748D01*
X228673Y404742D01*
X228596Y404740D01*
X224786Y404740D01*
X224709Y404742D01*
X224632Y404748D01*
X224555Y404758D01*
X224479Y404771D01*
X224404Y404789D01*
X224330Y404810D01*
X224257Y404835D01*
X224185Y404864D01*
X224115Y404896D01*
X224046Y404931D01*
X223980Y404971D01*
X223915Y405013D01*
X223853Y405059D01*
X223793Y405108D01*
X223736Y405159D01*
X223681Y405214D01*
X223630Y405271D01*
X223581Y405331D01*
X223535Y405393D01*
X223493Y405458D01*
X223453Y405524D01*
X223418Y405593D01*
X223386Y405663D01*
X223357Y405735D01*
X223332Y405808D01*
X223311Y405882D01*
X223293Y405957D01*
X223280Y406033D01*
X223270Y406110D01*
X223264Y406187D01*
X223262Y406264D01*
X223262Y408550D01*
X223262Y412543D02*
X230120Y412543D01*
X230120Y416353D02*
X223262Y412543D01*
X223262Y416353D02*
X230120Y416353D01*
X230120Y420346D02*
X223262Y420346D01*
X223262Y422251D01*
X223264Y422336D01*
X223270Y422422D01*
X223279Y422507D01*
X223293Y422591D01*
X223310Y422675D01*
X223331Y422758D01*
X223355Y422840D01*
X223383Y422920D01*
X223415Y423000D01*
X223451Y423078D01*
X223489Y423154D01*
X223532Y423228D01*
X223577Y423300D01*
X223626Y423371D01*
X223678Y423439D01*
X223732Y423504D01*
X223790Y423567D01*
X223851Y423628D01*
X223914Y423686D01*
X223979Y423740D01*
X224047Y423792D01*
X224118Y423841D01*
X224190Y423886D01*
X224264Y423929D01*
X224340Y423967D01*
X224418Y424003D01*
X224498Y424035D01*
X224578Y424063D01*
X224660Y424087D01*
X224743Y424108D01*
X224827Y424125D01*
X224911Y424139D01*
X224996Y424148D01*
X225082Y424154D01*
X225167Y424156D01*
X228215Y424156D01*
X228300Y424154D01*
X228386Y424148D01*
X228471Y424139D01*
X228555Y424125D01*
X228639Y424108D01*
X228722Y424087D01*
X228804Y424063D01*
X228884Y424035D01*
X228964Y424003D01*
X229042Y423967D01*
X229118Y423929D01*
X229192Y423886D01*
X229264Y423841D01*
X229335Y423792D01*
X229403Y423740D01*
X229468Y423686D01*
X229531Y423628D01*
X229592Y423567D01*
X229650Y423504D01*
X229704Y423439D01*
X229756Y423371D01*
X229805Y423300D01*
X229850Y423228D01*
X229893Y423154D01*
X229931Y423078D01*
X229967Y423000D01*
X229999Y422920D01*
X230027Y422840D01*
X230051Y422758D01*
X230072Y422675D01*
X230089Y422591D01*
X230103Y422507D01*
X230112Y422422D01*
X230118Y422336D01*
X230120Y422251D01*
X230120Y420346D01*
X230120Y382515D02*
X230120Y380610D01*
X230120Y382515D02*
X230118Y382600D01*
X230112Y382686D01*
X230103Y382771D01*
X230089Y382855D01*
X230072Y382939D01*
X230051Y383022D01*
X230027Y383104D01*
X229999Y383184D01*
X229967Y383264D01*
X229931Y383342D01*
X229893Y383418D01*
X229850Y383492D01*
X229805Y383564D01*
X229756Y383635D01*
X229704Y383703D01*
X229650Y383768D01*
X229592Y383831D01*
X229531Y383892D01*
X229468Y383950D01*
X229403Y384004D01*
X229335Y384056D01*
X229264Y384105D01*
X229192Y384150D01*
X229118Y384193D01*
X229042Y384231D01*
X228964Y384267D01*
X228884Y384299D01*
X228804Y384327D01*
X228722Y384351D01*
X228639Y384372D01*
X228555Y384389D01*
X228471Y384403D01*
X228386Y384412D01*
X228300Y384418D01*
X228215Y384420D01*
X228130Y384418D01*
X228044Y384412D01*
X227959Y384403D01*
X227875Y384389D01*
X227791Y384372D01*
X227708Y384351D01*
X227626Y384327D01*
X227546Y384299D01*
X227466Y384267D01*
X227388Y384231D01*
X227312Y384193D01*
X227238Y384150D01*
X227166Y384105D01*
X227095Y384056D01*
X227027Y384004D01*
X226962Y383950D01*
X226899Y383892D01*
X226838Y383831D01*
X226780Y383768D01*
X226726Y383703D01*
X226674Y383635D01*
X226625Y383564D01*
X226580Y383492D01*
X226537Y383418D01*
X226499Y383342D01*
X226463Y383264D01*
X226431Y383184D01*
X226403Y383104D01*
X226379Y383022D01*
X226358Y382939D01*
X226341Y382855D01*
X226327Y382771D01*
X226318Y382686D01*
X226312Y382600D01*
X226310Y382515D01*
X223262Y382896D02*
X223262Y380610D01*
X223262Y382896D02*
X223264Y382973D01*
X223270Y383050D01*
X223280Y383127D01*
X223293Y383203D01*
X223311Y383278D01*
X223332Y383352D01*
X223357Y383425D01*
X223386Y383497D01*
X223418Y383567D01*
X223453Y383636D01*
X223493Y383702D01*
X223535Y383767D01*
X223581Y383829D01*
X223630Y383889D01*
X223681Y383946D01*
X223736Y384001D01*
X223793Y384052D01*
X223853Y384101D01*
X223915Y384147D01*
X223980Y384189D01*
X224046Y384229D01*
X224115Y384264D01*
X224185Y384296D01*
X224257Y384325D01*
X224330Y384350D01*
X224404Y384371D01*
X224479Y384389D01*
X224555Y384402D01*
X224632Y384412D01*
X224709Y384418D01*
X224786Y384420D01*
X224863Y384418D01*
X224940Y384412D01*
X225017Y384402D01*
X225093Y384389D01*
X225168Y384371D01*
X225242Y384350D01*
X225315Y384325D01*
X225387Y384296D01*
X225457Y384264D01*
X225526Y384229D01*
X225592Y384189D01*
X225657Y384147D01*
X225719Y384101D01*
X225779Y384052D01*
X225836Y384001D01*
X225891Y383946D01*
X225942Y383889D01*
X225991Y383829D01*
X226037Y383767D01*
X226079Y383702D01*
X226119Y383636D01*
X226154Y383567D01*
X226186Y383497D01*
X226215Y383425D01*
X226240Y383352D01*
X226261Y383278D01*
X226279Y383203D01*
X226292Y383127D01*
X226302Y383050D01*
X226308Y382973D01*
X226310Y382896D01*
X226310Y381372D01*
X223262Y387544D02*
X230120Y389830D01*
X223262Y392116D01*
X230120Y395240D02*
X230120Y397145D01*
X230118Y397230D01*
X230112Y397316D01*
X230103Y397401D01*
X230089Y397485D01*
X230072Y397569D01*
X230051Y397652D01*
X230027Y397734D01*
X229999Y397814D01*
X229967Y397894D01*
X229931Y397972D01*
X229893Y398048D01*
X229850Y398122D01*
X229805Y398194D01*
X229756Y398265D01*
X229704Y398333D01*
X229650Y398398D01*
X229592Y398461D01*
X229531Y398522D01*
X229468Y398580D01*
X229403Y398634D01*
X229335Y398686D01*
X229264Y398735D01*
X229192Y398780D01*
X229118Y398823D01*
X229042Y398861D01*
X228964Y398897D01*
X228884Y398929D01*
X228804Y398957D01*
X228722Y398981D01*
X228639Y399002D01*
X228555Y399019D01*
X228471Y399033D01*
X228386Y399042D01*
X228300Y399048D01*
X228215Y399050D01*
X228130Y399048D01*
X228044Y399042D01*
X227959Y399033D01*
X227875Y399019D01*
X227791Y399002D01*
X227708Y398981D01*
X227626Y398957D01*
X227546Y398929D01*
X227466Y398897D01*
X227388Y398861D01*
X227312Y398823D01*
X227238Y398780D01*
X227166Y398735D01*
X227095Y398686D01*
X227027Y398634D01*
X226962Y398580D01*
X226899Y398522D01*
X226838Y398461D01*
X226780Y398398D01*
X226726Y398333D01*
X226674Y398265D01*
X226625Y398194D01*
X226580Y398122D01*
X226537Y398048D01*
X226499Y397972D01*
X226463Y397894D01*
X226431Y397814D01*
X226403Y397734D01*
X226379Y397652D01*
X226358Y397569D01*
X226341Y397485D01*
X226327Y397401D01*
X226318Y397316D01*
X226312Y397230D01*
X226310Y397145D01*
X223262Y397526D02*
X223262Y395240D01*
X223262Y397526D02*
X223264Y397603D01*
X223270Y397680D01*
X223280Y397757D01*
X223293Y397833D01*
X223311Y397908D01*
X223332Y397982D01*
X223357Y398055D01*
X223386Y398127D01*
X223418Y398197D01*
X223453Y398266D01*
X223493Y398332D01*
X223535Y398397D01*
X223581Y398459D01*
X223630Y398519D01*
X223681Y398576D01*
X223736Y398631D01*
X223793Y398682D01*
X223853Y398731D01*
X223915Y398777D01*
X223980Y398819D01*
X224046Y398859D01*
X224115Y398894D01*
X224185Y398926D01*
X224257Y398955D01*
X224330Y398980D01*
X224404Y399001D01*
X224479Y399019D01*
X224555Y399032D01*
X224632Y399042D01*
X224709Y399048D01*
X224786Y399050D01*
X224863Y399048D01*
X224940Y399042D01*
X225017Y399032D01*
X225093Y399019D01*
X225168Y399001D01*
X225242Y398980D01*
X225315Y398955D01*
X225387Y398926D01*
X225457Y398894D01*
X225526Y398859D01*
X225592Y398819D01*
X225657Y398777D01*
X225719Y398731D01*
X225779Y398682D01*
X225836Y398631D01*
X225891Y398576D01*
X225942Y398519D01*
X225991Y398459D01*
X226037Y398397D01*
X226079Y398332D01*
X226119Y398266D01*
X226154Y398197D01*
X226186Y398127D01*
X226215Y398055D01*
X226240Y397982D01*
X226261Y397908D01*
X226279Y397833D01*
X226292Y397757D01*
X226302Y397680D01*
X226308Y397603D01*
X226310Y397526D01*
X226310Y396002D01*
X230120Y360925D02*
X230120Y359020D01*
X230120Y360925D02*
X230118Y361010D01*
X230112Y361096D01*
X230103Y361181D01*
X230089Y361265D01*
X230072Y361349D01*
X230051Y361432D01*
X230027Y361514D01*
X229999Y361594D01*
X229967Y361674D01*
X229931Y361752D01*
X229893Y361828D01*
X229850Y361902D01*
X229805Y361974D01*
X229756Y362045D01*
X229704Y362113D01*
X229650Y362178D01*
X229592Y362241D01*
X229531Y362302D01*
X229468Y362360D01*
X229403Y362414D01*
X229335Y362466D01*
X229264Y362515D01*
X229192Y362560D01*
X229118Y362603D01*
X229042Y362641D01*
X228964Y362677D01*
X228884Y362709D01*
X228804Y362737D01*
X228722Y362761D01*
X228639Y362782D01*
X228555Y362799D01*
X228471Y362813D01*
X228386Y362822D01*
X228300Y362828D01*
X228215Y362830D01*
X228130Y362828D01*
X228044Y362822D01*
X227959Y362813D01*
X227875Y362799D01*
X227791Y362782D01*
X227708Y362761D01*
X227626Y362737D01*
X227546Y362709D01*
X227466Y362677D01*
X227388Y362641D01*
X227312Y362603D01*
X227238Y362560D01*
X227166Y362515D01*
X227095Y362466D01*
X227027Y362414D01*
X226962Y362360D01*
X226899Y362302D01*
X226838Y362241D01*
X226780Y362178D01*
X226726Y362113D01*
X226674Y362045D01*
X226625Y361974D01*
X226580Y361902D01*
X226537Y361828D01*
X226499Y361752D01*
X226463Y361674D01*
X226431Y361594D01*
X226403Y361514D01*
X226379Y361432D01*
X226358Y361349D01*
X226341Y361265D01*
X226327Y361181D01*
X226318Y361096D01*
X226312Y361010D01*
X226310Y360925D01*
X223262Y361306D02*
X223262Y359020D01*
X223262Y361306D02*
X223264Y361383D01*
X223270Y361460D01*
X223280Y361537D01*
X223293Y361613D01*
X223311Y361688D01*
X223332Y361762D01*
X223357Y361835D01*
X223386Y361907D01*
X223418Y361977D01*
X223453Y362046D01*
X223493Y362112D01*
X223535Y362177D01*
X223581Y362239D01*
X223630Y362299D01*
X223681Y362356D01*
X223736Y362411D01*
X223793Y362462D01*
X223853Y362511D01*
X223915Y362557D01*
X223980Y362599D01*
X224046Y362639D01*
X224115Y362674D01*
X224185Y362706D01*
X224257Y362735D01*
X224330Y362760D01*
X224404Y362781D01*
X224479Y362799D01*
X224555Y362812D01*
X224632Y362822D01*
X224709Y362828D01*
X224786Y362830D01*
X224863Y362828D01*
X224940Y362822D01*
X225017Y362812D01*
X225093Y362799D01*
X225168Y362781D01*
X225242Y362760D01*
X225315Y362735D01*
X225387Y362706D01*
X225457Y362674D01*
X225526Y362639D01*
X225592Y362599D01*
X225657Y362557D01*
X225719Y362511D01*
X225779Y362462D01*
X225836Y362411D01*
X225891Y362356D01*
X225942Y362299D01*
X225991Y362239D01*
X226037Y362177D01*
X226079Y362112D01*
X226119Y362046D01*
X226154Y361977D01*
X226186Y361907D01*
X226215Y361835D01*
X226240Y361762D01*
X226261Y361688D01*
X226279Y361613D01*
X226292Y361537D01*
X226302Y361460D01*
X226308Y361383D01*
X226310Y361306D01*
X226310Y359782D01*
X226691Y366335D02*
X226549Y366337D01*
X226406Y366342D01*
X226264Y366351D01*
X226122Y366364D01*
X225981Y366380D01*
X225840Y366399D01*
X225699Y366423D01*
X225559Y366449D01*
X225420Y366480D01*
X225282Y366514D01*
X225144Y366551D01*
X225008Y366591D01*
X224872Y366636D01*
X224738Y366683D01*
X224605Y366734D01*
X224473Y366788D01*
X224343Y366846D01*
X224214Y366907D01*
X224215Y366906D02*
X224146Y366932D01*
X224080Y366961D01*
X224014Y366993D01*
X223951Y367028D01*
X223889Y367067D01*
X223829Y367109D01*
X223772Y367154D01*
X223717Y367202D01*
X223665Y367253D01*
X223615Y367306D01*
X223569Y367362D01*
X223525Y367420D01*
X223484Y367481D01*
X223446Y367543D01*
X223412Y367607D01*
X223381Y367673D01*
X223353Y367741D01*
X223329Y367810D01*
X223309Y367880D01*
X223292Y367951D01*
X223279Y368022D01*
X223270Y368094D01*
X223264Y368167D01*
X223262Y368240D01*
X223264Y368313D01*
X223270Y368386D01*
X223279Y368458D01*
X223292Y368529D01*
X223309Y368600D01*
X223329Y368670D01*
X223353Y368739D01*
X223381Y368807D01*
X223412Y368873D01*
X223446Y368937D01*
X223484Y368999D01*
X223525Y369060D01*
X223569Y369118D01*
X223615Y369174D01*
X223665Y369227D01*
X223717Y369278D01*
X223772Y369326D01*
X223829Y369371D01*
X223889Y369413D01*
X223951Y369452D01*
X224014Y369487D01*
X224080Y369519D01*
X224146Y369548D01*
X224215Y369574D01*
X224214Y369574D02*
X224343Y369635D01*
X224473Y369693D01*
X224605Y369747D01*
X224738Y369798D01*
X224872Y369845D01*
X225008Y369890D01*
X225144Y369930D01*
X225282Y369967D01*
X225420Y370001D01*
X225559Y370032D01*
X225699Y370058D01*
X225840Y370082D01*
X225981Y370101D01*
X226122Y370117D01*
X226264Y370130D01*
X226406Y370139D01*
X226549Y370144D01*
X226691Y370146D01*
X226691Y366335D02*
X226833Y366337D01*
X226976Y366342D01*
X227118Y366351D01*
X227260Y366364D01*
X227401Y366380D01*
X227542Y366399D01*
X227683Y366423D01*
X227823Y366449D01*
X227962Y366480D01*
X228100Y366514D01*
X228238Y366551D01*
X228374Y366591D01*
X228510Y366636D01*
X228644Y366683D01*
X228777Y366734D01*
X228909Y366788D01*
X229039Y366846D01*
X229168Y366907D01*
X229167Y366906D02*
X229236Y366932D01*
X229302Y366961D01*
X229368Y366993D01*
X229431Y367028D01*
X229493Y367067D01*
X229553Y367109D01*
X229610Y367154D01*
X229665Y367202D01*
X229717Y367253D01*
X229767Y367306D01*
X229813Y367362D01*
X229857Y367420D01*
X229898Y367481D01*
X229936Y367543D01*
X229970Y367607D01*
X230001Y367673D01*
X230029Y367741D01*
X230053Y367810D01*
X230073Y367880D01*
X230090Y367951D01*
X230103Y368022D01*
X230112Y368094D01*
X230118Y368167D01*
X230120Y368240D01*
X229168Y369574D02*
X229039Y369635D01*
X228909Y369693D01*
X228777Y369747D01*
X228644Y369798D01*
X228510Y369845D01*
X228374Y369890D01*
X228238Y369930D01*
X228100Y369967D01*
X227962Y370001D01*
X227823Y370032D01*
X227683Y370058D01*
X227542Y370082D01*
X227401Y370101D01*
X227260Y370117D01*
X227118Y370130D01*
X226976Y370139D01*
X226833Y370144D01*
X226691Y370146D01*
X229167Y369574D02*
X229236Y369548D01*
X229302Y369519D01*
X229368Y369487D01*
X229431Y369452D01*
X229493Y369413D01*
X229553Y369371D01*
X229610Y369326D01*
X229665Y369278D01*
X229717Y369227D01*
X229767Y369174D01*
X229813Y369118D01*
X229857Y369060D01*
X229898Y368999D01*
X229936Y368937D01*
X229970Y368873D01*
X230001Y368807D01*
X230029Y368739D01*
X230053Y368670D01*
X230073Y368600D01*
X230090Y368529D01*
X230103Y368458D01*
X230112Y368386D01*
X230118Y368313D01*
X230120Y368240D01*
X228596Y366716D02*
X224786Y369764D01*
X225612Y337431D02*
X225530Y337429D01*
X225449Y337423D01*
X225368Y337414D01*
X225287Y337400D01*
X225208Y337383D01*
X225129Y337362D01*
X225051Y337337D01*
X224975Y337308D01*
X224900Y337276D01*
X224826Y337240D01*
X224755Y337201D01*
X224685Y337159D01*
X224617Y337113D01*
X224552Y337064D01*
X224489Y337012D01*
X224429Y336957D01*
X224371Y336899D01*
X224316Y336839D01*
X224264Y336776D01*
X224215Y336711D01*
X224169Y336643D01*
X224127Y336574D01*
X224088Y336502D01*
X224052Y336428D01*
X224020Y336353D01*
X223991Y336277D01*
X223966Y336199D01*
X223945Y336120D01*
X223928Y336041D01*
X223914Y335960D01*
X223905Y335879D01*
X223899Y335798D01*
X223897Y335716D01*
X223899Y335624D01*
X223905Y335532D01*
X223914Y335440D01*
X223928Y335348D01*
X223945Y335258D01*
X223966Y335168D01*
X223991Y335079D01*
X224020Y334991D01*
X224052Y334904D01*
X224088Y334819D01*
X224127Y334736D01*
X224170Y334654D01*
X224216Y334574D01*
X224266Y334496D01*
X224318Y334420D01*
X224374Y334347D01*
X224433Y334276D01*
X224495Y334207D01*
X224560Y334141D01*
X224627Y334078D01*
X224697Y334018D01*
X224769Y333960D01*
X224844Y333906D01*
X224921Y333855D01*
X225000Y333807D01*
X225081Y333763D01*
X225164Y333722D01*
X225248Y333684D01*
X225334Y333650D01*
X225421Y333620D01*
X226946Y336859D02*
X226887Y336918D01*
X226826Y336974D01*
X226763Y337027D01*
X226697Y337078D01*
X226629Y337125D01*
X226559Y337169D01*
X226487Y337210D01*
X226413Y337248D01*
X226338Y337282D01*
X226261Y337313D01*
X226183Y337340D01*
X226103Y337364D01*
X226023Y337385D01*
X225942Y337401D01*
X225860Y337414D01*
X225778Y337424D01*
X225695Y337429D01*
X225612Y337431D01*
X226945Y336859D02*
X230755Y333620D01*
X230755Y337430D01*
X227707Y342459D02*
X227707Y344745D01*
X227707Y342459D02*
X227705Y342382D01*
X227699Y342305D01*
X227689Y342228D01*
X227676Y342152D01*
X227658Y342077D01*
X227637Y342003D01*
X227612Y341930D01*
X227583Y341858D01*
X227551Y341788D01*
X227516Y341719D01*
X227476Y341653D01*
X227434Y341588D01*
X227388Y341526D01*
X227339Y341466D01*
X227288Y341409D01*
X227233Y341354D01*
X227176Y341303D01*
X227116Y341254D01*
X227054Y341208D01*
X226989Y341166D01*
X226923Y341126D01*
X226854Y341091D01*
X226784Y341059D01*
X226712Y341030D01*
X226639Y341005D01*
X226565Y340984D01*
X226490Y340966D01*
X226414Y340953D01*
X226337Y340943D01*
X226260Y340937D01*
X226183Y340935D01*
X225802Y340935D01*
X225717Y340937D01*
X225631Y340943D01*
X225546Y340952D01*
X225462Y340966D01*
X225378Y340983D01*
X225295Y341004D01*
X225213Y341028D01*
X225133Y341056D01*
X225053Y341088D01*
X224975Y341124D01*
X224899Y341162D01*
X224825Y341205D01*
X224753Y341250D01*
X224682Y341299D01*
X224614Y341351D01*
X224549Y341405D01*
X224486Y341463D01*
X224425Y341524D01*
X224367Y341587D01*
X224313Y341652D01*
X224261Y341720D01*
X224212Y341791D01*
X224167Y341863D01*
X224124Y341937D01*
X224086Y342013D01*
X224050Y342091D01*
X224018Y342171D01*
X223990Y342251D01*
X223966Y342333D01*
X223945Y342416D01*
X223928Y342500D01*
X223914Y342584D01*
X223905Y342669D01*
X223899Y342755D01*
X223897Y342840D01*
X223899Y342925D01*
X223905Y343011D01*
X223914Y343096D01*
X223928Y343180D01*
X223945Y343264D01*
X223966Y343347D01*
X223990Y343429D01*
X224018Y343509D01*
X224050Y343589D01*
X224086Y343667D01*
X224124Y343743D01*
X224167Y343817D01*
X224212Y343889D01*
X224261Y343960D01*
X224313Y344028D01*
X224367Y344093D01*
X224425Y344156D01*
X224486Y344217D01*
X224549Y344275D01*
X224614Y344329D01*
X224682Y344381D01*
X224753Y344430D01*
X224825Y344475D01*
X224899Y344518D01*
X224975Y344556D01*
X225053Y344592D01*
X225133Y344624D01*
X225213Y344652D01*
X225295Y344676D01*
X225378Y344697D01*
X225462Y344714D01*
X225546Y344728D01*
X225631Y344737D01*
X225717Y344743D01*
X225802Y344745D01*
X227707Y344745D01*
X227816Y344743D01*
X227924Y344737D01*
X228033Y344728D01*
X228141Y344714D01*
X228248Y344697D01*
X228355Y344675D01*
X228461Y344650D01*
X228566Y344622D01*
X228670Y344589D01*
X228772Y344553D01*
X228873Y344513D01*
X228973Y344470D01*
X229071Y344423D01*
X229168Y344372D01*
X229262Y344318D01*
X229355Y344261D01*
X229445Y344201D01*
X229534Y344137D01*
X229620Y344070D01*
X229703Y344001D01*
X229784Y343928D01*
X229862Y343852D01*
X229938Y343774D01*
X230011Y343693D01*
X230080Y343610D01*
X230147Y343524D01*
X230211Y343435D01*
X230271Y343345D01*
X230328Y343252D01*
X230382Y343158D01*
X230433Y343061D01*
X230480Y342963D01*
X230523Y342863D01*
X230563Y342762D01*
X230599Y342660D01*
X230632Y342556D01*
X230660Y342451D01*
X230685Y342345D01*
X230707Y342238D01*
X230724Y342131D01*
X230738Y342023D01*
X230747Y341914D01*
X230753Y341806D01*
X230755Y341697D01*
X225612Y311396D02*
X225530Y311394D01*
X225449Y311388D01*
X225368Y311379D01*
X225287Y311365D01*
X225208Y311348D01*
X225129Y311327D01*
X225051Y311302D01*
X224975Y311273D01*
X224900Y311241D01*
X224826Y311205D01*
X224755Y311166D01*
X224685Y311124D01*
X224617Y311078D01*
X224552Y311029D01*
X224489Y310977D01*
X224429Y310922D01*
X224371Y310864D01*
X224316Y310804D01*
X224264Y310741D01*
X224215Y310676D01*
X224169Y310608D01*
X224127Y310539D01*
X224088Y310467D01*
X224052Y310393D01*
X224020Y310318D01*
X223991Y310242D01*
X223966Y310164D01*
X223945Y310085D01*
X223928Y310006D01*
X223914Y309925D01*
X223905Y309844D01*
X223899Y309763D01*
X223897Y309681D01*
X223899Y309589D01*
X223905Y309497D01*
X223914Y309405D01*
X223928Y309313D01*
X223945Y309223D01*
X223966Y309133D01*
X223991Y309044D01*
X224020Y308956D01*
X224052Y308869D01*
X224088Y308784D01*
X224127Y308701D01*
X224170Y308619D01*
X224216Y308539D01*
X224266Y308461D01*
X224318Y308385D01*
X224374Y308312D01*
X224433Y308241D01*
X224495Y308172D01*
X224560Y308106D01*
X224627Y308043D01*
X224697Y307983D01*
X224769Y307925D01*
X224844Y307871D01*
X224921Y307820D01*
X225000Y307772D01*
X225081Y307728D01*
X225164Y307687D01*
X225248Y307649D01*
X225334Y307615D01*
X225421Y307585D01*
X226946Y310824D02*
X226887Y310883D01*
X226826Y310939D01*
X226763Y310992D01*
X226697Y311043D01*
X226629Y311090D01*
X226559Y311134D01*
X226487Y311175D01*
X226413Y311213D01*
X226338Y311247D01*
X226261Y311278D01*
X226183Y311305D01*
X226103Y311329D01*
X226023Y311350D01*
X225942Y311366D01*
X225860Y311379D01*
X225778Y311389D01*
X225695Y311394D01*
X225612Y311396D01*
X226945Y310824D02*
X230755Y307585D01*
X230755Y311395D01*
X228850Y314900D02*
X228765Y314902D01*
X228679Y314908D01*
X228594Y314917D01*
X228510Y314931D01*
X228426Y314948D01*
X228343Y314969D01*
X228261Y314993D01*
X228181Y315021D01*
X228101Y315053D01*
X228023Y315089D01*
X227947Y315127D01*
X227873Y315170D01*
X227801Y315215D01*
X227730Y315264D01*
X227662Y315316D01*
X227597Y315370D01*
X227534Y315428D01*
X227473Y315489D01*
X227415Y315552D01*
X227361Y315617D01*
X227309Y315685D01*
X227260Y315756D01*
X227215Y315828D01*
X227172Y315902D01*
X227134Y315978D01*
X227098Y316056D01*
X227066Y316136D01*
X227038Y316216D01*
X227014Y316298D01*
X226993Y316381D01*
X226976Y316465D01*
X226962Y316549D01*
X226953Y316634D01*
X226947Y316720D01*
X226945Y316805D01*
X226947Y316890D01*
X226953Y316976D01*
X226962Y317061D01*
X226976Y317145D01*
X226993Y317229D01*
X227014Y317312D01*
X227038Y317394D01*
X227066Y317474D01*
X227098Y317554D01*
X227134Y317632D01*
X227172Y317708D01*
X227215Y317782D01*
X227260Y317854D01*
X227309Y317925D01*
X227361Y317993D01*
X227415Y318058D01*
X227473Y318121D01*
X227534Y318182D01*
X227597Y318240D01*
X227662Y318294D01*
X227730Y318346D01*
X227801Y318395D01*
X227873Y318440D01*
X227947Y318483D01*
X228023Y318521D01*
X228101Y318557D01*
X228181Y318589D01*
X228261Y318617D01*
X228343Y318641D01*
X228426Y318662D01*
X228510Y318679D01*
X228594Y318693D01*
X228679Y318702D01*
X228765Y318708D01*
X228850Y318710D01*
X228935Y318708D01*
X229021Y318702D01*
X229106Y318693D01*
X229190Y318679D01*
X229274Y318662D01*
X229357Y318641D01*
X229439Y318617D01*
X229519Y318589D01*
X229599Y318557D01*
X229677Y318521D01*
X229753Y318483D01*
X229827Y318440D01*
X229899Y318395D01*
X229970Y318346D01*
X230038Y318294D01*
X230103Y318240D01*
X230166Y318182D01*
X230227Y318121D01*
X230285Y318058D01*
X230339Y317993D01*
X230391Y317925D01*
X230440Y317854D01*
X230485Y317782D01*
X230528Y317708D01*
X230566Y317632D01*
X230602Y317554D01*
X230634Y317474D01*
X230662Y317394D01*
X230686Y317312D01*
X230707Y317229D01*
X230724Y317145D01*
X230738Y317061D01*
X230747Y316976D01*
X230753Y316890D01*
X230755Y316805D01*
X230753Y316720D01*
X230747Y316634D01*
X230738Y316549D01*
X230724Y316465D01*
X230707Y316381D01*
X230686Y316298D01*
X230662Y316216D01*
X230634Y316136D01*
X230602Y316056D01*
X230566Y315978D01*
X230528Y315902D01*
X230485Y315828D01*
X230440Y315756D01*
X230391Y315685D01*
X230339Y315617D01*
X230285Y315552D01*
X230227Y315489D01*
X230166Y315428D01*
X230103Y315370D01*
X230038Y315316D01*
X229970Y315264D01*
X229899Y315215D01*
X229827Y315170D01*
X229753Y315127D01*
X229677Y315089D01*
X229599Y315053D01*
X229519Y315021D01*
X229439Y314993D01*
X229357Y314969D01*
X229274Y314948D01*
X229190Y314931D01*
X229106Y314917D01*
X229021Y314908D01*
X228935Y314902D01*
X228850Y314900D01*
X225421Y315281D02*
X225344Y315283D01*
X225267Y315289D01*
X225190Y315299D01*
X225114Y315312D01*
X225039Y315330D01*
X224965Y315351D01*
X224892Y315376D01*
X224820Y315405D01*
X224750Y315437D01*
X224681Y315472D01*
X224615Y315512D01*
X224550Y315554D01*
X224488Y315600D01*
X224428Y315649D01*
X224371Y315700D01*
X224316Y315755D01*
X224265Y315812D01*
X224216Y315872D01*
X224170Y315934D01*
X224128Y315999D01*
X224088Y316065D01*
X224053Y316134D01*
X224021Y316204D01*
X223992Y316276D01*
X223967Y316349D01*
X223946Y316423D01*
X223928Y316498D01*
X223915Y316574D01*
X223905Y316651D01*
X223899Y316728D01*
X223897Y316805D01*
X223899Y316882D01*
X223905Y316959D01*
X223915Y317036D01*
X223928Y317112D01*
X223946Y317187D01*
X223967Y317261D01*
X223992Y317334D01*
X224021Y317406D01*
X224053Y317476D01*
X224088Y317545D01*
X224128Y317611D01*
X224170Y317676D01*
X224216Y317738D01*
X224265Y317798D01*
X224316Y317855D01*
X224371Y317910D01*
X224428Y317961D01*
X224488Y318010D01*
X224550Y318056D01*
X224615Y318098D01*
X224681Y318138D01*
X224750Y318173D01*
X224820Y318205D01*
X224892Y318234D01*
X224965Y318259D01*
X225039Y318280D01*
X225114Y318298D01*
X225190Y318311D01*
X225267Y318321D01*
X225344Y318327D01*
X225421Y318329D01*
X225498Y318327D01*
X225575Y318321D01*
X225652Y318311D01*
X225728Y318298D01*
X225803Y318280D01*
X225877Y318259D01*
X225950Y318234D01*
X226022Y318205D01*
X226092Y318173D01*
X226161Y318138D01*
X226227Y318098D01*
X226292Y318056D01*
X226354Y318010D01*
X226414Y317961D01*
X226471Y317910D01*
X226526Y317855D01*
X226577Y317798D01*
X226626Y317738D01*
X226672Y317676D01*
X226714Y317611D01*
X226754Y317545D01*
X226789Y317476D01*
X226821Y317406D01*
X226850Y317334D01*
X226875Y317261D01*
X226896Y317187D01*
X226914Y317112D01*
X226927Y317036D01*
X226937Y316959D01*
X226943Y316882D01*
X226945Y316805D01*
X226943Y316728D01*
X226937Y316651D01*
X226927Y316574D01*
X226914Y316498D01*
X226896Y316423D01*
X226875Y316349D01*
X226850Y316276D01*
X226821Y316204D01*
X226789Y316134D01*
X226754Y316065D01*
X226714Y315999D01*
X226672Y315934D01*
X226626Y315872D01*
X226577Y315812D01*
X226526Y315755D01*
X226471Y315700D01*
X226414Y315649D01*
X226354Y315600D01*
X226292Y315554D01*
X226227Y315512D01*
X226161Y315472D01*
X226092Y315437D01*
X226022Y315405D01*
X225950Y315376D01*
X225877Y315351D01*
X225803Y315330D01*
X225728Y315312D01*
X225652Y315299D01*
X225575Y315289D01*
X225498Y315283D01*
X225421Y315281D01*
X225612Y286631D02*
X225530Y286629D01*
X225449Y286623D01*
X225368Y286614D01*
X225287Y286600D01*
X225208Y286583D01*
X225129Y286562D01*
X225051Y286537D01*
X224975Y286508D01*
X224900Y286476D01*
X224826Y286440D01*
X224755Y286401D01*
X224685Y286359D01*
X224617Y286313D01*
X224552Y286264D01*
X224489Y286212D01*
X224429Y286157D01*
X224371Y286099D01*
X224316Y286039D01*
X224264Y285976D01*
X224215Y285911D01*
X224169Y285843D01*
X224127Y285774D01*
X224088Y285702D01*
X224052Y285628D01*
X224020Y285553D01*
X223991Y285477D01*
X223966Y285399D01*
X223945Y285320D01*
X223928Y285241D01*
X223914Y285160D01*
X223905Y285079D01*
X223899Y284998D01*
X223897Y284916D01*
X223899Y284824D01*
X223905Y284732D01*
X223914Y284640D01*
X223928Y284548D01*
X223945Y284458D01*
X223966Y284368D01*
X223991Y284279D01*
X224020Y284191D01*
X224052Y284104D01*
X224088Y284019D01*
X224127Y283936D01*
X224170Y283854D01*
X224216Y283774D01*
X224266Y283696D01*
X224318Y283620D01*
X224374Y283547D01*
X224433Y283476D01*
X224495Y283407D01*
X224560Y283341D01*
X224627Y283278D01*
X224697Y283218D01*
X224769Y283160D01*
X224844Y283106D01*
X224921Y283055D01*
X225000Y283007D01*
X225081Y282963D01*
X225164Y282922D01*
X225248Y282884D01*
X225334Y282850D01*
X225421Y282820D01*
X226946Y286059D02*
X226887Y286118D01*
X226826Y286174D01*
X226763Y286227D01*
X226697Y286278D01*
X226629Y286325D01*
X226559Y286369D01*
X226487Y286410D01*
X226413Y286448D01*
X226338Y286482D01*
X226261Y286513D01*
X226183Y286540D01*
X226103Y286564D01*
X226023Y286585D01*
X225942Y286601D01*
X225860Y286614D01*
X225778Y286624D01*
X225695Y286629D01*
X225612Y286631D01*
X226945Y286059D02*
X230755Y282820D01*
X230755Y286630D01*
X224659Y290135D02*
X223897Y290135D01*
X223897Y293945D01*
X230755Y292040D01*
X225612Y260596D02*
X225530Y260594D01*
X225449Y260588D01*
X225368Y260579D01*
X225287Y260565D01*
X225208Y260548D01*
X225129Y260527D01*
X225051Y260502D01*
X224975Y260473D01*
X224900Y260441D01*
X224826Y260405D01*
X224755Y260366D01*
X224685Y260324D01*
X224617Y260278D01*
X224552Y260229D01*
X224489Y260177D01*
X224429Y260122D01*
X224371Y260064D01*
X224316Y260004D01*
X224264Y259941D01*
X224215Y259876D01*
X224169Y259808D01*
X224127Y259739D01*
X224088Y259667D01*
X224052Y259593D01*
X224020Y259518D01*
X223991Y259442D01*
X223966Y259364D01*
X223945Y259285D01*
X223928Y259206D01*
X223914Y259125D01*
X223905Y259044D01*
X223899Y258963D01*
X223897Y258881D01*
X223899Y258789D01*
X223905Y258697D01*
X223914Y258605D01*
X223928Y258513D01*
X223945Y258423D01*
X223966Y258333D01*
X223991Y258244D01*
X224020Y258156D01*
X224052Y258069D01*
X224088Y257984D01*
X224127Y257901D01*
X224170Y257819D01*
X224216Y257739D01*
X224266Y257661D01*
X224318Y257585D01*
X224374Y257512D01*
X224433Y257441D01*
X224495Y257372D01*
X224560Y257306D01*
X224627Y257243D01*
X224697Y257183D01*
X224769Y257125D01*
X224844Y257071D01*
X224921Y257020D01*
X225000Y256972D01*
X225081Y256928D01*
X225164Y256887D01*
X225248Y256849D01*
X225334Y256815D01*
X225421Y256785D01*
X226946Y260024D02*
X226887Y260083D01*
X226826Y260139D01*
X226763Y260192D01*
X226697Y260243D01*
X226629Y260290D01*
X226559Y260334D01*
X226487Y260375D01*
X226413Y260413D01*
X226338Y260447D01*
X226261Y260478D01*
X226183Y260505D01*
X226103Y260529D01*
X226023Y260550D01*
X225942Y260566D01*
X225860Y260579D01*
X225778Y260589D01*
X225695Y260594D01*
X225612Y260596D01*
X226945Y260024D02*
X230755Y256785D01*
X230755Y260595D01*
X226945Y264100D02*
X226945Y266386D01*
X226947Y266463D01*
X226953Y266540D01*
X226963Y266617D01*
X226976Y266693D01*
X226994Y266768D01*
X227015Y266842D01*
X227040Y266915D01*
X227069Y266987D01*
X227101Y267057D01*
X227136Y267126D01*
X227176Y267192D01*
X227218Y267257D01*
X227264Y267319D01*
X227313Y267379D01*
X227364Y267436D01*
X227419Y267491D01*
X227476Y267542D01*
X227536Y267591D01*
X227598Y267637D01*
X227663Y267679D01*
X227729Y267719D01*
X227798Y267754D01*
X227868Y267786D01*
X227940Y267815D01*
X228013Y267840D01*
X228087Y267861D01*
X228162Y267879D01*
X228238Y267892D01*
X228315Y267902D01*
X228392Y267908D01*
X228469Y267910D01*
X228850Y267910D01*
X228935Y267908D01*
X229021Y267902D01*
X229106Y267893D01*
X229190Y267879D01*
X229274Y267862D01*
X229357Y267841D01*
X229439Y267817D01*
X229519Y267789D01*
X229599Y267757D01*
X229677Y267721D01*
X229753Y267683D01*
X229827Y267640D01*
X229899Y267595D01*
X229970Y267546D01*
X230038Y267494D01*
X230103Y267440D01*
X230166Y267382D01*
X230227Y267321D01*
X230285Y267258D01*
X230339Y267193D01*
X230391Y267125D01*
X230440Y267054D01*
X230485Y266982D01*
X230528Y266908D01*
X230566Y266832D01*
X230602Y266754D01*
X230634Y266674D01*
X230662Y266594D01*
X230686Y266512D01*
X230707Y266429D01*
X230724Y266345D01*
X230738Y266261D01*
X230747Y266176D01*
X230753Y266090D01*
X230755Y266005D01*
X230753Y265920D01*
X230747Y265834D01*
X230738Y265749D01*
X230724Y265665D01*
X230707Y265581D01*
X230686Y265498D01*
X230662Y265416D01*
X230634Y265336D01*
X230602Y265256D01*
X230566Y265178D01*
X230528Y265102D01*
X230485Y265028D01*
X230440Y264956D01*
X230391Y264885D01*
X230339Y264817D01*
X230285Y264752D01*
X230227Y264689D01*
X230166Y264628D01*
X230103Y264570D01*
X230038Y264516D01*
X229970Y264464D01*
X229899Y264415D01*
X229827Y264370D01*
X229753Y264327D01*
X229677Y264289D01*
X229599Y264253D01*
X229519Y264221D01*
X229439Y264193D01*
X229357Y264169D01*
X229274Y264148D01*
X229190Y264131D01*
X229106Y264117D01*
X229021Y264108D01*
X228935Y264102D01*
X228850Y264100D01*
X226945Y264100D01*
X226836Y264102D01*
X226728Y264108D01*
X226619Y264117D01*
X226511Y264131D01*
X226404Y264148D01*
X226297Y264170D01*
X226191Y264195D01*
X226086Y264223D01*
X225982Y264256D01*
X225880Y264292D01*
X225779Y264332D01*
X225679Y264375D01*
X225581Y264422D01*
X225484Y264473D01*
X225390Y264527D01*
X225297Y264584D01*
X225207Y264644D01*
X225118Y264708D01*
X225032Y264775D01*
X224949Y264844D01*
X224868Y264917D01*
X224790Y264993D01*
X224714Y265071D01*
X224641Y265152D01*
X224572Y265235D01*
X224505Y265321D01*
X224441Y265410D01*
X224381Y265500D01*
X224324Y265593D01*
X224270Y265687D01*
X224219Y265784D01*
X224172Y265882D01*
X224129Y265982D01*
X224089Y266083D01*
X224053Y266185D01*
X224020Y266289D01*
X223992Y266394D01*
X223967Y266500D01*
X223945Y266607D01*
X223928Y266714D01*
X223914Y266822D01*
X223905Y266931D01*
X223899Y267039D01*
X223897Y267148D01*
X225612Y235196D02*
X225530Y235194D01*
X225449Y235188D01*
X225368Y235179D01*
X225287Y235165D01*
X225208Y235148D01*
X225129Y235127D01*
X225051Y235102D01*
X224975Y235073D01*
X224900Y235041D01*
X224826Y235005D01*
X224755Y234966D01*
X224685Y234924D01*
X224617Y234878D01*
X224552Y234829D01*
X224489Y234777D01*
X224429Y234722D01*
X224371Y234664D01*
X224316Y234604D01*
X224264Y234541D01*
X224215Y234476D01*
X224169Y234408D01*
X224127Y234339D01*
X224088Y234267D01*
X224052Y234193D01*
X224020Y234118D01*
X223991Y234042D01*
X223966Y233964D01*
X223945Y233885D01*
X223928Y233806D01*
X223914Y233725D01*
X223905Y233644D01*
X223899Y233563D01*
X223897Y233481D01*
X223899Y233389D01*
X223905Y233297D01*
X223914Y233205D01*
X223928Y233113D01*
X223945Y233023D01*
X223966Y232933D01*
X223991Y232844D01*
X224020Y232756D01*
X224052Y232669D01*
X224088Y232584D01*
X224127Y232501D01*
X224170Y232419D01*
X224216Y232339D01*
X224266Y232261D01*
X224318Y232185D01*
X224374Y232112D01*
X224433Y232041D01*
X224495Y231972D01*
X224560Y231906D01*
X224627Y231843D01*
X224697Y231783D01*
X224769Y231725D01*
X224844Y231671D01*
X224921Y231620D01*
X225000Y231572D01*
X225081Y231528D01*
X225164Y231487D01*
X225248Y231449D01*
X225334Y231415D01*
X225421Y231385D01*
X226946Y234624D02*
X226887Y234683D01*
X226826Y234739D01*
X226763Y234792D01*
X226697Y234843D01*
X226629Y234890D01*
X226559Y234934D01*
X226487Y234975D01*
X226413Y235013D01*
X226338Y235047D01*
X226261Y235078D01*
X226183Y235105D01*
X226103Y235129D01*
X226023Y235150D01*
X225942Y235166D01*
X225860Y235179D01*
X225778Y235189D01*
X225695Y235194D01*
X225612Y235196D01*
X226945Y234624D02*
X230755Y231385D01*
X230755Y235195D01*
X230755Y238700D02*
X230755Y240986D01*
X230753Y241063D01*
X230747Y241140D01*
X230737Y241217D01*
X230724Y241293D01*
X230706Y241368D01*
X230685Y241442D01*
X230660Y241515D01*
X230631Y241587D01*
X230599Y241657D01*
X230564Y241726D01*
X230524Y241792D01*
X230482Y241857D01*
X230436Y241919D01*
X230387Y241979D01*
X230336Y242036D01*
X230281Y242091D01*
X230224Y242142D01*
X230164Y242191D01*
X230102Y242237D01*
X230037Y242279D01*
X229971Y242319D01*
X229902Y242354D01*
X229832Y242386D01*
X229760Y242415D01*
X229687Y242440D01*
X229613Y242461D01*
X229538Y242479D01*
X229462Y242492D01*
X229385Y242502D01*
X229308Y242508D01*
X229231Y242510D01*
X228469Y242510D01*
X228392Y242508D01*
X228315Y242502D01*
X228238Y242492D01*
X228162Y242479D01*
X228087Y242461D01*
X228013Y242440D01*
X227940Y242415D01*
X227868Y242386D01*
X227798Y242354D01*
X227729Y242319D01*
X227663Y242279D01*
X227598Y242237D01*
X227536Y242191D01*
X227476Y242142D01*
X227419Y242091D01*
X227364Y242036D01*
X227313Y241979D01*
X227264Y241919D01*
X227218Y241857D01*
X227176Y241792D01*
X227136Y241726D01*
X227101Y241657D01*
X227069Y241587D01*
X227040Y241515D01*
X227015Y241442D01*
X226994Y241368D01*
X226976Y241293D01*
X226963Y241217D01*
X226953Y241140D01*
X226947Y241063D01*
X226945Y240986D01*
X226945Y238700D01*
X223897Y238700D01*
X223897Y242510D01*
X225612Y209796D02*
X225530Y209794D01*
X225449Y209788D01*
X225368Y209779D01*
X225287Y209765D01*
X225208Y209748D01*
X225129Y209727D01*
X225051Y209702D01*
X224975Y209673D01*
X224900Y209641D01*
X224826Y209605D01*
X224755Y209566D01*
X224685Y209524D01*
X224617Y209478D01*
X224552Y209429D01*
X224489Y209377D01*
X224429Y209322D01*
X224371Y209264D01*
X224316Y209204D01*
X224264Y209141D01*
X224215Y209076D01*
X224169Y209008D01*
X224127Y208939D01*
X224088Y208867D01*
X224052Y208793D01*
X224020Y208718D01*
X223991Y208642D01*
X223966Y208564D01*
X223945Y208485D01*
X223928Y208406D01*
X223914Y208325D01*
X223905Y208244D01*
X223899Y208163D01*
X223897Y208081D01*
X223899Y207989D01*
X223905Y207897D01*
X223914Y207805D01*
X223928Y207713D01*
X223945Y207623D01*
X223966Y207533D01*
X223991Y207444D01*
X224020Y207356D01*
X224052Y207269D01*
X224088Y207184D01*
X224127Y207101D01*
X224170Y207019D01*
X224216Y206939D01*
X224266Y206861D01*
X224318Y206785D01*
X224374Y206712D01*
X224433Y206641D01*
X224495Y206572D01*
X224560Y206506D01*
X224627Y206443D01*
X224697Y206383D01*
X224769Y206325D01*
X224844Y206271D01*
X224921Y206220D01*
X225000Y206172D01*
X225081Y206128D01*
X225164Y206087D01*
X225248Y206049D01*
X225334Y206015D01*
X225421Y205985D01*
X226946Y209224D02*
X226887Y209283D01*
X226826Y209339D01*
X226763Y209392D01*
X226697Y209443D01*
X226629Y209490D01*
X226559Y209534D01*
X226487Y209575D01*
X226413Y209613D01*
X226338Y209647D01*
X226261Y209678D01*
X226183Y209705D01*
X226103Y209729D01*
X226023Y209750D01*
X225942Y209766D01*
X225860Y209779D01*
X225778Y209789D01*
X225695Y209794D01*
X225612Y209796D01*
X226945Y209224D02*
X230755Y205985D01*
X230755Y209795D01*
X229231Y213300D02*
X223897Y214824D01*
X229231Y213300D02*
X229231Y217110D01*
X227707Y215967D02*
X230755Y215967D01*
X225612Y184396D02*
X225530Y184394D01*
X225449Y184388D01*
X225368Y184379D01*
X225287Y184365D01*
X225208Y184348D01*
X225129Y184327D01*
X225051Y184302D01*
X224975Y184273D01*
X224900Y184241D01*
X224826Y184205D01*
X224755Y184166D01*
X224685Y184124D01*
X224617Y184078D01*
X224552Y184029D01*
X224489Y183977D01*
X224429Y183922D01*
X224371Y183864D01*
X224316Y183804D01*
X224264Y183741D01*
X224215Y183676D01*
X224169Y183608D01*
X224127Y183539D01*
X224088Y183467D01*
X224052Y183393D01*
X224020Y183318D01*
X223991Y183242D01*
X223966Y183164D01*
X223945Y183085D01*
X223928Y183006D01*
X223914Y182925D01*
X223905Y182844D01*
X223899Y182763D01*
X223897Y182681D01*
X223899Y182589D01*
X223905Y182497D01*
X223914Y182405D01*
X223928Y182313D01*
X223945Y182223D01*
X223966Y182133D01*
X223991Y182044D01*
X224020Y181956D01*
X224052Y181869D01*
X224088Y181784D01*
X224127Y181701D01*
X224170Y181619D01*
X224216Y181539D01*
X224266Y181461D01*
X224318Y181385D01*
X224374Y181312D01*
X224433Y181241D01*
X224495Y181172D01*
X224560Y181106D01*
X224627Y181043D01*
X224697Y180983D01*
X224769Y180925D01*
X224844Y180871D01*
X224921Y180820D01*
X225000Y180772D01*
X225081Y180728D01*
X225164Y180687D01*
X225248Y180649D01*
X225334Y180615D01*
X225421Y180585D01*
X226946Y183824D02*
X226887Y183883D01*
X226826Y183939D01*
X226763Y183992D01*
X226697Y184043D01*
X226629Y184090D01*
X226559Y184134D01*
X226487Y184175D01*
X226413Y184213D01*
X226338Y184247D01*
X226261Y184278D01*
X226183Y184305D01*
X226103Y184329D01*
X226023Y184350D01*
X225942Y184366D01*
X225860Y184379D01*
X225778Y184389D01*
X225695Y184394D01*
X225612Y184396D01*
X226945Y183824D02*
X230755Y180585D01*
X230755Y184395D01*
X230755Y187900D02*
X230755Y189805D01*
X230753Y189890D01*
X230747Y189976D01*
X230738Y190061D01*
X230724Y190145D01*
X230707Y190229D01*
X230686Y190312D01*
X230662Y190394D01*
X230634Y190474D01*
X230602Y190554D01*
X230566Y190632D01*
X230528Y190708D01*
X230485Y190782D01*
X230440Y190854D01*
X230391Y190925D01*
X230339Y190993D01*
X230285Y191058D01*
X230227Y191121D01*
X230166Y191182D01*
X230103Y191240D01*
X230038Y191294D01*
X229970Y191346D01*
X229899Y191395D01*
X229827Y191440D01*
X229753Y191483D01*
X229677Y191521D01*
X229599Y191557D01*
X229519Y191589D01*
X229439Y191617D01*
X229357Y191641D01*
X229274Y191662D01*
X229190Y191679D01*
X229106Y191693D01*
X229021Y191702D01*
X228935Y191708D01*
X228850Y191710D01*
X228765Y191708D01*
X228679Y191702D01*
X228594Y191693D01*
X228510Y191679D01*
X228426Y191662D01*
X228343Y191641D01*
X228261Y191617D01*
X228181Y191589D01*
X228101Y191557D01*
X228023Y191521D01*
X227947Y191483D01*
X227873Y191440D01*
X227801Y191395D01*
X227730Y191346D01*
X227662Y191294D01*
X227597Y191240D01*
X227534Y191182D01*
X227473Y191121D01*
X227415Y191058D01*
X227361Y190993D01*
X227309Y190925D01*
X227260Y190854D01*
X227215Y190782D01*
X227172Y190708D01*
X227134Y190632D01*
X227098Y190554D01*
X227066Y190474D01*
X227038Y190394D01*
X227014Y190312D01*
X226993Y190229D01*
X226976Y190145D01*
X226962Y190061D01*
X226953Y189976D01*
X226947Y189890D01*
X226945Y189805D01*
X223897Y190186D02*
X223897Y187900D01*
X223897Y190186D02*
X223899Y190263D01*
X223905Y190340D01*
X223915Y190417D01*
X223928Y190493D01*
X223946Y190568D01*
X223967Y190642D01*
X223992Y190715D01*
X224021Y190787D01*
X224053Y190857D01*
X224088Y190926D01*
X224128Y190992D01*
X224170Y191057D01*
X224216Y191119D01*
X224265Y191179D01*
X224316Y191236D01*
X224371Y191291D01*
X224428Y191342D01*
X224488Y191391D01*
X224550Y191437D01*
X224615Y191479D01*
X224681Y191519D01*
X224750Y191554D01*
X224820Y191586D01*
X224892Y191615D01*
X224965Y191640D01*
X225039Y191661D01*
X225114Y191679D01*
X225190Y191692D01*
X225267Y191702D01*
X225344Y191708D01*
X225421Y191710D01*
X225498Y191708D01*
X225575Y191702D01*
X225652Y191692D01*
X225728Y191679D01*
X225803Y191661D01*
X225877Y191640D01*
X225950Y191615D01*
X226022Y191586D01*
X226092Y191554D01*
X226161Y191519D01*
X226227Y191479D01*
X226292Y191437D01*
X226354Y191391D01*
X226414Y191342D01*
X226471Y191291D01*
X226526Y191236D01*
X226577Y191179D01*
X226626Y191119D01*
X226672Y191057D01*
X226714Y190992D01*
X226754Y190926D01*
X226789Y190857D01*
X226821Y190787D01*
X226850Y190715D01*
X226875Y190642D01*
X226896Y190568D01*
X226914Y190493D01*
X226927Y190417D01*
X226937Y190340D01*
X226943Y190263D01*
X226945Y190186D01*
X226945Y188662D01*
X225612Y158996D02*
X225530Y158994D01*
X225449Y158988D01*
X225368Y158979D01*
X225287Y158965D01*
X225208Y158948D01*
X225129Y158927D01*
X225051Y158902D01*
X224975Y158873D01*
X224900Y158841D01*
X224826Y158805D01*
X224755Y158766D01*
X224685Y158724D01*
X224617Y158678D01*
X224552Y158629D01*
X224489Y158577D01*
X224429Y158522D01*
X224371Y158464D01*
X224316Y158404D01*
X224264Y158341D01*
X224215Y158276D01*
X224169Y158208D01*
X224127Y158139D01*
X224088Y158067D01*
X224052Y157993D01*
X224020Y157918D01*
X223991Y157842D01*
X223966Y157764D01*
X223945Y157685D01*
X223928Y157606D01*
X223914Y157525D01*
X223905Y157444D01*
X223899Y157363D01*
X223897Y157281D01*
X223899Y157189D01*
X223905Y157097D01*
X223914Y157005D01*
X223928Y156913D01*
X223945Y156823D01*
X223966Y156733D01*
X223991Y156644D01*
X224020Y156556D01*
X224052Y156469D01*
X224088Y156384D01*
X224127Y156301D01*
X224170Y156219D01*
X224216Y156139D01*
X224266Y156061D01*
X224318Y155985D01*
X224374Y155912D01*
X224433Y155841D01*
X224495Y155772D01*
X224560Y155706D01*
X224627Y155643D01*
X224697Y155583D01*
X224769Y155525D01*
X224844Y155471D01*
X224921Y155420D01*
X225000Y155372D01*
X225081Y155328D01*
X225164Y155287D01*
X225248Y155249D01*
X225334Y155215D01*
X225421Y155185D01*
X226946Y158424D02*
X226887Y158483D01*
X226826Y158539D01*
X226763Y158592D01*
X226697Y158643D01*
X226629Y158690D01*
X226559Y158734D01*
X226487Y158775D01*
X226413Y158813D01*
X226338Y158847D01*
X226261Y158878D01*
X226183Y158905D01*
X226103Y158929D01*
X226023Y158950D01*
X225942Y158966D01*
X225860Y158979D01*
X225778Y158989D01*
X225695Y158994D01*
X225612Y158996D01*
X226945Y158424D02*
X230755Y155185D01*
X230755Y158995D01*
X223897Y164596D02*
X223899Y164678D01*
X223905Y164759D01*
X223914Y164840D01*
X223928Y164921D01*
X223945Y165000D01*
X223966Y165079D01*
X223991Y165157D01*
X224020Y165233D01*
X224052Y165308D01*
X224088Y165382D01*
X224127Y165454D01*
X224169Y165523D01*
X224215Y165591D01*
X224264Y165656D01*
X224316Y165719D01*
X224371Y165779D01*
X224429Y165837D01*
X224489Y165892D01*
X224552Y165944D01*
X224617Y165993D01*
X224685Y166039D01*
X224755Y166081D01*
X224826Y166120D01*
X224900Y166156D01*
X224975Y166188D01*
X225051Y166217D01*
X225129Y166242D01*
X225208Y166263D01*
X225287Y166280D01*
X225368Y166294D01*
X225449Y166303D01*
X225530Y166309D01*
X225612Y166311D01*
X223897Y164596D02*
X223899Y164504D01*
X223905Y164412D01*
X223914Y164320D01*
X223928Y164228D01*
X223945Y164138D01*
X223966Y164048D01*
X223991Y163959D01*
X224020Y163871D01*
X224052Y163784D01*
X224088Y163699D01*
X224127Y163616D01*
X224170Y163534D01*
X224216Y163454D01*
X224266Y163376D01*
X224318Y163300D01*
X224374Y163227D01*
X224433Y163156D01*
X224495Y163087D01*
X224560Y163021D01*
X224627Y162958D01*
X224697Y162898D01*
X224769Y162840D01*
X224844Y162786D01*
X224921Y162735D01*
X225000Y162687D01*
X225081Y162643D01*
X225164Y162602D01*
X225248Y162564D01*
X225334Y162530D01*
X225421Y162500D01*
X226946Y165739D02*
X226887Y165798D01*
X226826Y165854D01*
X226763Y165907D01*
X226697Y165958D01*
X226629Y166005D01*
X226559Y166049D01*
X226487Y166090D01*
X226413Y166128D01*
X226338Y166162D01*
X226261Y166193D01*
X226183Y166220D01*
X226103Y166244D01*
X226023Y166265D01*
X225942Y166281D01*
X225860Y166294D01*
X225778Y166304D01*
X225695Y166309D01*
X225612Y166311D01*
X226945Y165739D02*
X230755Y162500D01*
X230755Y166310D01*
X225612Y133596D02*
X225530Y133594D01*
X225449Y133588D01*
X225368Y133579D01*
X225287Y133565D01*
X225208Y133548D01*
X225129Y133527D01*
X225051Y133502D01*
X224975Y133473D01*
X224900Y133441D01*
X224826Y133405D01*
X224755Y133366D01*
X224685Y133324D01*
X224617Y133278D01*
X224552Y133229D01*
X224489Y133177D01*
X224429Y133122D01*
X224371Y133064D01*
X224316Y133004D01*
X224264Y132941D01*
X224215Y132876D01*
X224169Y132808D01*
X224127Y132739D01*
X224088Y132667D01*
X224052Y132593D01*
X224020Y132518D01*
X223991Y132442D01*
X223966Y132364D01*
X223945Y132285D01*
X223928Y132206D01*
X223914Y132125D01*
X223905Y132044D01*
X223899Y131963D01*
X223897Y131881D01*
X223899Y131789D01*
X223905Y131697D01*
X223914Y131605D01*
X223928Y131513D01*
X223945Y131423D01*
X223966Y131333D01*
X223991Y131244D01*
X224020Y131156D01*
X224052Y131069D01*
X224088Y130984D01*
X224127Y130901D01*
X224170Y130819D01*
X224216Y130739D01*
X224266Y130661D01*
X224318Y130585D01*
X224374Y130512D01*
X224433Y130441D01*
X224495Y130372D01*
X224560Y130306D01*
X224627Y130243D01*
X224697Y130183D01*
X224769Y130125D01*
X224844Y130071D01*
X224921Y130020D01*
X225000Y129972D01*
X225081Y129928D01*
X225164Y129887D01*
X225248Y129849D01*
X225334Y129815D01*
X225421Y129785D01*
X226946Y133024D02*
X226887Y133083D01*
X226826Y133139D01*
X226763Y133192D01*
X226697Y133243D01*
X226629Y133290D01*
X226559Y133334D01*
X226487Y133375D01*
X226413Y133413D01*
X226338Y133447D01*
X226261Y133478D01*
X226183Y133505D01*
X226103Y133529D01*
X226023Y133550D01*
X225942Y133566D01*
X225860Y133579D01*
X225778Y133589D01*
X225695Y133594D01*
X225612Y133596D01*
X226945Y133024D02*
X230755Y129785D01*
X230755Y133595D01*
X225421Y137100D02*
X223897Y139005D01*
X230755Y139005D01*
X230755Y137100D02*
X230755Y140910D01*
X225612Y108831D02*
X225530Y108829D01*
X225449Y108823D01*
X225368Y108814D01*
X225287Y108800D01*
X225208Y108783D01*
X225129Y108762D01*
X225051Y108737D01*
X224975Y108708D01*
X224900Y108676D01*
X224826Y108640D01*
X224755Y108601D01*
X224685Y108559D01*
X224617Y108513D01*
X224552Y108464D01*
X224489Y108412D01*
X224429Y108357D01*
X224371Y108299D01*
X224316Y108239D01*
X224264Y108176D01*
X224215Y108111D01*
X224169Y108043D01*
X224127Y107974D01*
X224088Y107902D01*
X224052Y107828D01*
X224020Y107753D01*
X223991Y107677D01*
X223966Y107599D01*
X223945Y107520D01*
X223928Y107441D01*
X223914Y107360D01*
X223905Y107279D01*
X223899Y107198D01*
X223897Y107116D01*
X223899Y107024D01*
X223905Y106932D01*
X223914Y106840D01*
X223928Y106748D01*
X223945Y106658D01*
X223966Y106568D01*
X223991Y106479D01*
X224020Y106391D01*
X224052Y106304D01*
X224088Y106219D01*
X224127Y106136D01*
X224170Y106054D01*
X224216Y105974D01*
X224266Y105896D01*
X224318Y105820D01*
X224374Y105747D01*
X224433Y105676D01*
X224495Y105607D01*
X224560Y105541D01*
X224627Y105478D01*
X224697Y105418D01*
X224769Y105360D01*
X224844Y105306D01*
X224921Y105255D01*
X225000Y105207D01*
X225081Y105163D01*
X225164Y105122D01*
X225248Y105084D01*
X225334Y105050D01*
X225421Y105020D01*
X226946Y108259D02*
X226887Y108318D01*
X226826Y108374D01*
X226763Y108427D01*
X226697Y108478D01*
X226629Y108525D01*
X226559Y108569D01*
X226487Y108610D01*
X226413Y108648D01*
X226338Y108682D01*
X226261Y108713D01*
X226183Y108740D01*
X226103Y108764D01*
X226023Y108785D01*
X225942Y108801D01*
X225860Y108814D01*
X225778Y108824D01*
X225695Y108829D01*
X225612Y108831D01*
X226945Y108259D02*
X230755Y105020D01*
X230755Y108830D01*
X227326Y112335D02*
X227184Y112337D01*
X227041Y112342D01*
X226899Y112351D01*
X226757Y112364D01*
X226616Y112380D01*
X226475Y112399D01*
X226334Y112423D01*
X226194Y112449D01*
X226055Y112480D01*
X225917Y112514D01*
X225779Y112551D01*
X225643Y112591D01*
X225507Y112636D01*
X225373Y112683D01*
X225240Y112734D01*
X225108Y112788D01*
X224978Y112846D01*
X224849Y112907D01*
X224850Y112906D02*
X224781Y112932D01*
X224715Y112961D01*
X224649Y112993D01*
X224586Y113028D01*
X224524Y113067D01*
X224464Y113109D01*
X224407Y113154D01*
X224352Y113202D01*
X224300Y113253D01*
X224250Y113306D01*
X224204Y113362D01*
X224160Y113420D01*
X224119Y113481D01*
X224081Y113543D01*
X224047Y113607D01*
X224016Y113673D01*
X223988Y113741D01*
X223964Y113810D01*
X223944Y113880D01*
X223927Y113951D01*
X223914Y114022D01*
X223905Y114094D01*
X223899Y114167D01*
X223897Y114240D01*
X223899Y114313D01*
X223905Y114386D01*
X223914Y114458D01*
X223927Y114529D01*
X223944Y114600D01*
X223964Y114670D01*
X223988Y114739D01*
X224016Y114807D01*
X224047Y114873D01*
X224081Y114937D01*
X224119Y114999D01*
X224160Y115060D01*
X224204Y115118D01*
X224250Y115174D01*
X224300Y115227D01*
X224352Y115278D01*
X224407Y115326D01*
X224464Y115371D01*
X224524Y115413D01*
X224586Y115452D01*
X224649Y115487D01*
X224715Y115519D01*
X224781Y115548D01*
X224850Y115574D01*
X224849Y115574D02*
X224978Y115635D01*
X225108Y115693D01*
X225240Y115747D01*
X225373Y115798D01*
X225507Y115845D01*
X225643Y115890D01*
X225779Y115930D01*
X225917Y115967D01*
X226055Y116001D01*
X226194Y116032D01*
X226334Y116058D01*
X226475Y116082D01*
X226616Y116101D01*
X226757Y116117D01*
X226899Y116130D01*
X227041Y116139D01*
X227184Y116144D01*
X227326Y116146D01*
X227326Y112335D02*
X227468Y112337D01*
X227611Y112342D01*
X227753Y112351D01*
X227895Y112364D01*
X228036Y112380D01*
X228177Y112399D01*
X228318Y112423D01*
X228458Y112449D01*
X228597Y112480D01*
X228735Y112514D01*
X228873Y112551D01*
X229009Y112591D01*
X229145Y112636D01*
X229279Y112683D01*
X229412Y112734D01*
X229544Y112788D01*
X229674Y112846D01*
X229803Y112907D01*
X229802Y112906D02*
X229871Y112932D01*
X229937Y112961D01*
X230003Y112993D01*
X230066Y113028D01*
X230128Y113067D01*
X230188Y113109D01*
X230245Y113154D01*
X230300Y113202D01*
X230352Y113253D01*
X230402Y113306D01*
X230448Y113362D01*
X230492Y113420D01*
X230533Y113481D01*
X230571Y113543D01*
X230605Y113607D01*
X230636Y113673D01*
X230664Y113741D01*
X230688Y113810D01*
X230708Y113880D01*
X230725Y113951D01*
X230738Y114022D01*
X230747Y114094D01*
X230753Y114167D01*
X230755Y114240D01*
X229803Y115574D02*
X229674Y115635D01*
X229544Y115693D01*
X229412Y115747D01*
X229279Y115798D01*
X229145Y115845D01*
X229009Y115890D01*
X228873Y115930D01*
X228735Y115967D01*
X228597Y116001D01*
X228458Y116032D01*
X228318Y116058D01*
X228177Y116082D01*
X228036Y116101D01*
X227895Y116117D01*
X227753Y116130D01*
X227611Y116139D01*
X227468Y116144D01*
X227326Y116146D01*
X229802Y115574D02*
X229871Y115548D01*
X229937Y115519D01*
X230003Y115487D01*
X230066Y115452D01*
X230128Y115413D01*
X230188Y115371D01*
X230245Y115326D01*
X230300Y115278D01*
X230352Y115227D01*
X230402Y115174D01*
X230448Y115118D01*
X230492Y115060D01*
X230533Y114999D01*
X230571Y114937D01*
X230605Y114873D01*
X230636Y114807D01*
X230664Y114739D01*
X230688Y114670D01*
X230708Y114600D01*
X230725Y114529D01*
X230738Y114458D01*
X230747Y114386D01*
X230753Y114313D01*
X230755Y114240D01*
X229231Y112716D02*
X225421Y115764D01*
X223897Y81525D02*
X225421Y79620D01*
X223897Y81525D02*
X230755Y81525D01*
X230755Y79620D02*
X230755Y83430D01*
X227707Y88459D02*
X227707Y90745D01*
X227707Y88459D02*
X227705Y88382D01*
X227699Y88305D01*
X227689Y88228D01*
X227676Y88152D01*
X227658Y88077D01*
X227637Y88003D01*
X227612Y87930D01*
X227583Y87858D01*
X227551Y87788D01*
X227516Y87719D01*
X227476Y87653D01*
X227434Y87588D01*
X227388Y87526D01*
X227339Y87466D01*
X227288Y87409D01*
X227233Y87354D01*
X227176Y87303D01*
X227116Y87254D01*
X227054Y87208D01*
X226989Y87166D01*
X226923Y87126D01*
X226854Y87091D01*
X226784Y87059D01*
X226712Y87030D01*
X226639Y87005D01*
X226565Y86984D01*
X226490Y86966D01*
X226414Y86953D01*
X226337Y86943D01*
X226260Y86937D01*
X226183Y86935D01*
X225802Y86935D01*
X225717Y86937D01*
X225631Y86943D01*
X225546Y86952D01*
X225462Y86966D01*
X225378Y86983D01*
X225295Y87004D01*
X225213Y87028D01*
X225133Y87056D01*
X225053Y87088D01*
X224975Y87124D01*
X224899Y87162D01*
X224825Y87205D01*
X224753Y87250D01*
X224682Y87299D01*
X224614Y87351D01*
X224549Y87405D01*
X224486Y87463D01*
X224425Y87524D01*
X224367Y87587D01*
X224313Y87652D01*
X224261Y87720D01*
X224212Y87791D01*
X224167Y87863D01*
X224124Y87937D01*
X224086Y88013D01*
X224050Y88091D01*
X224018Y88171D01*
X223990Y88251D01*
X223966Y88333D01*
X223945Y88416D01*
X223928Y88500D01*
X223914Y88584D01*
X223905Y88669D01*
X223899Y88755D01*
X223897Y88840D01*
X223899Y88925D01*
X223905Y89011D01*
X223914Y89096D01*
X223928Y89180D01*
X223945Y89264D01*
X223966Y89347D01*
X223990Y89429D01*
X224018Y89509D01*
X224050Y89589D01*
X224086Y89667D01*
X224124Y89743D01*
X224167Y89817D01*
X224212Y89889D01*
X224261Y89960D01*
X224313Y90028D01*
X224367Y90093D01*
X224425Y90156D01*
X224486Y90217D01*
X224549Y90275D01*
X224614Y90329D01*
X224682Y90381D01*
X224753Y90430D01*
X224825Y90475D01*
X224899Y90518D01*
X224975Y90556D01*
X225053Y90592D01*
X225133Y90624D01*
X225213Y90652D01*
X225295Y90676D01*
X225378Y90697D01*
X225462Y90714D01*
X225546Y90728D01*
X225631Y90737D01*
X225717Y90743D01*
X225802Y90745D01*
X227707Y90745D01*
X227816Y90743D01*
X227924Y90737D01*
X228033Y90728D01*
X228141Y90714D01*
X228248Y90697D01*
X228355Y90675D01*
X228461Y90650D01*
X228566Y90622D01*
X228670Y90589D01*
X228772Y90553D01*
X228873Y90513D01*
X228973Y90470D01*
X229071Y90423D01*
X229168Y90372D01*
X229262Y90318D01*
X229355Y90261D01*
X229445Y90201D01*
X229534Y90137D01*
X229620Y90070D01*
X229703Y90001D01*
X229784Y89928D01*
X229862Y89852D01*
X229938Y89774D01*
X230011Y89693D01*
X230080Y89610D01*
X230147Y89524D01*
X230211Y89435D01*
X230271Y89345D01*
X230328Y89252D01*
X230382Y89158D01*
X230433Y89061D01*
X230480Y88963D01*
X230523Y88863D01*
X230563Y88762D01*
X230599Y88660D01*
X230632Y88556D01*
X230660Y88451D01*
X230685Y88345D01*
X230707Y88238D01*
X230724Y88131D01*
X230738Y88023D01*
X230747Y87914D01*
X230753Y87806D01*
X230755Y87697D01*
X223897Y55490D02*
X225421Y53585D01*
X223897Y55490D02*
X230755Y55490D01*
X230755Y53585D02*
X230755Y57395D01*
X228850Y60900D02*
X228765Y60902D01*
X228679Y60908D01*
X228594Y60917D01*
X228510Y60931D01*
X228426Y60948D01*
X228343Y60969D01*
X228261Y60993D01*
X228181Y61021D01*
X228101Y61053D01*
X228023Y61089D01*
X227947Y61127D01*
X227873Y61170D01*
X227801Y61215D01*
X227730Y61264D01*
X227662Y61316D01*
X227597Y61370D01*
X227534Y61428D01*
X227473Y61489D01*
X227415Y61552D01*
X227361Y61617D01*
X227309Y61685D01*
X227260Y61756D01*
X227215Y61828D01*
X227172Y61902D01*
X227134Y61978D01*
X227098Y62056D01*
X227066Y62136D01*
X227038Y62216D01*
X227014Y62298D01*
X226993Y62381D01*
X226976Y62465D01*
X226962Y62549D01*
X226953Y62634D01*
X226947Y62720D01*
X226945Y62805D01*
X226947Y62890D01*
X226953Y62976D01*
X226962Y63061D01*
X226976Y63145D01*
X226993Y63229D01*
X227014Y63312D01*
X227038Y63394D01*
X227066Y63474D01*
X227098Y63554D01*
X227134Y63632D01*
X227172Y63708D01*
X227215Y63782D01*
X227260Y63854D01*
X227309Y63925D01*
X227361Y63993D01*
X227415Y64058D01*
X227473Y64121D01*
X227534Y64182D01*
X227597Y64240D01*
X227662Y64294D01*
X227730Y64346D01*
X227801Y64395D01*
X227873Y64440D01*
X227947Y64483D01*
X228023Y64521D01*
X228101Y64557D01*
X228181Y64589D01*
X228261Y64617D01*
X228343Y64641D01*
X228426Y64662D01*
X228510Y64679D01*
X228594Y64693D01*
X228679Y64702D01*
X228765Y64708D01*
X228850Y64710D01*
X228935Y64708D01*
X229021Y64702D01*
X229106Y64693D01*
X229190Y64679D01*
X229274Y64662D01*
X229357Y64641D01*
X229439Y64617D01*
X229519Y64589D01*
X229599Y64557D01*
X229677Y64521D01*
X229753Y64483D01*
X229827Y64440D01*
X229899Y64395D01*
X229970Y64346D01*
X230038Y64294D01*
X230103Y64240D01*
X230166Y64182D01*
X230227Y64121D01*
X230285Y64058D01*
X230339Y63993D01*
X230391Y63925D01*
X230440Y63854D01*
X230485Y63782D01*
X230528Y63708D01*
X230566Y63632D01*
X230602Y63554D01*
X230634Y63474D01*
X230662Y63394D01*
X230686Y63312D01*
X230707Y63229D01*
X230724Y63145D01*
X230738Y63061D01*
X230747Y62976D01*
X230753Y62890D01*
X230755Y62805D01*
X230753Y62720D01*
X230747Y62634D01*
X230738Y62549D01*
X230724Y62465D01*
X230707Y62381D01*
X230686Y62298D01*
X230662Y62216D01*
X230634Y62136D01*
X230602Y62056D01*
X230566Y61978D01*
X230528Y61902D01*
X230485Y61828D01*
X230440Y61756D01*
X230391Y61685D01*
X230339Y61617D01*
X230285Y61552D01*
X230227Y61489D01*
X230166Y61428D01*
X230103Y61370D01*
X230038Y61316D01*
X229970Y61264D01*
X229899Y61215D01*
X229827Y61170D01*
X229753Y61127D01*
X229677Y61089D01*
X229599Y61053D01*
X229519Y61021D01*
X229439Y60993D01*
X229357Y60969D01*
X229274Y60948D01*
X229190Y60931D01*
X229106Y60917D01*
X229021Y60908D01*
X228935Y60902D01*
X228850Y60900D01*
X225421Y61281D02*
X225344Y61283D01*
X225267Y61289D01*
X225190Y61299D01*
X225114Y61312D01*
X225039Y61330D01*
X224965Y61351D01*
X224892Y61376D01*
X224820Y61405D01*
X224750Y61437D01*
X224681Y61472D01*
X224615Y61512D01*
X224550Y61554D01*
X224488Y61600D01*
X224428Y61649D01*
X224371Y61700D01*
X224316Y61755D01*
X224265Y61812D01*
X224216Y61872D01*
X224170Y61934D01*
X224128Y61999D01*
X224088Y62065D01*
X224053Y62134D01*
X224021Y62204D01*
X223992Y62276D01*
X223967Y62349D01*
X223946Y62423D01*
X223928Y62498D01*
X223915Y62574D01*
X223905Y62651D01*
X223899Y62728D01*
X223897Y62805D01*
X223899Y62882D01*
X223905Y62959D01*
X223915Y63036D01*
X223928Y63112D01*
X223946Y63187D01*
X223967Y63261D01*
X223992Y63334D01*
X224021Y63406D01*
X224053Y63476D01*
X224088Y63545D01*
X224128Y63611D01*
X224170Y63676D01*
X224216Y63738D01*
X224265Y63798D01*
X224316Y63855D01*
X224371Y63910D01*
X224428Y63961D01*
X224488Y64010D01*
X224550Y64056D01*
X224615Y64098D01*
X224681Y64138D01*
X224750Y64173D01*
X224820Y64205D01*
X224892Y64234D01*
X224965Y64259D01*
X225039Y64280D01*
X225114Y64298D01*
X225190Y64311D01*
X225267Y64321D01*
X225344Y64327D01*
X225421Y64329D01*
X225498Y64327D01*
X225575Y64321D01*
X225652Y64311D01*
X225728Y64298D01*
X225803Y64280D01*
X225877Y64259D01*
X225950Y64234D01*
X226022Y64205D01*
X226092Y64173D01*
X226161Y64138D01*
X226227Y64098D01*
X226292Y64056D01*
X226354Y64010D01*
X226414Y63961D01*
X226471Y63910D01*
X226526Y63855D01*
X226577Y63798D01*
X226626Y63738D01*
X226672Y63676D01*
X226714Y63611D01*
X226754Y63545D01*
X226789Y63476D01*
X226821Y63406D01*
X226850Y63334D01*
X226875Y63261D01*
X226896Y63187D01*
X226914Y63112D01*
X226927Y63036D01*
X226937Y62959D01*
X226943Y62882D01*
X226945Y62805D01*
X226943Y62728D01*
X226937Y62651D01*
X226927Y62574D01*
X226914Y62498D01*
X226896Y62423D01*
X226875Y62349D01*
X226850Y62276D01*
X226821Y62204D01*
X226789Y62134D01*
X226754Y62065D01*
X226714Y61999D01*
X226672Y61934D01*
X226626Y61872D01*
X226577Y61812D01*
X226526Y61755D01*
X226471Y61700D01*
X226414Y61649D01*
X226354Y61600D01*
X226292Y61554D01*
X226227Y61512D01*
X226161Y61472D01*
X226092Y61437D01*
X226022Y61405D01*
X225950Y61376D01*
X225877Y61351D01*
X225803Y61330D01*
X225728Y61312D01*
X225652Y61299D01*
X225575Y61289D01*
X225498Y61283D01*
X225421Y61281D01*
X223897Y24375D02*
X230755Y24375D01*
X223897Y24375D02*
X223897Y26280D01*
X223899Y26365D01*
X223905Y26451D01*
X223914Y26536D01*
X223928Y26620D01*
X223945Y26704D01*
X223966Y26787D01*
X223990Y26869D01*
X224018Y26949D01*
X224050Y27029D01*
X224086Y27107D01*
X224124Y27183D01*
X224167Y27257D01*
X224212Y27329D01*
X224261Y27400D01*
X224313Y27468D01*
X224367Y27533D01*
X224425Y27596D01*
X224486Y27657D01*
X224549Y27715D01*
X224614Y27769D01*
X224682Y27821D01*
X224753Y27870D01*
X224825Y27915D01*
X224899Y27958D01*
X224975Y27996D01*
X225053Y28032D01*
X225133Y28064D01*
X225213Y28092D01*
X225295Y28116D01*
X225378Y28137D01*
X225462Y28154D01*
X225546Y28168D01*
X225631Y28177D01*
X225717Y28183D01*
X225802Y28185D01*
X225887Y28183D01*
X225973Y28177D01*
X226058Y28168D01*
X226142Y28154D01*
X226226Y28137D01*
X226309Y28116D01*
X226391Y28092D01*
X226471Y28064D01*
X226551Y28032D01*
X226629Y27996D01*
X226705Y27958D01*
X226779Y27915D01*
X226851Y27870D01*
X226922Y27821D01*
X226990Y27769D01*
X227055Y27715D01*
X227118Y27657D01*
X227179Y27596D01*
X227237Y27533D01*
X227291Y27468D01*
X227343Y27400D01*
X227392Y27329D01*
X227437Y27257D01*
X227480Y27183D01*
X227518Y27107D01*
X227554Y27029D01*
X227586Y26949D01*
X227614Y26869D01*
X227638Y26787D01*
X227659Y26704D01*
X227676Y26620D01*
X227690Y26536D01*
X227699Y26451D01*
X227705Y26365D01*
X227707Y26280D01*
X227707Y24375D01*
X227707Y26661D02*
X230755Y28185D01*
X230755Y33663D02*
X230753Y33740D01*
X230747Y33817D01*
X230737Y33894D01*
X230724Y33970D01*
X230706Y34045D01*
X230685Y34119D01*
X230660Y34192D01*
X230631Y34264D01*
X230599Y34334D01*
X230564Y34403D01*
X230524Y34469D01*
X230482Y34534D01*
X230436Y34596D01*
X230387Y34656D01*
X230336Y34713D01*
X230281Y34768D01*
X230224Y34819D01*
X230164Y34868D01*
X230102Y34914D01*
X230037Y34956D01*
X229971Y34996D01*
X229902Y35031D01*
X229832Y35063D01*
X229760Y35092D01*
X229687Y35117D01*
X229613Y35138D01*
X229538Y35156D01*
X229462Y35169D01*
X229385Y35179D01*
X229308Y35185D01*
X229231Y35187D01*
X230755Y33663D02*
X230753Y33553D01*
X230747Y33442D01*
X230738Y33332D01*
X230725Y33222D01*
X230708Y33113D01*
X230687Y33005D01*
X230663Y32897D01*
X230634Y32790D01*
X230603Y32684D01*
X230567Y32580D01*
X230528Y32476D01*
X230486Y32374D01*
X230440Y32274D01*
X230390Y32175D01*
X230338Y32078D01*
X230281Y31982D01*
X230222Y31889D01*
X230160Y31798D01*
X230094Y31709D01*
X230026Y31622D01*
X229954Y31538D01*
X229880Y31456D01*
X229803Y31377D01*
X225421Y31567D02*
X225344Y31569D01*
X225267Y31575D01*
X225190Y31585D01*
X225114Y31598D01*
X225039Y31616D01*
X224965Y31637D01*
X224892Y31662D01*
X224820Y31691D01*
X224750Y31723D01*
X224681Y31758D01*
X224615Y31798D01*
X224550Y31840D01*
X224488Y31886D01*
X224428Y31935D01*
X224371Y31986D01*
X224316Y32041D01*
X224265Y32098D01*
X224216Y32158D01*
X224170Y32220D01*
X224128Y32285D01*
X224088Y32351D01*
X224053Y32420D01*
X224021Y32490D01*
X223992Y32562D01*
X223967Y32635D01*
X223946Y32709D01*
X223928Y32784D01*
X223915Y32860D01*
X223905Y32937D01*
X223899Y33014D01*
X223897Y33091D01*
X223899Y33193D01*
X223904Y33295D01*
X223913Y33397D01*
X223926Y33498D01*
X223943Y33599D01*
X223962Y33699D01*
X223986Y33799D01*
X224013Y33897D01*
X224044Y33995D01*
X224078Y34091D01*
X224115Y34186D01*
X224156Y34280D01*
X224200Y34372D01*
X224248Y34462D01*
X224298Y34551D01*
X224352Y34638D01*
X224409Y34723D01*
X224469Y34806D01*
X226755Y32329D02*
X226714Y32264D01*
X226671Y32201D01*
X226624Y32141D01*
X226574Y32082D01*
X226522Y32027D01*
X226467Y31974D01*
X226409Y31923D01*
X226349Y31876D01*
X226286Y31832D01*
X226222Y31790D01*
X226156Y31752D01*
X226087Y31718D01*
X226017Y31687D01*
X225946Y31659D01*
X225874Y31635D01*
X225800Y31614D01*
X225725Y31597D01*
X225650Y31584D01*
X225574Y31575D01*
X225498Y31569D01*
X225421Y31567D01*
X227897Y34425D02*
X227938Y34490D01*
X227981Y34553D01*
X228028Y34613D01*
X228078Y34672D01*
X228130Y34727D01*
X228185Y34780D01*
X228243Y34831D01*
X228303Y34878D01*
X228366Y34922D01*
X228430Y34964D01*
X228496Y35002D01*
X228565Y35036D01*
X228635Y35067D01*
X228706Y35095D01*
X228778Y35119D01*
X228852Y35140D01*
X228927Y35157D01*
X229002Y35170D01*
X229078Y35179D01*
X229154Y35185D01*
X229231Y35187D01*
X227898Y34425D02*
X226755Y32329D01*
X223897Y39865D02*
X230755Y39865D01*
X223897Y37960D02*
X223897Y41770D01*
X57553Y185901D02*
X57553Y192815D01*
X57554Y185901D02*
X57552Y185815D01*
X57546Y185729D01*
X57537Y185643D01*
X57524Y185558D01*
X57507Y185473D01*
X57487Y185390D01*
X57463Y185307D01*
X57435Y185225D01*
X57404Y185145D01*
X57369Y185066D01*
X57331Y184989D01*
X57289Y184913D01*
X57245Y184839D01*
X57197Y184768D01*
X57146Y184698D01*
X57092Y184631D01*
X57035Y184566D01*
X56975Y184504D01*
X56913Y184444D01*
X56848Y184387D01*
X56781Y184333D01*
X56711Y184282D01*
X56640Y184234D01*
X56566Y184190D01*
X56490Y184148D01*
X56413Y184110D01*
X56334Y184075D01*
X56254Y184044D01*
X56172Y184016D01*
X56089Y183992D01*
X56006Y183972D01*
X55921Y183955D01*
X55836Y183942D01*
X55750Y183933D01*
X55664Y183927D01*
X55578Y183925D01*
X54590Y183925D01*
X63875Y183925D02*
X63875Y192815D01*
X61406Y192815D02*
X66345Y192815D01*
X72410Y192815D02*
X69446Y183925D01*
X75373Y183925D02*
X72410Y192815D01*
X74632Y186148D02*
X70187Y186148D01*
X82846Y188864D02*
X84328Y188864D01*
X84328Y183925D01*
X81365Y183925D01*
X81279Y183927D01*
X81193Y183933D01*
X81107Y183942D01*
X81022Y183955D01*
X80937Y183972D01*
X80854Y183992D01*
X80771Y184016D01*
X80689Y184044D01*
X80609Y184075D01*
X80530Y184110D01*
X80453Y184148D01*
X80377Y184190D01*
X80303Y184234D01*
X80232Y184282D01*
X80162Y184333D01*
X80095Y184387D01*
X80030Y184444D01*
X79968Y184504D01*
X79908Y184566D01*
X79851Y184631D01*
X79797Y184698D01*
X79746Y184768D01*
X79698Y184839D01*
X79654Y184913D01*
X79612Y184989D01*
X79574Y185066D01*
X79539Y185145D01*
X79508Y185225D01*
X79480Y185307D01*
X79456Y185390D01*
X79436Y185473D01*
X79419Y185558D01*
X79406Y185643D01*
X79397Y185729D01*
X79391Y185815D01*
X79389Y185901D01*
X79389Y190839D01*
X79391Y190928D01*
X79397Y191016D01*
X79407Y191104D01*
X79421Y191192D01*
X79439Y191279D01*
X79460Y191365D01*
X79486Y191450D01*
X79515Y191533D01*
X79548Y191616D01*
X79585Y191696D01*
X79625Y191775D01*
X79669Y191852D01*
X79716Y191928D01*
X79766Y192000D01*
X79820Y192071D01*
X79877Y192139D01*
X79937Y192205D01*
X79999Y192267D01*
X80065Y192327D01*
X80133Y192384D01*
X80204Y192438D01*
X80276Y192488D01*
X80351Y192535D01*
X80429Y192579D01*
X80508Y192619D01*
X80588Y192656D01*
X80671Y192689D01*
X80754Y192718D01*
X80839Y192744D01*
X80925Y192765D01*
X81012Y192783D01*
X81100Y192797D01*
X81188Y192807D01*
X81276Y192813D01*
X81365Y192815D01*
X84328Y192815D01*
D11*
X99365Y137824D02*
X100056Y137824D01*
X99365Y137824D02*
X99365Y138515D01*
X100056Y138515D01*
X100056Y137824D01*
D12*
X191385Y167250D02*
X191385Y174108D01*
X193290Y174108D01*
X193375Y174106D01*
X193461Y174100D01*
X193546Y174091D01*
X193630Y174077D01*
X193714Y174060D01*
X193797Y174039D01*
X193879Y174015D01*
X193959Y173987D01*
X194039Y173955D01*
X194117Y173919D01*
X194193Y173881D01*
X194267Y173838D01*
X194339Y173793D01*
X194410Y173744D01*
X194478Y173692D01*
X194543Y173638D01*
X194606Y173580D01*
X194667Y173519D01*
X194725Y173456D01*
X194779Y173391D01*
X194831Y173323D01*
X194880Y173252D01*
X194925Y173180D01*
X194968Y173106D01*
X195006Y173030D01*
X195042Y172952D01*
X195074Y172872D01*
X195102Y172792D01*
X195126Y172710D01*
X195147Y172627D01*
X195164Y172543D01*
X195178Y172459D01*
X195187Y172374D01*
X195193Y172288D01*
X195195Y172203D01*
X195193Y172118D01*
X195187Y172032D01*
X195178Y171947D01*
X195164Y171863D01*
X195147Y171779D01*
X195126Y171696D01*
X195102Y171614D01*
X195074Y171534D01*
X195042Y171454D01*
X195006Y171376D01*
X194968Y171300D01*
X194925Y171226D01*
X194880Y171154D01*
X194831Y171083D01*
X194779Y171015D01*
X194725Y170950D01*
X194667Y170887D01*
X194606Y170826D01*
X194543Y170768D01*
X194478Y170714D01*
X194410Y170662D01*
X194339Y170613D01*
X194267Y170568D01*
X194193Y170525D01*
X194117Y170487D01*
X194039Y170451D01*
X193959Y170419D01*
X193879Y170391D01*
X193797Y170367D01*
X193714Y170346D01*
X193630Y170329D01*
X193546Y170315D01*
X193461Y170306D01*
X193375Y170300D01*
X193290Y170298D01*
X191385Y170298D01*
X198129Y174108D02*
X199653Y167250D01*
X201177Y171822D01*
X202701Y167250D01*
X204225Y174108D01*
X207876Y174108D02*
X207876Y167250D01*
X207876Y174108D02*
X209781Y174108D01*
X209866Y174106D01*
X209952Y174100D01*
X210037Y174091D01*
X210121Y174077D01*
X210205Y174060D01*
X210288Y174039D01*
X210370Y174015D01*
X210450Y173987D01*
X210530Y173955D01*
X210608Y173919D01*
X210684Y173881D01*
X210758Y173838D01*
X210830Y173793D01*
X210901Y173744D01*
X210969Y173692D01*
X211034Y173638D01*
X211097Y173580D01*
X211158Y173519D01*
X211216Y173456D01*
X211270Y173391D01*
X211322Y173323D01*
X211371Y173252D01*
X211416Y173180D01*
X211459Y173106D01*
X211497Y173030D01*
X211533Y172952D01*
X211565Y172872D01*
X211593Y172792D01*
X211617Y172710D01*
X211638Y172627D01*
X211655Y172543D01*
X211669Y172459D01*
X211678Y172374D01*
X211684Y172288D01*
X211686Y172203D01*
X211684Y172118D01*
X211678Y172032D01*
X211669Y171947D01*
X211655Y171863D01*
X211638Y171779D01*
X211617Y171696D01*
X211593Y171614D01*
X211565Y171534D01*
X211533Y171454D01*
X211497Y171376D01*
X211459Y171300D01*
X211416Y171226D01*
X211371Y171154D01*
X211322Y171083D01*
X211270Y171015D01*
X211216Y170950D01*
X211158Y170887D01*
X211097Y170826D01*
X211034Y170768D01*
X210969Y170714D01*
X210901Y170662D01*
X210830Y170613D01*
X210758Y170568D01*
X210684Y170525D01*
X210608Y170487D01*
X210530Y170451D01*
X210450Y170419D01*
X210370Y170391D01*
X210288Y170367D01*
X210205Y170346D01*
X210121Y170329D01*
X210037Y170315D01*
X209952Y170306D01*
X209866Y170300D01*
X209781Y170298D01*
X207876Y170298D01*
X210162Y170298D02*
X211686Y167250D01*
D13*
X216085Y209496D02*
X216085Y218084D01*
X190685Y218084D02*
X190685Y209496D01*
X200701Y220878D02*
X206069Y220878D01*
D14*
X187383Y203630D03*
D13*
X71635Y78410D02*
X71635Y51650D01*
X43635Y51650D02*
X43635Y78410D01*
X56335Y44030D02*
X58935Y44030D01*
X58935Y86030D02*
X56335Y86030D01*
D12*
X49585Y65030D02*
X49587Y65228D01*
X49595Y65425D01*
X49607Y65622D01*
X49624Y65819D01*
X49646Y66015D01*
X49672Y66211D01*
X49704Y66406D01*
X49740Y66600D01*
X49781Y66794D01*
X49826Y66986D01*
X49877Y67177D01*
X49932Y67367D01*
X49991Y67555D01*
X50056Y67742D01*
X50124Y67927D01*
X50198Y68111D01*
X50276Y68292D01*
X50358Y68472D01*
X50445Y68649D01*
X50536Y68825D01*
X50631Y68998D01*
X50730Y69169D01*
X50834Y69337D01*
X50942Y69502D01*
X51053Y69665D01*
X51169Y69825D01*
X51289Y69983D01*
X51412Y70137D01*
X51539Y70288D01*
X51670Y70436D01*
X51805Y70581D01*
X51943Y70722D01*
X52084Y70860D01*
X52229Y70995D01*
X52377Y71126D01*
X52528Y71253D01*
X52682Y71376D01*
X52840Y71496D01*
X53000Y71612D01*
X53163Y71723D01*
X53328Y71831D01*
X53496Y71935D01*
X53667Y72034D01*
X53840Y72129D01*
X54016Y72220D01*
X54193Y72307D01*
X54373Y72389D01*
X54554Y72467D01*
X54738Y72541D01*
X54923Y72609D01*
X55110Y72674D01*
X55298Y72733D01*
X55488Y72788D01*
X55679Y72839D01*
X55871Y72884D01*
X56065Y72925D01*
X56259Y72961D01*
X56454Y72993D01*
X56650Y73019D01*
X56846Y73041D01*
X57043Y73058D01*
X57240Y73070D01*
X57437Y73078D01*
X57635Y73080D01*
X57833Y73078D01*
X58030Y73070D01*
X58227Y73058D01*
X58424Y73041D01*
X58620Y73019D01*
X58816Y72993D01*
X59011Y72961D01*
X59205Y72925D01*
X59399Y72884D01*
X59591Y72839D01*
X59782Y72788D01*
X59972Y72733D01*
X60160Y72674D01*
X60347Y72609D01*
X60532Y72541D01*
X60716Y72467D01*
X60897Y72389D01*
X61077Y72307D01*
X61254Y72220D01*
X61430Y72129D01*
X61603Y72034D01*
X61774Y71935D01*
X61942Y71831D01*
X62107Y71723D01*
X62270Y71612D01*
X62430Y71496D01*
X62588Y71376D01*
X62742Y71253D01*
X62893Y71126D01*
X63041Y70995D01*
X63186Y70860D01*
X63327Y70722D01*
X63465Y70581D01*
X63600Y70436D01*
X63731Y70288D01*
X63858Y70137D01*
X63981Y69983D01*
X64101Y69825D01*
X64217Y69665D01*
X64328Y69502D01*
X64436Y69337D01*
X64540Y69169D01*
X64639Y68998D01*
X64734Y68825D01*
X64825Y68649D01*
X64912Y68472D01*
X64994Y68292D01*
X65072Y68111D01*
X65146Y67927D01*
X65214Y67742D01*
X65279Y67555D01*
X65338Y67367D01*
X65393Y67177D01*
X65444Y66986D01*
X65489Y66794D01*
X65530Y66600D01*
X65566Y66406D01*
X65598Y66211D01*
X65624Y66015D01*
X65646Y65819D01*
X65663Y65622D01*
X65675Y65425D01*
X65683Y65228D01*
X65685Y65030D01*
X65683Y64832D01*
X65675Y64635D01*
X65663Y64438D01*
X65646Y64241D01*
X65624Y64045D01*
X65598Y63849D01*
X65566Y63654D01*
X65530Y63460D01*
X65489Y63266D01*
X65444Y63074D01*
X65393Y62883D01*
X65338Y62693D01*
X65279Y62505D01*
X65214Y62318D01*
X65146Y62133D01*
X65072Y61949D01*
X64994Y61768D01*
X64912Y61588D01*
X64825Y61411D01*
X64734Y61235D01*
X64639Y61062D01*
X64540Y60891D01*
X64436Y60723D01*
X64328Y60558D01*
X64217Y60395D01*
X64101Y60235D01*
X63981Y60077D01*
X63858Y59923D01*
X63731Y59772D01*
X63600Y59624D01*
X63465Y59479D01*
X63327Y59338D01*
X63186Y59200D01*
X63041Y59065D01*
X62893Y58934D01*
X62742Y58807D01*
X62588Y58684D01*
X62430Y58564D01*
X62270Y58448D01*
X62107Y58337D01*
X61942Y58229D01*
X61774Y58125D01*
X61603Y58026D01*
X61430Y57931D01*
X61254Y57840D01*
X61077Y57753D01*
X60897Y57671D01*
X60716Y57593D01*
X60532Y57519D01*
X60347Y57451D01*
X60160Y57386D01*
X59972Y57327D01*
X59782Y57272D01*
X59591Y57221D01*
X59399Y57176D01*
X59205Y57135D01*
X59011Y57099D01*
X58816Y57067D01*
X58620Y57041D01*
X58424Y57019D01*
X58227Y57002D01*
X58030Y56990D01*
X57833Y56982D01*
X57635Y56980D01*
X57437Y56982D01*
X57240Y56990D01*
X57043Y57002D01*
X56846Y57019D01*
X56650Y57041D01*
X56454Y57067D01*
X56259Y57099D01*
X56065Y57135D01*
X55871Y57176D01*
X55679Y57221D01*
X55488Y57272D01*
X55298Y57327D01*
X55110Y57386D01*
X54923Y57451D01*
X54738Y57519D01*
X54554Y57593D01*
X54373Y57671D01*
X54193Y57753D01*
X54016Y57840D01*
X53840Y57931D01*
X53667Y58026D01*
X53496Y58125D01*
X53328Y58229D01*
X53163Y58337D01*
X53000Y58448D01*
X52840Y58564D01*
X52682Y58684D01*
X52528Y58807D01*
X52377Y58934D01*
X52229Y59065D01*
X52084Y59200D01*
X51943Y59338D01*
X51805Y59479D01*
X51670Y59624D01*
X51539Y59772D01*
X51412Y59923D01*
X51289Y60077D01*
X51169Y60235D01*
X51053Y60395D01*
X50942Y60558D01*
X50834Y60723D01*
X50730Y60891D01*
X50631Y61062D01*
X50536Y61235D01*
X50445Y61411D01*
X50358Y61588D01*
X50276Y61768D01*
X50198Y61949D01*
X50124Y62133D01*
X50056Y62318D01*
X49991Y62505D01*
X49932Y62693D01*
X49877Y62883D01*
X49826Y63074D01*
X49781Y63266D01*
X49740Y63460D01*
X49704Y63654D01*
X49672Y63849D01*
X49646Y64045D01*
X49624Y64241D01*
X49607Y64438D01*
X49595Y64635D01*
X49587Y64832D01*
X49585Y65030D01*
D15*
X47514Y97881D02*
X45679Y97881D01*
X47514Y97880D02*
X47599Y97878D01*
X47683Y97872D01*
X47767Y97862D01*
X47851Y97849D01*
X47934Y97831D01*
X48016Y97810D01*
X48097Y97785D01*
X48177Y97756D01*
X48255Y97724D01*
X48331Y97688D01*
X48406Y97648D01*
X48479Y97605D01*
X48550Y97559D01*
X48619Y97510D01*
X48686Y97457D01*
X48750Y97401D01*
X48811Y97343D01*
X48869Y97282D01*
X48925Y97218D01*
X48978Y97151D01*
X49027Y97082D01*
X49073Y97011D01*
X49116Y96938D01*
X49156Y96863D01*
X49192Y96787D01*
X49224Y96709D01*
X49253Y96629D01*
X49278Y96548D01*
X49299Y96466D01*
X49317Y96383D01*
X49330Y96299D01*
X49340Y96215D01*
X49346Y96131D01*
X49348Y96046D01*
X49346Y95961D01*
X49340Y95877D01*
X49330Y95793D01*
X49317Y95709D01*
X49299Y95626D01*
X49278Y95544D01*
X49253Y95463D01*
X49224Y95383D01*
X49192Y95305D01*
X49156Y95229D01*
X49116Y95154D01*
X49073Y95081D01*
X49027Y95010D01*
X48978Y94941D01*
X48925Y94874D01*
X48869Y94810D01*
X48811Y94749D01*
X48750Y94691D01*
X48686Y94635D01*
X48619Y94582D01*
X48550Y94533D01*
X48479Y94487D01*
X48406Y94444D01*
X48331Y94404D01*
X48255Y94368D01*
X48177Y94336D01*
X48097Y94307D01*
X48016Y94282D01*
X47934Y94261D01*
X47851Y94243D01*
X47767Y94230D01*
X47683Y94220D01*
X47599Y94214D01*
X47514Y94212D01*
X45679Y94212D01*
X45679Y100816D01*
X47514Y100816D01*
X47590Y100814D01*
X47665Y100808D01*
X47740Y100799D01*
X47814Y100785D01*
X47888Y100768D01*
X47960Y100746D01*
X48032Y100722D01*
X48102Y100693D01*
X48170Y100661D01*
X48237Y100626D01*
X48302Y100587D01*
X48365Y100544D01*
X48425Y100499D01*
X48483Y100451D01*
X48539Y100399D01*
X48591Y100345D01*
X48641Y100288D01*
X48688Y100229D01*
X48732Y100168D01*
X48773Y100104D01*
X48810Y100038D01*
X48844Y99970D01*
X48874Y99901D01*
X48901Y99830D01*
X48924Y99758D01*
X48943Y99685D01*
X48958Y99611D01*
X48970Y99536D01*
X48978Y99461D01*
X48982Y99386D01*
X48982Y99310D01*
X48978Y99235D01*
X48970Y99160D01*
X48958Y99085D01*
X48943Y99011D01*
X48924Y98938D01*
X48901Y98866D01*
X48874Y98795D01*
X48844Y98726D01*
X48810Y98658D01*
X48773Y98592D01*
X48732Y98528D01*
X48688Y98467D01*
X48641Y98408D01*
X48591Y98351D01*
X48539Y98297D01*
X48483Y98245D01*
X48425Y98197D01*
X48365Y98152D01*
X48302Y98109D01*
X48237Y98070D01*
X48170Y98035D01*
X48102Y98003D01*
X48032Y97974D01*
X47960Y97950D01*
X47888Y97928D01*
X47814Y97911D01*
X47740Y97897D01*
X47665Y97888D01*
X47590Y97882D01*
X47514Y97880D01*
X53916Y100816D02*
X53916Y94212D01*
X52082Y100816D02*
X55751Y100816D01*
X59153Y100816D02*
X59153Y94212D01*
X62822Y94212D02*
X59153Y100816D01*
X62822Y100816D02*
X62822Y94212D01*
X66712Y99348D02*
X68546Y100816D01*
X68546Y94212D01*
X66712Y94212D02*
X70381Y94212D01*
D13*
X128515Y212955D02*
X155275Y212955D01*
X155275Y240955D02*
X128515Y240955D01*
X120895Y228255D02*
X120895Y225655D01*
X162895Y225655D02*
X162895Y228255D01*
D12*
X133845Y226955D02*
X133847Y227153D01*
X133855Y227350D01*
X133867Y227547D01*
X133884Y227744D01*
X133906Y227940D01*
X133932Y228136D01*
X133964Y228331D01*
X134000Y228525D01*
X134041Y228719D01*
X134086Y228911D01*
X134137Y229102D01*
X134192Y229292D01*
X134251Y229480D01*
X134316Y229667D01*
X134384Y229852D01*
X134458Y230036D01*
X134536Y230217D01*
X134618Y230397D01*
X134705Y230574D01*
X134796Y230750D01*
X134891Y230923D01*
X134990Y231094D01*
X135094Y231262D01*
X135202Y231427D01*
X135313Y231590D01*
X135429Y231750D01*
X135549Y231908D01*
X135672Y232062D01*
X135799Y232213D01*
X135930Y232361D01*
X136065Y232506D01*
X136203Y232647D01*
X136344Y232785D01*
X136489Y232920D01*
X136637Y233051D01*
X136788Y233178D01*
X136942Y233301D01*
X137100Y233421D01*
X137260Y233537D01*
X137423Y233648D01*
X137588Y233756D01*
X137756Y233860D01*
X137927Y233959D01*
X138100Y234054D01*
X138276Y234145D01*
X138453Y234232D01*
X138633Y234314D01*
X138814Y234392D01*
X138998Y234466D01*
X139183Y234534D01*
X139370Y234599D01*
X139558Y234658D01*
X139748Y234713D01*
X139939Y234764D01*
X140131Y234809D01*
X140325Y234850D01*
X140519Y234886D01*
X140714Y234918D01*
X140910Y234944D01*
X141106Y234966D01*
X141303Y234983D01*
X141500Y234995D01*
X141697Y235003D01*
X141895Y235005D01*
X142093Y235003D01*
X142290Y234995D01*
X142487Y234983D01*
X142684Y234966D01*
X142880Y234944D01*
X143076Y234918D01*
X143271Y234886D01*
X143465Y234850D01*
X143659Y234809D01*
X143851Y234764D01*
X144042Y234713D01*
X144232Y234658D01*
X144420Y234599D01*
X144607Y234534D01*
X144792Y234466D01*
X144976Y234392D01*
X145157Y234314D01*
X145337Y234232D01*
X145514Y234145D01*
X145690Y234054D01*
X145863Y233959D01*
X146034Y233860D01*
X146202Y233756D01*
X146367Y233648D01*
X146530Y233537D01*
X146690Y233421D01*
X146848Y233301D01*
X147002Y233178D01*
X147153Y233051D01*
X147301Y232920D01*
X147446Y232785D01*
X147587Y232647D01*
X147725Y232506D01*
X147860Y232361D01*
X147991Y232213D01*
X148118Y232062D01*
X148241Y231908D01*
X148361Y231750D01*
X148477Y231590D01*
X148588Y231427D01*
X148696Y231262D01*
X148800Y231094D01*
X148899Y230923D01*
X148994Y230750D01*
X149085Y230574D01*
X149172Y230397D01*
X149254Y230217D01*
X149332Y230036D01*
X149406Y229852D01*
X149474Y229667D01*
X149539Y229480D01*
X149598Y229292D01*
X149653Y229102D01*
X149704Y228911D01*
X149749Y228719D01*
X149790Y228525D01*
X149826Y228331D01*
X149858Y228136D01*
X149884Y227940D01*
X149906Y227744D01*
X149923Y227547D01*
X149935Y227350D01*
X149943Y227153D01*
X149945Y226955D01*
X149943Y226757D01*
X149935Y226560D01*
X149923Y226363D01*
X149906Y226166D01*
X149884Y225970D01*
X149858Y225774D01*
X149826Y225579D01*
X149790Y225385D01*
X149749Y225191D01*
X149704Y224999D01*
X149653Y224808D01*
X149598Y224618D01*
X149539Y224430D01*
X149474Y224243D01*
X149406Y224058D01*
X149332Y223874D01*
X149254Y223693D01*
X149172Y223513D01*
X149085Y223336D01*
X148994Y223160D01*
X148899Y222987D01*
X148800Y222816D01*
X148696Y222648D01*
X148588Y222483D01*
X148477Y222320D01*
X148361Y222160D01*
X148241Y222002D01*
X148118Y221848D01*
X147991Y221697D01*
X147860Y221549D01*
X147725Y221404D01*
X147587Y221263D01*
X147446Y221125D01*
X147301Y220990D01*
X147153Y220859D01*
X147002Y220732D01*
X146848Y220609D01*
X146690Y220489D01*
X146530Y220373D01*
X146367Y220262D01*
X146202Y220154D01*
X146034Y220050D01*
X145863Y219951D01*
X145690Y219856D01*
X145514Y219765D01*
X145337Y219678D01*
X145157Y219596D01*
X144976Y219518D01*
X144792Y219444D01*
X144607Y219376D01*
X144420Y219311D01*
X144232Y219252D01*
X144042Y219197D01*
X143851Y219146D01*
X143659Y219101D01*
X143465Y219060D01*
X143271Y219024D01*
X143076Y218992D01*
X142880Y218966D01*
X142684Y218944D01*
X142487Y218927D01*
X142290Y218915D01*
X142093Y218907D01*
X141895Y218905D01*
X141697Y218907D01*
X141500Y218915D01*
X141303Y218927D01*
X141106Y218944D01*
X140910Y218966D01*
X140714Y218992D01*
X140519Y219024D01*
X140325Y219060D01*
X140131Y219101D01*
X139939Y219146D01*
X139748Y219197D01*
X139558Y219252D01*
X139370Y219311D01*
X139183Y219376D01*
X138998Y219444D01*
X138814Y219518D01*
X138633Y219596D01*
X138453Y219678D01*
X138276Y219765D01*
X138100Y219856D01*
X137927Y219951D01*
X137756Y220050D01*
X137588Y220154D01*
X137423Y220262D01*
X137260Y220373D01*
X137100Y220489D01*
X136942Y220609D01*
X136788Y220732D01*
X136637Y220859D01*
X136489Y220990D01*
X136344Y221125D01*
X136203Y221263D01*
X136065Y221404D01*
X135930Y221549D01*
X135799Y221697D01*
X135672Y221848D01*
X135549Y222002D01*
X135429Y222160D01*
X135313Y222320D01*
X135202Y222483D01*
X135094Y222648D01*
X134990Y222816D01*
X134891Y222987D01*
X134796Y223160D01*
X134705Y223336D01*
X134618Y223513D01*
X134536Y223693D01*
X134458Y223874D01*
X134384Y224058D01*
X134316Y224243D01*
X134251Y224430D01*
X134192Y224618D01*
X134137Y224808D01*
X134086Y224999D01*
X134041Y225191D01*
X134000Y225385D01*
X133964Y225579D01*
X133932Y225774D01*
X133906Y225970D01*
X133884Y226166D01*
X133867Y226363D01*
X133855Y226560D01*
X133847Y226757D01*
X133845Y226955D01*
D15*
X131494Y251311D02*
X129659Y251311D01*
X131494Y251310D02*
X131579Y251308D01*
X131663Y251302D01*
X131747Y251292D01*
X131831Y251279D01*
X131914Y251261D01*
X131996Y251240D01*
X132077Y251215D01*
X132157Y251186D01*
X132235Y251154D01*
X132311Y251118D01*
X132386Y251078D01*
X132459Y251035D01*
X132530Y250989D01*
X132599Y250940D01*
X132666Y250887D01*
X132730Y250831D01*
X132791Y250773D01*
X132849Y250712D01*
X132905Y250648D01*
X132958Y250581D01*
X133007Y250512D01*
X133053Y250441D01*
X133096Y250368D01*
X133136Y250293D01*
X133172Y250217D01*
X133204Y250139D01*
X133233Y250059D01*
X133258Y249978D01*
X133279Y249896D01*
X133297Y249813D01*
X133310Y249729D01*
X133320Y249645D01*
X133326Y249561D01*
X133328Y249476D01*
X133326Y249391D01*
X133320Y249307D01*
X133310Y249223D01*
X133297Y249139D01*
X133279Y249056D01*
X133258Y248974D01*
X133233Y248893D01*
X133204Y248813D01*
X133172Y248735D01*
X133136Y248659D01*
X133096Y248584D01*
X133053Y248511D01*
X133007Y248440D01*
X132958Y248371D01*
X132905Y248304D01*
X132849Y248240D01*
X132791Y248179D01*
X132730Y248121D01*
X132666Y248065D01*
X132599Y248012D01*
X132530Y247963D01*
X132459Y247917D01*
X132386Y247874D01*
X132311Y247834D01*
X132235Y247798D01*
X132157Y247766D01*
X132077Y247737D01*
X131996Y247712D01*
X131914Y247691D01*
X131831Y247673D01*
X131747Y247660D01*
X131663Y247650D01*
X131579Y247644D01*
X131494Y247642D01*
X129659Y247642D01*
X129659Y254246D01*
X131494Y254246D01*
X131570Y254244D01*
X131645Y254238D01*
X131720Y254229D01*
X131794Y254215D01*
X131868Y254198D01*
X131940Y254176D01*
X132012Y254152D01*
X132082Y254123D01*
X132150Y254091D01*
X132217Y254056D01*
X132282Y254017D01*
X132345Y253974D01*
X132405Y253929D01*
X132463Y253881D01*
X132519Y253829D01*
X132571Y253775D01*
X132621Y253718D01*
X132668Y253659D01*
X132712Y253598D01*
X132753Y253534D01*
X132790Y253468D01*
X132824Y253400D01*
X132854Y253331D01*
X132881Y253260D01*
X132904Y253188D01*
X132923Y253115D01*
X132938Y253041D01*
X132950Y252966D01*
X132958Y252891D01*
X132962Y252816D01*
X132962Y252740D01*
X132958Y252665D01*
X132950Y252590D01*
X132938Y252515D01*
X132923Y252441D01*
X132904Y252368D01*
X132881Y252296D01*
X132854Y252225D01*
X132824Y252156D01*
X132790Y252088D01*
X132753Y252022D01*
X132712Y251958D01*
X132668Y251897D01*
X132621Y251838D01*
X132571Y251781D01*
X132519Y251727D01*
X132463Y251675D01*
X132405Y251627D01*
X132345Y251582D01*
X132282Y251539D01*
X132217Y251500D01*
X132150Y251465D01*
X132082Y251433D01*
X132012Y251404D01*
X131940Y251380D01*
X131868Y251358D01*
X131794Y251341D01*
X131720Y251327D01*
X131645Y251318D01*
X131570Y251312D01*
X131494Y251310D01*
X137896Y254246D02*
X137896Y247642D01*
X136062Y254246D02*
X139731Y254246D01*
X143133Y254246D02*
X143133Y247642D01*
X146802Y247642D02*
X143133Y254246D01*
X146802Y254246D02*
X146802Y247642D01*
X152710Y254246D02*
X152789Y254244D01*
X152867Y254239D01*
X152945Y254229D01*
X153022Y254216D01*
X153099Y254199D01*
X153175Y254179D01*
X153250Y254155D01*
X153324Y254128D01*
X153396Y254097D01*
X153467Y254062D01*
X153536Y254025D01*
X153603Y253984D01*
X153668Y253940D01*
X153731Y253893D01*
X153791Y253843D01*
X153849Y253790D01*
X153905Y253734D01*
X153958Y253676D01*
X154008Y253616D01*
X154055Y253553D01*
X154099Y253488D01*
X154140Y253421D01*
X154177Y253352D01*
X154212Y253281D01*
X154243Y253209D01*
X154270Y253135D01*
X154294Y253060D01*
X154314Y252984D01*
X154331Y252907D01*
X154344Y252830D01*
X154354Y252752D01*
X154359Y252674D01*
X154361Y252595D01*
X152710Y254246D02*
X152621Y254244D01*
X152532Y254239D01*
X152444Y254229D01*
X152356Y254216D01*
X152269Y254200D01*
X152182Y254179D01*
X152097Y254155D01*
X152012Y254128D01*
X151929Y254097D01*
X151847Y254062D01*
X151766Y254024D01*
X151687Y253983D01*
X151611Y253939D01*
X151535Y253891D01*
X151462Y253840D01*
X151392Y253787D01*
X151323Y253730D01*
X151257Y253670D01*
X151194Y253608D01*
X151133Y253543D01*
X151075Y253476D01*
X151020Y253406D01*
X150967Y253334D01*
X150918Y253260D01*
X150872Y253184D01*
X150830Y253106D01*
X150790Y253026D01*
X150754Y252945D01*
X150721Y252862D01*
X150692Y252778D01*
X153811Y251311D02*
X153867Y251367D01*
X153921Y251426D01*
X153972Y251487D01*
X154021Y251551D01*
X154066Y251616D01*
X154109Y251684D01*
X154148Y251753D01*
X154185Y251824D01*
X154218Y251897D01*
X154247Y251971D01*
X154274Y252046D01*
X154297Y252122D01*
X154316Y252200D01*
X154332Y252278D01*
X154345Y252356D01*
X154354Y252436D01*
X154359Y252515D01*
X154361Y252595D01*
X153811Y251311D02*
X150692Y247642D01*
X154361Y247642D01*
D12*
X70885Y19988D02*
X70885Y10463D01*
X187115Y10683D02*
X187115Y20208D01*
D10*
X176154Y183263D02*
X174573Y183263D01*
X174495Y183265D01*
X174418Y183271D01*
X174341Y183280D01*
X174265Y183293D01*
X174189Y183310D01*
X174114Y183331D01*
X174041Y183355D01*
X173968Y183383D01*
X173897Y183415D01*
X173828Y183450D01*
X173761Y183488D01*
X173695Y183529D01*
X173632Y183574D01*
X173571Y183622D01*
X173512Y183672D01*
X173456Y183726D01*
X173402Y183782D01*
X173352Y183841D01*
X173304Y183902D01*
X173259Y183965D01*
X173218Y184031D01*
X173180Y184098D01*
X173145Y184167D01*
X173113Y184238D01*
X173085Y184311D01*
X173061Y184384D01*
X173040Y184459D01*
X173023Y184535D01*
X173010Y184611D01*
X173001Y184688D01*
X172995Y184765D01*
X172993Y184843D01*
X172993Y188795D01*
X172995Y188873D01*
X173001Y188950D01*
X173010Y189027D01*
X173023Y189103D01*
X173040Y189179D01*
X173061Y189254D01*
X173085Y189327D01*
X173113Y189400D01*
X173145Y189471D01*
X173180Y189540D01*
X173218Y189607D01*
X173259Y189673D01*
X173304Y189736D01*
X173352Y189797D01*
X173402Y189856D01*
X173456Y189912D01*
X173512Y189966D01*
X173571Y190016D01*
X173632Y190064D01*
X173695Y190109D01*
X173761Y190150D01*
X173828Y190188D01*
X173897Y190223D01*
X173968Y190255D01*
X174041Y190283D01*
X174114Y190307D01*
X174189Y190328D01*
X174265Y190345D01*
X174341Y190358D01*
X174418Y190367D01*
X174495Y190373D01*
X174573Y190375D01*
X176154Y190375D01*
X179116Y188795D02*
X181092Y190375D01*
X181092Y183263D01*
X183067Y183263D02*
X179116Y183263D01*
X178449Y238683D02*
X176868Y238683D01*
X176790Y238685D01*
X176713Y238691D01*
X176636Y238700D01*
X176560Y238713D01*
X176484Y238730D01*
X176409Y238751D01*
X176336Y238775D01*
X176263Y238803D01*
X176192Y238835D01*
X176123Y238870D01*
X176056Y238908D01*
X175990Y238949D01*
X175927Y238994D01*
X175866Y239042D01*
X175807Y239092D01*
X175751Y239146D01*
X175697Y239202D01*
X175647Y239261D01*
X175599Y239322D01*
X175554Y239385D01*
X175513Y239451D01*
X175475Y239518D01*
X175440Y239587D01*
X175408Y239658D01*
X175380Y239731D01*
X175356Y239804D01*
X175335Y239879D01*
X175318Y239955D01*
X175305Y240031D01*
X175296Y240108D01*
X175290Y240185D01*
X175288Y240263D01*
X175288Y244215D01*
X175290Y244293D01*
X175296Y244370D01*
X175305Y244447D01*
X175318Y244523D01*
X175335Y244599D01*
X175356Y244674D01*
X175380Y244747D01*
X175408Y244820D01*
X175440Y244891D01*
X175475Y244960D01*
X175513Y245027D01*
X175554Y245093D01*
X175599Y245156D01*
X175647Y245217D01*
X175697Y245276D01*
X175751Y245332D01*
X175807Y245386D01*
X175866Y245436D01*
X175927Y245484D01*
X175990Y245529D01*
X176056Y245570D01*
X176123Y245608D01*
X176192Y245643D01*
X176263Y245675D01*
X176336Y245703D01*
X176409Y245727D01*
X176484Y245748D01*
X176560Y245765D01*
X176636Y245778D01*
X176713Y245787D01*
X176790Y245793D01*
X176868Y245795D01*
X178449Y245795D01*
X183584Y245795D02*
X183666Y245793D01*
X183748Y245787D01*
X183830Y245778D01*
X183911Y245765D01*
X183991Y245748D01*
X184071Y245727D01*
X184149Y245703D01*
X184226Y245675D01*
X184302Y245644D01*
X184377Y245609D01*
X184449Y245570D01*
X184520Y245529D01*
X184589Y245484D01*
X184655Y245436D01*
X184720Y245385D01*
X184782Y245331D01*
X184841Y245274D01*
X184898Y245215D01*
X184952Y245153D01*
X185003Y245088D01*
X185051Y245022D01*
X185096Y244953D01*
X185137Y244882D01*
X185176Y244810D01*
X185211Y244735D01*
X185242Y244659D01*
X185270Y244582D01*
X185294Y244504D01*
X185315Y244424D01*
X185332Y244344D01*
X185345Y244263D01*
X185354Y244181D01*
X185360Y244099D01*
X185362Y244017D01*
X183584Y245795D02*
X183491Y245793D01*
X183399Y245787D01*
X183307Y245778D01*
X183215Y245765D01*
X183124Y245748D01*
X183034Y245728D01*
X182944Y245704D01*
X182856Y245676D01*
X182768Y245644D01*
X182683Y245610D01*
X182598Y245571D01*
X182516Y245530D01*
X182435Y245485D01*
X182355Y245436D01*
X182278Y245385D01*
X182203Y245331D01*
X182131Y245273D01*
X182061Y245213D01*
X181993Y245149D01*
X181928Y245084D01*
X181865Y245015D01*
X181806Y244944D01*
X181749Y244871D01*
X181695Y244795D01*
X181645Y244718D01*
X181597Y244638D01*
X181553Y244557D01*
X181513Y244473D01*
X181475Y244389D01*
X181441Y244302D01*
X181411Y244215D01*
X184769Y242634D02*
X184830Y242695D01*
X184888Y242758D01*
X184943Y242824D01*
X184996Y242892D01*
X185045Y242963D01*
X185090Y243035D01*
X185133Y243110D01*
X185172Y243186D01*
X185208Y243265D01*
X185240Y243344D01*
X185268Y243425D01*
X185293Y243508D01*
X185314Y243591D01*
X185331Y243675D01*
X185345Y243760D01*
X185354Y243845D01*
X185360Y243931D01*
X185362Y244017D01*
X184770Y242634D02*
X181411Y238683D01*
X185362Y238683D01*
D13*
X214120Y78410D02*
X214120Y51650D01*
X186120Y51650D02*
X186120Y78410D01*
X198820Y44030D02*
X201420Y44030D01*
X201420Y86030D02*
X198820Y86030D01*
D12*
X192070Y65030D02*
X192072Y65228D01*
X192080Y65425D01*
X192092Y65622D01*
X192109Y65819D01*
X192131Y66015D01*
X192157Y66211D01*
X192189Y66406D01*
X192225Y66600D01*
X192266Y66794D01*
X192311Y66986D01*
X192362Y67177D01*
X192417Y67367D01*
X192476Y67555D01*
X192541Y67742D01*
X192609Y67927D01*
X192683Y68111D01*
X192761Y68292D01*
X192843Y68472D01*
X192930Y68649D01*
X193021Y68825D01*
X193116Y68998D01*
X193215Y69169D01*
X193319Y69337D01*
X193427Y69502D01*
X193538Y69665D01*
X193654Y69825D01*
X193774Y69983D01*
X193897Y70137D01*
X194024Y70288D01*
X194155Y70436D01*
X194290Y70581D01*
X194428Y70722D01*
X194569Y70860D01*
X194714Y70995D01*
X194862Y71126D01*
X195013Y71253D01*
X195167Y71376D01*
X195325Y71496D01*
X195485Y71612D01*
X195648Y71723D01*
X195813Y71831D01*
X195981Y71935D01*
X196152Y72034D01*
X196325Y72129D01*
X196501Y72220D01*
X196678Y72307D01*
X196858Y72389D01*
X197039Y72467D01*
X197223Y72541D01*
X197408Y72609D01*
X197595Y72674D01*
X197783Y72733D01*
X197973Y72788D01*
X198164Y72839D01*
X198356Y72884D01*
X198550Y72925D01*
X198744Y72961D01*
X198939Y72993D01*
X199135Y73019D01*
X199331Y73041D01*
X199528Y73058D01*
X199725Y73070D01*
X199922Y73078D01*
X200120Y73080D01*
X200318Y73078D01*
X200515Y73070D01*
X200712Y73058D01*
X200909Y73041D01*
X201105Y73019D01*
X201301Y72993D01*
X201496Y72961D01*
X201690Y72925D01*
X201884Y72884D01*
X202076Y72839D01*
X202267Y72788D01*
X202457Y72733D01*
X202645Y72674D01*
X202832Y72609D01*
X203017Y72541D01*
X203201Y72467D01*
X203382Y72389D01*
X203562Y72307D01*
X203739Y72220D01*
X203915Y72129D01*
X204088Y72034D01*
X204259Y71935D01*
X204427Y71831D01*
X204592Y71723D01*
X204755Y71612D01*
X204915Y71496D01*
X205073Y71376D01*
X205227Y71253D01*
X205378Y71126D01*
X205526Y70995D01*
X205671Y70860D01*
X205812Y70722D01*
X205950Y70581D01*
X206085Y70436D01*
X206216Y70288D01*
X206343Y70137D01*
X206466Y69983D01*
X206586Y69825D01*
X206702Y69665D01*
X206813Y69502D01*
X206921Y69337D01*
X207025Y69169D01*
X207124Y68998D01*
X207219Y68825D01*
X207310Y68649D01*
X207397Y68472D01*
X207479Y68292D01*
X207557Y68111D01*
X207631Y67927D01*
X207699Y67742D01*
X207764Y67555D01*
X207823Y67367D01*
X207878Y67177D01*
X207929Y66986D01*
X207974Y66794D01*
X208015Y66600D01*
X208051Y66406D01*
X208083Y66211D01*
X208109Y66015D01*
X208131Y65819D01*
X208148Y65622D01*
X208160Y65425D01*
X208168Y65228D01*
X208170Y65030D01*
X208168Y64832D01*
X208160Y64635D01*
X208148Y64438D01*
X208131Y64241D01*
X208109Y64045D01*
X208083Y63849D01*
X208051Y63654D01*
X208015Y63460D01*
X207974Y63266D01*
X207929Y63074D01*
X207878Y62883D01*
X207823Y62693D01*
X207764Y62505D01*
X207699Y62318D01*
X207631Y62133D01*
X207557Y61949D01*
X207479Y61768D01*
X207397Y61588D01*
X207310Y61411D01*
X207219Y61235D01*
X207124Y61062D01*
X207025Y60891D01*
X206921Y60723D01*
X206813Y60558D01*
X206702Y60395D01*
X206586Y60235D01*
X206466Y60077D01*
X206343Y59923D01*
X206216Y59772D01*
X206085Y59624D01*
X205950Y59479D01*
X205812Y59338D01*
X205671Y59200D01*
X205526Y59065D01*
X205378Y58934D01*
X205227Y58807D01*
X205073Y58684D01*
X204915Y58564D01*
X204755Y58448D01*
X204592Y58337D01*
X204427Y58229D01*
X204259Y58125D01*
X204088Y58026D01*
X203915Y57931D01*
X203739Y57840D01*
X203562Y57753D01*
X203382Y57671D01*
X203201Y57593D01*
X203017Y57519D01*
X202832Y57451D01*
X202645Y57386D01*
X202457Y57327D01*
X202267Y57272D01*
X202076Y57221D01*
X201884Y57176D01*
X201690Y57135D01*
X201496Y57099D01*
X201301Y57067D01*
X201105Y57041D01*
X200909Y57019D01*
X200712Y57002D01*
X200515Y56990D01*
X200318Y56982D01*
X200120Y56980D01*
X199922Y56982D01*
X199725Y56990D01*
X199528Y57002D01*
X199331Y57019D01*
X199135Y57041D01*
X198939Y57067D01*
X198744Y57099D01*
X198550Y57135D01*
X198356Y57176D01*
X198164Y57221D01*
X197973Y57272D01*
X197783Y57327D01*
X197595Y57386D01*
X197408Y57451D01*
X197223Y57519D01*
X197039Y57593D01*
X196858Y57671D01*
X196678Y57753D01*
X196501Y57840D01*
X196325Y57931D01*
X196152Y58026D01*
X195981Y58125D01*
X195813Y58229D01*
X195648Y58337D01*
X195485Y58448D01*
X195325Y58564D01*
X195167Y58684D01*
X195013Y58807D01*
X194862Y58934D01*
X194714Y59065D01*
X194569Y59200D01*
X194428Y59338D01*
X194290Y59479D01*
X194155Y59624D01*
X194024Y59772D01*
X193897Y59923D01*
X193774Y60077D01*
X193654Y60235D01*
X193538Y60395D01*
X193427Y60558D01*
X193319Y60723D01*
X193215Y60891D01*
X193116Y61062D01*
X193021Y61235D01*
X192930Y61411D01*
X192843Y61588D01*
X192761Y61768D01*
X192683Y61949D01*
X192609Y62133D01*
X192541Y62318D01*
X192476Y62505D01*
X192417Y62693D01*
X192362Y62883D01*
X192311Y63074D01*
X192266Y63266D01*
X192225Y63460D01*
X192189Y63654D01*
X192157Y63849D01*
X192131Y64045D01*
X192109Y64241D01*
X192092Y64438D01*
X192080Y64635D01*
X192072Y64832D01*
X192070Y65030D01*
D15*
X191892Y94522D02*
X191892Y101126D01*
X193727Y101126D01*
X193812Y101124D01*
X193896Y101118D01*
X193980Y101108D01*
X194064Y101095D01*
X194147Y101077D01*
X194229Y101056D01*
X194310Y101031D01*
X194390Y101002D01*
X194468Y100970D01*
X194544Y100934D01*
X194619Y100894D01*
X194692Y100851D01*
X194763Y100805D01*
X194832Y100756D01*
X194899Y100703D01*
X194963Y100647D01*
X195024Y100589D01*
X195082Y100528D01*
X195138Y100464D01*
X195191Y100397D01*
X195240Y100328D01*
X195286Y100257D01*
X195329Y100184D01*
X195369Y100109D01*
X195405Y100033D01*
X195437Y99955D01*
X195466Y99875D01*
X195491Y99794D01*
X195512Y99712D01*
X195530Y99629D01*
X195543Y99545D01*
X195553Y99461D01*
X195559Y99377D01*
X195561Y99292D01*
X195559Y99207D01*
X195553Y99123D01*
X195543Y99039D01*
X195530Y98955D01*
X195512Y98872D01*
X195491Y98790D01*
X195466Y98709D01*
X195437Y98629D01*
X195405Y98551D01*
X195369Y98475D01*
X195329Y98400D01*
X195286Y98327D01*
X195240Y98256D01*
X195191Y98187D01*
X195138Y98120D01*
X195082Y98056D01*
X195024Y97995D01*
X194963Y97937D01*
X194899Y97881D01*
X194832Y97828D01*
X194763Y97779D01*
X194692Y97733D01*
X194619Y97690D01*
X194544Y97650D01*
X194468Y97614D01*
X194390Y97582D01*
X194310Y97553D01*
X194229Y97528D01*
X194147Y97507D01*
X194064Y97489D01*
X193980Y97476D01*
X193896Y97466D01*
X193812Y97460D01*
X193727Y97458D01*
X193727Y97457D02*
X191892Y97457D01*
X194094Y97457D02*
X195561Y94522D01*
X201086Y94522D02*
X201160Y94524D01*
X201234Y94530D01*
X201308Y94539D01*
X201381Y94552D01*
X201454Y94569D01*
X201525Y94589D01*
X201596Y94613D01*
X201665Y94641D01*
X201732Y94672D01*
X201798Y94706D01*
X201863Y94744D01*
X201925Y94785D01*
X201985Y94829D01*
X202042Y94876D01*
X202097Y94926D01*
X202150Y94979D01*
X202200Y95034D01*
X202247Y95091D01*
X202291Y95151D01*
X202332Y95213D01*
X202370Y95278D01*
X202404Y95343D01*
X202435Y95411D01*
X202463Y95480D01*
X202487Y95551D01*
X202507Y95622D01*
X202524Y95694D01*
X202537Y95768D01*
X202546Y95841D01*
X202552Y95916D01*
X202554Y95990D01*
X201086Y94522D02*
X200975Y94524D01*
X200864Y94530D01*
X200753Y94540D01*
X200642Y94554D01*
X200533Y94572D01*
X200424Y94594D01*
X200315Y94619D01*
X200208Y94649D01*
X200102Y94682D01*
X199997Y94720D01*
X199894Y94760D01*
X199792Y94805D01*
X199692Y94853D01*
X199593Y94905D01*
X199497Y94960D01*
X199402Y95019D01*
X199310Y95081D01*
X199220Y95147D01*
X199132Y95215D01*
X199047Y95287D01*
X198965Y95362D01*
X198885Y95439D01*
X199068Y99658D02*
X199070Y99732D01*
X199076Y99807D01*
X199085Y99880D01*
X199098Y99954D01*
X199115Y100026D01*
X199135Y100097D01*
X199159Y100168D01*
X199187Y100237D01*
X199218Y100304D01*
X199252Y100370D01*
X199290Y100435D01*
X199331Y100497D01*
X199375Y100557D01*
X199422Y100614D01*
X199472Y100669D01*
X199525Y100722D01*
X199580Y100772D01*
X199637Y100819D01*
X199697Y100863D01*
X199759Y100904D01*
X199824Y100942D01*
X199890Y100976D01*
X199957Y101007D01*
X200026Y101035D01*
X200097Y101059D01*
X200168Y101079D01*
X200240Y101096D01*
X200314Y101109D01*
X200387Y101118D01*
X200462Y101124D01*
X200536Y101126D01*
X200640Y101124D01*
X200744Y101118D01*
X200848Y101108D01*
X200951Y101095D01*
X201054Y101077D01*
X201156Y101055D01*
X201257Y101030D01*
X201357Y101001D01*
X201456Y100968D01*
X201553Y100931D01*
X201649Y100891D01*
X201744Y100847D01*
X201836Y100799D01*
X201927Y100749D01*
X202016Y100694D01*
X202103Y100637D01*
X202187Y100576D01*
X199802Y98373D02*
X199739Y98412D01*
X199679Y98454D01*
X199621Y98499D01*
X199564Y98547D01*
X199511Y98598D01*
X199460Y98651D01*
X199411Y98706D01*
X199366Y98764D01*
X199323Y98824D01*
X199283Y98886D01*
X199247Y98950D01*
X199213Y99016D01*
X199183Y99084D01*
X199156Y99152D01*
X199133Y99222D01*
X199113Y99293D01*
X199097Y99365D01*
X199084Y99438D01*
X199075Y99511D01*
X199070Y99584D01*
X199068Y99658D01*
X201820Y97275D02*
X201883Y97236D01*
X201943Y97194D01*
X202002Y97149D01*
X202058Y97101D01*
X202111Y97050D01*
X202162Y96997D01*
X202211Y96942D01*
X202256Y96884D01*
X202299Y96824D01*
X202339Y96762D01*
X202375Y96698D01*
X202409Y96632D01*
X202439Y96564D01*
X202466Y96496D01*
X202489Y96426D01*
X202509Y96355D01*
X202525Y96283D01*
X202538Y96210D01*
X202547Y96137D01*
X202552Y96064D01*
X202554Y95990D01*
X201820Y97274D02*
X199802Y98374D01*
X207303Y101126D02*
X207303Y94522D01*
X205469Y101126D02*
X209138Y101126D01*
D16*
X173921Y224431D02*
X173921Y231797D01*
X175967Y231797D01*
X176056Y231795D01*
X176145Y231789D01*
X176234Y231779D01*
X176322Y231766D01*
X176410Y231749D01*
X176497Y231727D01*
X176582Y231702D01*
X176667Y231674D01*
X176750Y231641D01*
X176832Y231605D01*
X176912Y231566D01*
X176990Y231523D01*
X177066Y231477D01*
X177141Y231427D01*
X177213Y231374D01*
X177282Y231318D01*
X177349Y231259D01*
X177414Y231198D01*
X177475Y231133D01*
X177534Y231066D01*
X177590Y230997D01*
X177643Y230925D01*
X177693Y230850D01*
X177739Y230774D01*
X177782Y230696D01*
X177821Y230616D01*
X177857Y230534D01*
X177890Y230451D01*
X177918Y230366D01*
X177943Y230281D01*
X177965Y230194D01*
X177982Y230106D01*
X177995Y230018D01*
X178005Y229929D01*
X178011Y229840D01*
X178013Y229751D01*
X178011Y229662D01*
X178005Y229573D01*
X177995Y229484D01*
X177982Y229396D01*
X177965Y229308D01*
X177943Y229221D01*
X177918Y229136D01*
X177890Y229051D01*
X177857Y228968D01*
X177821Y228886D01*
X177782Y228806D01*
X177739Y228728D01*
X177693Y228652D01*
X177643Y228577D01*
X177590Y228505D01*
X177534Y228436D01*
X177475Y228369D01*
X177414Y228304D01*
X177349Y228243D01*
X177282Y228184D01*
X177213Y228128D01*
X177141Y228075D01*
X177066Y228025D01*
X176990Y227979D01*
X176912Y227936D01*
X176832Y227897D01*
X176750Y227861D01*
X176667Y227828D01*
X176582Y227800D01*
X176497Y227775D01*
X176410Y227753D01*
X176322Y227736D01*
X176234Y227723D01*
X176145Y227713D01*
X176056Y227707D01*
X175967Y227705D01*
X173921Y227705D01*
X176376Y227705D02*
X178013Y224431D01*
X185278Y229956D02*
X185276Y230041D01*
X185270Y230126D01*
X185260Y230210D01*
X185247Y230294D01*
X185229Y230378D01*
X185208Y230460D01*
X185183Y230541D01*
X185154Y230621D01*
X185121Y230700D01*
X185085Y230777D01*
X185045Y230852D01*
X185002Y230926D01*
X184956Y230997D01*
X184906Y231066D01*
X184853Y231133D01*
X184797Y231197D01*
X184738Y231258D01*
X184677Y231317D01*
X184613Y231373D01*
X184546Y231426D01*
X184477Y231476D01*
X184406Y231522D01*
X184332Y231565D01*
X184257Y231605D01*
X184180Y231641D01*
X184101Y231674D01*
X184021Y231703D01*
X183940Y231728D01*
X183858Y231749D01*
X183774Y231767D01*
X183690Y231780D01*
X183606Y231790D01*
X183521Y231796D01*
X183436Y231798D01*
X183436Y231797D02*
X183340Y231795D01*
X183244Y231789D01*
X183149Y231779D01*
X183054Y231766D01*
X182959Y231748D01*
X182866Y231727D01*
X182773Y231702D01*
X182682Y231673D01*
X182591Y231641D01*
X182502Y231605D01*
X182415Y231565D01*
X182329Y231522D01*
X182245Y231476D01*
X182163Y231426D01*
X182083Y231372D01*
X182006Y231316D01*
X181931Y231256D01*
X181858Y231194D01*
X181788Y231128D01*
X181720Y231060D01*
X181655Y230989D01*
X181594Y230916D01*
X181535Y230840D01*
X181479Y230761D01*
X181427Y230681D01*
X181378Y230598D01*
X181332Y230514D01*
X181290Y230428D01*
X181252Y230340D01*
X181217Y230251D01*
X181185Y230160D01*
X184663Y228524D02*
X184723Y228583D01*
X184780Y228645D01*
X184835Y228709D01*
X184886Y228776D01*
X184935Y228845D01*
X184981Y228915D01*
X185024Y228988D01*
X185064Y229062D01*
X185100Y229138D01*
X185133Y229216D01*
X185163Y229295D01*
X185190Y229375D01*
X185213Y229456D01*
X185232Y229538D01*
X185248Y229620D01*
X185261Y229704D01*
X185270Y229788D01*
X185275Y229872D01*
X185277Y229956D01*
X184663Y228523D02*
X181185Y224431D01*
X185277Y224431D01*
X74096Y111697D02*
X74096Y104331D01*
X74096Y111697D02*
X76142Y111697D01*
X76231Y111695D01*
X76320Y111689D01*
X76409Y111679D01*
X76497Y111666D01*
X76585Y111649D01*
X76672Y111627D01*
X76757Y111602D01*
X76842Y111574D01*
X76925Y111541D01*
X77007Y111505D01*
X77087Y111466D01*
X77165Y111423D01*
X77241Y111377D01*
X77316Y111327D01*
X77388Y111274D01*
X77457Y111218D01*
X77524Y111159D01*
X77589Y111098D01*
X77650Y111033D01*
X77709Y110966D01*
X77765Y110897D01*
X77818Y110825D01*
X77868Y110750D01*
X77914Y110674D01*
X77957Y110596D01*
X77996Y110516D01*
X78032Y110434D01*
X78065Y110351D01*
X78093Y110266D01*
X78118Y110181D01*
X78140Y110094D01*
X78157Y110006D01*
X78170Y109918D01*
X78180Y109829D01*
X78186Y109740D01*
X78188Y109651D01*
X78186Y109562D01*
X78180Y109473D01*
X78170Y109384D01*
X78157Y109296D01*
X78140Y109208D01*
X78118Y109121D01*
X78093Y109036D01*
X78065Y108951D01*
X78032Y108868D01*
X77996Y108786D01*
X77957Y108706D01*
X77914Y108628D01*
X77868Y108552D01*
X77818Y108477D01*
X77765Y108405D01*
X77709Y108336D01*
X77650Y108269D01*
X77589Y108204D01*
X77524Y108143D01*
X77457Y108084D01*
X77388Y108028D01*
X77316Y107975D01*
X77241Y107925D01*
X77165Y107879D01*
X77087Y107836D01*
X77007Y107797D01*
X76925Y107761D01*
X76842Y107728D01*
X76757Y107700D01*
X76672Y107675D01*
X76585Y107653D01*
X76497Y107636D01*
X76409Y107623D01*
X76320Y107613D01*
X76231Y107607D01*
X76142Y107605D01*
X74096Y107605D01*
X76551Y107605D02*
X78188Y104331D01*
X81360Y105968D02*
X82997Y111697D01*
X81360Y105968D02*
X85452Y105968D01*
X84225Y107605D02*
X84225Y104331D01*
X76138Y122918D02*
X76138Y130284D01*
X78184Y130284D01*
X78273Y130282D01*
X78362Y130276D01*
X78451Y130266D01*
X78539Y130253D01*
X78627Y130236D01*
X78714Y130214D01*
X78799Y130189D01*
X78884Y130161D01*
X78967Y130128D01*
X79049Y130092D01*
X79129Y130053D01*
X79207Y130010D01*
X79283Y129964D01*
X79358Y129914D01*
X79430Y129861D01*
X79499Y129805D01*
X79566Y129746D01*
X79631Y129685D01*
X79692Y129620D01*
X79751Y129553D01*
X79807Y129484D01*
X79860Y129412D01*
X79910Y129337D01*
X79956Y129261D01*
X79999Y129183D01*
X80038Y129103D01*
X80074Y129021D01*
X80107Y128938D01*
X80135Y128853D01*
X80160Y128768D01*
X80182Y128681D01*
X80199Y128593D01*
X80212Y128505D01*
X80222Y128416D01*
X80228Y128327D01*
X80230Y128238D01*
X80228Y128149D01*
X80222Y128060D01*
X80212Y127971D01*
X80199Y127883D01*
X80182Y127795D01*
X80160Y127708D01*
X80135Y127623D01*
X80107Y127538D01*
X80074Y127455D01*
X80038Y127373D01*
X79999Y127293D01*
X79956Y127215D01*
X79910Y127139D01*
X79860Y127064D01*
X79807Y126992D01*
X79751Y126923D01*
X79692Y126856D01*
X79631Y126791D01*
X79566Y126730D01*
X79499Y126671D01*
X79430Y126615D01*
X79358Y126562D01*
X79283Y126512D01*
X79207Y126466D01*
X79129Y126423D01*
X79049Y126384D01*
X78967Y126348D01*
X78884Y126315D01*
X78799Y126287D01*
X78714Y126262D01*
X78627Y126240D01*
X78539Y126223D01*
X78451Y126210D01*
X78362Y126200D01*
X78273Y126194D01*
X78184Y126192D01*
X76138Y126192D01*
X78593Y126192D02*
X80230Y122918D01*
X83402Y127010D02*
X85857Y127010D01*
X85935Y127008D01*
X86013Y127003D01*
X86090Y126993D01*
X86167Y126980D01*
X86243Y126964D01*
X86318Y126944D01*
X86392Y126920D01*
X86465Y126893D01*
X86537Y126862D01*
X86607Y126828D01*
X86676Y126791D01*
X86742Y126750D01*
X86807Y126706D01*
X86869Y126660D01*
X86929Y126610D01*
X86987Y126558D01*
X87042Y126503D01*
X87094Y126445D01*
X87144Y126385D01*
X87190Y126323D01*
X87234Y126258D01*
X87275Y126192D01*
X87312Y126123D01*
X87346Y126053D01*
X87377Y125981D01*
X87404Y125908D01*
X87428Y125834D01*
X87448Y125759D01*
X87464Y125683D01*
X87477Y125606D01*
X87487Y125529D01*
X87492Y125451D01*
X87494Y125373D01*
X87494Y124964D01*
X87492Y124875D01*
X87486Y124786D01*
X87476Y124697D01*
X87463Y124609D01*
X87446Y124521D01*
X87424Y124434D01*
X87399Y124349D01*
X87371Y124264D01*
X87338Y124181D01*
X87302Y124099D01*
X87263Y124019D01*
X87220Y123941D01*
X87174Y123865D01*
X87124Y123790D01*
X87071Y123718D01*
X87015Y123649D01*
X86956Y123582D01*
X86895Y123517D01*
X86830Y123456D01*
X86763Y123397D01*
X86694Y123341D01*
X86622Y123288D01*
X86547Y123238D01*
X86471Y123192D01*
X86393Y123149D01*
X86313Y123110D01*
X86231Y123074D01*
X86148Y123041D01*
X86063Y123013D01*
X85978Y122988D01*
X85891Y122966D01*
X85803Y122949D01*
X85715Y122936D01*
X85626Y122926D01*
X85537Y122920D01*
X85448Y122918D01*
X85359Y122920D01*
X85270Y122926D01*
X85181Y122936D01*
X85093Y122949D01*
X85005Y122966D01*
X84918Y122988D01*
X84833Y123013D01*
X84748Y123041D01*
X84665Y123074D01*
X84583Y123110D01*
X84503Y123149D01*
X84425Y123192D01*
X84349Y123238D01*
X84274Y123288D01*
X84202Y123341D01*
X84133Y123397D01*
X84066Y123456D01*
X84001Y123517D01*
X83940Y123582D01*
X83881Y123649D01*
X83825Y123718D01*
X83772Y123790D01*
X83722Y123865D01*
X83676Y123941D01*
X83633Y124019D01*
X83594Y124099D01*
X83558Y124181D01*
X83525Y124264D01*
X83497Y124349D01*
X83472Y124434D01*
X83450Y124521D01*
X83433Y124609D01*
X83420Y124697D01*
X83410Y124786D01*
X83404Y124875D01*
X83402Y124964D01*
X83402Y127010D01*
X83404Y127124D01*
X83410Y127238D01*
X83420Y127352D01*
X83434Y127466D01*
X83452Y127579D01*
X83474Y127691D01*
X83499Y127802D01*
X83529Y127912D01*
X83562Y128022D01*
X83599Y128130D01*
X83640Y128236D01*
X83685Y128342D01*
X83733Y128445D01*
X83785Y128547D01*
X83841Y128647D01*
X83899Y128745D01*
X83962Y128841D01*
X84027Y128934D01*
X84096Y129026D01*
X84168Y129114D01*
X84243Y129201D01*
X84321Y129284D01*
X84402Y129365D01*
X84485Y129443D01*
X84572Y129518D01*
X84660Y129590D01*
X84752Y129659D01*
X84845Y129724D01*
X84941Y129786D01*
X85039Y129845D01*
X85139Y129901D01*
X85241Y129953D01*
X85344Y130001D01*
X85450Y130046D01*
X85556Y130087D01*
X85664Y130124D01*
X85774Y130157D01*
X85884Y130187D01*
X85995Y130212D01*
X86107Y130234D01*
X86220Y130252D01*
X86334Y130266D01*
X86448Y130276D01*
X86562Y130282D01*
X86676Y130284D01*
X164166Y132697D02*
X164166Y125331D01*
X164166Y132697D02*
X166212Y132697D01*
X166301Y132695D01*
X166390Y132689D01*
X166479Y132679D01*
X166567Y132666D01*
X166655Y132649D01*
X166742Y132627D01*
X166827Y132602D01*
X166912Y132574D01*
X166995Y132541D01*
X167077Y132505D01*
X167157Y132466D01*
X167235Y132423D01*
X167311Y132377D01*
X167386Y132327D01*
X167458Y132274D01*
X167527Y132218D01*
X167594Y132159D01*
X167659Y132098D01*
X167720Y132033D01*
X167779Y131966D01*
X167835Y131897D01*
X167888Y131825D01*
X167938Y131750D01*
X167984Y131674D01*
X168027Y131596D01*
X168066Y131516D01*
X168102Y131434D01*
X168135Y131351D01*
X168163Y131266D01*
X168188Y131181D01*
X168210Y131094D01*
X168227Y131006D01*
X168240Y130918D01*
X168250Y130829D01*
X168256Y130740D01*
X168258Y130651D01*
X168256Y130562D01*
X168250Y130473D01*
X168240Y130384D01*
X168227Y130296D01*
X168210Y130208D01*
X168188Y130121D01*
X168163Y130036D01*
X168135Y129951D01*
X168102Y129868D01*
X168066Y129786D01*
X168027Y129706D01*
X167984Y129628D01*
X167938Y129552D01*
X167888Y129477D01*
X167835Y129405D01*
X167779Y129336D01*
X167720Y129269D01*
X167659Y129204D01*
X167594Y129143D01*
X167527Y129084D01*
X167458Y129028D01*
X167386Y128975D01*
X167311Y128925D01*
X167235Y128879D01*
X167157Y128836D01*
X167077Y128797D01*
X166995Y128761D01*
X166912Y128728D01*
X166827Y128700D01*
X166742Y128675D01*
X166655Y128653D01*
X166567Y128636D01*
X166479Y128623D01*
X166390Y128613D01*
X166301Y128607D01*
X166212Y128605D01*
X164166Y128605D01*
X166621Y128605D02*
X168258Y125331D01*
X171430Y131879D02*
X171430Y132697D01*
X175522Y132697D01*
X173476Y125331D01*
D10*
X171589Y169310D02*
X170008Y169310D01*
X169930Y169312D01*
X169853Y169318D01*
X169776Y169327D01*
X169700Y169340D01*
X169624Y169357D01*
X169549Y169378D01*
X169476Y169402D01*
X169403Y169430D01*
X169332Y169462D01*
X169263Y169497D01*
X169196Y169535D01*
X169130Y169576D01*
X169067Y169621D01*
X169006Y169669D01*
X168947Y169719D01*
X168891Y169773D01*
X168837Y169829D01*
X168787Y169888D01*
X168739Y169949D01*
X168694Y170012D01*
X168653Y170078D01*
X168615Y170145D01*
X168580Y170214D01*
X168548Y170285D01*
X168520Y170358D01*
X168496Y170431D01*
X168475Y170506D01*
X168458Y170582D01*
X168445Y170658D01*
X168436Y170735D01*
X168430Y170812D01*
X168428Y170890D01*
X168428Y174842D01*
X168430Y174920D01*
X168436Y174997D01*
X168445Y175074D01*
X168458Y175150D01*
X168475Y175226D01*
X168496Y175301D01*
X168520Y175374D01*
X168548Y175447D01*
X168580Y175518D01*
X168615Y175587D01*
X168653Y175654D01*
X168694Y175720D01*
X168739Y175783D01*
X168787Y175844D01*
X168837Y175903D01*
X168891Y175959D01*
X168947Y176013D01*
X169006Y176063D01*
X169067Y176111D01*
X169130Y176156D01*
X169196Y176197D01*
X169263Y176235D01*
X169332Y176270D01*
X169403Y176302D01*
X169476Y176330D01*
X169549Y176354D01*
X169624Y176375D01*
X169700Y176392D01*
X169776Y176405D01*
X169853Y176414D01*
X169930Y176420D01*
X170008Y176422D01*
X171589Y176422D01*
X176132Y176422D02*
X174551Y170890D01*
X178502Y170890D01*
X177317Y172471D02*
X177317Y169310D01*
D16*
X152161Y169236D02*
X152161Y176602D01*
X154207Y176602D01*
X154296Y176600D01*
X154385Y176594D01*
X154474Y176584D01*
X154562Y176571D01*
X154650Y176554D01*
X154737Y176532D01*
X154822Y176507D01*
X154907Y176479D01*
X154990Y176446D01*
X155072Y176410D01*
X155152Y176371D01*
X155230Y176328D01*
X155306Y176282D01*
X155381Y176232D01*
X155453Y176179D01*
X155522Y176123D01*
X155589Y176064D01*
X155654Y176003D01*
X155715Y175938D01*
X155774Y175871D01*
X155830Y175802D01*
X155883Y175730D01*
X155933Y175655D01*
X155979Y175579D01*
X156022Y175501D01*
X156061Y175421D01*
X156097Y175339D01*
X156130Y175256D01*
X156158Y175171D01*
X156183Y175086D01*
X156205Y174999D01*
X156222Y174911D01*
X156235Y174823D01*
X156245Y174734D01*
X156251Y174645D01*
X156253Y174556D01*
X156251Y174467D01*
X156245Y174378D01*
X156235Y174289D01*
X156222Y174201D01*
X156205Y174113D01*
X156183Y174026D01*
X156158Y173941D01*
X156130Y173856D01*
X156097Y173773D01*
X156061Y173691D01*
X156022Y173611D01*
X155979Y173533D01*
X155933Y173457D01*
X155883Y173382D01*
X155830Y173310D01*
X155774Y173241D01*
X155715Y173174D01*
X155654Y173109D01*
X155589Y173048D01*
X155522Y172989D01*
X155453Y172933D01*
X155381Y172880D01*
X155306Y172830D01*
X155230Y172784D01*
X155152Y172741D01*
X155072Y172702D01*
X154990Y172666D01*
X154907Y172633D01*
X154822Y172605D01*
X154737Y172580D01*
X154650Y172558D01*
X154562Y172541D01*
X154474Y172528D01*
X154385Y172518D01*
X154296Y172512D01*
X154207Y172510D01*
X152161Y172510D01*
X154616Y172510D02*
X156253Y169236D01*
X159425Y171282D02*
X159427Y171371D01*
X159433Y171460D01*
X159443Y171549D01*
X159456Y171637D01*
X159473Y171725D01*
X159495Y171812D01*
X159520Y171897D01*
X159548Y171982D01*
X159581Y172065D01*
X159617Y172147D01*
X159656Y172227D01*
X159699Y172305D01*
X159745Y172381D01*
X159795Y172456D01*
X159848Y172528D01*
X159904Y172597D01*
X159963Y172664D01*
X160024Y172729D01*
X160089Y172790D01*
X160156Y172849D01*
X160225Y172905D01*
X160297Y172958D01*
X160372Y173008D01*
X160448Y173054D01*
X160526Y173097D01*
X160606Y173136D01*
X160688Y173172D01*
X160771Y173205D01*
X160856Y173233D01*
X160941Y173258D01*
X161028Y173280D01*
X161116Y173297D01*
X161204Y173310D01*
X161293Y173320D01*
X161382Y173326D01*
X161471Y173328D01*
X161560Y173326D01*
X161649Y173320D01*
X161738Y173310D01*
X161826Y173297D01*
X161914Y173280D01*
X162001Y173258D01*
X162086Y173233D01*
X162171Y173205D01*
X162254Y173172D01*
X162336Y173136D01*
X162416Y173097D01*
X162494Y173054D01*
X162570Y173008D01*
X162645Y172958D01*
X162717Y172905D01*
X162786Y172849D01*
X162853Y172790D01*
X162918Y172729D01*
X162979Y172664D01*
X163038Y172597D01*
X163094Y172528D01*
X163147Y172456D01*
X163197Y172381D01*
X163243Y172305D01*
X163286Y172227D01*
X163325Y172147D01*
X163361Y172065D01*
X163394Y171982D01*
X163422Y171897D01*
X163447Y171812D01*
X163469Y171725D01*
X163486Y171637D01*
X163499Y171549D01*
X163509Y171460D01*
X163515Y171371D01*
X163517Y171282D01*
X163515Y171193D01*
X163509Y171104D01*
X163499Y171015D01*
X163486Y170927D01*
X163469Y170839D01*
X163447Y170752D01*
X163422Y170667D01*
X163394Y170582D01*
X163361Y170499D01*
X163325Y170417D01*
X163286Y170337D01*
X163243Y170259D01*
X163197Y170183D01*
X163147Y170108D01*
X163094Y170036D01*
X163038Y169967D01*
X162979Y169900D01*
X162918Y169835D01*
X162853Y169774D01*
X162786Y169715D01*
X162717Y169659D01*
X162645Y169606D01*
X162570Y169556D01*
X162494Y169510D01*
X162416Y169467D01*
X162336Y169428D01*
X162254Y169392D01*
X162171Y169359D01*
X162086Y169331D01*
X162001Y169306D01*
X161914Y169284D01*
X161826Y169267D01*
X161738Y169254D01*
X161649Y169244D01*
X161560Y169238D01*
X161471Y169236D01*
X161382Y169238D01*
X161293Y169244D01*
X161204Y169254D01*
X161116Y169267D01*
X161028Y169284D01*
X160941Y169306D01*
X160856Y169331D01*
X160771Y169359D01*
X160688Y169392D01*
X160606Y169428D01*
X160526Y169467D01*
X160448Y169510D01*
X160372Y169556D01*
X160297Y169606D01*
X160225Y169659D01*
X160156Y169715D01*
X160089Y169774D01*
X160024Y169835D01*
X159963Y169900D01*
X159904Y169967D01*
X159848Y170036D01*
X159795Y170108D01*
X159745Y170183D01*
X159699Y170259D01*
X159656Y170337D01*
X159617Y170417D01*
X159581Y170499D01*
X159548Y170582D01*
X159520Y170667D01*
X159495Y170752D01*
X159473Y170839D01*
X159456Y170927D01*
X159443Y171015D01*
X159433Y171104D01*
X159427Y171193D01*
X159425Y171282D01*
X159834Y174965D02*
X159836Y175044D01*
X159842Y175123D01*
X159851Y175202D01*
X159864Y175280D01*
X159882Y175357D01*
X159902Y175433D01*
X159927Y175508D01*
X159955Y175582D01*
X159986Y175655D01*
X160022Y175726D01*
X160060Y175795D01*
X160102Y175862D01*
X160147Y175927D01*
X160195Y175990D01*
X160246Y176051D01*
X160300Y176108D01*
X160356Y176164D01*
X160415Y176216D01*
X160477Y176266D01*
X160541Y176312D01*
X160607Y176356D01*
X160675Y176396D01*
X160745Y176432D01*
X160817Y176466D01*
X160891Y176496D01*
X160965Y176522D01*
X161041Y176545D01*
X161118Y176563D01*
X161195Y176579D01*
X161274Y176590D01*
X161352Y176598D01*
X161431Y176602D01*
X161511Y176602D01*
X161590Y176598D01*
X161668Y176590D01*
X161747Y176579D01*
X161824Y176563D01*
X161901Y176545D01*
X161977Y176522D01*
X162051Y176496D01*
X162125Y176466D01*
X162197Y176432D01*
X162267Y176396D01*
X162335Y176356D01*
X162401Y176312D01*
X162465Y176266D01*
X162527Y176216D01*
X162586Y176164D01*
X162642Y176108D01*
X162696Y176051D01*
X162747Y175990D01*
X162795Y175927D01*
X162840Y175862D01*
X162882Y175795D01*
X162920Y175726D01*
X162956Y175655D01*
X162987Y175582D01*
X163015Y175508D01*
X163040Y175433D01*
X163060Y175357D01*
X163078Y175280D01*
X163091Y175202D01*
X163100Y175123D01*
X163106Y175044D01*
X163108Y174965D01*
X163106Y174886D01*
X163100Y174807D01*
X163091Y174728D01*
X163078Y174650D01*
X163060Y174573D01*
X163040Y174497D01*
X163015Y174422D01*
X162987Y174348D01*
X162956Y174275D01*
X162920Y174204D01*
X162882Y174135D01*
X162840Y174068D01*
X162795Y174003D01*
X162747Y173940D01*
X162696Y173879D01*
X162642Y173822D01*
X162586Y173766D01*
X162527Y173714D01*
X162465Y173664D01*
X162401Y173618D01*
X162335Y173574D01*
X162267Y173534D01*
X162197Y173498D01*
X162125Y173464D01*
X162051Y173434D01*
X161977Y173408D01*
X161901Y173385D01*
X161824Y173367D01*
X161747Y173351D01*
X161668Y173340D01*
X161590Y173332D01*
X161511Y173328D01*
X161431Y173328D01*
X161352Y173332D01*
X161274Y173340D01*
X161195Y173351D01*
X161118Y173367D01*
X161041Y173385D01*
X160965Y173408D01*
X160891Y173434D01*
X160817Y173464D01*
X160745Y173498D01*
X160675Y173534D01*
X160607Y173574D01*
X160541Y173618D01*
X160477Y173664D01*
X160415Y173714D01*
X160356Y173766D01*
X160300Y173822D01*
X160246Y173879D01*
X160195Y173940D01*
X160147Y174003D01*
X160102Y174068D01*
X160060Y174135D01*
X160022Y174204D01*
X159986Y174275D01*
X159955Y174348D01*
X159927Y174422D01*
X159902Y174497D01*
X159882Y174573D01*
X159864Y174650D01*
X159851Y174728D01*
X159842Y174807D01*
X159836Y174886D01*
X159834Y174965D01*
D12*
X63340Y173765D02*
X49740Y173765D01*
X49740Y150365D02*
X63340Y150365D01*
D17*
X49780Y174145D02*
X49782Y174208D01*
X49788Y174270D01*
X49798Y174332D01*
X49811Y174394D01*
X49829Y174454D01*
X49850Y174513D01*
X49875Y174571D01*
X49904Y174627D01*
X49936Y174681D01*
X49971Y174733D01*
X50009Y174782D01*
X50051Y174830D01*
X50095Y174874D01*
X50143Y174916D01*
X50192Y174954D01*
X50244Y174989D01*
X50298Y175021D01*
X50354Y175050D01*
X50412Y175075D01*
X50471Y175096D01*
X50531Y175114D01*
X50593Y175127D01*
X50655Y175137D01*
X50717Y175143D01*
X50780Y175145D01*
X50843Y175143D01*
X50905Y175137D01*
X50967Y175127D01*
X51029Y175114D01*
X51089Y175096D01*
X51148Y175075D01*
X51206Y175050D01*
X51262Y175021D01*
X51316Y174989D01*
X51368Y174954D01*
X51417Y174916D01*
X51465Y174874D01*
X51509Y174830D01*
X51551Y174782D01*
X51589Y174733D01*
X51624Y174681D01*
X51656Y174627D01*
X51685Y174571D01*
X51710Y174513D01*
X51731Y174454D01*
X51749Y174394D01*
X51762Y174332D01*
X51772Y174270D01*
X51778Y174208D01*
X51780Y174145D01*
X51778Y174082D01*
X51772Y174020D01*
X51762Y173958D01*
X51749Y173896D01*
X51731Y173836D01*
X51710Y173777D01*
X51685Y173719D01*
X51656Y173663D01*
X51624Y173609D01*
X51589Y173557D01*
X51551Y173508D01*
X51509Y173460D01*
X51465Y173416D01*
X51417Y173374D01*
X51368Y173336D01*
X51316Y173301D01*
X51262Y173269D01*
X51206Y173240D01*
X51148Y173215D01*
X51089Y173194D01*
X51029Y173176D01*
X50967Y173163D01*
X50905Y173153D01*
X50843Y173147D01*
X50780Y173145D01*
X50717Y173147D01*
X50655Y173153D01*
X50593Y173163D01*
X50531Y173176D01*
X50471Y173194D01*
X50412Y173215D01*
X50354Y173240D01*
X50298Y173269D01*
X50244Y173301D01*
X50192Y173336D01*
X50143Y173374D01*
X50095Y173416D01*
X50051Y173460D01*
X50009Y173508D01*
X49971Y173557D01*
X49936Y173609D01*
X49904Y173663D01*
X49875Y173719D01*
X49850Y173777D01*
X49829Y173836D01*
X49811Y173896D01*
X49798Y173958D01*
X49788Y174020D01*
X49782Y174082D01*
X49780Y174145D01*
D16*
X165296Y111252D02*
X165296Y103886D01*
X165296Y111252D02*
X167342Y111252D01*
X167431Y111250D01*
X167520Y111244D01*
X167609Y111234D01*
X167697Y111221D01*
X167785Y111204D01*
X167872Y111182D01*
X167957Y111157D01*
X168042Y111129D01*
X168125Y111096D01*
X168207Y111060D01*
X168287Y111021D01*
X168365Y110978D01*
X168441Y110932D01*
X168516Y110882D01*
X168588Y110829D01*
X168657Y110773D01*
X168724Y110714D01*
X168789Y110653D01*
X168850Y110588D01*
X168909Y110521D01*
X168965Y110452D01*
X169018Y110380D01*
X169068Y110305D01*
X169114Y110229D01*
X169157Y110151D01*
X169196Y110071D01*
X169232Y109989D01*
X169265Y109906D01*
X169293Y109821D01*
X169318Y109736D01*
X169340Y109649D01*
X169357Y109561D01*
X169370Y109473D01*
X169380Y109384D01*
X169386Y109295D01*
X169388Y109206D01*
X169386Y109117D01*
X169380Y109028D01*
X169370Y108939D01*
X169357Y108851D01*
X169340Y108763D01*
X169318Y108676D01*
X169293Y108591D01*
X169265Y108506D01*
X169232Y108423D01*
X169196Y108341D01*
X169157Y108261D01*
X169114Y108183D01*
X169068Y108107D01*
X169018Y108032D01*
X168965Y107960D01*
X168909Y107891D01*
X168850Y107824D01*
X168789Y107759D01*
X168724Y107698D01*
X168657Y107639D01*
X168588Y107583D01*
X168516Y107530D01*
X168441Y107480D01*
X168365Y107434D01*
X168287Y107391D01*
X168207Y107352D01*
X168125Y107316D01*
X168042Y107283D01*
X167957Y107255D01*
X167872Y107230D01*
X167785Y107208D01*
X167697Y107191D01*
X167609Y107178D01*
X167520Y107168D01*
X167431Y107162D01*
X167342Y107160D01*
X165296Y107160D01*
X167751Y107160D02*
X169388Y103886D01*
X172560Y109615D02*
X174606Y111252D01*
X174606Y103886D01*
X172560Y103886D02*
X176652Y103886D01*
X179876Y107569D02*
X179878Y107722D01*
X179884Y107875D01*
X179893Y108027D01*
X179907Y108180D01*
X179924Y108332D01*
X179945Y108483D01*
X179970Y108634D01*
X179999Y108784D01*
X180031Y108934D01*
X180068Y109082D01*
X180108Y109230D01*
X180151Y109377D01*
X180199Y109522D01*
X180250Y109666D01*
X180304Y109809D01*
X180363Y109951D01*
X180424Y110090D01*
X180490Y110229D01*
X180489Y110229D02*
X180515Y110299D01*
X180545Y110369D01*
X180578Y110436D01*
X180614Y110502D01*
X180653Y110566D01*
X180696Y110628D01*
X180742Y110687D01*
X180790Y110745D01*
X180841Y110799D01*
X180895Y110852D01*
X180952Y110901D01*
X181011Y110948D01*
X181072Y110991D01*
X181135Y111032D01*
X181200Y111069D01*
X181267Y111104D01*
X181336Y111134D01*
X181406Y111162D01*
X181477Y111185D01*
X181549Y111206D01*
X181622Y111222D01*
X181696Y111235D01*
X181771Y111245D01*
X181846Y111250D01*
X181921Y111252D01*
X181996Y111250D01*
X182071Y111245D01*
X182146Y111235D01*
X182220Y111222D01*
X182293Y111206D01*
X182365Y111185D01*
X182436Y111162D01*
X182506Y111134D01*
X182575Y111104D01*
X182642Y111069D01*
X182707Y111032D01*
X182770Y110991D01*
X182831Y110948D01*
X182890Y110901D01*
X182947Y110852D01*
X183001Y110799D01*
X183052Y110745D01*
X183101Y110687D01*
X183146Y110628D01*
X183189Y110566D01*
X183228Y110502D01*
X183265Y110436D01*
X183297Y110368D01*
X183327Y110299D01*
X183353Y110229D01*
X183418Y110091D01*
X183480Y109951D01*
X183538Y109809D01*
X183593Y109666D01*
X183644Y109522D01*
X183692Y109377D01*
X183735Y109230D01*
X183775Y109083D01*
X183812Y108934D01*
X183844Y108784D01*
X183873Y108634D01*
X183898Y108483D01*
X183919Y108332D01*
X183936Y108180D01*
X183950Y108027D01*
X183959Y107875D01*
X183965Y107722D01*
X183967Y107569D01*
X179875Y107569D02*
X179877Y107416D01*
X179883Y107263D01*
X179892Y107110D01*
X179906Y106958D01*
X179923Y106806D01*
X179944Y106655D01*
X179969Y106504D01*
X179998Y106353D01*
X180030Y106204D01*
X180067Y106055D01*
X180107Y105908D01*
X180150Y105761D01*
X180198Y105616D01*
X180249Y105471D01*
X180304Y105329D01*
X180362Y105187D01*
X180424Y105047D01*
X180489Y104909D01*
X180515Y104838D01*
X180545Y104769D01*
X180578Y104702D01*
X180614Y104636D01*
X180653Y104572D01*
X180696Y104510D01*
X180742Y104451D01*
X180790Y104393D01*
X180841Y104339D01*
X180895Y104286D01*
X180952Y104237D01*
X181011Y104190D01*
X181072Y104147D01*
X181135Y104106D01*
X181200Y104069D01*
X181267Y104034D01*
X181336Y104004D01*
X181406Y103976D01*
X181477Y103953D01*
X181549Y103932D01*
X181622Y103916D01*
X181696Y103903D01*
X181771Y103893D01*
X181846Y103888D01*
X181921Y103886D01*
X183353Y104909D02*
X183418Y105047D01*
X183480Y105187D01*
X183538Y105329D01*
X183593Y105472D01*
X183644Y105616D01*
X183692Y105761D01*
X183735Y105908D01*
X183775Y106056D01*
X183812Y106204D01*
X183844Y106354D01*
X183873Y106504D01*
X183898Y106655D01*
X183919Y106806D01*
X183936Y106958D01*
X183950Y107111D01*
X183959Y107263D01*
X183965Y107416D01*
X183967Y107569D01*
X183353Y104909D02*
X183327Y104839D01*
X183297Y104769D01*
X183265Y104702D01*
X183228Y104636D01*
X183189Y104572D01*
X183146Y104510D01*
X183100Y104451D01*
X183052Y104393D01*
X183001Y104339D01*
X182947Y104286D01*
X182890Y104237D01*
X182831Y104190D01*
X182770Y104147D01*
X182707Y104106D01*
X182642Y104069D01*
X182575Y104034D01*
X182506Y104004D01*
X182436Y103976D01*
X182365Y103953D01*
X182293Y103932D01*
X182220Y103916D01*
X182146Y103903D01*
X182071Y103893D01*
X181996Y103888D01*
X181921Y103886D01*
X180284Y105523D02*
X183558Y109615D01*
D12*
X212450Y270670D02*
X42270Y270670D01*
X42270Y505620D01*
X212450Y505620D01*
X213085Y505620D02*
X213085Y270670D01*
D18*
X74020Y459900D02*
X74020Y495460D01*
X90530Y495460D02*
X90530Y459900D01*
X105770Y459900D02*
X105770Y495460D01*
X121010Y495460D02*
X121010Y459900D01*
X136250Y459900D02*
X136250Y495460D01*
X151490Y495460D02*
X151490Y459900D01*
X166730Y459900D02*
X166730Y495460D01*
X181970Y495460D02*
X181970Y459900D01*
D12*
X166730Y453550D02*
X90530Y453550D01*
X90530Y449740D02*
X166730Y449740D01*
X166815Y449742D01*
X166901Y449748D01*
X166986Y449757D01*
X167070Y449771D01*
X167154Y449788D01*
X167237Y449809D01*
X167319Y449833D01*
X167399Y449861D01*
X167479Y449893D01*
X167557Y449929D01*
X167633Y449967D01*
X167707Y450010D01*
X167779Y450055D01*
X167850Y450104D01*
X167918Y450156D01*
X167983Y450210D01*
X168046Y450268D01*
X168107Y450329D01*
X168165Y450392D01*
X168219Y450457D01*
X168271Y450525D01*
X168320Y450596D01*
X168365Y450668D01*
X168408Y450742D01*
X168446Y450818D01*
X168482Y450896D01*
X168514Y450976D01*
X168542Y451056D01*
X168566Y451138D01*
X168587Y451221D01*
X168604Y451305D01*
X168618Y451389D01*
X168627Y451474D01*
X168633Y451560D01*
X168635Y451645D01*
X168633Y451730D01*
X168627Y451816D01*
X168618Y451901D01*
X168604Y451985D01*
X168587Y452069D01*
X168566Y452152D01*
X168542Y452234D01*
X168514Y452314D01*
X168482Y452394D01*
X168446Y452472D01*
X168408Y452548D01*
X168365Y452622D01*
X168320Y452694D01*
X168271Y452765D01*
X168219Y452833D01*
X168165Y452898D01*
X168107Y452961D01*
X168046Y453022D01*
X167983Y453080D01*
X167918Y453134D01*
X167850Y453186D01*
X167779Y453235D01*
X167707Y453280D01*
X167633Y453323D01*
X167557Y453361D01*
X167479Y453397D01*
X167399Y453429D01*
X167319Y453457D01*
X167237Y453481D01*
X167154Y453502D01*
X167070Y453519D01*
X166986Y453533D01*
X166901Y453542D01*
X166815Y453548D01*
X166730Y453550D01*
X90530Y453550D02*
X90445Y453548D01*
X90359Y453542D01*
X90274Y453533D01*
X90190Y453519D01*
X90106Y453502D01*
X90023Y453481D01*
X89941Y453457D01*
X89861Y453429D01*
X89781Y453397D01*
X89703Y453361D01*
X89627Y453323D01*
X89553Y453280D01*
X89481Y453235D01*
X89410Y453186D01*
X89342Y453134D01*
X89277Y453080D01*
X89214Y453022D01*
X89153Y452961D01*
X89095Y452898D01*
X89041Y452833D01*
X88989Y452765D01*
X88940Y452694D01*
X88895Y452622D01*
X88852Y452548D01*
X88814Y452472D01*
X88778Y452394D01*
X88746Y452314D01*
X88718Y452234D01*
X88694Y452152D01*
X88673Y452069D01*
X88656Y451985D01*
X88642Y451901D01*
X88633Y451816D01*
X88627Y451730D01*
X88625Y451645D01*
X88627Y451560D01*
X88633Y451474D01*
X88642Y451389D01*
X88656Y451305D01*
X88673Y451221D01*
X88694Y451138D01*
X88718Y451056D01*
X88746Y450976D01*
X88778Y450896D01*
X88814Y450818D01*
X88852Y450742D01*
X88895Y450668D01*
X88940Y450596D01*
X88989Y450525D01*
X89041Y450457D01*
X89095Y450392D01*
X89153Y450329D01*
X89214Y450268D01*
X89277Y450210D01*
X89342Y450156D01*
X89410Y450104D01*
X89481Y450055D01*
X89553Y450010D01*
X89627Y449967D01*
X89703Y449929D01*
X89781Y449893D01*
X89861Y449861D01*
X89941Y449833D01*
X90023Y449809D01*
X90106Y449788D01*
X90190Y449771D01*
X90274Y449757D01*
X90359Y449748D01*
X90445Y449742D01*
X90530Y449740D01*
X119230Y125605D02*
X132230Y125605D01*
X132230Y94105D02*
X119230Y94105D01*
D17*
X102730Y117855D02*
X102732Y117918D01*
X102738Y117980D01*
X102748Y118042D01*
X102761Y118104D01*
X102779Y118164D01*
X102800Y118223D01*
X102825Y118281D01*
X102854Y118337D01*
X102886Y118391D01*
X102921Y118443D01*
X102959Y118492D01*
X103001Y118540D01*
X103045Y118584D01*
X103093Y118626D01*
X103142Y118664D01*
X103194Y118699D01*
X103248Y118731D01*
X103304Y118760D01*
X103362Y118785D01*
X103421Y118806D01*
X103481Y118824D01*
X103543Y118837D01*
X103605Y118847D01*
X103667Y118853D01*
X103730Y118855D01*
X103793Y118853D01*
X103855Y118847D01*
X103917Y118837D01*
X103979Y118824D01*
X104039Y118806D01*
X104098Y118785D01*
X104156Y118760D01*
X104212Y118731D01*
X104266Y118699D01*
X104318Y118664D01*
X104367Y118626D01*
X104415Y118584D01*
X104459Y118540D01*
X104501Y118492D01*
X104539Y118443D01*
X104574Y118391D01*
X104606Y118337D01*
X104635Y118281D01*
X104660Y118223D01*
X104681Y118164D01*
X104699Y118104D01*
X104712Y118042D01*
X104722Y117980D01*
X104728Y117918D01*
X104730Y117855D01*
X104728Y117792D01*
X104722Y117730D01*
X104712Y117668D01*
X104699Y117606D01*
X104681Y117546D01*
X104660Y117487D01*
X104635Y117429D01*
X104606Y117373D01*
X104574Y117319D01*
X104539Y117267D01*
X104501Y117218D01*
X104459Y117170D01*
X104415Y117126D01*
X104367Y117084D01*
X104318Y117046D01*
X104266Y117011D01*
X104212Y116979D01*
X104156Y116950D01*
X104098Y116925D01*
X104039Y116904D01*
X103979Y116886D01*
X103917Y116873D01*
X103855Y116863D01*
X103793Y116857D01*
X103730Y116855D01*
X103667Y116857D01*
X103605Y116863D01*
X103543Y116873D01*
X103481Y116886D01*
X103421Y116904D01*
X103362Y116925D01*
X103304Y116950D01*
X103248Y116979D01*
X103194Y117011D01*
X103142Y117046D01*
X103093Y117084D01*
X103045Y117126D01*
X103001Y117170D01*
X102959Y117218D01*
X102921Y117267D01*
X102886Y117319D01*
X102854Y117373D01*
X102825Y117429D01*
X102800Y117487D01*
X102779Y117546D01*
X102761Y117606D01*
X102748Y117668D01*
X102738Y117730D01*
X102732Y117792D01*
X102730Y117855D01*
D13*
X38735Y210185D02*
X38735Y244475D01*
X40259Y244475D01*
X100711Y244475D02*
X102235Y244475D01*
X102235Y210185D01*
X100711Y210185D01*
X40259Y210185D02*
X38735Y210185D01*
X49911Y244475D02*
X52959Y244475D01*
X62611Y244475D02*
X65659Y244475D01*
X75311Y244475D02*
X78359Y244475D01*
X88011Y244475D02*
X91059Y244475D01*
X91059Y210185D02*
X88011Y210185D01*
X78359Y210185D02*
X75311Y210185D01*
X65659Y210185D02*
X62611Y210185D01*
X52959Y210185D02*
X49911Y210185D01*
D12*
X197803Y132715D02*
X207328Y132715D01*
D16*
X191339Y115291D02*
X183973Y115291D01*
X183973Y117337D01*
X183975Y117426D01*
X183981Y117515D01*
X183991Y117604D01*
X184004Y117692D01*
X184021Y117780D01*
X184043Y117867D01*
X184068Y117952D01*
X184096Y118037D01*
X184129Y118120D01*
X184165Y118202D01*
X184204Y118282D01*
X184247Y118360D01*
X184293Y118436D01*
X184343Y118511D01*
X184396Y118583D01*
X184452Y118652D01*
X184511Y118719D01*
X184572Y118784D01*
X184637Y118845D01*
X184704Y118904D01*
X184773Y118960D01*
X184845Y119013D01*
X184920Y119063D01*
X184996Y119109D01*
X185074Y119152D01*
X185154Y119191D01*
X185236Y119227D01*
X185319Y119260D01*
X185404Y119288D01*
X185489Y119313D01*
X185576Y119335D01*
X185664Y119352D01*
X185752Y119365D01*
X185841Y119375D01*
X185930Y119381D01*
X186019Y119383D01*
X186108Y119381D01*
X186197Y119375D01*
X186286Y119365D01*
X186374Y119352D01*
X186462Y119335D01*
X186549Y119313D01*
X186634Y119288D01*
X186719Y119260D01*
X186802Y119227D01*
X186884Y119191D01*
X186964Y119152D01*
X187042Y119109D01*
X187118Y119063D01*
X187193Y119013D01*
X187265Y118960D01*
X187334Y118904D01*
X187401Y118845D01*
X187466Y118784D01*
X187527Y118719D01*
X187586Y118652D01*
X187642Y118583D01*
X187695Y118511D01*
X187745Y118436D01*
X187791Y118360D01*
X187834Y118282D01*
X187873Y118202D01*
X187909Y118120D01*
X187942Y118037D01*
X187970Y117952D01*
X187995Y117867D01*
X188017Y117780D01*
X188034Y117692D01*
X188047Y117604D01*
X188057Y117515D01*
X188063Y117426D01*
X188065Y117337D01*
X188065Y115291D01*
X188065Y117746D02*
X191339Y119383D01*
X185610Y122555D02*
X183973Y124601D01*
X191339Y124601D01*
X191339Y122555D02*
X191339Y126647D01*
X185610Y129870D02*
X183973Y131916D01*
X191339Y131916D01*
X191339Y129870D02*
X191339Y133962D01*
D12*
X84840Y56040D02*
X84840Y41640D01*
X174240Y41640D02*
X174240Y56040D01*
X174240Y14240D02*
X174240Y1940D01*
X84840Y1940D01*
X84840Y14240D01*
D17*
X94540Y91940D02*
X94542Y92003D01*
X94548Y92065D01*
X94558Y92127D01*
X94571Y92189D01*
X94589Y92249D01*
X94610Y92308D01*
X94635Y92366D01*
X94664Y92422D01*
X94696Y92476D01*
X94731Y92528D01*
X94769Y92577D01*
X94811Y92625D01*
X94855Y92669D01*
X94903Y92711D01*
X94952Y92749D01*
X95004Y92784D01*
X95058Y92816D01*
X95114Y92845D01*
X95172Y92870D01*
X95231Y92891D01*
X95291Y92909D01*
X95353Y92922D01*
X95415Y92932D01*
X95477Y92938D01*
X95540Y92940D01*
X95603Y92938D01*
X95665Y92932D01*
X95727Y92922D01*
X95789Y92909D01*
X95849Y92891D01*
X95908Y92870D01*
X95966Y92845D01*
X96022Y92816D01*
X96076Y92784D01*
X96128Y92749D01*
X96177Y92711D01*
X96225Y92669D01*
X96269Y92625D01*
X96311Y92577D01*
X96349Y92528D01*
X96384Y92476D01*
X96416Y92422D01*
X96445Y92366D01*
X96470Y92308D01*
X96491Y92249D01*
X96509Y92189D01*
X96522Y92127D01*
X96532Y92065D01*
X96538Y92003D01*
X96540Y91940D01*
X96538Y91877D01*
X96532Y91815D01*
X96522Y91753D01*
X96509Y91691D01*
X96491Y91631D01*
X96470Y91572D01*
X96445Y91514D01*
X96416Y91458D01*
X96384Y91404D01*
X96349Y91352D01*
X96311Y91303D01*
X96269Y91255D01*
X96225Y91211D01*
X96177Y91169D01*
X96128Y91131D01*
X96076Y91096D01*
X96022Y91064D01*
X95966Y91035D01*
X95908Y91010D01*
X95849Y90989D01*
X95789Y90971D01*
X95727Y90958D01*
X95665Y90948D01*
X95603Y90942D01*
X95540Y90940D01*
X95477Y90942D01*
X95415Y90948D01*
X95353Y90958D01*
X95291Y90971D01*
X95231Y90989D01*
X95172Y91010D01*
X95114Y91035D01*
X95058Y91064D01*
X95004Y91096D01*
X94952Y91131D01*
X94903Y91169D01*
X94855Y91211D01*
X94811Y91255D01*
X94769Y91303D01*
X94731Y91352D01*
X94696Y91404D01*
X94664Y91458D01*
X94635Y91514D01*
X94610Y91572D01*
X94589Y91631D01*
X94571Y91691D01*
X94558Y91753D01*
X94548Y91815D01*
X94542Y91877D01*
X94540Y91940D01*
M02*
