G04 EAGLE Gerber RS-274X export*
G75*
%MOMM*%
%FSLAX34Y34*%
%LPD*%
%INSoldermask Bottom*%
%IPPOS*%
%AMOC8*
5,1,8,0,0,1.08239X$1,22.5*%
G01*
%ADD10C,2.082800*%
%ADD11R,2.571200X2.606800*%
%ADD12R,1.203200X1.603200*%
%ADD13R,0.743200X0.803200*%
%ADD14R,1.303200X1.203200*%
%ADD15R,3.803200X2.803200*%
%ADD16R,1.003200X0.803200*%
%ADD17C,1.603200*%
%ADD18C,1.361200*%
%ADD19C,0.903200*%


D10*
X14290Y33539D03*
X14290Y58939D03*
X14290Y84339D03*
X14290Y109739D03*
X14290Y135139D03*
X14290Y160539D03*
X14290Y185939D03*
X14290Y211339D03*
X14290Y236739D03*
X14290Y262139D03*
X14290Y287539D03*
X14290Y312939D03*
X14290Y338339D03*
X14290Y363739D03*
X14290Y389139D03*
X14290Y414539D03*
X242570Y34330D03*
X242570Y59730D03*
X242570Y85130D03*
X242570Y110530D03*
X242570Y135930D03*
X242570Y161330D03*
X242570Y186730D03*
X242570Y212130D03*
X242570Y237530D03*
X242570Y262930D03*
X242570Y288330D03*
X242570Y313730D03*
X242570Y339130D03*
X242570Y364530D03*
X242570Y389930D03*
X242570Y415330D03*
D11*
X157945Y408800D03*
X95521Y408800D03*
D12*
X187205Y346125D03*
X196705Y368125D03*
X177705Y368125D03*
D13*
X216045Y419915D03*
X207405Y419915D03*
D14*
X213990Y433600D03*
X196990Y433600D03*
D15*
X127635Y366845D03*
X127635Y73845D03*
D16*
X199190Y384810D03*
X174190Y384810D03*
D13*
X190375Y398780D03*
X181735Y398780D03*
D17*
X102235Y40640D03*
X120015Y40640D03*
X138430Y40005D03*
X156210Y40005D03*
D18*
X86340Y63950D02*
X86340Y75530D01*
X172740Y75530D02*
X172740Y63950D01*
X86340Y33730D02*
X86340Y22150D01*
X172740Y22150D02*
X172740Y33730D01*
D19*
X100640Y64440D03*
X158440Y64440D03*
M02*
