G04 EAGLE Gerber RS-274X export*
G75*
%MOMM*%
%FSLAX34Y34*%
%LPD*%
%INSolderpaste Top*%
%IPPOS*%
%AMOC8*
5,1,8,0,0,1.08239X$1,22.5*%
G01*
%ADD10R,0.260000X0.560000*%
%ADD11R,0.560000X0.260000*%
%ADD12R,0.400000X0.400000*%
%ADD13R,0.550000X1.200000*%
%ADD14R,1.000000X0.900000*%
%ADD15R,0.900000X1.000000*%
%ADD16C,0.300000*%
%ADD17R,0.540000X0.600000*%
%ADD18R,1.100000X1.000000*%
%ADD19R,0.600000X0.540000*%
%ADD20R,1.000000X1.100000*%
%ADD21C,0.200000*%
%ADD22R,0.700000X1.500000*%
%ADD23R,1.500000X0.700000*%
%ADD24C,0.247500*%
%ADD25C,0.147500*%
%ADD26R,0.508000X1.270000*%
%ADD27R,0.600000X1.450000*%
%ADD28R,0.300000X1.450000*%


D10*
X105940Y141800D03*
X110940Y141800D03*
X115940Y141800D03*
X120940Y141800D03*
X125940Y141800D03*
X130940Y141800D03*
X135940Y141800D03*
D11*
X143940Y149800D03*
X143940Y154800D03*
X143940Y159800D03*
X143940Y164800D03*
X143940Y169800D03*
X143940Y174800D03*
X143940Y179800D03*
D10*
X135940Y187800D03*
X130940Y187800D03*
X125940Y187800D03*
X120940Y187800D03*
X115940Y187800D03*
X110940Y187800D03*
X105940Y187800D03*
D11*
X97940Y179800D03*
X97940Y174800D03*
X97940Y169800D03*
X97940Y164800D03*
X97940Y159800D03*
X97940Y154800D03*
X97940Y149800D03*
D10*
X108440Y154800D03*
X108440Y164800D03*
X108440Y174800D03*
X113440Y154800D03*
X113440Y164800D03*
X113440Y174800D03*
X118440Y154800D03*
X118440Y164800D03*
X118440Y174800D03*
X123440Y154800D03*
X123440Y164800D03*
X123440Y174800D03*
X128440Y154800D03*
X128440Y164800D03*
X128440Y174800D03*
X133440Y154800D03*
X133440Y164800D03*
X133440Y174800D03*
D12*
X99940Y143800D03*
D13*
X193885Y200789D03*
X203385Y200789D03*
X212885Y200789D03*
X212885Y226791D03*
X193885Y226791D03*
D14*
X49635Y85530D03*
X65635Y85530D03*
X65635Y44530D03*
X49635Y44530D03*
D15*
X162395Y234955D03*
X162395Y218955D03*
X121395Y218955D03*
X121395Y234955D03*
D16*
X60280Y18725D02*
X60280Y11725D01*
X60280Y18725D02*
X67280Y18725D01*
X67280Y11725D01*
X60280Y11725D01*
X60280Y14575D02*
X67280Y14575D01*
X67280Y17425D02*
X60280Y17425D01*
X42740Y18725D02*
X42740Y11725D01*
X42740Y18725D02*
X49740Y18725D01*
X49740Y11725D01*
X42740Y11725D01*
X42740Y14575D02*
X49740Y14575D01*
X49740Y17425D02*
X42740Y17425D01*
X197720Y18945D02*
X197720Y11945D01*
X190720Y11945D01*
X190720Y18945D01*
X197720Y18945D01*
X197720Y14795D02*
X190720Y14795D01*
X190720Y17645D02*
X197720Y17645D01*
X215260Y18945D02*
X215260Y11945D01*
X208260Y11945D01*
X208260Y18945D01*
X215260Y18945D01*
X215260Y14795D02*
X208260Y14795D01*
X208260Y17645D02*
X215260Y17645D01*
D17*
X202785Y28115D03*
X194145Y28115D03*
X55675Y28145D03*
X64315Y28145D03*
D18*
X193515Y185675D03*
X210515Y185675D03*
X194540Y241730D03*
X211540Y241730D03*
D14*
X192120Y85530D03*
X208120Y85530D03*
X208120Y44530D03*
X192120Y44530D03*
D19*
X180145Y217250D03*
X180145Y208610D03*
X94020Y111420D03*
X94020Y102780D03*
X94080Y123655D03*
X94080Y132295D03*
X157515Y122385D03*
X157515Y131025D03*
D20*
X173085Y142160D03*
X173085Y159160D03*
D19*
X159115Y161405D03*
X159115Y152765D03*
D21*
X51790Y167565D02*
X42890Y167565D01*
X42890Y169565D01*
X51790Y169565D01*
X51790Y167565D01*
X51790Y169465D02*
X42890Y169465D01*
X42890Y161065D02*
X51790Y161065D01*
X42890Y161065D02*
X42890Y163065D01*
X51790Y163065D01*
X51790Y161065D01*
X51790Y162965D02*
X42890Y162965D01*
X42890Y154565D02*
X51790Y154565D01*
X42890Y154565D02*
X42890Y156565D01*
X51790Y156565D01*
X51790Y154565D01*
X51790Y156465D02*
X42890Y156465D01*
X61290Y156565D02*
X70190Y156565D01*
X70190Y154565D01*
X61290Y154565D01*
X61290Y156565D01*
X61290Y156465D02*
X70190Y156465D01*
X70190Y163065D02*
X61290Y163065D01*
X70190Y163065D02*
X70190Y161065D01*
X61290Y161065D01*
X61290Y163065D01*
X61290Y162965D02*
X70190Y162965D01*
X70190Y169565D02*
X61290Y169565D01*
X70190Y169565D02*
X70190Y167565D01*
X61290Y167565D01*
X61290Y169565D01*
X61290Y169465D02*
X70190Y169465D01*
D19*
X157840Y110150D03*
X157840Y101510D03*
D22*
X69730Y271545D03*
X82430Y271545D03*
X95130Y271545D03*
X107830Y271545D03*
X120530Y271545D03*
X133230Y271545D03*
X145930Y271545D03*
X158630Y271545D03*
X171330Y271545D03*
X184030Y271545D03*
D23*
X43060Y280435D03*
X43060Y293135D03*
X43060Y305835D03*
X43060Y318535D03*
X43060Y331235D03*
X43060Y343935D03*
X43060Y356635D03*
X43060Y369335D03*
X43060Y382035D03*
X43060Y394735D03*
X43060Y407435D03*
X43060Y420135D03*
X43060Y432835D03*
X211970Y280435D03*
X211970Y293135D03*
X211970Y305835D03*
X211970Y318535D03*
X211970Y331235D03*
X211970Y343935D03*
X211970Y356635D03*
X211970Y369335D03*
X211970Y382035D03*
X211970Y394735D03*
X211970Y407435D03*
X211970Y420135D03*
X211970Y432835D03*
D24*
X120143Y113742D02*
X110217Y113742D01*
X110217Y121168D01*
X120143Y121168D01*
X120143Y113742D01*
X120143Y116093D02*
X110217Y116093D01*
X110217Y118444D02*
X120143Y118444D01*
X120143Y120795D02*
X110217Y120795D01*
D25*
X109717Y98042D02*
X120643Y98042D01*
X109717Y98042D02*
X109717Y102468D01*
X120643Y102468D01*
X120643Y98042D01*
X120643Y99443D02*
X109717Y99443D01*
X109717Y100844D02*
X120643Y100844D01*
X120643Y102245D02*
X109717Y102245D01*
X130817Y98042D02*
X141743Y98042D01*
X130817Y98042D02*
X130817Y102468D01*
X141743Y102468D01*
X141743Y98042D01*
X141743Y99443D02*
X130817Y99443D01*
X130817Y100844D02*
X141743Y100844D01*
X141743Y102245D02*
X130817Y102245D01*
X130817Y117242D02*
X141743Y117242D01*
X130817Y117242D02*
X130817Y121668D01*
X141743Y121668D01*
X141743Y117242D01*
X141743Y118643D02*
X130817Y118643D01*
X130817Y120044D02*
X141743Y120044D01*
X141743Y121445D02*
X130817Y121445D01*
D26*
X70485Y251460D03*
X83185Y251460D03*
X95885Y251460D03*
X57785Y251460D03*
X45085Y251460D03*
X45085Y203200D03*
X57785Y203200D03*
X70485Y203200D03*
X83185Y203200D03*
X95885Y203200D03*
D16*
X199065Y143320D02*
X206065Y143320D01*
X206065Y136320D01*
X199065Y136320D01*
X199065Y143320D01*
X199065Y139170D02*
X206065Y139170D01*
X206065Y142020D02*
X199065Y142020D01*
X199065Y160860D02*
X206065Y160860D01*
X206065Y153860D01*
X199065Y153860D01*
X199065Y160860D01*
X199065Y156710D02*
X206065Y156710D01*
X206065Y159560D02*
X199065Y159560D01*
D19*
X187325Y148465D03*
X187325Y139825D03*
D27*
X97040Y78890D03*
X105040Y78890D03*
D28*
X127040Y78890D03*
X122040Y78890D03*
X117040Y78890D03*
X112040Y78890D03*
X132040Y78890D03*
X137040Y78890D03*
X142040Y78890D03*
X147040Y78890D03*
D27*
X154040Y78890D03*
X162040Y78890D03*
M02*
