G04 EAGLE Gerber RS-274X export*
G75*
%MOMM*%
%FSLAX34Y34*%
%LPD*%
%INSoldermask Top*%
%IPPOS*%
%AMOC8*
5,1,8,0,0,1.08239X$1,22.5*%
G01*
%ADD10C,2.082800*%
%ADD11R,0.300000X0.600000*%
%ADD12R,0.600000X0.300000*%
%ADD13R,0.500000X0.500000*%
%ADD14R,0.753200X1.403200*%
%ADD15R,1.203200X1.103200*%
%ADD16R,1.103200X1.203200*%
%ADD17C,0.505344*%
%ADD18R,0.743200X0.803200*%
%ADD19R,1.303200X1.203200*%
%ADD20R,0.803200X0.743200*%
%ADD21R,1.203200X1.303200*%
%ADD22C,0.404144*%
%ADD23R,0.903200X1.703200*%
%ADD24R,1.703200X0.903200*%
%ADD25C,0.453416*%
%ADD26C,0.349006*%
%ADD27R,0.711200X1.473200*%
%ADD28R,0.803200X1.653200*%
%ADD29R,0.503200X1.653200*%
%ADD30C,1.361200*%
%ADD31C,0.903200*%


D10*
X14290Y33539D03*
X14290Y58939D03*
X14290Y84339D03*
X14290Y109739D03*
X14290Y135139D03*
X14290Y160539D03*
X14290Y185939D03*
X14290Y211339D03*
X14290Y236739D03*
X14290Y262139D03*
X14290Y287539D03*
X14290Y312939D03*
X14290Y338339D03*
X14290Y363739D03*
X14290Y389139D03*
X14290Y414539D03*
X242570Y34330D03*
X242570Y59730D03*
X242570Y85130D03*
X242570Y110530D03*
X242570Y135930D03*
X242570Y161330D03*
X242570Y186730D03*
X242570Y212130D03*
X242570Y237530D03*
X242570Y262930D03*
X242570Y288330D03*
X242570Y313730D03*
X242570Y339130D03*
X242570Y364530D03*
X242570Y389930D03*
X242570Y415330D03*
D11*
X105940Y141800D03*
X110940Y141800D03*
X115940Y141800D03*
X120940Y141800D03*
X125940Y141800D03*
X130940Y141800D03*
X135940Y141800D03*
D12*
X143940Y149800D03*
X143940Y154800D03*
X143940Y159800D03*
X143940Y164800D03*
X143940Y169800D03*
X143940Y174800D03*
X143940Y179800D03*
D11*
X135940Y187800D03*
X130940Y187800D03*
X125940Y187800D03*
X120940Y187800D03*
X115940Y187800D03*
X110940Y187800D03*
X105940Y187800D03*
D12*
X97940Y179800D03*
X97940Y174800D03*
X97940Y169800D03*
X97940Y164800D03*
X97940Y159800D03*
X97940Y154800D03*
X97940Y149800D03*
D13*
X99915Y143775D03*
D11*
X108440Y154800D03*
X108440Y164800D03*
X108440Y174800D03*
X113440Y154800D03*
X113440Y164800D03*
X113440Y174800D03*
X118440Y154800D03*
X118440Y164800D03*
X118440Y174800D03*
X123440Y154800D03*
X123440Y164800D03*
X123440Y174800D03*
X128440Y154800D03*
X128440Y164800D03*
X128440Y174800D03*
X133440Y154800D03*
X133440Y164800D03*
X133440Y174800D03*
D14*
X193885Y200789D03*
X203385Y200789D03*
X212885Y200789D03*
X212885Y226791D03*
X193885Y226791D03*
D15*
X49635Y85530D03*
X65635Y85530D03*
X65635Y44530D03*
X49635Y44530D03*
D16*
X162395Y234955D03*
X162395Y218955D03*
X121395Y218955D03*
X121395Y234955D03*
D17*
X60290Y18715D02*
X60290Y11735D01*
X60290Y18715D02*
X67270Y18715D01*
X67270Y11735D01*
X60290Y11735D01*
X60290Y16535D02*
X67270Y16535D01*
X42750Y18715D02*
X42750Y11735D01*
X42750Y18715D02*
X49730Y18715D01*
X49730Y11735D01*
X42750Y11735D01*
X42750Y16535D02*
X49730Y16535D01*
X197710Y18935D02*
X197710Y11955D01*
X190730Y11955D01*
X190730Y18935D01*
X197710Y18935D01*
X197710Y16755D02*
X190730Y16755D01*
X215250Y18935D02*
X215250Y11955D01*
X208270Y11955D01*
X208270Y18935D01*
X215250Y18935D01*
X215250Y16755D02*
X208270Y16755D01*
D18*
X202785Y28115D03*
X194145Y28115D03*
X55675Y28145D03*
X64315Y28145D03*
D19*
X193515Y185675D03*
X210515Y185675D03*
X194540Y241730D03*
X211540Y241730D03*
D15*
X192120Y85530D03*
X208120Y85530D03*
X208120Y44530D03*
X192120Y44530D03*
D20*
X180145Y217250D03*
X180145Y208610D03*
X94020Y111420D03*
X94020Y102780D03*
X94080Y123655D03*
X94080Y132295D03*
X157515Y122385D03*
X157515Y131025D03*
D21*
X173085Y142160D03*
X173085Y159160D03*
D20*
X159115Y161405D03*
X159115Y152765D03*
D22*
X51786Y167569D02*
X42894Y167569D01*
X42894Y169561D01*
X51786Y169561D01*
X51786Y167569D01*
X51786Y161069D02*
X42894Y161069D01*
X42894Y163061D01*
X51786Y163061D01*
X51786Y161069D01*
X51786Y154569D02*
X42894Y154569D01*
X42894Y156561D01*
X51786Y156561D01*
X51786Y154569D01*
X61294Y156561D02*
X70186Y156561D01*
X70186Y154569D01*
X61294Y154569D01*
X61294Y156561D01*
X61294Y163061D02*
X70186Y163061D01*
X70186Y161069D01*
X61294Y161069D01*
X61294Y163061D01*
X61294Y169561D02*
X70186Y169561D01*
X70186Y167569D01*
X61294Y167569D01*
X61294Y169561D01*
D20*
X157840Y110150D03*
X157840Y101510D03*
D23*
X69730Y271545D03*
X82430Y271545D03*
X95130Y271545D03*
X107830Y271545D03*
X120530Y271545D03*
X133230Y271545D03*
X145930Y271545D03*
X158630Y271545D03*
X171330Y271545D03*
X184030Y271545D03*
D24*
X43060Y280435D03*
X43060Y293135D03*
X43060Y305835D03*
X43060Y318535D03*
X43060Y331235D03*
X43060Y343935D03*
X43060Y356635D03*
X43060Y369335D03*
X43060Y382035D03*
X43060Y394735D03*
X43060Y407435D03*
X43060Y420135D03*
X43060Y432835D03*
X211970Y280435D03*
X211970Y293135D03*
X211970Y305835D03*
X211970Y318535D03*
X211970Y331235D03*
X211970Y343935D03*
X211970Y356635D03*
X211970Y369335D03*
X211970Y382035D03*
X211970Y394735D03*
X211970Y407435D03*
X211970Y420135D03*
X211970Y432835D03*
D25*
X120129Y113756D02*
X110231Y113756D01*
X110231Y121154D01*
X120129Y121154D01*
X120129Y113756D01*
X120129Y118063D02*
X110231Y118063D01*
D26*
X109709Y98034D02*
X120651Y98034D01*
X109709Y98034D02*
X109709Y102476D01*
X120651Y102476D01*
X120651Y98034D01*
X120651Y101349D02*
X109709Y101349D01*
X130809Y98034D02*
X141751Y98034D01*
X130809Y98034D02*
X130809Y102476D01*
X141751Y102476D01*
X141751Y98034D01*
X141751Y101349D02*
X130809Y101349D01*
X130809Y117234D02*
X141751Y117234D01*
X130809Y117234D02*
X130809Y121676D01*
X141751Y121676D01*
X141751Y117234D01*
X141751Y120549D02*
X130809Y120549D01*
D27*
X70485Y251460D03*
X83185Y251460D03*
X95885Y251460D03*
X57785Y251460D03*
X45085Y251460D03*
X45085Y203200D03*
X57785Y203200D03*
X70485Y203200D03*
X83185Y203200D03*
X95885Y203200D03*
D17*
X199075Y143310D02*
X206055Y143310D01*
X206055Y136330D01*
X199075Y136330D01*
X199075Y143310D01*
X199075Y141130D02*
X206055Y141130D01*
X206055Y160850D02*
X199075Y160850D01*
X206055Y160850D02*
X206055Y153870D01*
X199075Y153870D01*
X199075Y160850D01*
X199075Y158670D02*
X206055Y158670D01*
D20*
X187325Y148465D03*
X187325Y139825D03*
D28*
X97040Y78890D03*
X105040Y78890D03*
D29*
X127040Y78890D03*
X122040Y78890D03*
X117040Y78890D03*
X112040Y78890D03*
X132040Y78890D03*
X137040Y78890D03*
X142040Y78890D03*
X147040Y78890D03*
D28*
X154040Y78890D03*
X162040Y78890D03*
D30*
X86340Y75530D02*
X86340Y63950D01*
X172740Y63950D02*
X172740Y75530D01*
X86340Y33730D02*
X86340Y22150D01*
X172740Y22150D02*
X172740Y33730D01*
D31*
X100640Y64440D03*
X158440Y64440D03*
M02*
