M48
;GenerationSoftware,Autodesk,EAGLE,9.6.2*%
;CreationDate,2021-11-19T06:54:44Z*%
FMAT,2
ICI,OFF
METRIC,TZ,000.000
T4C0.300
T3C0.650
T2C0.700
T1C1.016
%
G90
M71
T1
X24257Y8513
X24257Y38993
X24257Y41533
X1429Y3354
X1429Y5894
X1429Y8434
X1429Y10974
X1429Y13514
X1429Y16054
X1429Y18594
X1429Y21134
X1429Y23674
X1429Y26214
X1429Y28754
X1429Y31294
X1429Y33834
X1429Y36374
X1429Y38914
X1429Y41454
X24257Y3433
X24257Y5973
X24257Y11053
X24257Y13593
X24257Y16133
X24257Y18673
X24257Y21213
X24257Y23753
X24257Y26293
X24257Y28833
X24257Y31373
X24257Y33913
X24257Y36453
T2
X10064Y6444
X15844Y6444
T3
X8634Y6974
X17274Y6974
X8634Y2794
X17274Y2794
T4
X9906Y42736
X10985Y42736
X12065Y42672
X13144Y42672
X14287Y42672
X15367Y42672
X16637Y42672
X17971Y42672
X5905Y26479
X20257Y26352
X6731Y41656
X13970Y39878
X11620Y39878
X20003Y6540
X21527Y10033
X5778Y6540
X14224Y22669
X21273Y21209
X17018Y20892
X14160Y11049
X16828Y10097
X14541Y13970
X16701Y18542
X12700Y5524
X14224Y5524
X10414Y10668
X6096Y22098
X22479Y40767
X7810Y17780
X22606Y43307
X19304Y10795
X18161Y25336
X19939Y33147
X19939Y31877
X19939Y30607
X8827Y15748
X5588Y40704
X8827Y16701
X5588Y39434
X16447Y5334
X5588Y36894
X14668Y2286
X5588Y35624
X3302Y1905
X22352Y1524
X5588Y31813
X5588Y30607
X5588Y29337
X6985Y28448
X8255Y28448
X9525Y28448
X15875Y28448
X17145Y28448
X18415Y28448
X5334Y22860
X10795Y28448
X5778Y24003
X12065Y28448
X13335Y28448
X7048Y24003
X14605Y28448
X8319Y24003
X5715Y43751
X6731Y43751
X7747Y43751
X8827Y43751
X9906Y43751
X10985Y43751
X12065Y43751
X13144Y43751
X14287Y43751
X15367Y43751
X16637Y43751
X4382Y14097
X4382Y11493
X11620Y20066
X13398Y20066
X15367Y20066
X16510Y25336
X9462Y30035
X9462Y32258
X12001Y32258
X16701Y36767
X14351Y32258
X17018Y32258
X12001Y30035
X14351Y30035
X17018Y30035
X7239Y14097
X7302Y11493
X8700Y22352
X10922Y24828
X10922Y22352
X21463Y16065
X21463Y14541
X21463Y13017
X8827Y42736
X7747Y42736
X6731Y42799
X5715Y42799
M30